<?xml version="1.0" encoding="utf-8"?>
<!-- Generator: Adobe Illustrator 25.2.3, SVG Export Plug-In . SVG Version: 6.00 Build 0)  -->
<svg version="1.1" id="Vrstva_1" xmlns="http://www.w3.org/2000/svg" xmlns:xlink="http://www.w3.org/1999/xlink" x="0px" y="0px"
	 viewBox="0 0 1280 870" style="enable-background:new 0 0 1280 870;" xml:space="preserve">
<style type="text/css">
	.st0{clip-path:url(#SVGID_2_);}
	.st1{opacity:0.4;}
	.st2{opacity:0.9;}
	.st3{fill:#4C4C4C;}
	.st4{opacity:0.76;}
	.st5{opacity:0.18;}
	.st6{fill:#BABABA;}
	.st7{opacity:0.22;}
</style>
<g>
	<g>
		<defs>
			<polygon id="SVGID_1_" points="1280,653.6 0,870 0,0 1280,0 			"/>
		</defs>
		<clipPath id="SVGID_2_">
			<use xlink:href="#SVGID_1_"  style="overflow:visible;"/>
		</clipPath>
		<g class="st0">
			<g>
				<defs>
					<rect id="SVGID_3_" x="-5" y="-5" width="1290" height="880"/>
				</defs>
				<clipPath id="SVGID_4_">
					<use xlink:href="#SVGID_3_"  style="overflow:visible;"/>
				</clipPath>
				<g style="clip-path:url(#SVGID_4_);">
					
						<image style="overflow:visible;" width="2688" height="1835" xlink:href="B5B3DD11.jpg"  transform="matrix(0.48 0 0 0.48 -5.1717 -5.4487)">
					</image>
				</g>
			</g>
		</g>
	</g>
</g>
<g class="st1">
	<g class="st2">
		<path class="st3" d="M283.2,593.7v58.1h-41.5v-14.2c-5.1,10.9-15.4,16.2-30.6,16.2c-26.5,0-40.1-15-40.1-33.6
			c0-20.9,15.8-32.6,49.4-32.6h18c-1.4-8.3-7.7-12.6-20.4-12.6c-9.7,0-20.5,3.2-27.7,8.5L176.1,554c12.6-7.9,31.8-12.3,48.6-12.3
			C261.8,541.7,283.2,557.7,283.2,593.7z M238.5,616.6v-7.5h-11.1c-9.5,0-13.6,3.2-13.6,9.1c0,4.9,4,8.7,10.7,8.7
			C230.6,626.9,236.1,623.7,238.5,616.6z"/>
		<path class="st3" d="M298.8,597.7c0-32.8,26.5-55.9,63.8-55.9c26.3,0,46,12.1,53.2,32l-34.6,17c-4.5-10.1-11.1-14.2-18.8-14.2
			c-10.1,0-18.4,7.1-18.4,21.1c0,14.2,8.3,21.3,18.4,21.3c7.7,0,14.2-4.1,18.8-14.2l34.6,17c-7.1,20-26.9,32-53.2,32
			C325.3,653.8,298.8,630.7,298.8,597.7z"/>
		<path class="st3" d="M532.9,593.7v58.1h-41.5v-14.2c-5.1,10.9-15.4,16.2-30.6,16.2c-26.5,0-40.1-15-40.1-33.6
			c0-20.9,15.8-32.6,49.4-32.6h18c-1.4-8.3-7.7-12.6-20.4-12.6c-9.7,0-20.5,3.2-27.7,8.5L425.8,554c12.6-7.9,31.8-12.3,48.6-12.3
			C511.6,541.7,532.9,557.7,532.9,593.7z M488.3,616.6v-7.5h-11.1c-9.5,0-13.6,3.2-13.6,9.1c0,4.9,4,8.7,10.7,8.7
			C480.4,626.9,485.9,623.7,488.3,616.6z"/>
		<path class="st3" d="M673.8,505.2v146.6h-42.5v-8.9c-6.5,7.3-16.2,10.9-29.6,10.9c-28.3,0-52.2-21.3-52.2-56.1
			s23.9-55.9,52.2-55.9c11.9,0,20.9,3,27.5,9.3v-45.8H673.8z M629.9,597.7c0-14-7.7-21.1-17.6-21.1c-9.9,0-17.6,7.1-17.6,21.1
			s7.7,21.3,17.6,21.3C622.2,619,629.9,611.7,629.9,597.7z"/>
		<path class="st3" d="M808,608.1h-75.1c3.2,8.3,10.7,12.6,21.7,12.6c9.9,0,15.4-2.6,22.5-7.9l23.3,23.5
			c-10.5,11.5-25.7,17.4-47.2,17.4c-39.7,0-65.4-23.9-65.4-56.1c0-32.8,26.3-55.9,61.3-55.9c32,0,59.5,19.4,59.5,55.9
			C808.5,600.8,808.1,605,808,608.1z M732.1,586.6h34.8c-1.8-9.1-8.3-14.4-17.4-14.4C740.2,572.2,733.9,577.5,732.1,586.6z"/>
		<path class="st3" d="M1008.7,590.1v61.6H964v-53.9c0-13.4-4.9-18.6-12.1-18.6c-7.9,0-14,5.3-14,19.8v52.8h-44.7v-53.9
			c0-13.4-4.5-18.6-12.1-18.6c-7.9,0-14,5.3-14,19.8v52.8h-44.7V543.7h42.5v10.1c8.1-8.1,18.8-12.1,30.6-12.1
			c14,0,26.3,5.1,33.8,16.4c8.7-10.5,21.3-16.4,36.2-16.4C990.1,541.7,1008.7,556.2,1008.7,590.1z"/>
		<path class="st3" d="M1146.4,543.7L1102,654c-11.9,29.6-29.2,38.1-52.2,38.1c-11.9,0-25.5-3.8-32.8-9.7l14.8-30.6
			c4.3,3.4,10.5,5.7,15.8,5.7c5.3,0,8.7-1.6,11.1-4.3l-45.4-109.5h45.8l22.3,57.9l22.7-57.9H1146.4z"/>
	</g>
	<g class="st4">
		<path class="st3" d="M853.2,153.1v61.6h-44.7v-53.9c0-13.4-4.9-18.6-12.1-18.6c-7.9,0-14,5.3-14,19.8v52.8h-44.7v-53.9
			c0-13.4-4.5-18.6-12.1-18.6c-7.9,0-14,5.3-14,19.8v52.8h-44.7V106.7h42.5v10.1c8.1-8.1,18.8-12.1,30.6-12.1
			c14,0,26.3,5.1,33.8,16.4c8.7-10.5,21.3-16.4,36.2-16.4C834.6,104.7,853.2,119.1,853.2,153.1z"/>
		<path class="st3" d="M868.8,160.6c0-32.8,26.3-55.9,62.8-55.9c36.8,0,62.8,23.1,62.8,55.9s-26.1,56.1-62.8,56.1
			C895.1,216.7,868.8,193.4,868.8,160.6z M949.2,160.6c0-14-7.7-21.1-17.6-21.1c-9.9,0-17.6,7.1-17.6,21.1c0,14,7.7,21.3,17.6,21.3
			C941.5,181.9,949.2,174.6,949.2,160.6z"/>
		<path class="st3" d="M1088.1,211c-6.9,4-17,5.7-27.5,5.7c-29.8,0-47.2-14-47.2-43.9v-27.7h-14.8v-32.6h14.8V82.4h44.7v30.2h22.1
			v32.6h-22.1v27.3c0,6.7,4,10.5,9.3,10.5c3.6,0,7.1-1,10.1-3L1088.1,211z"/>
		<path class="st3" d="M1090.7,160.6c0-32.8,26.3-55.9,62.8-55.9c36.8,0,62.8,23.1,62.8,55.9s-26.1,56.1-62.8,56.1
			C1117,216.7,1090.7,193.4,1090.7,160.6z M1171.1,160.6c0-14-7.7-21.1-17.6-21.1c-9.9,0-17.6,7.1-17.6,21.1
			c0,14,7.7,21.3,17.6,21.3C1163.4,181.9,1171.1,174.6,1171.1,160.6z"/>
	</g>
	<g class="st5">
		<path class="st6" d="M333.5,434.6l15-34c13,7.7,30.4,12.6,45.6,12.6c13.2,0,18-2.8,18-7.5c0-17.4-76.5-3.4-76.5-54.9
			c0-25.7,21.5-46.6,64.4-46.6c18.6,0,37.7,4,52.2,12.1l-14,33.8c-13.6-6.9-26.5-10.3-38.5-10.3c-13.6,0-18,4-18,8.7
			c0,16.6,76.5,2.8,76.5,53.7c0,25.3-21.5,46.6-64.4,46.6C370.7,448.8,347.4,443.1,333.5,434.6z"/>
		<path class="st6" d="M500.1,343.5h-40.5v-36.2h127.6v36.2h-40.5v102.2h-46.6V343.5z"/>
		<path class="st6" d="M677.5,395.4v50.2h-46.6v-50.8l-52.2-87.5h49.2l28.3,47.8l28.5-47.8h45.1L677.5,395.4z"/>
		<path class="st6" d="M735.6,307.3h46.6v102.2h62.4v36.2H735.6V307.3z"/>
		<path class="st6" d="M972.5,410.5v35.2h-115V307.3H970v35.2h-66.6v16.2h58.5v33.6h-58.5v18.2H972.5z"/>
	</g>
	<g class="st7">
		<path class="st6" d="M145.6,114.7v23.7h57.7v35.2h-57.7v44.3H99V79.5h112.4v35.2H145.6z"/>
		<path class="st6" d="M285.5,183.1h-12.6v34.8h-46.6V79.5h66.6c38.5,0,63,20.2,63,52.2c0,20-9.5,35-26.1,43.5l29,42.7H309
			L285.5,183.1z M289.9,115.5h-17v32.4h17c12.8,0,19-6.1,19-16.2C308.8,121.6,302.7,115.5,289.9,115.5z"/>
		<path class="st6" d="M488.4,182.7v35.2h-115V79.5h112.4v35.2h-66.6v16.2h58.5v33.6h-58.5v18.2H488.4z"/>
		<path class="st6" d="M621.4,182.7v35.2h-115V79.5h112.4v35.2h-66.6v16.2h58.5v33.6h-58.5v18.2H621.4z"/>
	</g>
</g>
</svg>
