<?xml version="1.0" encoding="utf-8"?>
<!-- Generator: Adobe Illustrator 25.2.3, SVG Export Plug-In . SVG Version: 6.00 Build 0)  -->
<svg version="1.1" id="Vrstva_1" xmlns="http://www.w3.org/2000/svg" xmlns:xlink="http://www.w3.org/1999/xlink" x="0px" y="0px"
	 viewBox="0 0 600 600" style="enable-background:new 0 0 600 600;" xml:space="preserve">
<style type="text/css">
	.st0{fill:#FFFFFF;}
	.st1{fill-rule:evenodd;clip-rule:evenodd;fill:#FFFFFF;}
</style>
<g>
	<path class="st0" d="M202.5,326.6c-0.8-0.8-1.8-1.3-2.9-1.3c-1.3,0-2.3,0.5-3.1,1.5c-0.6,0.8-1,1.7-1,2.8c0,1.1,0.3,2,1,2.8
		c0.8,1,1.8,1.5,3.1,1.5c1.1,0,2.1-0.4,2.9-1.3c0.8-0.8,1.2-1.9,1.2-3.1C203.7,328.4,203.3,327.4,202.5,326.6z M202.5,326.6
		c-0.8-0.8-1.8-1.3-2.9-1.3c-1.3,0-2.3,0.5-3.1,1.5c-0.6,0.8-1,1.7-1,2.8c0,1.1,0.3,2,1,2.8c0.8,1,1.8,1.5,3.1,1.5
		c1.1,0,2.1-0.4,2.9-1.3c0.8-0.8,1.2-1.9,1.2-3.1C203.7,328.4,203.3,327.4,202.5,326.6z M239.2,326.6c-0.8-0.8-1.8-1.3-2.9-1.3
		c-1.3,0-2.3,0.5-3.1,1.5c-0.7,0.8-1,1.7-1,2.8c0,1.1,0.3,2,1,2.8c0.8,1,1.8,1.5,3.1,1.5c1.1,0,2.1-0.4,2.9-1.3
		c0.8-0.8,1.2-1.9,1.2-3.1C240.4,328.4,240,327.4,239.2,326.6z M239.2,326.6c-0.8-0.8-1.8-1.3-2.9-1.3c-1.3,0-2.3,0.5-3.1,1.5
		c-0.7,0.8-1,1.7-1,2.8c0,1.1,0.3,2,1,2.8c0.8,1,1.8,1.5,3.1,1.5c1.1,0,2.1-0.4,2.9-1.3c0.8-0.8,1.2-1.9,1.2-3.1
		C240.4,328.4,240,327.4,239.2,326.6z M202.5,326.6c-0.8-0.8-1.8-1.3-2.9-1.3c-1.3,0-2.3,0.5-3.1,1.5c-0.6,0.8-1,1.7-1,2.8
		c0,1.1,0.3,2,1,2.8c0.8,1,1.8,1.5,3.1,1.5c1.1,0,2.1-0.4,2.9-1.3c0.8-0.8,1.2-1.9,1.2-3.1C203.7,328.4,203.3,327.4,202.5,326.6z
		 M239.2,326.6c-0.8-0.8-1.8-1.3-2.9-1.3c-1.3,0-2.3,0.5-3.1,1.5c-0.7,0.8-1,1.7-1,2.8c0,1.1,0.3,2,1,2.8c0.8,1,1.8,1.5,3.1,1.5
		c1.1,0,2.1-0.4,2.9-1.3c0.8-0.8,1.2-1.9,1.2-3.1C240.4,328.4,240,327.4,239.2,326.6z M239.2,326.6c-0.8-0.8-1.8-1.3-2.9-1.3
		c-1.3,0-2.3,0.5-3.1,1.5c-0.7,0.8-1,1.7-1,2.8c0,1.1,0.3,2,1,2.8c0.8,1,1.8,1.5,3.1,1.5c1.1,0,2.1-0.4,2.9-1.3
		c0.8-0.8,1.2-1.9,1.2-3.1C240.4,328.4,240,327.4,239.2,326.6z M202.5,326.6c-0.8-0.8-1.8-1.3-2.9-1.3c-1.3,0-2.3,0.5-3.1,1.5
		c-0.6,0.8-1,1.7-1,2.8c0,1.1,0.3,2,1,2.8c0.8,1,1.8,1.5,3.1,1.5c1.1,0,2.1-0.4,2.9-1.3c0.8-0.8,1.2-1.9,1.2-3.1
		C203.7,328.4,203.3,327.4,202.5,326.6z M239.2,326.6c-0.8-0.8-1.8-1.3-2.9-1.3c-1.3,0-2.3,0.5-3.1,1.5c-0.7,0.8-1,1.7-1,2.8
		c0,1.1,0.3,2,1,2.8c0.8,1,1.8,1.5,3.1,1.5c1.1,0,2.1-0.4,2.9-1.3c0.8-0.8,1.2-1.9,1.2-3.1C240.4,328.4,240,327.4,239.2,326.6z
		 M239.2,326.6c-0.8-0.8-1.8-1.3-2.9-1.3c-1.3,0-2.3,0.5-3.1,1.5c-0.7,0.8-1,1.7-1,2.8c0,1.1,0.3,2,1,2.8c0.8,1,1.8,1.5,3.1,1.5
		c1.1,0,2.1-0.4,2.9-1.3c0.8-0.8,1.2-1.9,1.2-3.1C240.4,328.4,240,327.4,239.2,326.6z M503,491.9C503,491.9,503,491.9,503,491.9
		c-0.2-0.5-0.3-0.8-0.4-1c0,0,0,0,0-0.1c0,0,0,0,0,0c0,0,0-0.1,0-0.1c-10.1-30-16.3-44.5-19.8-51.6c-0.7-1.5-1.3-2.6-1.8-3.5
		c0,0,0,0,0,0c-1.3-2.3-1.8-2.8-1.8-2.8c-0.6-0.6-1.1-1.2-1.6-1.8c-0.4-0.4-0.8-0.9-1.1-1.3c-2.3-2.6-4.2-4.7-5.9-6.4
		c-0.2-0.2-0.5-0.5-0.7-0.7c-4.2-4.4-6.9-6.7-10.8-9.6c0,0,0,0,0,0c-3.4-2.5-7.8-5.5-15-10.7c0,0,0,0-0.1,0
		c-18.1-13.2-29-11.5-30.9-11c-0.2,0-0.3,0.1-0.3,0.1c-10.9,0.2-15.9-0.3-20.1-3.5c0,0,0,0,0,0c-0.5-0.4-1.1-0.8-1.6-1.3
		c0,0,0,0,0,0c-1.2-1.2-2.5-2.6-3.8-4.3c0,0,0,0,0-0.1c-0.9-1.1-1.9-2.4-2.9-3.9c0,0,0,0,0-0.1c-0.1-0.2-0.2-0.3-0.4-0.5
		c0-0.1-0.1-0.1-0.2-0.2c-0.4-0.5-0.8-1-1.1-1.6c0,0,0,0,0-0.1c-2.2-3-4.6-5.6-7.1-7.9l0,0c-8.5-7.8-17.1-11-17.7-11.2
		c1.5,0.2,67.6,10.1,68.5,1.8c0-0.3,0-0.7-0.2-1.1c0,0-1.6-1.1-9.5-3.7c-0.5-0.1-1.1-0.1-1.6-0.2l0.1-0.2c-0.1,0-0.2,0-0.3-0.1
		l0-0.1c-7.2-2.2-18.8-5.4-37.5-9.6h0v0c0-0.4,0-0.8,0.1-1.1c0-0.9,0-2.5-0.3-4.4c-0.4-3.6-1.6-8.8-4.3-14.2v1.8h-8.8v5.4h9.3v6.5
		h-17.2v-30.3h2.2c-0.8-0.6-1.7-1.2-2.6-1.7c0,0-19-9-40-9.8c0,0-12.3-2.8-11.9-7.6c4.3-9.9,12.4-13.3,18.3-14.5c0,0,0,0,0,0
		c2.4-0.5,4.4-0.6,5.6-0.6c0.8,0,1.2,0,1.2,0l0.9,1.6c0.1,0.3,0.5,0.3,0.7,0.2l0.7-0.4l0.7,1.1l-0.7,0.5c-0.2,0.2-0.3,0.5-0.2,0.7
		l0.1,0.1h0l0.9,1.5c0.2,0.2,0.5,0.3,0.7,0.2l0.3-0.2l0.3-0.2c0.3,0.4,0.5,0.7,0.8,1.1l-0.3,0.3l-0.3,0.2c-0.2,0.2-0.3,0.5-0.1,0.7
		l1.2,1.5c0,0,0.1,0.1,0.1,0.1c0.2,0.1,0.4,0.1,0.6,0l0.7-0.5c0.3,0.3,0.5,0.6,0.8,1l-0.6,0.6c-0.2,0.2-0.2,0.5,0,0.7l0.5,0.6
		l0.7,0.8c0.1,0.1,0.2,0.1,0.3,0.2c0.2,0,0.3,0,0.5-0.1l0.6-0.6c0.2,0.2,0.5,0.5,0.7,0.7l0.2,0.2l-0.6,0.6c-0.2,0.2-0.2,0.5,0,0.7
		l1.4,1.3c0.2,0.2,0.5,0.2,0.7,0l0.6-0.6c0.4,0.4,0.9,0.8,1.4,1.2l-0.5,0.7c-0.2,0.2-0.1,0.6,0.1,0.7l1.5,1.1
		c0.2,0.2,0.5,0.1,0.7-0.1l0.5-0.6c0.3,0.2,0.7,0.5,1,0.7l-0.5,0.7c-0.2,0.2-0.1,0.6,0.1,0.7l1.6,1c0.2,0.2,0.6,0.1,0.7-0.1l0.5-0.7
		c0.4,0.3,0.9,0.5,1.3,0.8l-0.4,0.7c-0.1,0.2,0,0.6,0.2,0.7l1.6,0.9c0.3,0.1,0.6,0,0.7-0.2l0.4-0.7c0.5,0.3,1,0.5,1.5,0.7l-0.3,0.7
		c-0.1,0.3,0,0.6,0.3,0.7l1.7,0.8c0.3,0.1,0.6,0,0.7-0.3l0.3-0.8c0.5,0.2,0.9,0.4,1.4,0.5l-0.3,0.8c-0.1,0.3,0.1,0.6,0.3,0.6
		l0.2,0.1l1.1,0.4l0.5,0.2c0.3,0.1,0.6-0.1,0.6-0.3l0.3-0.8c0.5,0.2,1,0.3,1.5,0.4l-0.2,0.8c-0.1,0.3,0.1,0.6,0.4,0.6l0.7,0.2
		l1.1,0.3c0.2,0.1,0.4,0,0.5-0.2v0c0-0.1,0.1-0.1,0.1-0.2l0.2-0.8c0.4,0.1,0.9,0.2,1.3,0.3l-0.1,0.8c0,0.3,0.2,0.5,0.4,0.6l1.6,0.3
		l0.2,0c0.2,0,0.5-0.1,0.6-0.3c0,0,0-0.1,0-0.2l0.1-0.8c0.5,0.1,0.9,0.1,1.4,0.2l-0.1,0.8c0,0.3,0.2,0.5,0.5,0.6l1.9,0.2
		c0.3,0,0.5-0.2,0.6-0.5l0.1-0.8c0.4,0,0.9,0,1.3,0v0.8c0,0.3,0.2,0.5,0.5,0.5h1.9c0.3,0,0.5-0.2,0.5-0.5v-0.8c0.6,0,1.1,0,1.7-0.1
		l0,0.3l0,0.5c0,0.3,0.3,0.5,0.6,0.5l1.6-0.1l0.3,0c0.3,0,0.5-0.3,0.5-0.6l-0.1-0.8c0.5-0.1,1.1-0.1,1.6-0.2l0.1,0.8
		c0,0.1,0.1,0.2,0.1,0.2c0.1,0.1,0.3,0.2,0.5,0.2l1.9-0.3c0.3,0,0.5-0.3,0.4-0.6l0-0.1l-0.1-0.7c0.4-0.1,0.9-0.2,1.3-0.3l0.2,0.8
		c0.1,0.3,0.3,0.5,0.6,0.4l0.4-0.1l1.4-0.4c0.3-0.1,0.4-0.4,0.4-0.6l-0.2-0.8c0.3-0.1,0.7-0.2,1-0.3c0.1,0,0.2-0.1,0.3-0.1l0.2,0.7
		h0l0,0.1c0.1,0.2,0.2,0.3,0.4,0.3h0c0.1,0,0.1,0,0.2,0l1.8-0.6c0.3-0.1,0.4-0.4,0.3-0.6l-0.3-0.8c0.5-0.2,0.9-0.4,1.4-0.6l0,0.1
		l0.3,0.6c0.1,0.3,0.4,0.4,0.7,0.3l1.3-0.6l0.4-0.2c0.3-0.1,0.4-0.4,0.3-0.7l-0.3-0.8c0.4-0.2,0.7-0.4,1.1-0.5l0.4,0.7
		c0,0.1,0.1,0.1,0.1,0.1c0.2,0.2,0.4,0.2,0.6,0.1l1.6-0.9c0.3-0.1,0.3-0.5,0.2-0.7l-0.4-0.7c0.4-0.2,0.7-0.4,1.1-0.7l0.5,0.7
		c0.2,0.2,0.5,0.3,0.7,0.1l0.6-0.4l1-0.6c0.2-0.2,0.3-0.5,0.2-0.7l-0.5-0.7c0.4-0.2,0.7-0.5,1.1-0.8c0,0,0,0,0,0h0l0.5,0.6
		c0.2,0.2,0.5,0.3,0.7,0.1l1.5-1.1c0.2-0.2,0.3-0.5,0.1-0.7l-0.5-0.7c0.3-0.3,0.6-0.5,1-0.8l0.6,0.6c0.2,0.2,0.5,0.2,0.7,0l1.4-1.3
		c0.2-0.2,0.2-0.5,0-0.7l-0.2-0.2l-0.4-0.4c0.2-0.2,0.5-0.5,0.7-0.7l0,0c0.1-0.1,0.1-0.1,0.2-0.2l0.6,0.6c0.2,0.2,0.5,0.2,0.7,0
		l1.3-1.4c0.2-0.2,0.2-0.5,0-0.7l-0.5-0.5l-0.1-0.1c0.4-0.5,0.8-0.9,1.2-1.4l0.1,0l0.6,0.5c0.2,0.2,0.5,0.1,0.7-0.1l1.2-1.5
		c0.2-0.2,0.1-0.5-0.1-0.7l-0.7-0.5c0.3-0.3,0.5-0.7,0.8-1l0.7,0.5c0.2,0.2,0.6,0.1,0.7-0.2l1-1.6c0.2-0.2,0.1-0.6-0.1-0.7l-0.7-0.4
		c0.3-0.4,0.5-0.9,0.8-1.3l0.7,0.4c0.3,0.1,0.6,0,0.7-0.2l0.9-1.7c0.1-0.2,0-0.6-0.2-0.7L423,272c0.3-0.5,0.5-1,0.7-1.5l0.7,0.3
		c0.3,0.1,0.6,0,0.7-0.3l0.8-1.7c0.1-0.3,0-0.6-0.3-0.7l-0.7-0.3c0.2-0.5,0.4-0.9,0.5-1.4l0.8,0.3c0.3,0.1,0.6,0,0.6-0.3l0.6-1.8
		c0.1-0.3-0.1-0.6-0.3-0.6l-0.8-0.3c0.2-0.5,0.3-1,0.4-1.5l0.8,0.2c0.3,0.1,0.6-0.1,0.6-0.4l0.4-1.8c0.1-0.3-0.1-0.6-0.4-0.6
		l-0.8-0.2c0.1-0.4,0.2-0.9,0.3-1.3l0.8,0.1c0.3,0,0.5-0.1,0.6-0.4l0.3-1.9c0-0.3-0.2-0.5-0.4-0.6l-0.8-0.1c0.1-0.5,0.1-0.9,0.2-1.4
		l0.8,0.1c0.3,0,0.5-0.2,0.6-0.5l0.2-1.9c0-0.3-0.2-0.5-0.5-0.6l-0.8-0.1c0-0.4,0-0.9,0-1.3h0.8c0.3,0,0.5-0.2,0.5-0.5v-1.9
		c0-0.3-0.2-0.5-0.5-0.5h-0.8c0-0.6,0-1.1-0.1-1.7l0.8-0.1c0.3,0,0.5-0.3,0.5-0.6l-0.2-1.9c0-0.3-0.3-0.5-0.6-0.5l-0.8,0.1
		c-0.1-0.5-0.1-1.1-0.2-1.6l0.8-0.2c0.3,0,0.5-0.3,0.4-0.6l-0.3-1.9c0-0.3-0.3-0.5-0.6-0.4l-0.8,0.1c-0.1-0.4-0.2-0.9-0.3-1.3
		l0.8-0.2c0.3-0.1,0.4-0.4,0.4-0.6l-0.5-1.8c-0.1-0.3-0.4-0.4-0.6-0.4l-0.8,0.2c-0.1-0.4-0.3-0.9-0.4-1.3l0.8-0.3
		c0.3-0.1,0.4-0.4,0.3-0.7l-0.6-1.8c-0.1-0.3-0.4-0.4-0.7-0.3l-0.8,0.3c-0.2-0.5-0.4-1-0.6-1.4l0.7-0.3c0.3-0.1,0.4-0.4,0.3-0.7
		l-0.8-1.7c-0.1-0.3-0.4-0.4-0.7-0.3l-0.8,0.3c-0.2-0.4-0.4-0.7-0.5-1.1l0.7-0.4c0.3-0.1,0.3-0.5,0.2-0.7l-0.9-1.6
		c-0.1-0.2-0.5-0.3-0.7-0.2l-0.7,0.4c-0.2-0.4-0.4-0.7-0.7-1.1l0.7-0.5c0.2-0.2,0.3-0.5,0.2-0.7l-1-1.6c-0.2-0.2-0.5-0.3-0.7-0.2
		l-0.7,0.5c-0.3-0.4-0.5-0.7-0.8-1.1l0.6-0.5c0.2-0.2,0.3-0.5,0.1-0.7l-1.1-1.5c-0.2-0.2-0.5-0.3-0.7-0.1l-0.7,0.5
		c-0.3-0.3-0.5-0.6-0.8-0.9l0.6-0.6c0.2-0.2,0.2-0.5,0-0.7l-1.3-1.4c-0.2-0.2-0.5-0.2-0.7,0l-0.6,0.6c-0.2-0.2-0.5-0.5-0.7-0.7
		l-0.2-0.2l0.6-0.6c0.2-0.2,0.2-0.5,0-0.7l-1.4-1.3c-0.2-0.2-0.5-0.2-0.7,0l-0.2,0.2l-0.4,0.4c-0.4-0.4-0.9-0.8-1.3-1.1l0.3-0.4
		l0.2-0.3c0.2-0.2,0.1-0.5-0.1-0.7l-1.5-1.1c-0.2-0.2-0.5-0.1-0.7,0.1l-0.5,0.6c0,0-0.1-0.1-0.2-0.1c-0.3-0.2-0.6-0.4-0.9-0.6
		l0.5-0.7h0c0.2-0.2,0.1-0.6-0.2-0.7l-1.6-1c-0.2-0.2-0.5-0.1-0.7,0.2l-0.5,0.7c-0.4-0.3-0.8-0.5-1.2-0.7c0,0-0.1,0-0.1-0.1l0.1-0.2
		l0.3-0.6c0.1-0.2,0-0.6-0.2-0.7l-1.4-0.8l0,0l-0.2-0.1c0,0,0,0,0,0c-0.2-0.1-0.5,0-0.7,0.2l-0.3,0.5l-0.1,0.2c0,0-0.1,0-0.1,0
		c-0.2-0.1-0.4-0.2-0.6-0.3c-0.3-0.1-0.5-0.2-0.8-0.4l0.1-0.3l0.2-0.4c0.1-0.3,0-0.6-0.3-0.7l-1.6-0.7l0,0l-0.2-0.1
		c-0.3-0.1-0.6,0-0.7,0.3l-0.3,0.8c-0.5-0.2-0.9-0.4-1.4-0.5l0.1-0.4l0.1-0.4c0.1-0.3,0-0.6-0.3-0.7l-1.2-0.4l-0.5-0.2
		c-0.3-0.1-0.6,0-0.6,0.3l-0.3,0.8c-0.5-0.2-1-0.3-1.5-0.4l0.2-0.8c0.1-0.2,0-0.4-0.2-0.5c-0.1,0-0.1-0.1-0.2-0.1l-1.8-0.5
		c-0.1,0-0.1,0-0.2,0c-0.2,0-0.4,0.2-0.4,0.4l-0.2,0.8c-0.4-0.1-0.9-0.2-1.3-0.3l0.1-0.8c0.1-0.3-0.1-0.5-0.4-0.6l-1-0.2l-0.8-0.1
		c-0.3,0-0.5,0.1-0.6,0.4l0,0.1l-0.1,0.7c-0.5-0.1-0.9-0.1-1.4-0.2l0.1-0.8c0-0.3-0.2-0.5-0.5-0.5l-1.9-0.2c-0.1,0-0.2,0-0.3,0.1
		c0,0-0.1,0-0.1,0.1c-0.1,0.1-0.1,0.2-0.2,0.3l-0.1,0.8c-0.4,0-0.9,0-1.3-0.1v-0.8c0-0.3-0.2-0.5-0.5-0.5h-1.9
		c-0.3,0-0.5,0.2-0.5,0.5v0.8c-0.5,0-1.1,0-1.7,0.1l-0.1-0.8c0-0.3-0.3-0.5-0.6-0.5l-1.9,0.2c-0.3,0-0.5,0.3-0.5,0.5l0.1,0.8
		c-0.5,0.1-1.1,0.1-1.6,0.2l-0.2-0.8c0-0.3-0.3-0.5-0.6-0.4l-1.9,0.3c-0.3,0-0.5,0.3-0.4,0.6l0.1,0.8c-0.4,0.1-0.9,0.2-1.3,0.3
		l-0.2-0.8c-0.1-0.3-0.4-0.4-0.6-0.4l-1.8,0.5c-0.3,0.1-0.4,0.3-0.4,0.6l0.2,0.8c-0.4,0.1-0.9,0.3-1.3,0.4l-0.3-0.8
		c-0.1-0.3-0.4-0.4-0.6-0.3l-1.8,0.6c-0.3,0.1-0.4,0.4-0.3,0.6l0.3,0.8c-0.5,0.2-1,0.4-1.4,0.6l-0.3-0.8c-0.1-0.3-0.4-0.4-0.7-0.3
		l-1.7,0.8c-0.3,0.1-0.4,0.4-0.3,0.7l0.3,0.7c-0.4,0.2-0.7,0.4-1.1,0.5l-0.4-0.7c-0.1-0.3-0.5-0.3-0.7-0.2l-0.1,0.1l-18.7-28.3
		c0,0-0.1-0.1-0.2-0.2l-0.2-0.3c0,0,0-0.1-0.1-0.1l-0.1-0.2c-0.1-0.2-0.2-0.3-0.3-0.5c-0.1-0.2-0.3-0.5-0.5-0.7l-0.7-1l-0.5-0.7
		c-0.1-0.1-0.2-0.3-0.3-0.4l-2.1-3.2l0,0c-8.8-13.8-25.8-42.5-17-45.3c0,0,0,0,0,0h0l1.1,0.6c0.3,0,0.6,0,0.8-0.2c0,0,0,0,0.1-0.1
		c2.5-2.1,0.6-4.4,0-4.8c0,0-7.8-4.1-10.1-5.8c-4.3-3.2-5.3-5.5-6.1-6.8c-0.1-0.1-0.1-0.2-0.2-0.2c-0.9-1.1-2.8-0.5-4.1,0.1
		c-0.2,0.1-0.4,0.2-0.6,0.3c-0.5,0.2-0.9,0.3-1.4,0.5c-1.5,0.4-2.7,1.8-3.3,2.6c-0.2,0.3-0.5,0.5-0.9,0.7c-0.2,0.1-0.3,0.1-0.5,0.1
		c-2.9,0.3-9-0.1-13.5-0.4c-0.1,0-0.1,0-0.2,0c-1.7-0.1-3.1-0.3-4.1-0.3c-0.3,0-0.5-0.1-0.8-0.2c-0.3-0.3-0.9-0.8-1.7-1.6
		c-5.2-4.3-19.7-14.9-20.8-15.7c0,0-0.1,0-0.1,0c0,0-0.1-0.1-0.1-0.1c-0.1-0.1-0.1-0.2-0.1-0.3c-0.1-0.2,0-0.3,0-0.3l-0.8-7.7
		c0-0.4-0.1-0.7-0.3-1c0-0.1-0.1-0.1-0.1-0.2c-0.1-0.1-0.1-0.2-0.2-0.3c-0.4-0.8-0.3-1.5,0-2c0,0,0-0.1,0.1-0.1
		c0.3-0.6,0.9-1,1.2-1.2c0,0,0.2-0.1,0.2-0.1c0.4-0.1,0.8-0.2,1.2-0.2c8-0.9,19.4,8.4,21.2,9.9c0.1,0.1,0.3,0.1,0.5,0
		c4.2-2.4,6-5.8,6.5-9.4c0-0.1,0-0.2,0-0.2c0.2-1.7,0.2-3.4,0-5c-0.5-3.8-1.9-7-2.7-8.7c-0.1-0.2-0.2-0.3-0.2-0.5
		c-0.1-0.2-0.1-0.3-0.1-0.3c-0.1-0.2-0.4-0.3-0.6-0.2c-0.7,0.4-1.4,0.8-2.1,1c-3.4,1.3-5.6,0.3-6.9-1.7c0,0,0,0,0-0.1
		c-0.1-0.1-0.1-0.2-0.2-0.3c0,0,0,0,0,0c-0.3-0.6-0.6-1.3-0.8-2c-1.2-4.1-0.4-9.6,0.9-11c4,0,6.4-1.2,7.9-2.5c0,0,0,0,0,0
		c1.7-1.4,2.1-3,2.1-3c1.8,0.8,3.4,1.4,4.9,1.7c0.1,0,0.2,0,0.3,0c3.1,0.5,5.9,0.1,8.1-0.7c3-1.1,5.1-2.7,5.8-3.1
		c1.5-0.8,0-1.6,0-1.6l-38.9-20.7c-4.4-2.5-9.5-3.8-14.9-3.6c-14.1,0.6-25.7,11.7-26.8,25.7c-0.4,4.7,0.4,9.2,2.1,13.2v0
		c1.5,3.6,3.7,6.7,6.5,9.4c0,0,0,0,0,0l2.2,1.8c0.1,0.1,0.3,0.2,0.4,0.3c0,0,0,0,0,0c1.2,0.8,2,1.2,2,1.2c0.1,0.1,0.1,0.2,0.2,0.3
		c0,0.4-0.3,0.6-0.5,1l0,0c0,0-0.1,0-0.1,0c-3.8-0.5-6.8,1.7-9.1,4.9c-0.8,1.1-1.5,2.4-2.1,3.7c-1.5,3.2-2.6,6.5-3.2,9
		c-0.6,2.2-0.8,3.7-0.8,3.7s0,0,0,0c-0.1,0.4-2.3,7.4-5.3,16c-1.1,3.1-2.3,6.4-3.6,9.8c0,0,0,0,0,0.1c0,0.1-0.1,0.2-0.1,0.2
		c-0.2,0.6-0.5,1.2-0.7,1.8c0,0,0,0,0,0c-1.8,4.7-3.8,9.4-5.7,13.3c-0.5,1-0.9,2.1-1.3,3.1c-3.3,9-1.5,16.7,0.1,20.9
		c0.2,0.6,0.5,1.2,0.7,1.6c0.2,0.3,0.3,0.6,0.4,0.9c0,0,0,0,0,0c0.2,0.4,0.3,0.6,0.4,0.8c-5-0.7-32-4.4-44.1-4.6l-1.9,0
		c0,0,0,0-1.9,0.1c0,0-0.1,0-0.1,0c-0.4,0-0.6,0.1-0.9,0.2c-0.1,0.1-0.3,0.1-0.3,0.2c-0.1,0.1-0.1,0.1-0.2,0.2
		c-0.1,0.1-0.1,0.2-0.1,0.3c0,0,0,0,0,0c0,0.1,0,0.3,0,0.4c0,0.1,0,0.1,0,0.1c0,0.5,0.3,1.2,1.1,1.9c0,0,0,0,0,0
		c0.8,0.7,9.7,3.9,20,7.4c13.2,4.6,28.9,9.7,33.3,11.2c0.7,0.2,1.1,0.4,1.2,0.4c0.2,0.3,0.5,0.5,0.7,0.8l0.1,0.1
		c1.8,1.9,4,3.8,6.2,5.7c0.4,0.3,0.7,0.6,1.1,0.9c3.9,3.1,7.9,5.9,10.5,7.7c0,0,0.1,0,0.1,0.1c0.3,0.2,0.5,0.3,0.7,0.5
		c0.9,0.6,1.9,1.2,2.3,1.5c0,0,0,0,0,0c0,0.1,0,0.1,0,0.2l-1.7,2.1l-6.3,8c-1.6,1.9-3.3,3.8-4.9,5.7l0,0c-4.3,5.1-8.2,9.9-10,12.7
		c-0.7,1.1-1,1.9-1,2.3c0.5,2.9,2.6,6.1,3.2,6.9c0.1,0.1,0.2,0.2,0.2,0.2l-0.4,0.2l-2,0.8v0l-0.9-1.6c-0.1-0.3-0.5-0.3-0.7-0.2
		l-0.7,0.4c-0.2-0.4-0.4-0.7-0.7-1.1l0.7-0.5c0.2-0.2,0.3-0.5,0.2-0.7l-1-1.6c0-0.1-0.1-0.1-0.2-0.2c-0.2-0.1-0.4-0.1-0.6,0
		l-0.7,0.5c-0.3-0.4-0.5-0.7-0.8-1.1l0.6-0.5c0.2-0.2,0.3-0.5,0.1-0.7l-0.3-0.4l-0.8-1.1c-0.2-0.2-0.5-0.3-0.7-0.1l-0.4,0.3
		l-0.3,0.2c-0.3-0.3-0.5-0.6-0.8-0.9l0.6-0.6c0.2-0.2,0.2-0.5,0-0.7l-1.2-1.3l0,0c-0.2-0.2-0.5-0.2-0.7,0l-0.4,0.3l-0.3,0.2
		c-0.2-0.2-0.5-0.5-0.7-0.7c-0.1-0.1-0.2-0.2-0.2-0.2l0.3-0.3l0.3-0.3c0.2-0.2,0.2-0.5,0-0.7l-0.2-0.2l-1.1-1.1
		c-0.2-0.2-0.5-0.2-0.7,0l-0.6,0.6c-0.4-0.4-0.9-0.8-1.3-1.2l0.5-0.7c0,0,0,0,0-0.1c0.1-0.2,0.1-0.5-0.1-0.7l-0.9-0.7L181,212
		c-0.2-0.2-0.6-0.1-0.7,0.1l-0.5,0.7c-0.3-0.3-0.7-0.5-1-0.7l0.5-0.7c0.1-0.2,0.1-0.4,0-0.5c0-0.1-0.1-0.2-0.2-0.2l-1.6-1
		c0,0,0,0,0,0c-0.2-0.1-0.5-0.1-0.7,0.2l-0.5,0.7c-0.4-0.3-0.9-0.5-1.3-0.8l0.4-0.7c0.1-0.2,0-0.6-0.2-0.7l-0.9-0.5l-0.8-0.4
		c0,0-0.1,0-0.1,0c-0.2-0.1-0.5,0-0.6,0.2l-0.4,0.7c-0.5-0.3-1-0.5-1.5-0.7l0.3-0.8c0.1-0.3,0-0.6-0.3-0.7l-1.7-0.7
		c-0.3-0.1-0.6,0-0.7,0.3l-0.3,0.7c-0.5-0.2-0.9-0.4-1.4-0.5l0.3-0.8c0.1-0.3-0.1-0.6-0.3-0.7l-1.8-0.6c-0.3-0.1-0.6,0.1-0.6,0.3
		l-0.3,0.8c-0.5-0.2-1-0.3-1.5-0.4l0.2-0.8c0.1-0.3-0.1-0.6-0.4-0.6l-1.8-0.5c-0.3-0.1-0.6,0.1-0.6,0.4l-0.2,0.8
		c-0.4-0.1-0.9-0.2-1.3-0.3l0.1-0.8c0.1-0.3-0.1-0.5-0.4-0.6l-1.9-0.3c-0.3,0-0.5,0.1-0.6,0.4l-0.2,0.8c-0.5-0.1-0.9-0.1-1.4-0.2
		l0.1-0.8c0-0.3-0.2-0.5-0.5-0.6l-1.9-0.2c-0.3,0-0.5,0.2-0.6,0.5l-0.1,0.8c-0.4,0-0.9,0-1.3-0.1v-0.8c0-0.3-0.2-0.5-0.5-0.5h-1.9
		c-0.3,0-0.5,0.2-0.5,0.5v0.8c-0.6,0-1.1,0-1.7,0.1l-0.1-0.8c0-0.3-0.3-0.5-0.6-0.5l-1.9,0.2c-0.3,0-0.5,0.3-0.5,0.6l0.1,0.8
		c-0.5,0.1-1.1,0.1-1.6,0.2l-0.1-0.8c0-0.3-0.3-0.5-0.6-0.4l-1.9,0.3c-0.3,0.1-0.5,0.3-0.4,0.6l0.1,0.8c-0.4,0.1-0.9,0.2-1.3,0.3
		l-0.2-0.8c-0.1-0.3-0.4-0.4-0.6-0.4l-1.8,0.5c-0.3,0.1-0.4,0.3-0.4,0.6l0.2,0.8c-0.4,0.1-0.8,0.2-1.3,0.4l-0.3-0.8
		c-0.1-0.3-0.4-0.4-0.6-0.3l-1.8,0.6c-0.3,0.1-0.4,0.4-0.3,0.6l0.3,0.8c-0.5,0.2-1,0.4-1.4,0.6l-0.3-0.7c-0.1-0.3-0.4-0.4-0.7-0.3
		l-0.9,0.4l-0.9,0.4c-0.2,0.1-0.3,0.3-0.3,0.5c0,0.1,0,0.1,0,0.2l0.3,0.7c-0.4,0.2-0.7,0.4-1.1,0.5l-0.4-0.7
		c-0.1-0.3-0.5-0.3-0.7-0.2l-0.9,0.5l-0.8,0.4c-0.2,0.1-0.3,0.4-0.2,0.6c0,0,0,0.1,0,0.1l0.4,0.7c-0.7,0.4-0.4,0.2-1.1,0.7l-0.5-0.7
		c-0.2-0.2-0.5-0.3-0.7-0.2l-1.6,1c-0.2,0.1-0.3,0.3-0.2,0.5c0,0,0,0.1,0,0.1c0,0,0,0.1,0,0.1l0.5,0.7c-0.4,0.3-0.7,0.5-1.1,0.8
		l-0.5-0.7c-0.2-0.2-0.5-0.3-0.7-0.1l-0.2,0.2l-1.3,1c-0.2,0.2-0.3,0.5-0.1,0.7l0.5,0.7c-0.3,0.3-0.6,0.5-0.9,0.8l-0.4-0.5l-0.1-0.2
		c-0.2-0.2-0.5-0.2-0.7,0l-1.3,1.2l-0.1,0.1c-0.2,0.2-0.2,0.5,0,0.7l0.6,0.6c-0.2,0.2-0.5,0.5-0.7,0.7c-0.1,0.1-0.2,0.2-0.2,0.2
		l-0.6-0.6c-0.2-0.2-0.5-0.2-0.7,0l-0.1,0.1l-1.2,1.3c-0.2,0.2-0.2,0.5,0,0.7l0.4,0.4l0.2,0.2c-0.4,0.4-0.8,0.9-1.2,1.3l-0.7-0.5
		c-0.2-0.2-0.5-0.1-0.7,0.1l-0.6,0.8l-0.5,0.6c-0.2,0.2-0.1,0.5,0.1,0.7l0.6,0.5c-0.2,0.3-0.4,0.6-0.6,0.9c0,0.1-0.1,0.1-0.1,0.2
		l-0.2-0.1l-0.5-0.3c-0.2-0.2-0.6-0.1-0.7,0.2l-0.3,0.5h0l-0.7,1.1c-0.2,0.2-0.1,0.6,0.2,0.7l0.7,0.5c-0.1,0.1-0.2,0.3-0.3,0.4
		c-0.2,0.3-0.4,0.6-0.5,0.9l-0.7-0.4c-0.2-0.1-0.6,0-0.7,0.2l-0.9,1.7c-0.1,0.2-0.1,0.5,0.1,0.6c0,0,0,0,0.1,0.1l0.7,0.4
		c-0.2,0.5-0.5,0.9-0.7,1.4c0,0,0,0.1-0.1,0.1l-0.7-0.3c-0.3-0.1-0.6,0-0.7,0.3l-0.7,1.7c-0.1,0.3,0,0.6,0.3,0.7l0.4,0.2l0.4,0.2
		c-0.2,0.4-0.4,0.9-0.5,1.4l-0.8-0.3c0,0,0,0-0.1,0c-0.2,0-0.5,0.1-0.6,0.3l-0.6,1.8c-0.1,0.3,0,0.6,0.3,0.6l0.8,0.3
		c-0.1,0.2-0.1,0.4-0.2,0.6c-0.1,0.3-0.2,0.6-0.3,0.8l-0.6-0.2l-0.1,0c-0.3-0.1-0.6,0.1-0.6,0.4l-0.5,1.8c-0.1,0.3,0.1,0.6,0.4,0.6
		l0.8,0.2c-0.1,0.4-0.2,0.9-0.3,1.3l-0.8-0.1c-0.3,0-0.5,0.1-0.6,0.4l-0.3,1.9c0,0.3,0.1,0.5,0.4,0.6l0.4,0.1l0.5,0.1
		c0,0.3-0.1,0.6-0.1,0.9c0,0.2,0,0.3-0.1,0.5l-0.8-0.1c-0.3,0-0.5,0.2-0.6,0.5l-0.2,1.9c0,0.3,0.2,0.5,0.5,0.6l0.2,0l0.7,0.1
		c0,0.4,0,0.9-0.1,1.3h-0.8c-0.3,0-0.5,0.2-0.5,0.5v1.9c0,0.3,0.2,0.5,0.5,0.5h0.8c0,0.3,0,0.7,0,1c0,0.2,0,0.5,0,0.7l-0.4,0l-0.5,0
		c-0.3,0-0.5,0.3-0.5,0.6l0.2,1.9c0,0.3,0.3,0.5,0.6,0.5l0.8-0.1c0.1,0.5,0.1,1.1,0.2,1.6l-0.8,0.1c-0.3,0.1-0.5,0.3-0.4,0.6
		l0.3,1.9c0,0.3,0.3,0.5,0.6,0.4l0.7-0.1l0.2,0c0,0.1,0.1,0.3,0.1,0.4c0.1,0.3,0.1,0.6,0.2,0.9l-0.8,0.2c-0.3,0.1-0.4,0.4-0.4,0.6
		l0.5,1.8c0.1,0.3,0.3,0.4,0.6,0.4l0.4-0.1l0.4-0.1c0.1,0.4,0.2,0.8,0.4,1.3l-0.2,0.1l-0.6,0.2c-0.3,0.1-0.4,0.4-0.3,0.7l0.6,1.8
		c0.1,0.3,0.4,0.4,0.6,0.3l0.8-0.3c0.1,0.2,0.2,0.5,0.3,0.7c0.1,0.3,0.2,0.5,0.3,0.8l-0.4,0.2l-0.3,0.1c-0.3,0.1-0.4,0.4-0.3,0.7
		l0.8,1.7c0.1,0.3,0.4,0.4,0.7,0.3l0.7-0.3c0.2,0.4,0.3,0.7,0.5,1.1l-0.7,0.4c-0.2,0.1-0.3,0.4-0.2,0.7l0.9,1.6
		c0.1,0.3,0.5,0.3,0.7,0.2l0.1-0.1l0.6-0.3c0.1,0.2,0.2,0.3,0.3,0.5l0.4,0.6l-0.7,0.5c-0.2,0.2-0.3,0.5-0.2,0.7l1,1.6
		c0.2,0.2,0.5,0.3,0.7,0.2l0.1-0.1l0.6-0.4c0.3,0.4,0.5,0.7,0.8,1.1l-0.6,0.5l0,0c-0.2,0.2-0.3,0.5-0.1,0.7l1.2,1.5
		c0.2,0.2,0.5,0.3,0.7,0.1l0.7-0.5c0.1,0.1,0.1,0.2,0.2,0.2c0.2,0.2,0.4,0.5,0.6,0.7l-0.6,0.6c0,0,0,0-0.1,0.1
		c-0.2,0.2-0.1,0.5,0,0.6l1.3,1.4c0.2,0.2,0.5,0.2,0.7,0l0.6-0.6c0.2,0.2,0.5,0.5,0.7,0.7c0.1,0.1,0.2,0.2,0.2,0.2l-0.6,0.6
		c-0.2,0.2-0.2,0.5,0,0.7l1.4,1.3c0,0,0.1,0.1,0.1,0.1c0.2,0.1,0.4,0,0.6-0.1l0.6-0.6c0.2,0.2,0.5,0.4,0.8,0.6
		c0.2,0.2,0.4,0.3,0.6,0.5l-0.5,0.7c-0.2,0.2-0.1,0.5,0.1,0.7l1.5,1.2c0,0,0,0,0,0c0.2,0.2,0.5,0.1,0.7-0.1l0.5-0.6
		c0.3,0.3,0.7,0.5,1,0.7l-0.5,0.7c0,0,0,0,0,0c-0.1,0.2-0.1,0.5,0.2,0.7l1.6,1c0.2,0.1,0.4,0.1,0.6,0c0.1,0,0.1-0.1,0.1-0.1l0.5-0.7
		c0.4,0.3,0.9,0.5,1.3,0.8l-0.4,0.7c-0.1,0.3,0,0.6,0.2,0.7l0.5,0.3l1.2,0.6c0.3,0.1,0.6,0,0.7-0.2l0.3-0.5l0.1-0.2
		c0.5,0.3,1,0.5,1.5,0.7l-0.3,0.8c-0.1,0.3,0,0.6,0.3,0.7l1.4,0.6l0.3,0.1c0.2,0.1,0.5,0,0.7-0.2c0,0,0,0,0,0l0.3-0.7
		c0.4,0.2,0.9,0.3,1.4,0.5l-0.3,0.8c-0.1,0.3,0,0.6,0.3,0.6l1.8,0.6c0.3,0.1,0.6,0,0.7-0.3l0.3-0.8c0.5,0.2,1,0.3,1.5,0.4l-0.1,0.5
		l-0.1,0.3c-0.1,0.3,0.1,0.6,0.4,0.6l0.5,0.1l1.4,0.3c0.3,0.1,0.6-0.1,0.6-0.4l0.2-0.8c0.4,0.1,0.9,0.2,1.3,0.3l-0.1,0.8
		c0,0.1,0,0.1,0,0.2c0,0.2,0.2,0.4,0.4,0.4l1.3,0.2l0.5,0.1c0.1,0,0.3,0,0.4-0.1c0.1-0.1,0.2-0.2,0.2-0.3l0.1-0.8
		c0.5,0.1,0.9,0.1,1.4,0.2l-0.1,0.8c0,0.3,0.2,0.5,0.5,0.6l0.3,0l1.6,0.1c0.3,0,0.5-0.2,0.6-0.5l0-0.2l0.1-0.7c0.4,0,0.9,0,1.3,0
		v0.8c0,0.3,0.2,0.5,0.5,0.5h1.9c0.3,0,0.5-0.2,0.5-0.5v-0.8c0.6,0,1.1,0,1.7-0.1l0.1,0.8c0,0.3,0.3,0.5,0.6,0.5l1.9-0.2
		c0.2,0,0.3-0.1,0.4-0.2c0.1-0.1,0.1-0.2,0.1-0.4v0l-0.1-0.8c0.6-0.1,1.1-0.1,1.6-0.2l0.1,0.8c0,0.1,0,0.1,0.1,0.2
		c0.1,0.1,0.2,0.2,0.3,0.2c0.1,0,0.1,0,0.2,0l1.9-0.3c0.3,0,0.5-0.3,0.4-0.6l-0.2-0.8c0.4-0.1,0.9-0.2,1.3-0.3l0.2,0.7l0,0.1
		c0.1,0.3,0.4,0.4,0.6,0.4l0.9-0.2l0.9-0.2c0.3-0.1,0.4-0.3,0.4-0.6l-0.2-0.8c0.4-0.1,0.9-0.3,1.3-0.4l0.3,0.8
		c0.1,0.3,0.4,0.4,0.7,0.3l0.2-0.1l1.6-0.6c0.2-0.1,0.3-0.3,0.3-0.5c0-0.1,0-0.1,0-0.2l-0.3-0.8c0.5-0.2,0.9-0.4,1.4-0.6l0.3,0.7
		c0.1,0.3,0.4,0.4,0.7,0.3l0.7-0.3l1-0.5c0.3-0.1,0.4-0.4,0.3-0.7l-0.1-0.3l17.5,25.7c0-0.1,0-0.2,0-0.3c0-0.2,0.1-0.5,0.1-0.7
		c0-0.1,0.1-0.3,0.1-0.4c0.1-0.3,0.1-0.5,0.2-0.8c0.4-1.2,1-2.2,1.9-3.2c1.9-2.3,4.7-3.4,8.3-3.4c2,0,3.8,0.4,5.4,1.3
		c1,0.5,1.8,1.2,2.6,2.1c0.5,0.6,0.9,1.1,1.2,1.8c0.8,1.4,1.2,3,1.2,4.8c0,2.6-0.8,4.8-2.4,6.6c-1.9,2.2-4.6,3.4-8.1,3.4
		c-0.5,0-1,0-1.5-0.1h0c-0.3,0-0.7-0.1-1-0.1c-0.2,0-0.5-0.1-0.7-0.2c0,0,0,0,0,0c-0.2-0.1-0.5-0.1-0.7-0.2c-0.1,0-0.2-0.1-0.4-0.1
		c-0.1,0-0.1,0-0.2-0.1c-0.2-0.1-0.4-0.2-0.5-0.2c-1.6,1.4-5.3,4.1-11.9,4.7c-3.8,0.3-8.5-0.1-14.3-2c-0.2-0.1-0.5-0.2-0.7-0.2
		c-2.5-0.8-4.9-1.5-7.2-2.1H156v-1.2c-5.1-1.3-9.6-2.3-13.2-3v3.7h-7.2c9.7,6.3,19.7,10.1,28.7,12.4c5.3,1.3,10.3,2.1,14.7,2.6
		c12,1.2,20.1-0.1,20.1-0.1c5.3,3.2,19.1,34.4,22.1,41.4c0,0,0,0,0,0.1c0.2,0.4,0.4,0.8,0.6,1.3c1.6,3.9,2.7,10.2,2.5,20.5
		c0,0,0,0,0,0c0.2,0.3,4.1,6.7,6.7-1.7c0.5-1.6,0.7-3.3,0.6-4.9c0-1.1-0.2-2.2-0.5-3.3c-0.1-0.5-0.3-1-0.5-1.5
		c-0.9-2.4-1.9-5.7-2-9.5c0-2,0.2-4.2,0.8-6.3c0,0,6.3-6.9,10.5,0.3c0.1,0.1,0.1,0.2,0.2,0.3c4.1,7.5,20.6-0.5,19.9-6.5
		c0-0.1,0-0.2,0-0.3c-0.5-2.5-1.3-4.4-2.5-5.1c-0.5,0-0.8-0.2-1.3-0.3c-1.4,0.1-3.1,1.2-5.5,3.7l0,0c-1.2,1.3-3.1,1.7-4.7,1.1
		c-1-0.3-2.1-0.8-3.3-1.4c-4.6-2.2-10.2-6.6-11.4-14.8c0,0,5.5-0.6,13.8-2.5c12-2.8,30-8.5,46-19.4c2.7,0.3,5.4,1.8,8,2.4
		c0.7,0.2,1,0.3,1.6,0.5c2.1,0.6,4.3,0.9,6.6,1.4c2.3,0.5,4.4,0.7,6.7,1.1c4.4,0.7,14.1,2.1,14.2,2.7c0.1,0,0.1,0.2,0.1,0.4
		c0.2,0.6,0.8,2,1.8,4c0.5,0.9,1.1,2,1.8,3.2c0,0,0,0,0,0c0,0,0,0.1,0,0.1c0,0,0,0,0,0.1c0.6,0.9,1.2,1.8,1.9,2.8
		c0.6,0.9,1.3,1.8,2,2.8c2.9,3.7,6.7,8,11.9,12.5c1.8,1.5,3.7,3.1,5.8,4.7c0.1,0,0.2,0.1,0.3,0.2c6.2,4.7,11,9.3,14.4,13.7
		c2.3,2.9,3.9,5.7,5,8.4c1.4,3.2,1.9,6.3,1.6,9c-0.3,3-1.4,5.7-3.4,7.9l0,0c0,0-0.1,0.1-0.1,0.1c0,0.1-0.1,0.2-0.2,0.2
		c-0.1,0-0.1,0.1-0.2,0.1c-0.1,0-0.2,0-0.2,0l-0.1-0.2l-2.3-1.4l-1-0.6l-12.8-7.9c0,0,0,0,0,0.1c0,0,0,0,0-0.1
		c-2.2,0.3-4,0.9-5.4,1.6v0c-4.6,2.5-4.9,7-4,10.9c0,0,0,0,0,0c0.2,0.7,0.4,1.4,0.6,2.1c0.4,1.1,0.8,2.1,1.2,2.9c0,0,0,0,0,0
		c0.7,1.4,1.3,2.3,1.3,2.3c0.6-0.3,1.2-0.6,1.7-0.8h0c1.5-0.5,2.7-0.7,3.8-0.5c6.8,1.1,5.7,14.6,0.6,13.8c-2.9-0.4-4.7,0.3-6,1.3
		c-1.1,0.9-1.6,1.9-1.8,2.3c0,0.1-0.1,0.2-0.1,0.2c0,0,0,0,0,0c-0.2-0.1-0.4-0.3-0.6-0.4c0,0-0.1-0.1-0.1-0.1c0,0,0,0,0,0
		c-0.4-0.2-12.8-6.7-15.5,1.6v0l22.8,16.6l1.9,1.4c1.4,1.2,3,2.2,4.6,3c0,0,0,0,0,0c3.4,1.7,7.3,2.7,11.4,2.7
		c4.1,0,7.9-0.9,11.4-2.6c4.2-2.1,7.7-5.2,10.1-9.1c2.3-3.7,3.7-8.1,3.7-12.8c0-1.7-0.2-3.3-0.5-4.9c-0.2-1.5-0.5-2.8-0.9-3.9
		c-0.4-1.4-0.9-2.4-1.3-3c-0.2-0.4-0.3-0.6-0.4-0.8h0c0,0-0.1-0.1-0.1-0.2c0,0,0,0,0,0c-0.3-0.9-0.3-1.6,0.1-2.2
		c0.3-0.5,0.8-0.8,1.5-1.1c1.7-0.6,4.6-0.7,8-0.4c0,0,0.1,0,0.1,0c2.4,0.2,5,0.5,7.7,0.8c0.1,0,0.1,0,0.2,0c0,0,0,0,0,0
		c0.2,0,0.4,0,0.6,0.1c4.5,0.6,9.1,1.2,12.7,1.4h0c0.3,0,0.6,0,0.9,0c2.2,0.1,4,0.3,5.4,0.7c0,0,0,0,0.1,0c3.3,0.8,4.9,2.2,5.7,3.3
		c0.3,0.4,0.5,0.8,0.6,1.2c0.1,0.4,0.1,0.7,0.1,0.7s4.4,18.2,8.6,21c0,0,0,0,0,0s0,0,0,0c1.7,1.1,3.8,2.9,5.7,4.7
		c0,0,0.1,0.1,0.1,0.1c1.7,1.6,3.3,3.1,4.2,4.1c0,0,0.1,0.1,0.1,0.1c0.5,0.5,0.8,0.8,0.8,0.8c0.1,0.1,0.2,0.3,0.3,0.4
		c1.2,1.8,2.4,3.7,3.4,5.5c2.7,5,4.8,10,6.1,13.6c0,0,0,0,0,0.1c0.4,1,0.7,1.9,1,2.8c0,0.1,0.1,0.3,0.1,0.4c0,0.1,0,0.1,0.1,0.2
		c0.5,1.6,0.8,2.5,0.8,2.5c1.7,26.7-0.5,41.1-3.1,48.9c-0.9,2.8-1.8,4.7-2.6,6c0,0,0,0,0,0c-0.4,0.7-0.9,1.3-1.2,1.6c0,0,0,0,0,0
		c-0.5,0.5-0.8,0.7-0.8,0.7c-2.1,2.4-3.2,4.6-3.7,6.6c-1,3.9,0.3,6.9,1.1,8.5c0.4,0.7,0.7,1.1,0.7,1.1c2.1,2.1,5.3,4.2,9,6.2
		c9.5,5.2,21.8,9.7,22.3,9.9c0,0,0,0,0,0c4.2-0.9,3.9-4.5,1.5-8.6c0,0,0,0,0,0c-1.2-2.1-3-4.3-5.1-6.3c-0.3-0.3-0.6-0.5-0.8-0.8
		c-6.6-6-5.3-15.1-5.3-15.1c2-7.3,8.8-17.9,13.6-24.7c2.8-4,4.8-6.7,4.8-6.7c0.5-0.8,1-1.6,1.4-2.4c0,0,0,0,0,0
		c0.7-1.2,1.3-2.4,1.8-3.6C507.6,506.1,504.4,495.4,503,491.9z M376.3,224.7c-2.9,0-5.6,0.5-8.2,1.4l-9.6-14.4
		c0.8-0.4,1.6-0.8,2.5-1.1c0.2-0.1,0.3-0.1,0.5-0.2c0.9-0.4,1.8-0.7,2.7-1c0.1,0,0.2-0.1,0.4-0.1c0.9-0.3,1.9-0.5,2.8-0.7
		c0.1,0,0.2,0,0.4-0.1c0.9-0.2,1.9-0.4,2.9-0.5c0.2,0,0.4-0.1,0.6-0.1c1-0.1,1.9-0.2,2.9-0.3c0.2,0,0.4,0,0.6,0c0.5,0,1,0,1.5,0
		c0.5,0,1,0,1.5,0c0.1,0,0.2,0,0.4,0c0.7,0,1.3,0.1,2,0.1c0,0,0,0,0,0c0.3,0,0.6,0.1,0.9,0.1c0.1,0,0.3,0,0.4,0
		c1,0.1,1.9,0.3,2.9,0.5c0.1,0,0.2,0,0.4,0.1c0.9,0.2,1.9,0.4,2.8,0.7c0.2,0,0.3,0.1,0.5,0.2c0.9,0.3,1.9,0.6,2.8,0.9
		c0.2,0.1,0.3,0.1,0.4,0.2c0.9,0.4,1.8,0.8,2.7,1.2c0.2,0.1,0.4,0.2,0.6,0.3c0.9,0.4,1.7,0.9,2.6,1.4c0.1,0.1,0.3,0.2,0.4,0.3
		c0.8,0.5,1.6,1,2.4,1.6c0.1,0.1,0.2,0.1,0.3,0.2c0.8,0.6,1.6,1.2,2.3,1.8c0.2,0.2,0.4,0.3,0.5,0.5c0.7,0.6,1.4,1.3,2.1,2l0.2,0.2
		c0.7,0.7,1.3,1.4,2,2.2c0.1,0.1,0.1,0.2,0.2,0.2c0.6,0.8,1.2,1.5,1.8,2.3c0.1,0.1,0.1,0.2,0.2,0.3c0.6,0.8,1.1,1.6,1.6,2.4
		c0.1,0.1,0.1,0.2,0.2,0.3c0.5,0.8,1,1.7,1.4,2.5c0,0.1,0.1,0.2,0.1,0.3c0.4,0.9,0.8,1.7,1.2,2.7c0.1,0.2,0.1,0.3,0.2,0.5
		c0.3,0.9,0.7,1.8,1,2.7c0,0.1,0.1,0.2,0.1,0.4c0.3,0.9,0.5,1.9,0.7,2.8c0,0.1,0,0.2,0.1,0.4c0.2,0.9,0.4,1.9,0.5,2.9
		c0,0.2,0,0.4,0.1,0.6c0.1,0.9,0.2,1.9,0.3,2.9c0,0.2,0,0.4,0,0.6c0,0.5,0,1,0,1.4c0,0.5,0,1,0,1.4c0,0.1,0,0.2,0,0.4
		c0,1-0.1,1.9-0.2,2.9c0,0.1,0,0.3-0.1,0.4c-0.1,1-0.3,1.9-0.5,2.9c0,0.1-0.1,0.2-0.1,0.3c-0.2,1-0.4,1.9-0.7,2.8
		c0,0.2-0.1,0.3-0.2,0.5c-0.3,0.9-0.6,1.9-0.9,2.8c-0.1,0.2-0.1,0.3-0.2,0.4c-0.4,0.9-0.7,1.8-1.2,2.7c-0.1,0.2-0.2,0.4-0.3,0.6
		c-0.4,0.9-0.9,1.7-1.4,2.6c-0.1,0.1-0.2,0.3-0.3,0.4c-0.5,0.8-1,1.6-1.6,2.4c-0.1,0.1-0.1,0.2-0.2,0.3c-0.6,0.8-1.2,1.6-1.8,2.3
		c-0.2,0.2-0.3,0.4-0.5,0.5c-0.6,0.7-1.3,1.4-2,2.1c-0.1,0.1-0.2,0.2-0.3,0.3c-0.7,0.7-1.4,1.3-2.2,1.9c-0.1,0.1-0.2,0.1-0.2,0.2
		c-0.7,0.6-1.5,1.2-2.3,1.8l-0.3,0.2c-0.8,0.6-1.6,1.1-2.4,1.6c-0.1,0-0.2,0.1-0.3,0.2c-0.8,0.5-1.7,1-2.5,1.4
		c-0.1,0-0.2,0.1-0.3,0.1c-0.9,0.4-1.7,0.8-2.7,1.2c-0.2,0.1-0.3,0.1-0.5,0.2c-0.9,0.4-1.8,0.7-2.7,1c-0.1,0-0.2,0.1-0.4,0.1
		c-0.9,0.3-1.9,0.5-2.8,0.7c-0.1,0-0.2,0.1-0.3,0.1c-0.9,0.2-1.9,0.4-2.9,0.5c-0.2,0-0.4,0-0.6,0.1c-0.9,0.1-1.9,0.2-2.9,0.3
		c-0.2,0-0.4,0-0.6,0c-0.5,0-1,0-1.5,0c-0.5,0-1,0-1.5,0c-0.1,0-0.2,0-0.4,0c-1,0-1.9-0.1-2.9-0.2c-0.1,0-0.3,0-0.4-0.1
		c-1-0.1-1.9-0.3-2.9-0.5c-0.1,0-0.2,0-0.4-0.1c-0.9-0.2-1.9-0.4-2.8-0.7c-0.2-0.1-0.3-0.1-0.5-0.2c-0.9-0.3-1.9-0.6-2.7-0.9
		c-0.2-0.1-0.3-0.1-0.4-0.2c0,0-0.1,0-0.1-0.1c-0.2-0.1-0.4-0.1-0.5-0.2c-5.8-2.3-10.9-6-14.9-10.7c-0.2-0.2-0.3-0.4-0.5-0.6
		c-0.1-0.1-0.1-0.2-0.2-0.2c0,0,0-0.1-0.1-0.1c-0.6-0.7-1.2-1.5-1.7-2.2c-0.1-0.1-0.2-0.2-0.2-0.3c-0.6-0.8-1.1-1.6-1.6-2.4
		c-0.1-0.1-0.1-0.2-0.2-0.3c-0.2-0.4-0.5-0.8-0.7-1.2l13.7-5.5c4.3,7.7,12.5,12.9,22,12.9c13.9,0,25.2-11.3,25.2-25.2
		C401.5,236,390.2,224.7,376.3,224.7z M343.4,224.4c0.6-0.8,1.2-1.6,1.8-2.3c0.2-0.2,0.3-0.4,0.5-0.5c0.2-0.2,0.3-0.3,0.5-0.5
		c0.5-0.6,1-1.1,1.5-1.6c0.1-0.1,0.2-0.2,0.3-0.2c0.4-0.4,0.9-0.8,1.3-1.3l8.8,14.8c-3.6,3.8-6,8.8-6.6,14.2l-15.6-0.9
		c0-0.9,0.1-1.7,0.2-2.6c0-0.1,0-0.3,0-0.4c0.1-1,0.3-1.9,0.5-2.9c0-0.1,0-0.2,0.1-0.4c0.1-0.5,0.2-1,0.3-1.5c0-0.2,0.1-0.4,0.2-0.6
		c0.1-0.2,0.1-0.5,0.2-0.7c0-0.2,0.1-0.3,0.1-0.5c0.3-0.9,0.6-1.9,0.9-2.8c0-0.1,0.1-0.3,0.2-0.4c0.3-0.9,0.7-1.8,1.2-2.7
		c0.1-0.2,0.2-0.4,0.3-0.6c0.4-0.9,0.9-1.7,1.4-2.5c0.1-0.2,0.2-0.3,0.3-0.4c0.5-0.8,1.1-1.6,1.6-2.4
		C343.3,224.6,343.3,224.5,343.4,224.4z M230.5,134.6c0-0.2,0-0.4,0.1-0.7c0.1-1,0.2-2,0.2-3.1c0.7-8.9,1.8-19.4,4.7-24.4
		c0,0,0-0.1,0-0.1c0-0.1,0.1-0.1,0.1-0.2c1.2-2,2-2.7,2.6-2.7c0.5,1.3,1.9,2.7,3.8,4.1c4.8,3.5,12.6,6.6,17,8.3
		c0.2,0.1,0.5,0.2,0.7,0.3c0.2,0.1,0.4,0.2,0.6,0.2c0.1,0,0.2,0.1,0.3,0.1c0,0,0.1,0,0.1,0c0.1,0,0.2,0.1,0.3,0.1
		c0.1,0,0.2,0.1,0.3,0.1c0.2,0,0.3,0.1,0.4,0.1c0.1,0,0.2,0.1,0.3,0.1c0.1,0,0.1,0,0.2,0.1c0.1,0,0.2,0.1,0.2,0.1s2.8,1.4,5.9,1.2
		c3.1-0.1,19.8-3.4,19.8-3.4s0,0,0,0c0,0,0.6,0.4,1.5,1.4c1.8,1.9,4.8,6.1,8.2,14.1c0.7,1.7,1.4,3.6,2.2,5.7
		c0.1,0.4,0.1,0.8-0.1,1.2c-0.2,0.4-0.6,0.9-1.1,1.4c0,0,0,0,0,0c-3.8,3.9-15.5,11-27.9,24.2c-0.4,0.5-0.8,0.9-1.3,1.4
		c-0.3,0.3-0.6,0.7-0.9,1c-0.1,0.1-0.2,0.3-0.4,0.4c0,0,0.1-0.9-0.2-2.3c-0.6-3.2-3.1-9.1-12.7-12.7c-1.2-0.5-2.6-0.9-4-1.2
		c-2-0.5-4.2-0.9-6.7-1.2C244.6,148.3,229.5,146.7,230.5,134.6z M148,229.8c-13.9,0-25.2,11.3-25.2,25.2c0,13.9,11.3,25.2,25.2,25.2
		c2.6,0,5-0.4,7.4-1.1l9.1,13.3c-0.2,0.1-0.4,0.2-0.6,0.3c-0.2,0.1-0.3,0.1-0.5,0.2c-0.9,0.4-1.8,0.7-2.7,1l-0.4,0.1
		c-0.9,0.3-1.9,0.5-2.8,0.7c-0.1,0-0.2,0.1-0.4,0.1c-0.9,0.2-1.9,0.4-2.9,0.5c-0.2,0-0.4,0-0.6,0.1c-0.9,0.1-1.9,0.2-2.9,0.2
		c-0.2,0-0.4,0-0.6,0c-0.5,0-1,0-1.5,0s-1,0-1.5,0c-0.1,0-0.2,0-0.4,0c-1,0-1.9-0.1-2.9-0.2c-0.1,0-0.3,0-0.4-0.1
		c-1-0.1-1.9-0.3-2.9-0.5c-0.1,0-0.2,0-0.4-0.1c-0.9-0.2-1.9-0.4-2.8-0.7c-0.2,0-0.3-0.1-0.5-0.1c-0.9-0.3-1.9-0.6-2.7-0.9
		c-0.2-0.1-0.3-0.1-0.5-0.2c-0.9-0.3-1.8-0.7-2.7-1.2c-0.2-0.1-0.4-0.2-0.6-0.3c-0.9-0.4-1.7-0.9-2.6-1.4c-0.1-0.1-0.3-0.2-0.4-0.3
		c-0.8-0.5-1.6-1-2.4-1.6c-0.1-0.1-0.2-0.1-0.3-0.2c-0.8-0.6-1.5-1.2-2.3-1.8c-0.2-0.2-0.4-0.3-0.5-0.5c-0.7-0.6-1.4-1.3-2.1-2
		c-0.1-0.1-0.2-0.2-0.2-0.3c-0.7-0.7-1.3-1.4-2-2.1c-0.1-0.1-0.1-0.2-0.2-0.2c-0.6-0.7-1.2-1.5-1.8-2.3c-0.1-0.1-0.1-0.2-0.2-0.3
		c-0.6-0.8-1.1-1.6-1.6-2.4c-0.1-0.1-0.1-0.2-0.2-0.3c-0.5-0.8-1-1.7-1.4-2.5c0-0.1-0.1-0.2-0.1-0.3c-0.4-0.9-0.8-1.7-1.2-2.7
		c-0.1-0.2-0.1-0.3-0.2-0.5c-0.3-0.9-0.7-1.8-0.9-2.7c0-0.1-0.1-0.2-0.1-0.4c-0.3-0.9-0.5-1.9-0.7-2.8c0-0.1-0.1-0.2-0.1-0.4
		c-0.2-0.9-0.4-1.9-0.5-2.9c0-0.2-0.1-0.4-0.1-0.6c-0.1-0.9-0.2-1.9-0.3-2.9c0-0.2,0-0.4,0-0.6c0-0.5,0-1,0-1.5c0-0.5,0-1,0-1.5
		c0-0.1,0-0.2,0-0.4c0-1,0.1-1.9,0.2-2.9c0-0.1,0-0.3,0-0.4c0.1-1,0.3-1.9,0.5-2.9c0-0.1,0-0.2,0.1-0.4c0.2-0.9,0.4-1.9,0.7-2.8
		c0-0.2,0.1-0.3,0.1-0.5c0.3-0.9,0.6-1.9,0.9-2.7c0-0.2,0.1-0.3,0.2-0.5c0.3-0.9,0.7-1.8,1.2-2.7c0.1-0.2,0.2-0.4,0.3-0.6
		c0.4-0.9,0.9-1.7,1.4-2.5c0.1-0.2,0.2-0.3,0.3-0.4c0.5-0.8,1-1.6,1.6-2.4c0.1-0.1,0.1-0.2,0.2-0.3c0.6-0.8,1.2-1.6,1.8-2.3
		c0.2-0.2,0.3-0.4,0.5-0.5c0.6-0.7,1.3-1.4,2-2.1c0.1-0.1,0.2-0.2,0.3-0.2c0.7-0.7,1.4-1.3,2.1-2c0.1-0.1,0.2-0.1,0.2-0.2
		c0.8-0.6,1.5-1.2,2.3-1.8c0.1-0.1,0.2-0.1,0.3-0.2c0.8-0.6,1.6-1.1,2.4-1.6c0.1-0.1,0.2-0.1,0.3-0.2c0.8-0.5,1.7-1,2.5-1.4
		c0.1,0,0.2-0.1,0.3-0.1c0.9-0.4,1.7-0.8,2.7-1.2c0.2-0.1,0.3-0.1,0.5-0.2c0.9-0.3,1.8-0.7,2.7-0.9c0.1,0,0.2-0.1,0.4-0.1
		c0.9-0.3,1.9-0.5,2.8-0.7c0.1,0,0.2-0.1,0.4-0.1c0.9-0.2,1.9-0.4,2.9-0.5c0.2,0,0.4-0.1,0.6-0.1c1-0.1,1.9-0.2,2.9-0.3
		c0.2,0,0.4,0,0.6,0c0.5,0,1,0,1.5,0s1,0,1.5,0c0.1,0,0.2,0,0.4,0c1,0,1.9,0.1,2.9,0.2c0.1,0,0.3,0,0.4,0.1c1,0.1,1.9,0.3,2.9,0.5
		c0.1,0,0.2,0,0.4,0.1c0.9,0.2,1.9,0.4,2.8,0.7c0.2,0,0.3,0.1,0.5,0.2c0.9,0.3,1.9,0.6,2.8,0.9c0.2,0,0.3,0.1,0.4,0.2
		c0.9,0.4,1.8,0.7,2.7,1.2c0.2,0.1,0.4,0.2,0.6,0.3c0.9,0.4,1.7,0.9,2.5,1.4c0.1,0.1,0.3,0.2,0.4,0.3c0.8,0.5,1.6,1,2.4,1.6
		c0.1,0.1,0.2,0.1,0.3,0.2c0.8,0.6,1.6,1.2,2.3,1.8c0.2,0.2,0.4,0.3,0.6,0.5c0.7,0.6,1.4,1.3,2.1,2c0.1,0.1,0.2,0.2,0.2,0.3
		c0.7,0.7,1.3,1.4,2,2.1c0.1,0.1,0.1,0.2,0.2,0.2c0.6,0.7,1.2,1.5,1.8,2.3c0.1,0.1,0.2,0.2,0.2,0.3c0.6,0.8,1.1,1.6,1.6,2.4
		c0.1,0.1,0.1,0.2,0.2,0.3c0.1,0.2,0.2,0.3,0.3,0.5l-15.2,5.8C164.1,234.1,156.5,229.8,148,229.8z M187.5,266.7
		c-0.3,0.9-0.6,1.9-0.9,2.8c-0.1,0.2-0.1,0.3-0.2,0.4c-0.4,0.9-0.7,1.8-1.2,2.7c-0.1,0.2-0.2,0.4-0.3,0.6c-0.4,0.9-0.9,1.7-1.4,2.6
		c-0.1,0.2-0.2,0.3-0.3,0.4c-0.5,0.8-1,1.6-1.6,2.4c-0.1,0.1-0.1,0.2-0.2,0.3c-0.6,0.8-1.2,1.6-1.8,2.3c-0.2,0.2-0.3,0.4-0.5,0.6
		c-0.3,0.3-0.6,0.7-0.9,1c0,0,0,0,0,0l-9.8-13.1c2.9-4,4.6-8.9,4.7-14.2c5.3-1.7,10.9-3.5,15.8-5.1c0.1,0.8,0.2,1.7,0.2,2.5
		c0,0.2,0,0.4,0,0.6c0,0.5,0,1,0,1.5c0,0.5,0,1,0,1.5c0,0.1,0,0.2,0,0.4c0,1-0.1,1.9-0.2,2.9c0,0.1,0,0.3,0,0.4
		c-0.1,1-0.3,1.9-0.5,2.9c0,0.1-0.1,0.2-0.1,0.3c-0.2,0.9-0.4,1.9-0.7,2.8C187.6,266.3,187.5,266.5,187.5,266.7z M224.1,325.7h-3.5
		V339h-6.2v-13.2h-2.1v-4.7c0.2-0.2,0.3-0.5,0.5-0.7h1.6v-5.6h6.2v5.6h3.5V325.7z M224.9,262.6c-3.8,7.7-2,20.4-1.8,22.4
		c0,0.2,0,0.4,0,0.6c-0.1,0.7-0.4,2.3-0.5,2.6c-1.1,6.5-2.8,11-5,16.4c-4.2,10.3-9,17.7-9.2,18.1c0,0,0,0,0,0
		c-0.6-0.8-1.2-1.6-1.8-2.4c-1.2-1.7-2.3-3.5-3.4-5.1c-0.3-0.5-0.6-1-0.9-1.5l-1.6-2.4l0,0L195,303l0,0l-5.4-7.9l-1.8-2.7
		c0.1-0.2,0.1-0.3,0.1-0.4l0.8-0.8c0.2-0.2,0.2-0.5,0-0.7l-0.6-0.5l0,0c0.4-0.5,0.8-0.9,1.2-1.4l0.7,0.5c0.2,0.2,0.5,0.1,0.7-0.1
		l1-1.3l0.2-0.2c0.2-0.2,0.1-0.6-0.1-0.7l-0.5-0.4l-0.2-0.2c0,0,0-0.1,0.1-0.1c0.2-0.3,0.4-0.6,0.7-0.9l0.7,0.5
		c0.2,0.2,0.6,0.1,0.7-0.1l1-1.6c0.1-0.1,0.1-0.2,0.1-0.3c0-0.2-0.1-0.4-0.2-0.5l-0.7-0.5c0.3-0.4,0.5-0.9,0.8-1.3h0l0.7,0.4
		c0.3,0.1,0.6,0,0.7-0.2l0.9-1.7c0.1-0.2,0.1-0.4,0-0.6c0-0.1-0.1-0.1-0.2-0.1l-0.7-0.4c0.3-0.5,0.5-1,0.7-1.5l0.7,0.3
		c0.1,0.1,0.3,0.1,0.4,0c0.1,0,0.2-0.1,0.3-0.3l0.8-1.7c0.1-0.3,0-0.6-0.3-0.7l-0.7-0.3c0.2-0.5,0.3-0.9,0.5-1.4l0.8,0.3
		c0,0,0,0,0,0c0.3,0.1,0.5-0.1,0.6-0.3l0.6-1.8c0.1-0.3-0.1-0.6-0.3-0.6l-0.8-0.3c0.1-0.5,0.3-0.9,0.4-1.4l0.1-0.1l0.7,0.2
		c0.3,0.1,0.6-0.1,0.6-0.4l0.4-1.8c0.1-0.3-0.1-0.6-0.4-0.6l-0.2-0.1l-0.6-0.2c0-0.2,0.1-0.3,0.1-0.4c0.1-0.3,0.1-0.6,0.2-0.8
		l0.8,0.1c0.3,0,0.5-0.1,0.6-0.4l0.3-1.9c0-0.3-0.2-0.5-0.4-0.6l-0.1,0l-0.8-0.1c0.1-0.5,0.1-0.9,0.2-1.4l0.6,0l0.2,0
		c0.3,0,0.5-0.2,0.6-0.5l0.2-1.9c0-0.3-0.2-0.5-0.5-0.6l-0.8-0.1v0c0-0.4,0-0.8,0-1.3h0.8c0.3,0,0.5-0.2,0.5-0.5v-1.9
		c0-0.3-0.2-0.5-0.5-0.5h-0.8v0c0-0.6,0-1.1-0.1-1.7l0.4,0l0.5,0c0.3,0,0.5-0.3,0.5-0.6l-0.2-1.9c0-0.3-0.3-0.5-0.6-0.5l-0.8,0.1
		c0,0,0,0,0,0c0-0.4-0.1-0.7-0.1-1.1l0-0.1c0-0.1,0-0.3-0.1-0.4l0.4-0.1l0.4-0.1c0.3,0,0.5-0.3,0.4-0.6l-0.1-0.5
		c1.6-0.6,2.7-1,3.1-1.2c0,0,0,0,0,0c1.6-0.9,3.1-0.8,4.2-0.5c0.9,0.2,1.4,0.6,1.5,0.6c0,0,0,0,0,0s7.1,6.3,17,10.8
		c6,2.7,9.8,2.4,11.8,1.8c1.1-0.3,2-1.1,2.6-2l33.4-49.6c1.3-1.9,2.4-3.9,3.3-6c0.9-2.1,1.7-4.3,2.3-6.5l3.2-14.6
		c15.8-6.9,29-17.9,29-17.9c0.1,0.1,0.2,0.2,0.3,0.4l29,46.9c-0.1,0.1-0.2,0.1-0.2,0.2l-0.6-0.6c-0.2-0.2-0.5-0.2-0.7,0l-1.4,1.3
		c-0.2,0.2-0.2,0.5,0,0.7l0.6,0.6c-0.2,0.2-0.5,0.5-0.7,0.7c-0.1,0.1-0.2,0.2-0.2,0.2l-0.6-0.6c-0.2-0.2-0.5-0.2-0.7,0l-1.3,1.4
		c-0.2,0.2-0.2,0.5,0,0.7l0.6,0.6c-0.4,0.4-0.8,0.9-1.2,1.4l-0.7-0.5c-0.2-0.2-0.6-0.1-0.7,0.1l-1.2,1.5c-0.2,0.2-0.1,0.5,0.1,0.7
		l0.7,0.5c-0.3,0.3-0.5,0.7-0.7,1l-0.7-0.5c-0.1,0-0.2-0.1-0.3-0.1c-0.2,0-0.3,0.1-0.4,0.2l-0.1,0.2l-0.9,1.4
		c-0.2,0.2-0.1,0.6,0.2,0.7l0.7,0.5c-0.3,0.4-0.5,0.9-0.8,1.3l-0.7-0.4c-0.1,0-0.2-0.1-0.2-0.1c0,0-0.1,0-0.1,0c0,0-0.2,0.1-0.2,0.1
		c0,0-0.1,0.1-0.1,0.2l-0.9,1.7c0,0-0.1,0.1-0.1,0.2c0,0.2,0,0.3,0.2,0.4c0,0,0.1,0.1,0.1,0.1l0.7,0.4c-0.3,0.5-0.5,1-0.7,1.5
		l-0.7-0.3c-0.3-0.1-0.6,0-0.7,0.3l-0.4,0.9l-0.4,0.8c0,0.1-0.1,0.2,0,0.3c0,0,0,0,0,0c0,0,0,0.1,0,0.1c0,0,0,0,0,0c0,0,0,0,0,0
		c0,0,0,0.1,0.1,0.1c0,0,0.1,0,0.1,0.1l0.8,0.3c-0.2,0.5-0.4,0.9-0.5,1.4l-0.8-0.3c-0.3-0.1-0.6,0-0.6,0.3l-0.6,1.8c0,0,0,0.1,0,0.1
		c0,0.1,0,0.2,0,0.3l0,0c0,0,0,0.1,0,0.1c0,0,0,0,0.1,0.1c0.1,0.1,0.1,0.1,0.2,0.1l0.8,0.3c-0.2,0.5-0.3,1-0.4,1.5l-0.8-0.2
		c-0.3-0.1-0.6,0.1-0.6,0.4l-0.5,1.8c-0.1,0.3,0.1,0.6,0.4,0.6l0.8,0.2c-0.1,0.4-0.2,0.9-0.3,1.3l-0.8-0.1h0
		c-0.3-0.1-0.5,0.1-0.6,0.4l-0.1,0.8l-0.2,1.1c0,0.3,0.1,0.6,0.4,0.6l0.8,0.1c-0.1,0.5-0.1,0.9-0.2,1.4l-0.8-0.1h0c0,0-0.1,0-0.1,0
		c0,0-0.1,0-0.1,0c0,0,0,0,0,0c0,0-0.1,0-0.1,0.1c0,0-0.1,0.1-0.1,0.2c0,0,0,0.1,0,0.2l-0.2,1.9v0.1c0,0.2,0.2,0.4,0.5,0.5l0.8,0.1
		c0,0.1,0,0.2,0,0.3c-0.3,0.3-0.6,0.7-1,1c-0.1,0.1-0.3,0.3-0.4,0.4c-0.5,0.4-1,0.9-1.5,1.3c-0.4,0.3-0.8,0.6-1.2,0.9
		c-0.1,0.1-0.3,0.2-0.4,0.3c0,0,0,0,0,0c-1.6-1.1-2.7-1.4-2.7-1.4c-2.2-0.8-3.7,0.4-4.4,1.1c-0.6,0.7-1.5,1.1-2.4,1.2h-0.1
		c-0.4,0-0.8,0-1.1-0.2c-1.6-0.6-2.9-0.6-4-0.3c-1.2,0.3-2.2,1.3-2.5,2.6c0,0,0,0,0,0c0,0,0,0,0,0c-1.4,4.9-7.2,2.1-8,1.6
		c0,0,0,0-0.1,0c0,0,0,0,0,0c0,0,0,0,0,0c-34.8-3.9-46-0.4-49.3,1.4c0,0,0,0,0,0c-0.2,0.1-0.3,0.4-0.4,0.7c-0.3,1.1-0.6,2.7-1.5,3.5
		l0,0c-0.8,0.8-1.7,1.4-2.7,1.8c-2.2,0.9-4.1,0.6-5.8-0.3c-1-0.5-3.4-1.5-4.2-1.9c-0.2-0.1-0.5-0.1-0.7-0.1
		C227.5,259.9,225.6,261.1,224.9,262.6z M244.4,336.3c-1.9,2.2-4.6,3.4-8.1,3.4c-3.5,0-6.2-1.1-8.2-3.4c-1.6-1.9-2.4-4.1-2.4-6.8
		c0-2.4,0.8-4.6,2.4-6.4c1.9-2.3,4.7-3.4,8.3-3.4c3.3,0,6,1.1,7.9,3.4c1.6,1.8,2.4,4,2.4,6.6C246.8,332.2,246,334.4,244.4,336.3z
		 M275.7,337.6c-1.6,0.6-3.2,0.8-5,0.8c-3.8,0-7.3-1.1-10.5-3.4l3.3-6.3c2.4,2.2,4.7,3.2,6.9,3.2c1,0,1.9-0.2,2.6-0.7
		c0.8-0.5,1.2-1.3,1.2-2.3c0-0.9-0.5-1.6-1.4-2.2c-0.7-0.4-1.8-0.9-3.4-1.4c-1.9-0.6-3.2-1-3.7-1.2c-0.8-0.3-1.5-0.7-2-1.2
		c-1.6-1.3-2.4-3.3-2.4-6c0-2.8,0.8-5.1,2.5-7c1.9-2.2,4.5-3.2,7.8-3.2c3.3,0,6.4,0.8,9.6,2.4l-3.1,6.1c-1.7-1.4-3.4-2-5.2-2
		c-0.8,0-1.6,0.2-2.2,0.6c-0.8,0.5-1.1,1.1-1.1,2c0,0.8,0.5,1.5,1.5,2.1c0.4,0.3,1.8,0.7,4,1.4c2.8,0.8,4.7,2,5.9,3.5
		c1,1.3,1.5,2.9,1.5,4.9C282.4,332.7,280.1,336.1,275.7,337.6z M305.3,313.9h-6.5v23.7h-7.8v-23.7h-6.4v-6.5h20.7V313.9z
		 M331.3,317.4l-7.6,10.6v9.6h-7.8V328l-7.7-10l0-10.6l6.4,0l0.1,8.5l5.3,6.5l4.7-6.6l0-8.4l6.7,0L331.3,317.4z M351.7,337.3
		c-0.3,0.1-0.5,0.2-0.7,0.3h-16.5v-30.3h7.8v23.7h9.4V337.3z M363.6,313.9v5.2h6c-1.2-1.7-2.5-3.5-4.1-5.2H363.6z M236.3,325.3
		c-1.3,0-2.3,0.5-3.1,1.5c-0.7,0.8-1,1.7-1,2.8c0,1.1,0.3,2,1,2.8c0.8,1,1.8,1.5,3.1,1.5c1.1,0,2.1-0.4,2.9-1.3
		c0.8-0.8,1.2-1.9,1.2-3.1c0-1.2-0.4-2.2-1.2-3.1C238.4,325.7,237.4,325.3,236.3,325.3z M199.6,334c1.1,0,2.1-0.4,2.9-1.3
		c0.8-0.8,1.2-1.9,1.2-3.1c0-1.2-0.4-2.2-1.2-3.1c-0.8-0.8-1.8-1.3-2.9-1.3c-1.3,0-2.3,0.5-3.1,1.5c-0.6,0.8-1,1.7-1,2.8
		c0,1.1,0.3,2,1,2.8C197.3,333.5,198.3,334,199.6,334z M239.2,326.6c-0.8-0.8-1.8-1.3-2.9-1.3c-1.3,0-2.3,0.5-3.1,1.5
		c-0.7,0.8-1,1.7-1,2.8c0,1.1,0.3,2,1,2.8c0.8,1,1.8,1.5,3.1,1.5c1.1,0,2.1-0.4,2.9-1.3c0.8-0.8,1.2-1.9,1.2-3.1
		C240.4,328.4,240,327.4,239.2,326.6z M239.2,326.6c-0.8-0.8-1.8-1.3-2.9-1.3c-1.3,0-2.3,0.5-3.1,1.5c-0.7,0.8-1,1.7-1,2.8
		c0,1.1,0.3,2,1,2.8c0.8,1,1.8,1.5,3.1,1.5c1.1,0,2.1-0.4,2.9-1.3c0.8-0.8,1.2-1.9,1.2-3.1C240.4,328.4,240,327.4,239.2,326.6z
		 M202.5,326.6c-0.8-0.8-1.8-1.3-2.9-1.3c-1.3,0-2.3,0.5-3.1,1.5c-0.6,0.8-1,1.7-1,2.8c0,1.1,0.3,2,1,2.8c0.8,1,1.8,1.5,3.1,1.5
		c1.1,0,2.1-0.4,2.9-1.3c0.8-0.8,1.2-1.9,1.2-3.1C203.7,328.4,203.3,327.4,202.5,326.6z M239.2,326.6c-0.8-0.8-1.8-1.3-2.9-1.3
		c-1.3,0-2.3,0.5-3.1,1.5c-0.7,0.8-1,1.7-1,2.8c0,1.1,0.3,2,1,2.8c0.8,1,1.8,1.5,3.1,1.5c1.1,0,2.1-0.4,2.9-1.3
		c0.8-0.8,1.2-1.9,1.2-3.1C240.4,328.4,240,327.4,239.2,326.6z M239.2,326.6c-0.8-0.8-1.8-1.3-2.9-1.3c-1.3,0-2.3,0.5-3.1,1.5
		c-0.7,0.8-1,1.7-1,2.8c0,1.1,0.3,2,1,2.8c0.8,1,1.8,1.5,3.1,1.5c1.1,0,2.1-0.4,2.9-1.3c0.8-0.8,1.2-1.9,1.2-3.1
		C240.4,328.4,240,327.4,239.2,326.6z M202.5,326.6c-0.8-0.8-1.8-1.3-2.9-1.3c-1.3,0-2.3,0.5-3.1,1.5c-0.6,0.8-1,1.7-1,2.8
		c0,1.1,0.3,2,1,2.8c0.8,1,1.8,1.5,3.1,1.5c1.1,0,2.1-0.4,2.9-1.3c0.8-0.8,1.2-1.9,1.2-3.1C203.7,328.4,203.3,327.4,202.5,326.6z
		 M202.5,326.6c-0.8-0.8-1.8-1.3-2.9-1.3c-1.3,0-2.3,0.5-3.1,1.5c-0.6,0.8-1,1.7-1,2.8c0,1.1,0.3,2,1,2.8c0.8,1,1.8,1.5,3.1,1.5
		c1.1,0,2.1-0.4,2.9-1.3c0.8-0.8,1.2-1.9,1.2-3.1C203.7,328.4,203.3,327.4,202.5,326.6z"/>
	<g>
		<g>
			<path class="st0" d="M351.7,337.3v0.3H351C351.2,337.5,351.5,337.4,351.7,337.3z"/>
			<path class="st0" d="M351,337.6h0.7v-0.3C351.5,337.4,351.2,337.5,351,337.6z"/>
			<path class="st0" d="M369.7,319.1h2.8v4.7C371.7,322.3,370.7,320.7,369.7,319.1z"/>
			<path class="st0" d="M372.9,307.4v6.5h-7.4c-2.1-2.3-4.6-4.5-7.5-6.5H372.9z"/>
		</g>
		<g>
			<path class="st0" d="M400.3,319.3v1.8c-0.7-0.7-1.3-1.3-1.9-1.6c-1.1-0.5-2.3-0.8-3.5-0.8c-2.1,0-4,0.8-5.6,2.3
				c-2.1,1.9-3.1,4.4-3.1,7.6c0,3.1,1,5.6,3,7.5c1.7,1.6,3.6,2.4,5.8,2.4c1.3,0,2.5-0.3,3.6-0.9c0.6-0.4,1.2-0.9,1.8-1.7v2.1h6.2
				v-18.6H400.3z M399.4,331.6c-0.8,0.8-1.7,1.2-2.8,1.2c-1.2,0-2.2-0.5-3-1.5c-0.6-0.8-0.9-1.7-0.9-2.7s0.3-1.9,0.9-2.7
				c0.8-1,1.8-1.5,3-1.5c1.1,0,2,0.4,2.8,1.2c0.8,0.8,1.2,1.8,1.2,3C400.5,329.8,400.2,330.8,399.4,331.6z"/>
			<polygon class="st0" points="549.7,319.2 549.5,328.6 536.5,345.9 529.8,345.9 537.1,335.9 530.7,328.6 530.6,319.2 536.7,319.2 
				536.7,327 540.6,331.5 543.8,326.8 543.8,319.2 			"/>
			<path class="st0" d="M527.1,325.8v12.1h-6.2v-9.2c0-1.6-0.2-2.7-0.5-3.3c-0.5-0.9-1.2-1.3-2.1-1.3c-1,0-1.8,0.5-2.4,1.4
				c-0.4,0.7-0.6,1.7-0.6,3.2v9.2h-6.2v-9.1c0-1.6-0.1-2.6-0.4-3.1c-0.5-1-1.3-1.4-2.3-1.4c-1,0-1.7,0.4-2.3,1.2
				c-0.2,0.3-0.3,0.7-0.4,1.2c-0.1,0.5-0.1,1.2-0.1,2.1v9.1h-6.2v-18.6h6.2v2.3c0.7-0.7,1.4-1.3,2-1.6c1.1-0.6,2.3-0.9,3.7-0.9
				c1.7,0,3.2,0.5,4.3,1.4c0.6,0.5,1.1,1.2,1.7,2c0.5-0.8,1-1.5,1.6-2c1.2-1,2.7-1.5,4.3-1.5c1.3,0,2.5,0.3,3.5,1
				c1.1,0.7,1.8,1.7,2.1,3C527,323.7,527.1,324.7,527.1,325.8z"/>
			<path class="st0" d="M493.9,329c0-2.2-0.5-4.1-1.4-5.8c-1.6-2.9-4.3-4.4-8.1-4.4c-3.1,0-5.5,0.9-7.2,2.8
				c-1.7,1.9-2.5,4.3-2.5,7.2c0,2.5,0.7,4.6,2,6.3c1.8,2.3,4.5,3.5,8.1,3.5c2.8,0,5.1-0.8,6.8-2.5c0.9-0.9,1.6-2.2,2.1-3.9h-6
				c-0.7,1.2-1.7,1.7-3,1.7c-2.5,0-3.8-1.4-3.8-4.1h12.9V329z M481.1,326.1c0.1-0.9,0.5-1.6,1-2.2c0.6-0.7,1.5-1,2.5-1
				c1.9,0,3.1,1.1,3.5,3.2H481.1z"/>
			<path class="st0" d="M464.9,307.8v13.3c-0.7-0.7-1.3-1.3-1.9-1.6c-1.1-0.6-2.3-0.9-3.5-0.9c-2.1,0-4,0.8-5.6,2.3
				c-2.1,1.9-3.1,4.4-3.1,7.6c0,3.1,1,5.6,3,7.5c1.7,1.6,3.6,2.4,5.8,2.4c1.3,0,2.5-0.3,3.6-0.9c0.6-0.4,1.2-0.9,1.8-1.7v2.1h6.2
				v-30H464.9z M463.9,331.6c-0.8,0.8-1.7,1.2-2.8,1.2c-1.2,0-2.2-0.5-3-1.5c-0.6-0.8-0.9-1.7-0.9-2.7c0-1,0.3-1.9,0.9-2.7
				c0.8-1,1.8-1.5,3-1.5c1.1,0,2,0.4,2.8,1.2c0.8,0.8,1.2,1.8,1.2,3C465.1,329.8,464.7,330.8,463.9,331.6z"/>
			<path class="st0" d="M441,319.3v1.8c-0.7-0.7-1.3-1.3-1.9-1.6c-1.1-0.5-2.2-0.8-3.5-0.8c-2.1,0-4,0.8-5.7,2.3
				c-1.1,1-1.9,2.2-2.4,3.5c-0.5,1.2-0.7,2.6-0.7,4.1c0,3.1,1,5.6,3,7.5c1.7,1.6,3.6,2.4,5.8,2.4c1.3,0,2.5-0.3,3.6-0.9
				c0.6-0.4,1.2-0.9,1.8-1.7v2.1h6.2v-18.6H441z M440,331.6c-0.6,0.6-1.2,1-1.9,1.1c-0.3,0.1-0.6,0.1-0.9,0.1c-1.2,0-2.2-0.5-3-1.5
				c-0.6-0.7-0.9-1.5-0.9-2.3c0-0.1,0-0.3,0-0.4c0-1,0.3-1.9,0.9-2.7c0.8-1,1.8-1.5,3-1.5c1.1,0,2,0.4,2.8,1.2
				c0.8,0.8,1.2,1.8,1.2,3C441.2,329.8,440.8,330.8,440,331.6z"/>
			<path class="st1" d="M424,319.8v5.6c-0.3-0.3-0.7-0.5-1-0.6c-0.1,0-0.1-0.1-0.2-0.1c-0.2-0.1-0.3-0.2-0.5-0.2
				c-0.1,0-0.2-0.1-0.3-0.1c0,0,0,0,0,0c-0.4-0.1-0.8-0.2-1.2-0.2c-1.2,0-2.2,0.4-3,1.3s-1.2,1.9-1.2,3.2c0,1.3,0.4,2.4,1.2,3.2
				c0.8,0.8,1.8,1.3,3,1.3c1,0,2.1-0.4,3.2-1.2v5.6c-1.3,0.7-2.6,1-4,1c-3.2,0-5.7-1.1-7.6-3.4c-1.5-1.9-2.3-4-2.3-6.4
				c0-2.5,0.8-4.6,2.3-6.4c1.7-2,3.8-3.2,6.5-3.4c0.3,0,0.7,0,1.1,0h0.1c0,0,0,0,0,0c0.3,0,0.6,0,0.9,0.1c0.1,0,0.3,0,0.4,0.1
				c0.2,0,0.4,0.1,0.7,0.1c0,0,0.1,0,0.1,0C422.8,319.2,423.4,319.5,424,319.8z"/>
		</g>
		<g>
			<path class="st0" d="M89.1,326c1.8-0.4,3.3-1.1,4.3-2.1c1.6-1.6,2.5-3.7,2.5-6.4c0-2.3-0.7-4.4-2.1-6.1c-1.8-2.1-4.5-3.2-8.2-3.2
				H73v30.3h8.1v-11.6l7.7,11.6h10L89.1,326z M86.2,320.7c-0.7,0.7-2,1-3.7,1h-1.5v-7.6h1.5c1.7,0,2.9,0.3,3.7,1
				c0.8,0.8,1.2,1.7,1.2,2.7C87.5,319,87.1,319.9,86.2,320.7z"/>
			<path class="st0" d="M133.2,314.7v5.2h9.1v6.5h-9.1v5.5h9.6v2.9c-4.4-0.8-7.7-1.3-9.6-1.4c-0.5,0-1-0.1-1.3-0.1
				c-1,0-1.4,0.2-1.6,0.5c0,0,0,0.1,0,0.2c0,0.6,0.7,1.3,0.7,1.3c1.5,1.1,3,2.2,4.5,3.1h-10.5v-30.3h17.7v6.5H133.2z"/>
			<polygon class="st0" points="68.2,314.7 58.4,314.7 58.4,319.9 67.3,319.9 67.3,326.5 58.4,326.5 58.4,338.4 50.3,338.4 
				50.3,308.1 68.2,308.1 			"/>
			<path class="st0" d="M109,338.4L109,338.4z"/>
			<polygon class="st0" points="110.3,314.7 110.3,319.9 119.4,319.9 119.4,326.5 110.3,326.5 110.3,331.9 120,331.9 120,338.4 
				102.3,338.4 102.3,308.1 120,308.1 120,314.7 			"/>
			<path class="st0" d="M125.3,338.4L125.3,338.4z"/>
		</g>
		<g>
			<path class="st0" d="M212.8,320.4c-0.2,0.2-0.3,0.5-0.5,0.7v-0.7H212.8z"/>
			<path class="st0" d="M212.3,320.4v0.7c0.2-0.2,0.3-0.5,0.5-0.7H212.3z"/>
			<path class="st1" d="M195.4,337.7c0,0,0-0.1-0.1-0.1l-6.2-9.1c0,0,0,0.1,0,0.1v0.1c0,0.3,0,0.6,0,0.8c0,2.7,0.8,4.9,2.4,6.8
				c0.5,0.6,1.1,1.1,1.7,1.6c0.1,0.1,0.3,0.2,0.4,0.3c0.3,0.2,0.6,0.4,1,0.5C195.1,338.1,195.4,337.7,195.4,337.7
				C195.4,337.7,195.4,337.7,195.4,337.7z"/>
			<path class="st0" d="M185.8,326.9V339h-6.2v-9.2c0-1.6-0.2-2.7-0.5-3.3c-0.2-0.4-0.5-0.7-0.8-0.9c-0.4-0.3-0.8-0.4-1.3-0.4
				c-1,0-1.8,0.5-2.4,1.4c-0.4,0.7-0.6,1.7-0.6,3.2v9.2h-6.2v-9.2c0-1.6-0.1-2.6-0.4-3.1c-0.5-1-1.3-1.4-2.3-1.4
				c-1,0-1.7,0.4-2.3,1.2c-0.2,0.3-0.3,0.7-0.4,1.2c-0.1,0.5-0.1,1.2-0.1,2.1v9.2h-1.7c-1.5-0.4-3-0.8-4.5-1.2v-17.4h6.2v2.3
				c0.7-0.8,1.4-1.3,2-1.6c1.1-0.6,2.3-0.9,3.7-0.9c1.7,0,3.2,0.5,4.3,1.4c0.6,0.5,1.1,1.2,1.7,2.1c0.5-0.8,1-1.5,1.6-2
				c0.7-0.6,1.5-1,2.4-1.3c0,0,0.4-0.1,0.9-0.2c0.4-0.1,0.9-0.1,1.5-0.1c1.1,0.1,2.1,0.4,3,1c1.1,0.7,1.8,1.7,2.2,3
				C185.7,324.8,185.8,325.7,185.8,326.9z"/>
		</g>
	</g>
</g>
</svg>
