<?xml version="1.0" encoding="utf-8"?>
<!-- Generator: Adobe Illustrator 25.2.3, SVG Export Plug-In . SVG Version: 6.00 Build 0)  -->
<svg version="1.1" id="Vrstva_1" xmlns="http://www.w3.org/2000/svg" xmlns:xlink="http://www.w3.org/1999/xlink" x="0px" y="0px"
	 viewBox="0 0 600 600" style="enable-background:new 0 0 600 600;" xml:space="preserve">
<style type="text/css">
	.st0{fill:#FFFFFF;}
	.st1{fill-rule:evenodd;clip-rule:evenodd;fill:#FFFFFF;}
</style>
<g>
	<path class="st0" d="M200.4,327.7c-0.8-0.9-1.8-1.3-2.9-1.3c-0.2,0-0.5,0-0.7,0.1l4.4,6.4c0.3-0.6,0.4-1.3,0.4-2
		C201.6,329.6,201.2,328.6,200.4,327.7z M200.4,327.7c-0.8-0.9-1.8-1.3-2.9-1.3c-0.2,0-0.5,0-0.7,0.1l4.4,6.4c0.3-0.6,0.4-1.3,0.4-2
		C201.6,329.6,201.2,328.6,200.4,327.7z M237.8,327.7c-0.8-0.9-1.8-1.3-2.9-1.3c-1.3,0-2.4,0.5-3.2,1.6c-0.7,0.8-1,1.8-1,2.8
		c0,1.1,0.3,2.1,1,2.9c0.8,1.1,1.9,1.6,3.2,1.6c1.2,0,2.1-0.4,3-1.3c0.8-0.8,1.2-1.9,1.2-3.2C239.1,329.6,238.7,328.6,237.8,327.7z
		 M237.8,327.7c-0.8-0.9-1.8-1.3-2.9-1.3c-1.3,0-2.4,0.5-3.2,1.6c-0.7,0.8-1,1.8-1,2.8c0,1.1,0.3,2.1,1,2.9c0.8,1.1,1.9,1.6,3.2,1.6
		c1.2,0,2.1-0.4,3-1.3c0.8-0.8,1.2-1.9,1.2-3.2C239.1,329.6,238.7,328.6,237.8,327.7z M200.4,327.7c-0.8-0.9-1.8-1.3-2.9-1.3
		c-0.2,0-0.5,0-0.7,0.1l4.4,6.4c0.3-0.6,0.4-1.3,0.4-2C201.6,329.6,201.2,328.6,200.4,327.7z M237.8,327.7c-0.8-0.9-1.8-1.3-2.9-1.3
		c-1.3,0-2.4,0.5-3.2,1.6c-0.7,0.8-1,1.8-1,2.8c0,1.1,0.3,2.1,1,2.9c0.8,1.1,1.9,1.6,3.2,1.6c1.2,0,2.1-0.4,3-1.3
		c0.8-0.8,1.2-1.9,1.2-3.2C239.1,329.6,238.7,328.6,237.8,327.7z M237.8,327.7c-0.8-0.9-1.8-1.3-2.9-1.3c-1.3,0-2.4,0.5-3.2,1.6
		c-0.7,0.8-1,1.8-1,2.8c0,1.1,0.3,2.1,1,2.9c0.8,1.1,1.9,1.6,3.2,1.6c1.2,0,2.1-0.4,3-1.3c0.8-0.8,1.2-1.9,1.2-3.2
		C239.1,329.6,238.7,328.6,237.8,327.7z M200.4,327.7c-0.8-0.9-1.8-1.3-2.9-1.3c-0.2,0-0.5,0-0.7,0.1l4.4,6.4c0.3-0.6,0.4-1.3,0.4-2
		C201.6,329.6,201.2,328.6,200.4,327.7z M237.8,327.7c-0.8-0.9-1.8-1.3-2.9-1.3c-1.3,0-2.4,0.5-3.2,1.6c-0.7,0.8-1,1.8-1,2.8
		c0,1.1,0.3,2.1,1,2.9c0.8,1.1,1.9,1.6,3.2,1.6c1.2,0,2.1-0.4,3-1.3c0.8-0.8,1.2-1.9,1.2-3.2C239.1,329.6,238.7,328.6,237.8,327.7z
		 M237.8,327.7c-0.8-0.9-1.8-1.3-2.9-1.3c-1.3,0-2.4,0.5-3.2,1.6c-0.7,0.8-1,1.8-1,2.8c0,1.1,0.3,2.1,1,2.9c0.8,1.1,1.9,1.6,3.2,1.6
		c1.2,0,2.1-0.4,3-1.3c0.8-0.8,1.2-1.9,1.2-3.2C239.1,329.6,238.7,328.6,237.8,327.7z M200.4,327.7c-0.8-0.9-1.8-1.3-2.9-1.3
		c-0.2,0-0.5,0-0.7,0.1l4.4,6.4c0.3-0.6,0.4-1.3,0.4-2C201.6,329.6,201.2,328.6,200.4,327.7z M237.8,327.7c-0.8-0.9-1.8-1.3-2.9-1.3
		c-1.3,0-2.4,0.5-3.2,1.6c-0.7,0.8-1,1.8-1,2.8c0,1.1,0.3,2.1,1,2.9c0.8,1.1,1.9,1.6,3.2,1.6c1.2,0,2.1-0.4,3-1.3
		c0.8-0.8,1.2-1.9,1.2-3.2C239.1,329.6,238.7,328.6,237.8,327.7z M237.8,327.7c-0.8-0.9-1.8-1.3-2.9-1.3c-1.3,0-2.4,0.5-3.2,1.6
		c-0.7,0.8-1,1.8-1,2.8c0,1.1,0.3,2.1,1,2.9c0.8,1.1,1.9,1.6,3.2,1.6c1.2,0,2.1-0.4,3-1.3c0.8-0.8,1.2-1.9,1.2-3.2
		C239.1,329.6,238.7,328.6,237.8,327.7z M200.4,327.7c-0.8-0.9-1.8-1.3-2.9-1.3c-0.2,0-0.5,0-0.7,0.1l4.4,6.4c0.3-0.6,0.4-1.3,0.4-2
		C201.6,329.6,201.2,328.6,200.4,327.7z M237.8,327.7c-0.8-0.9-1.8-1.3-2.9-1.3c-1.3,0-2.4,0.5-3.2,1.6c-0.7,0.8-1,1.8-1,2.8
		c0,1.1,0.3,2.1,1,2.9c0.8,1.1,1.9,1.6,3.2,1.6c1.2,0,2.1-0.4,3-1.3c0.8-0.8,1.2-1.9,1.2-3.2C239.1,329.6,238.7,328.6,237.8,327.7z
		 M237.8,327.7c-0.8-0.9-1.8-1.3-2.9-1.3c-1.3,0-2.4,0.5-3.2,1.6c-0.7,0.8-1,1.8-1,2.8c0,1.1,0.3,2.1,1,2.9c0.8,1.1,1.9,1.6,3.2,1.6
		c1.2,0,2.1-0.4,3-1.3c0.8-0.8,1.2-1.9,1.2-3.2C239.1,329.6,238.7,328.6,237.8,327.7z M200.4,327.7c-0.8-0.9-1.8-1.3-2.9-1.3
		c-0.2,0-0.5,0-0.7,0.1l4.4,6.4c0.3-0.6,0.4-1.3,0.4-2C201.6,329.6,201.2,328.6,200.4,327.7z M237.8,327.7c-0.8-0.9-1.8-1.3-2.9-1.3
		c-1.3,0-2.4,0.5-3.2,1.6c-0.7,0.8-1,1.8-1,2.8c0,1.1,0.3,2.1,1,2.9c0.8,1.1,1.9,1.6,3.2,1.6c1.2,0,2.1-0.4,3-1.3
		c0.8-0.8,1.2-1.9,1.2-3.2C239.1,329.6,238.7,328.6,237.8,327.7z M237.8,327.7c-0.8-0.9-1.8-1.3-2.9-1.3c-1.3,0-2.4,0.5-3.2,1.6
		c-0.7,0.8-1,1.8-1,2.8c0,1.1,0.3,2.1,1,2.9c0.8,1.1,1.9,1.6,3.2,1.6c1.2,0,2.1-0.4,3-1.3c0.8-0.8,1.2-1.9,1.2-3.2
		C239.1,329.6,238.7,328.6,237.8,327.7z M200.4,327.7c-0.8-0.9-1.8-1.3-2.9-1.3c-0.2,0-0.5,0-0.7,0.1l4.4,6.4c0.3-0.6,0.4-1.3,0.4-2
		C201.6,329.6,201.2,328.6,200.4,327.7z M237.8,327.7c-0.8-0.9-1.8-1.3-2.9-1.3c-1.3,0-2.4,0.5-3.2,1.6c-0.7,0.8-1,1.8-1,2.8
		c0,1.1,0.3,2.1,1,2.9c0.8,1.1,1.9,1.6,3.2,1.6c1.2,0,2.1-0.4,3-1.3c0.8-0.8,1.2-1.9,1.2-3.2C239.1,329.6,238.7,328.6,237.8,327.7z
		 M237.8,327.7c-0.8-0.9-1.8-1.3-2.9-1.3c-1.3,0-2.4,0.5-3.2,1.6c-0.7,0.8-1,1.8-1,2.8c0,1.1,0.3,2.1,1,2.9c0.8,1.1,1.9,1.6,3.2,1.6
		c1.2,0,2.1-0.4,3-1.3c0.8-0.8,1.2-1.9,1.2-3.2C239.1,329.6,238.7,328.6,237.8,327.7z M200.4,327.7c-0.8-0.9-1.8-1.3-2.9-1.3
		c-0.2,0-0.5,0-0.7,0.1l4.4,6.4c0.3-0.6,0.4-1.3,0.4-2C201.6,329.6,201.2,328.6,200.4,327.7z M237.8,327.7c-0.8-0.9-1.8-1.3-2.9-1.3
		c-1.3,0-2.4,0.5-3.2,1.6c-0.7,0.8-1,1.8-1,2.8c0,1.1,0.3,2.1,1,2.9c0.8,1.1,1.9,1.6,3.2,1.6c1.2,0,2.1-0.4,3-1.3
		c0.8-0.8,1.2-1.9,1.2-3.2C239.1,329.6,238.7,328.6,237.8,327.7z M237.8,327.7c-0.8-0.9-1.8-1.3-2.9-1.3c-1.3,0-2.4,0.5-3.2,1.6
		c-0.7,0.8-1,1.8-1,2.8c0,1.1,0.3,2.1,1,2.9c0.8,1.1,1.9,1.6,3.2,1.6c1.2,0,2.1-0.4,3-1.3c0.8-0.8,1.2-1.9,1.2-3.2
		C239.1,329.6,238.7,328.6,237.8,327.7z M200.4,327.7c-0.8-0.9-1.8-1.3-2.9-1.3c-0.2,0-0.5,0-0.7,0.1l4.4,6.4c0.3-0.6,0.4-1.3,0.4-2
		C201.6,329.6,201.2,328.6,200.4,327.7z M237.8,327.7c-0.8-0.9-1.8-1.3-2.9-1.3c-1.3,0-2.4,0.5-3.2,1.6c-0.7,0.8-1,1.8-1,2.8
		c0,1.1,0.3,2.1,1,2.9c0.8,1.1,1.9,1.6,3.2,1.6c1.2,0,2.1-0.4,3-1.3c0.8-0.8,1.2-1.9,1.2-3.2C239.1,329.6,238.7,328.6,237.8,327.7z
		 M237.8,327.7c-0.8-0.9-1.8-1.3-2.9-1.3c-1.3,0-2.4,0.5-3.2,1.6c-0.7,0.8-1,1.8-1,2.8c0,1.1,0.3,2.1,1,2.9c0.8,1.1,1.9,1.6,3.2,1.6
		c1.2,0,2.1-0.4,3-1.3c0.8-0.8,1.2-1.9,1.2-3.2C239.1,329.6,238.7,328.6,237.8,327.7z M200.4,327.7c-0.8-0.9-1.8-1.3-2.9-1.3
		c-0.2,0-0.5,0-0.7,0.1l4.4,6.4c0.3-0.6,0.4-1.3,0.4-2C201.6,329.6,201.2,328.6,200.4,327.7z M237.8,327.7c-0.8-0.9-1.8-1.3-2.9-1.3
		c-1.3,0-2.4,0.5-3.2,1.6c-0.7,0.8-1,1.8-1,2.8c0,1.1,0.3,2.1,1,2.9c0.8,1.1,1.9,1.6,3.2,1.6c1.2,0,2.1-0.4,3-1.3
		c0.8-0.8,1.2-1.9,1.2-3.2C239.1,329.6,238.7,328.6,237.8,327.7z M237.8,327.7c-0.8-0.9-1.8-1.3-2.9-1.3c-1.3,0-2.4,0.5-3.2,1.6
		c-0.7,0.8-1,1.8-1,2.8c0,1.1,0.3,2.1,1,2.9c0.8,1.1,1.9,1.6,3.2,1.6c1.2,0,2.1-0.4,3-1.3c0.8-0.8,1.2-1.9,1.2-3.2
		C239.1,329.6,238.7,328.6,237.8,327.7z M200.4,327.7c-0.8-0.9-1.8-1.3-2.9-1.3c-0.2,0-0.5,0-0.7,0.1l4.4,6.4c0.3-0.6,0.4-1.3,0.4-2
		C201.6,329.6,201.2,328.6,200.4,327.7z M237.8,327.7c-0.8-0.9-1.8-1.3-2.9-1.3c-1.3,0-2.4,0.5-3.2,1.6c-0.7,0.8-1,1.8-1,2.8
		c0,1.1,0.3,2.1,1,2.9c0.8,1.1,1.9,1.6,3.2,1.6c1.2,0,2.1-0.4,3-1.3c0.8-0.8,1.2-1.9,1.2-3.2C239.1,329.6,238.7,328.6,237.8,327.7z
		 M237.8,327.7c-0.8-0.9-1.8-1.3-2.9-1.3c-1.3,0-2.4,0.5-3.2,1.6c-0.7,0.8-1,1.8-1,2.8c0,1.1,0.3,2.1,1,2.9c0.8,1.1,1.9,1.6,3.2,1.6
		c1.2,0,2.1-0.4,3-1.3c0.8-0.8,1.2-1.9,1.2-3.2C239.1,329.6,238.7,328.6,237.8,327.7z M200.4,327.7c-0.8-0.9-1.8-1.3-2.9-1.3
		c-0.2,0-0.5,0-0.7,0.1l4.4,6.4c0.3-0.6,0.4-1.3,0.4-2C201.6,329.6,201.2,328.6,200.4,327.7z M237.8,327.7c-0.8-0.9-1.8-1.3-2.9-1.3
		c-1.3,0-2.4,0.5-3.2,1.6c-0.7,0.8-1,1.8-1,2.8c0,1.1,0.3,2.1,1,2.9c0.8,1.1,1.9,1.6,3.2,1.6c1.2,0,2.1-0.4,3-1.3
		c0.8-0.8,1.2-1.9,1.2-3.2C239.1,329.6,238.7,328.6,237.8,327.7z M237.8,327.7c-0.8-0.9-1.8-1.3-2.9-1.3c-1.3,0-2.4,0.5-3.2,1.6
		c-0.7,0.8-1,1.8-1,2.8c0,1.1,0.3,2.1,1,2.9c0.8,1.1,1.9,1.6,3.2,1.6c1.2,0,2.1-0.4,3-1.3c0.8-0.8,1.2-1.9,1.2-3.2
		C239.1,329.6,238.7,328.6,237.8,327.7z M200.4,327.7c-0.8-0.9-1.8-1.3-2.9-1.3c-0.2,0-0.5,0-0.7,0.1l4.4,6.4c0.3-0.6,0.4-1.3,0.4-2
		C201.6,329.6,201.2,328.6,200.4,327.7z M237.8,327.7c-0.8-0.9-1.8-1.3-2.9-1.3c-1.3,0-2.4,0.5-3.2,1.6c-0.7,0.8-1,1.8-1,2.8
		c0,1.1,0.3,2.1,1,2.9c0.8,1.1,1.9,1.6,3.2,1.6c1.2,0,2.1-0.4,3-1.3c0.8-0.8,1.2-1.9,1.2-3.2C239.1,329.6,238.7,328.6,237.8,327.7z
		 M237.8,327.7c-0.8-0.9-1.8-1.3-2.9-1.3c-1.3,0-2.4,0.5-3.2,1.6c-0.7,0.8-1,1.8-1,2.8c0,1.1,0.3,2.1,1,2.9c0.8,1.1,1.9,1.6,3.2,1.6
		c1.2,0,2.1-0.4,3-1.3c0.8-0.8,1.2-1.9,1.2-3.2C239.1,329.6,238.7,328.6,237.8,327.7z M512.4,492.2
		C512.4,492.1,512.4,492.1,512.4,492.2c-0.2-0.5-0.3-0.8-0.4-1c0,0,0,0,0-0.1c0,0,0,0,0,0c0,0,0-0.1,0-0.1
		c-10.2-30-16.4-44.6-19.8-51.6c-0.7-1.5-1.3-2.6-1.8-3.5c0,0,0,0,0,0c-1.3-2.3-1.8-2.8-1.8-2.8c-0.6-0.6-1.1-1.2-1.6-1.8
		c-0.4-0.4-0.8-0.9-1.1-1.3c-2.3-2.6-4.2-4.7-5.9-6.4c-0.2-0.3-0.5-0.5-0.7-0.7c-4.2-4.4-6.9-6.7-10.8-9.6c0,0,0,0,0,0
		c-3.4-2.5-7.8-5.5-15-10.7c0,0,0,0-0.1,0c-18.2-13.2-29-11.5-30.9-11c-0.2,0-0.3,0.1-0.3,0.1c-10.9,0.2-15.9-0.3-20.2-3.5v0
		c-0.5-0.4-1.1-0.8-1.6-1.3c0,0,0,0,0,0c-1.2-1.2-2.5-2.6-3.8-4.3c0,0,0,0,0-0.1c-0.9-1.1-1.9-2.4-2.9-3.9c0,0,0,0-0.1-0.1
		c-0.1-0.2-0.2-0.3-0.4-0.5c-0.1-0.1-0.1-0.1-0.2-0.2c-0.4-0.5-0.8-1-1.1-1.5c0,0,0,0,0-0.1c-2.2-3-4.7-5.6-7.1-7.9c0,0,0,0,0,0
		c-8.5-7.8-17.1-11-17.8-11.3c1.5,0.2,67.7,10.1,68.6,1.8c0-0.3,0-0.7-0.2-1.1c0,0-1.5-1.1-9.5-3.7c-0.5-0.1-1.1-0.1-1.7-0.2
		l0.1-0.2c-0.1,0-0.2,0-0.3-0.1l0-0.1c-7.2-2.2-18.9-5.4-37.5-9.6c0,0,0,0,0,0v0c0-0.4,0-0.8,0.1-1.1c0-0.9,0-2.5-0.3-4.4
		c-0.7-5.9-3.2-15.6-11.5-24.4v1H365v5.3h9v6.7h-9v5.6h9.5v6.7H357v-30.9h11.2c-1.1-0.8-2.3-1.7-3.6-2.5c0,0-19-9-40.1-9.8
		c0,0-12.3-2.8-11.9-7.6c4.3-9.9,12.4-13.3,18.3-14.5c0,0,0,0,0,0c2.4-0.5,4.4-0.6,5.6-0.6c0.8,0,1.2,0,1.2,0l0.9,1.6
		c0.1,0.2,0.5,0.3,0.7,0.2l0.7-0.4c0.2,0.4,0.4,0.8,0.7,1.1l-0.7,0.5c-0.2,0.2-0.3,0.5-0.2,0.7l0.1,0.1h0l0.9,1.5
		c0.2,0.2,0.5,0.3,0.7,0.2l0.3-0.2l0.4-0.2c0.2,0.4,0.5,0.7,0.8,1.1l-0.3,0.3l-0.3,0.2c-0.2,0.2-0.3,0.5-0.1,0.7l1.2,1.5
		c0,0,0.1,0.1,0.1,0.1c0.2,0.1,0.4,0.1,0.6,0l0.7-0.5c0.3,0.3,0.5,0.6,0.8,1l-0.6,0.6c-0.2,0.2-0.2,0.5,0,0.7l0.5,0.6l0.7,0.8
		c0.1,0.1,0.2,0.1,0.3,0.2c0.2,0,0.3,0,0.5-0.1l0.6-0.6c0.2,0.2,0.5,0.5,0.7,0.7c0.1,0.1,0.2,0.1,0.2,0.2l-0.6,0.6
		c-0.2,0.2-0.2,0.5,0,0.7l1.4,1.3c0.2,0.2,0.5,0.2,0.7,0l0.6-0.6c0.4,0.4,0.9,0.8,1.3,1.2l-0.5,0.7c-0.2,0.2-0.1,0.6,0.1,0.7
		l1.5,1.1c0.2,0.2,0.5,0.1,0.7-0.1l0.5-0.7c0.3,0.2,0.7,0.5,1,0.7l-0.5,0.7c-0.2,0.2-0.1,0.6,0.2,0.7l1.6,1c0.2,0.2,0.5,0.1,0.7-0.2
		l0.5-0.7c0.4,0.3,0.9,0.5,1.3,0.8l-0.4,0.7c-0.1,0.2,0,0.6,0.2,0.7l1.6,0.9c0.3,0.1,0.6,0,0.7-0.2l0.4-0.7c0.5,0.2,1,0.5,1.5,0.7
		l-0.3,0.8c-0.1,0.3,0,0.6,0.3,0.7l1.7,0.8c0.3,0.1,0.6,0,0.7-0.3l0.3-0.7c0.5,0.2,0.9,0.4,1.4,0.5l-0.3,0.8
		c-0.1,0.3,0.1,0.6,0.3,0.7l0.2,0.1l1.1,0.4l0.5,0.2c0.3,0.1,0.6-0.1,0.6-0.3l0.3-0.8c0.5,0.2,1,0.3,1.5,0.4l-0.2,0.8
		c-0.1,0.3,0.1,0.6,0.4,0.6l0.7,0.2l1.1,0.3c0.2,0,0.4,0,0.5-0.2v0c0.1-0.1,0.1-0.1,0.1-0.2l0.2-0.8c0.4,0.1,0.9,0.2,1.3,0.3
		l-0.1,0.8c-0.1,0.3,0.1,0.5,0.4,0.6l1.6,0.3l0.2,0c0.2,0,0.5-0.1,0.5-0.3c0,0,0-0.1,0-0.1l0.1-0.8c0.5,0.1,0.9,0.1,1.4,0.2
		l-0.1,0.8c0,0.3,0.2,0.5,0.5,0.6l1.9,0.2c0.3,0,0.5-0.2,0.6-0.5l0.1-0.8c0.4,0,0.9,0,1.3,0.1v0.8c0,0.3,0.2,0.5,0.5,0.5h1.9
		c0.3,0,0.5-0.2,0.5-0.5v-0.8c0.6,0,1.1,0,1.7-0.1l0,0.3l0,0.5c0,0.3,0.3,0.5,0.6,0.5l1.6-0.1l0.3,0c0.3,0,0.5-0.3,0.5-0.5l-0.1-0.8
		c0.5-0.1,1.1-0.1,1.6-0.2l0.2,0.8c0,0.1,0.1,0.2,0.1,0.2c0.1,0.1,0.3,0.2,0.5,0.2l1.9-0.3c0.3,0,0.5-0.3,0.4-0.6l0-0.1l-0.1-0.7
		c0.4-0.1,0.9-0.2,1.3-0.3l0.2,0.8c0.1,0.3,0.4,0.5,0.6,0.4l0.4-0.1l1.4-0.4c0.3-0.1,0.4-0.4,0.4-0.6l-0.2-0.8
		c0.3-0.1,0.7-0.2,1-0.3c0.1,0,0.2-0.1,0.3-0.1l0.2,0.7h0l0,0.1c0.1,0.2,0.2,0.3,0.4,0.3h0c0.1,0,0.1,0,0.2,0l1.8-0.6
		c0.3-0.1,0.4-0.4,0.3-0.7l-0.3-0.8c0.5-0.2,1-0.4,1.4-0.6l0,0.1l0.3,0.6c0.1,0.3,0.4,0.4,0.7,0.3l1.3-0.6l0.4-0.2
		c0.3-0.1,0.4-0.4,0.3-0.7l-0.3-0.8c0.4-0.2,0.7-0.4,1.1-0.5l0.4,0.7c0,0.1,0.1,0.1,0.1,0.1c0.2,0.2,0.4,0.2,0.6,0.1l1.7-0.9
		c0.2-0.1,0.3-0.5,0.2-0.7l-0.4-0.7c0.4-0.2,0.7-0.4,1.1-0.7l0.5,0.7c0.2,0.2,0.5,0.3,0.7,0.1l0.6-0.4l1-0.6
		c0.2-0.2,0.3-0.5,0.2-0.7l-0.5-0.7c0.4-0.2,0.7-0.5,1.1-0.8h0v0h0l0.5,0.7c0.2,0.2,0.5,0.3,0.7,0.1l1.5-1.1
		c0.2-0.2,0.3-0.5,0.1-0.7l-0.5-0.7c0.3-0.3,0.6-0.5,1-0.8l0.6,0.6c0.2,0.2,0.5,0.2,0.7,0l1.4-1.3c0.2-0.2,0.2-0.5,0-0.7l-0.2-0.2
		l-0.4-0.4c0.2-0.2,0.5-0.5,0.7-0.7l0,0c0.1-0.1,0.1-0.1,0.2-0.2l0.6,0.6c0.2,0.2,0.5,0.2,0.7,0l1.3-1.4c0.2-0.2,0.2-0.5,0-0.7
		l-0.5-0.5l-0.1-0.1c0.4-0.4,0.8-0.9,1.2-1.4l0.1,0.1l0.6,0.5c0.2,0.2,0.5,0.1,0.7-0.1l1.2-1.5c0.2-0.2,0.1-0.5-0.1-0.7l-0.7-0.5
		c0.3-0.3,0.5-0.7,0.8-1l0.7,0.5c0.2,0.2,0.5,0.1,0.7-0.1l1-1.6c0.2-0.2,0.1-0.6-0.2-0.7l-0.7-0.4c0.3-0.4,0.5-0.9,0.8-1.3l0.7,0.4
		c0.2,0.1,0.6,0,0.7-0.2l0.9-1.7c0.1-0.2,0-0.6-0.2-0.7l-0.7-0.4c0.2-0.5,0.5-1,0.7-1.5l0.8,0.3c0.3,0.1,0.6,0,0.7-0.3l0.8-1.7
		c0.1-0.3,0-0.6-0.3-0.7l-0.7-0.3c0.2-0.5,0.4-0.9,0.5-1.4l0.8,0.3c0.3,0.1,0.6-0.1,0.7-0.3l0.6-1.8c0.1-0.3-0.1-0.6-0.3-0.6
		l-0.8-0.3c0.2-0.5,0.3-1,0.4-1.5l0.8,0.2c0.3,0.1,0.6-0.1,0.6-0.4l0.5-1.8c0.1-0.3-0.1-0.5-0.4-0.6l-0.8-0.2
		c0.1-0.4,0.2-0.9,0.3-1.3l0.8,0.1c0.3,0,0.5-0.2,0.6-0.4l0.3-1.8c0-0.3-0.1-0.5-0.4-0.6l-0.8-0.1c0.1-0.5,0.1-0.9,0.2-1.4l0.8,0.1
		c0.3,0,0.5-0.2,0.6-0.5l0.2-1.9c0-0.3-0.2-0.5-0.5-0.6l-0.8-0.1c0-0.4,0-0.9,0.1-1.3h0.8c0.3,0,0.5-0.2,0.5-0.5v-1.9
		c0-0.3-0.2-0.5-0.5-0.5H438c0-0.6,0-1.1-0.1-1.7l0.8-0.1c0.3,0,0.5-0.3,0.5-0.6l-0.2-1.9c0-0.3-0.3-0.5-0.6-0.5l-0.8,0.1
		c-0.1-0.5-0.1-1.1-0.2-1.6l0.8-0.1c0.3,0,0.5-0.3,0.4-0.6l-0.3-1.9c-0.1-0.3-0.3-0.5-0.6-0.4l-0.8,0.2c-0.1-0.4-0.2-0.9-0.3-1.3
		l0.8-0.2c0.3-0.1,0.4-0.4,0.4-0.6l-0.5-1.8c-0.1-0.3-0.3-0.4-0.6-0.4l-0.8,0.2c-0.1-0.4-0.3-0.9-0.4-1.3l0.8-0.3
		c0.3-0.1,0.4-0.4,0.3-0.7l-0.6-1.8c-0.1-0.3-0.4-0.4-0.7-0.3l-0.8,0.3c-0.2-0.5-0.4-1-0.6-1.4l0.7-0.3c0.3-0.1,0.4-0.4,0.3-0.7
		l-0.8-1.7c-0.1-0.3-0.4-0.4-0.7-0.3l-0.8,0.3c-0.2-0.4-0.4-0.7-0.5-1.1l0.7-0.4c0.3-0.1,0.4-0.5,0.2-0.7l-0.9-1.6
		c-0.1-0.2-0.5-0.3-0.7-0.2l-0.7,0.4c-0.2-0.4-0.5-0.8-0.7-1.1l0.7-0.5c0.2-0.2,0.3-0.5,0.2-0.7l-1-1.6c-0.2-0.2-0.5-0.3-0.7-0.1
		l-0.7,0.5c-0.3-0.4-0.5-0.7-0.8-1.1l0.7-0.5c0.2-0.2,0.3-0.5,0.1-0.7l-1.1-1.5c-0.2-0.2-0.5-0.3-0.7-0.1l-0.7,0.5
		c-0.3-0.3-0.5-0.6-0.8-0.9l0.6-0.6c0.2-0.2,0.2-0.5,0-0.7l-1.3-1.4c-0.2-0.2-0.5-0.2-0.7,0l-0.6,0.6c-0.2-0.2-0.5-0.5-0.7-0.7
		c-0.1-0.1-0.2-0.2-0.2-0.2l0.6-0.6c0.2-0.2,0.2-0.5,0-0.7l-1.4-1.3c-0.2-0.2-0.5-0.2-0.7,0l-0.2,0.2l-0.4,0.4
		c-0.5-0.4-0.9-0.8-1.4-1.1l0.3-0.4l0.2-0.3c0.2-0.2,0.1-0.5-0.1-0.7l-1.5-1.1c-0.2-0.2-0.5-0.1-0.7,0.1l-0.5,0.6
		c-0.1,0-0.1-0.1-0.2-0.1c-0.3-0.2-0.6-0.4-0.9-0.6l0.5-0.7c0.1-0.1,0.1-0.2,0.1-0.3c0-0.2-0.1-0.3-0.2-0.4l-1.6-1
		c-0.2-0.2-0.6-0.1-0.7,0.2l-0.5,0.7c-0.4-0.2-0.8-0.5-1.2-0.7c0,0-0.1,0-0.1-0.1l0.1-0.2l0.3-0.6c0.1-0.2,0-0.6-0.2-0.7l-1.4-0.8
		l-0.3-0.1c0,0,0,0,0,0c-0.2-0.1-0.5,0-0.7,0.2l-0.3,0.5l-0.1,0.2c0,0-0.1,0-0.1,0c-0.2-0.1-0.4-0.2-0.6-0.3c0,0,0,0,0,0
		c-0.2-0.1-0.5-0.2-0.8-0.4l0.1-0.3l0.2-0.4c0.1-0.3,0-0.6-0.3-0.7l-1.6-0.7l0,0l-0.2-0.1c-0.3-0.1-0.6,0-0.7,0.3l-0.3,0.8
		c-0.5-0.2-0.9-0.4-1.4-0.5l0.1-0.4l0.1-0.4c0.1-0.3-0.1-0.6-0.3-0.7l-1.3-0.4l-0.5-0.2c-0.3-0.1-0.6,0.1-0.7,0.3l-0.3,0.8
		c-0.5-0.1-1-0.3-1.5-0.4l0.2-0.8c0.1-0.2,0-0.4-0.2-0.5c-0.1,0-0.1-0.1-0.2-0.1l-1.8-0.5c-0.1,0-0.1,0-0.2,0
		c-0.2,0-0.4,0.2-0.4,0.4l-0.2,0.8c-0.4-0.1-0.9-0.2-1.3-0.3l0.1-0.8c0-0.3-0.2-0.5-0.4-0.6l-1-0.2l-0.8-0.1
		c-0.3-0.1-0.5,0.1-0.6,0.4l0,0.1l-0.1,0.7c-0.5-0.1-0.9-0.1-1.4-0.2l0.1-0.8c0-0.3-0.2-0.5-0.5-0.5l-1.9-0.2c-0.1,0-0.2,0-0.3,0.1
		c0,0-0.1,0.1-0.1,0.1c-0.1,0.1-0.1,0.2-0.2,0.3l-0.1,0.8c-0.4,0-0.9,0-1.3-0.1v-0.8c0-0.3-0.2-0.5-0.5-0.5h-1.9
		c-0.3,0-0.5,0.2-0.5,0.5v0.8c-0.5,0-1.1,0-1.7,0.1l-0.1-0.8c0-0.3-0.3-0.5-0.6-0.5l-1.9,0.2c-0.3,0-0.5,0.3-0.5,0.6l0.1,0.8
		c-0.5,0.1-1.1,0.1-1.6,0.2l-0.2-0.8c0-0.3-0.3-0.5-0.6-0.4l-1.9,0.3c-0.3,0.1-0.5,0.3-0.4,0.6l0.2,0.8c-0.4,0.1-0.9,0.2-1.3,0.3
		l-0.2-0.8c-0.1-0.3-0.4-0.4-0.6-0.4l-1.8,0.5c-0.3,0.1-0.4,0.4-0.4,0.6l0.2,0.8c-0.4,0.1-0.8,0.3-1.3,0.4l-0.3-0.8
		c-0.1-0.3-0.4-0.4-0.7-0.3l-1.8,0.6c-0.3,0.1-0.4,0.4-0.3,0.7l0.3,0.8c-0.5,0.2-1,0.4-1.4,0.6l-0.3-0.8c-0.1-0.3-0.4-0.4-0.7-0.3
		l-1.7,0.8c-0.3,0.1-0.4,0.4-0.3,0.7l0.3,0.7c-0.4,0.2-0.7,0.4-1.1,0.5l-0.4-0.7c-0.1-0.2-0.5-0.3-0.7-0.2l-0.1,0.1l-18.8-28.3
		c0,0-0.1-0.1-0.2-0.2l-0.2-0.3c0,0-0.1-0.1-0.1-0.1l-0.2-0.2c-0.1-0.2-0.2-0.3-0.3-0.5c-0.2-0.2-0.3-0.5-0.5-0.7l-0.7-1.1l-0.5-0.7
		c-0.1-0.1-0.2-0.3-0.2-0.4l-2.1-3.1l0,0c-8.8-13.8-25.8-42.5-17.1-45.3c0,0,0,0,0,0c0,0,0,0,0,0l1.1,0.6c0.3,0,0.6,0,0.8-0.2
		c0,0,0,0,0.1-0.1c2.5-2.1,0.6-4.4,0-4.8c0,0-7.8-4.1-10.1-5.8c-4.3-3.2-5.3-5.6-6.1-6.8c-0.1-0.1-0.1-0.2-0.2-0.2
		c-0.9-1.1-2.8-0.5-4.1,0.1c-0.2,0.1-0.4,0.2-0.6,0.3c-0.5,0.2-0.9,0.3-1.4,0.5c-1.5,0.4-2.7,1.8-3.3,2.6c-0.2,0.3-0.5,0.6-0.9,0.7
		c-0.2,0.1-0.3,0.1-0.5,0.1c-2.9,0.3-9-0.1-13.5-0.4c-0.1,0-0.1,0-0.2,0c-1.7-0.1-3.2-0.3-4.1-0.3c-0.3,0-0.5-0.1-0.8-0.2
		c-0.3-0.3-0.9-0.8-1.7-1.6c-5.2-4.3-19.7-14.9-20.8-15.7c0,0-0.1,0-0.1,0c0,0-0.1-0.1-0.1-0.1c-0.1-0.1-0.1-0.2-0.1-0.2
		c-0.1-0.2-0.1-0.3-0.1-0.3l-0.8-7.7c0-0.4-0.2-0.7-0.4-1c0-0.1-0.1-0.1-0.1-0.2c-0.1-0.1-0.1-0.2-0.2-0.2c-0.4-0.8-0.3-1.5,0-2
		c0,0,0-0.1,0.1-0.1c0.4-0.6,0.9-1,1.2-1.2c0,0,0.2-0.1,0.2-0.1c0.4-0.1,0.8-0.2,1.2-0.2c8-0.9,19.5,8.4,21.2,9.9
		c0.1,0.1,0.3,0.1,0.5,0c4.2-2.4,6-5.8,6.5-9.4c0-0.1,0-0.2,0-0.2c0.2-1.7,0.2-3.4,0-5c-0.5-3.7-1.9-7-2.7-8.7
		c-0.1-0.2-0.2-0.3-0.2-0.5c-0.1-0.2-0.1-0.3-0.1-0.3c-0.1-0.2-0.4-0.3-0.6-0.2c-0.7,0.4-1.4,0.8-2.1,1c-3.4,1.3-5.6,0.3-6.9-1.7
		c0,0,0,0,0-0.1c-0.1-0.1-0.1-0.2-0.2-0.3c0,0,0,0,0,0c-0.3-0.6-0.6-1.3-0.8-2c-1.2-4.1-0.4-9.6,0.9-11c4,0,6.4-1.2,7.9-2.5
		c0,0,0,0,0,0c1.7-1.4,2.1-3,2.1-3c1.8,0.8,3.4,1.4,4.9,1.7c0.1,0,0.2,0,0.2,0.1c3.1,0.5,5.9,0.1,8.1-0.7c3-1.1,5.1-2.7,5.8-3.1
		c1.5-0.8,0-1.6,0-1.6l-39-20.7c-4.4-2.5-9.5-3.8-15-3.6c-14.1,0.6-25.7,11.7-26.8,25.8c-0.4,4.7,0.4,9.2,2.1,13.2v0
		c1.5,3.6,3.7,6.7,6.5,9.4c0,0,0,0,0,0l2.2,1.9c0.1,0.1,0.3,0.2,0.4,0.3c0,0,0,0,0,0c1.2,0.8,2,1.2,2,1.2c0.1,0.1,0.1,0.2,0.2,0.3
		c0.1,0.4-0.3,0.6-0.5,1c0,0,0,0,0,0c0,0-0.1,0-0.1,0c-3.8-0.5-6.8,1.7-9.1,4.9c-0.8,1.1-1.5,2.4-2.2,3.7c-1.5,3.2-2.5,6.6-3.2,9
		c-0.5,2.2-0.8,3.7-0.8,3.7s0,0,0,0c-0.1,0.4-2.3,7.4-5.3,16.1c-1.1,3.1-2.3,6.5-3.6,9.8c0,0,0,0,0,0.1c0,0.1-0.1,0.1-0.1,0.2
		c-0.2,0.6-0.5,1.2-0.7,1.8v0c-1.8,4.7-3.8,9.4-5.7,13.3c-0.5,1.1-0.9,2.1-1.3,3.1c-3.3,9-1.5,16.7,0.1,20.9
		c0.2,0.6,0.5,1.2,0.7,1.6c0.2,0.3,0.3,0.6,0.4,0.9c0,0,0,0,0,0c0.2,0.4,0.3,0.6,0.4,0.8c-5-0.7-32-4.4-44.1-4.6l-1.9,0.1
		c0,0,0,0-1.9,0.1c-0.1,0-0.1,0-0.1,0c-0.4,0-0.6,0.1-0.9,0.2c-0.1,0.1-0.3,0.1-0.3,0.2c-0.1,0.1-0.1,0.1-0.2,0.2
		c-0.1,0.1-0.1,0.2-0.1,0.3c0,0,0,0,0,0c0,0.1,0,0.3,0,0.4c0,0.1,0,0.1,0,0.1c0,0.5,0.3,1.2,1.1,1.9c0,0,0,0,0,0
		c0.8,0.7,9.7,3.9,20,7.4c13.3,4.6,29,9.8,33.3,11.2c0.7,0.2,1.1,0.4,1.2,0.4c0,0,0,0,0,0c0.2,0.2,0.4,0.5,0.7,0.8l0.1,0.1
		c1.8,1.9,4,3.9,6.2,5.7c0.4,0.3,0.7,0.6,1.1,0.9c3.9,3.1,7.9,5.9,10.5,7.7c0,0,0.1,0,0.1,0.1c0.2,0.2,0.5,0.3,0.7,0.5
		c0.9,0.6,1.9,1.2,2.3,1.5c0,0,0,0,0,0c0,0.1,0,0.1,0,0.2l-1.7,2.1l-6.3,8c-1.7,1.9-3.3,3.8-4.9,5.7l0,0c-4.4,5.1-8.2,9.9-10,12.8
		c-0.7,1.1-1,1.9-1,2.3c0.5,2.9,2.6,6.1,3.2,7c0.1,0.1,0.2,0.2,0.2,0.2l-0.4,0.2l-2,0.8v0l-0.9-1.6c-0.1-0.3-0.5-0.3-0.7-0.2
		l-0.7,0.4c-0.2-0.4-0.4-0.7-0.7-1.1l0.7-0.5c0.2-0.2,0.3-0.5,0.2-0.7l-1-1.6c0-0.1-0.1-0.1-0.2-0.1c-0.2-0.1-0.4-0.1-0.6,0
		l-0.7,0.5c-0.3-0.4-0.5-0.7-0.8-1.1l0.7-0.5c0.2-0.2,0.3-0.5,0.1-0.7l-0.3-0.4l-0.8-1.1c-0.2-0.2-0.5-0.3-0.7-0.1l-0.4,0.3
		l-0.3,0.2c-0.3-0.3-0.5-0.6-0.8-1l0.6-0.6c0.2-0.2,0.2-0.5,0-0.7l-1.2-1.4l0,0c-0.2-0.2-0.5-0.2-0.7,0l-0.4,0.3l-0.2,0.2
		c-0.2-0.2-0.5-0.5-0.7-0.7c-0.1-0.1-0.2-0.2-0.2-0.2l0.3-0.3l0.3-0.3c0.2-0.2,0.2-0.5,0-0.7l-0.2-0.2l-1.1-1.1
		c-0.2-0.2-0.5-0.2-0.7,0l-0.6,0.6c-0.4-0.4-0.9-0.8-1.4-1.2l0.5-0.7c0,0,0,0,0-0.1c0.1-0.2,0.1-0.5-0.1-0.7l-0.9-0.7l-0.6-0.5
		c-0.2-0.2-0.6-0.1-0.7,0.1l-0.5,0.6c-0.3-0.2-0.7-0.5-1-0.7l0.5-0.7c0.1-0.2,0.1-0.4,0-0.5c0-0.1-0.1-0.2-0.2-0.2l-1.6-1
		c0,0,0,0,0,0c-0.2-0.1-0.5-0.1-0.7,0.2l-0.5,0.7c-0.4-0.3-0.9-0.5-1.3-0.8l0.4-0.7c0.1-0.2,0-0.6-0.2-0.7l-0.9-0.5l-0.8-0.4
		c0,0-0.1,0-0.1,0c-0.2-0.1-0.5,0-0.6,0.2l-0.4,0.7c-0.5-0.3-1-0.5-1.5-0.7l0.3-0.8c0.1-0.3,0-0.6-0.3-0.7l-1.7-0.8
		c-0.3-0.1-0.6,0-0.7,0.3l-0.3,0.8c-0.5-0.2-0.9-0.4-1.4-0.5l0.3-0.8c0.1-0.3-0.1-0.6-0.3-0.6l-1.8-0.6c-0.3-0.1-0.6,0.1-0.7,0.3
		l-0.3,0.8c-0.5-0.2-1-0.3-1.5-0.4l0.2-0.8c0.1-0.3-0.1-0.6-0.4-0.6l-1.8-0.5c-0.3-0.1-0.5,0.1-0.6,0.4l-0.2,0.8
		c-0.4-0.1-0.9-0.2-1.3-0.3l0.1-0.8c0-0.3-0.2-0.5-0.4-0.6l-1.9-0.3c-0.3,0-0.5,0.1-0.6,0.4l-0.1,0.8c-0.5-0.1-0.9-0.1-1.4-0.2
		l0.1-0.8c0-0.3-0.2-0.5-0.5-0.6l-1.9-0.2c-0.3,0-0.5,0.2-0.5,0.5l-0.1,0.8c-0.4,0-0.9,0-1.3-0.1v-0.8c0-0.3-0.2-0.5-0.5-0.5h-1.9
		c-0.3,0-0.5,0.2-0.5,0.5v0.8c-0.6,0-1.1,0-1.7,0.1l-0.1-0.8c0-0.3-0.3-0.5-0.5-0.5l-1.9,0.2c-0.3,0-0.5,0.3-0.5,0.6l0.1,0.8
		c-0.5,0.1-1.1,0.1-1.6,0.2l-0.1-0.8c-0.1-0.3-0.3-0.5-0.6-0.4l-1.9,0.3c-0.3,0.1-0.5,0.3-0.4,0.6l0.2,0.8c-0.4,0.1-0.9,0.2-1.3,0.3
		l-0.2-0.8c-0.1-0.3-0.4-0.4-0.6-0.4l-1.8,0.5c-0.3,0.1-0.4,0.3-0.4,0.6l0.2,0.8c-0.4,0.1-0.8,0.2-1.3,0.4l-0.3-0.8
		c-0.1-0.3-0.4-0.4-0.7-0.3l-1.8,0.6c-0.3,0.1-0.4,0.4-0.3,0.7l0.3,0.8c-0.5,0.2-1,0.4-1.4,0.6l-0.3-0.7c-0.1-0.3-0.4-0.4-0.7-0.3
		l-0.9,0.4l-0.9,0.4c-0.2,0.1-0.3,0.3-0.3,0.5c0,0.1,0,0.2,0,0.2l0.3,0.7c-0.4,0.2-0.7,0.4-1.1,0.5l-0.4-0.7
		c-0.1-0.2-0.5-0.3-0.7-0.2l-0.9,0.5l-0.8,0.4c-0.2,0.1-0.3,0.4-0.2,0.6c0,0,0,0.1,0,0.1l0.4,0.7c-0.7,0.4-0.4,0.2-1.1,0.7l-0.5-0.7
		c-0.2-0.2-0.5-0.3-0.7-0.2l-1.6,1c-0.2,0.1-0.2,0.3-0.2,0.5c0,0,0,0.1,0,0.1c0,0,0,0.1,0.1,0.1l0.5,0.7c-0.4,0.2-0.7,0.5-1.1,0.8
		l-0.5-0.7c-0.2-0.2-0.5-0.3-0.7-0.1l-0.2,0.2l-1.3,1c-0.2,0.2-0.3,0.5-0.1,0.7l0.5,0.7c-0.3,0.3-0.6,0.5-1,0.8l-0.4-0.5l-0.1-0.2
		c-0.2-0.2-0.5-0.2-0.7,0l-1.3,1.2l-0.1,0.1c-0.2,0.2-0.2,0.5,0,0.7l0.6,0.6c-0.2,0.2-0.5,0.5-0.7,0.7c-0.1,0.1-0.2,0.2-0.2,0.2
		l-0.6-0.6c-0.2-0.2-0.5-0.2-0.7,0l-0.1,0.1l-1.2,1.3c-0.2,0.2-0.2,0.5,0,0.7l0.4,0.4l0.2,0.2c-0.4,0.5-0.8,0.9-1.2,1.4l-0.7-0.5
		c-0.2-0.2-0.5-0.1-0.7,0.1l-0.7,0.8l-0.5,0.7c-0.2,0.2-0.1,0.5,0.1,0.7l0.7,0.5c-0.2,0.3-0.4,0.6-0.6,0.9c0,0.1-0.1,0.1-0.1,0.2
		l-0.2-0.1l-0.5-0.3c-0.2-0.2-0.6-0.1-0.7,0.2l-0.3,0.5l0,0l-0.7,1.1c-0.2,0.2-0.1,0.6,0.1,0.7l0.7,0.5c-0.1,0.1-0.2,0.3-0.3,0.4
		c-0.2,0.3-0.4,0.6-0.5,0.9l-0.7-0.4c-0.2-0.1-0.6,0-0.7,0.2l-0.9,1.7c-0.1,0.2-0.1,0.5,0.1,0.6c0,0,0,0,0.1,0.1l0.7,0.4
		c-0.2,0.5-0.5,0.9-0.7,1.4c0,0,0,0.1-0.1,0.1l-0.7-0.3c-0.3-0.1-0.6,0-0.7,0.3l-0.7,1.7c-0.1,0.3,0,0.6,0.3,0.7l0.4,0.2l0.4,0.2
		c-0.2,0.4-0.4,0.9-0.5,1.4l-0.8-0.3c0,0,0,0-0.1,0c-0.2-0.1-0.5,0.1-0.6,0.3l-0.6,1.8c-0.1,0.3,0.1,0.6,0.3,0.7l0.8,0.3
		c-0.1,0.2-0.1,0.4-0.2,0.6c-0.1,0.3-0.2,0.6-0.3,0.8l-0.7-0.2l-0.1,0c-0.3-0.1-0.6,0.1-0.6,0.4l-0.5,1.8c-0.1,0.3,0.1,0.6,0.4,0.6
		l0.8,0.2c-0.1,0.4-0.2,0.9-0.3,1.3l-0.8-0.1c-0.3,0-0.5,0.1-0.6,0.4l-0.3,1.8c0,0.3,0.2,0.5,0.4,0.6l0.4,0.1l0.5,0.1
		c0,0.3-0.1,0.6-0.1,0.9c0,0.2,0,0.3-0.1,0.5l-0.8-0.1c-0.3,0-0.5,0.2-0.6,0.5l-0.2,1.9c0,0.3,0.2,0.5,0.5,0.6l0.2,0l0.7,0.1
		c0,0.4,0,0.9-0.1,1.3h-0.8c-0.3,0-0.5,0.2-0.5,0.5v1.9c0,0.3,0.2,0.5,0.5,0.5h0.8c0,0.3,0,0.7,0,1c0,0.2,0,0.5,0,0.7l-0.4,0l-0.5,0
		c-0.3,0-0.5,0.3-0.5,0.6l0.2,1.9c0,0.3,0.3,0.5,0.6,0.5l0.8-0.1c0.1,0.5,0.1,1.1,0.2,1.6l-0.8,0.2c-0.3,0-0.5,0.3-0.4,0.6l0.3,1.9
		c0,0.3,0.3,0.5,0.6,0.4l0.7-0.1l0.2,0c0,0.1,0.1,0.3,0.1,0.4c0.1,0.3,0.1,0.6,0.2,0.9l-0.8,0.2c-0.3,0.1-0.4,0.4-0.4,0.6l0.5,1.8
		c0.1,0.3,0.4,0.4,0.6,0.4l0.4-0.1l0.4-0.1c0.1,0.4,0.2,0.8,0.4,1.3l-0.2,0.1l-0.6,0.2c-0.3,0.1-0.4,0.4-0.3,0.7l0.6,1.8
		c0.1,0.3,0.4,0.4,0.7,0.3l0.8-0.3c0.1,0.2,0.2,0.5,0.3,0.7c0.1,0.3,0.2,0.5,0.3,0.8l-0.4,0.2l-0.3,0.1c-0.3,0.1-0.4,0.4-0.3,0.7
		l0.8,1.7c0.1,0.3,0.4,0.4,0.7,0.3l0.7-0.3c0.2,0.4,0.4,0.7,0.5,1.1l-0.7,0.4c-0.2,0.1-0.3,0.5-0.2,0.7l0.9,1.7
		c0.1,0.2,0.5,0.3,0.7,0.2l0.1-0.1l0.6-0.3c0.1,0.2,0.2,0.3,0.3,0.5l0.4,0.6l-0.7,0.5c-0.2,0.2-0.3,0.5-0.2,0.7l1,1.6
		c0.2,0.2,0.5,0.3,0.7,0.1l0.1-0.1l0.6-0.4c0.3,0.4,0.5,0.7,0.8,1.1l-0.6,0.5l0,0c-0.2,0.2-0.3,0.5-0.1,0.7l1.2,1.5
		c0.2,0.2,0.5,0.3,0.7,0.1l0.7-0.5c0.1,0.1,0.1,0.2,0.2,0.2c0.2,0.2,0.4,0.5,0.6,0.7l-0.6,0.6c0,0,0,0-0.1,0.1
		c-0.2,0.2-0.1,0.5,0,0.7l1.3,1.4c0.2,0.2,0.5,0.2,0.7,0l0.6-0.6c0.2,0.2,0.5,0.5,0.7,0.7c0.1,0.1,0.2,0.2,0.2,0.2l-0.6,0.6
		c-0.2,0.2-0.2,0.5,0,0.7l1.4,1.3c0,0,0.1,0.1,0.1,0.1c0.2,0.1,0.4,0,0.6-0.1l0.6-0.6c0.2,0.2,0.5,0.4,0.7,0.7
		c0.2,0.2,0.4,0.3,0.6,0.5l-0.5,0.7c-0.2,0.2-0.1,0.6,0.1,0.7l1.5,1.2c0,0,0,0,0,0c0.2,0.1,0.5,0.1,0.7-0.1l0.5-0.7
		c0.3,0.3,0.7,0.5,1,0.7l-0.5,0.7c0,0,0,0,0,0c-0.1,0.2-0.1,0.5,0.2,0.7l1.6,1c0.2,0.1,0.4,0.1,0.6,0c0.1,0,0.1-0.1,0.1-0.1l0.5-0.7
		c0.4,0.3,0.9,0.5,1.3,0.8l-0.4,0.7c-0.1,0.3,0,0.6,0.2,0.7l0.5,0.3l1.1,0.6c0.3,0.1,0.6,0,0.7-0.2l0.3-0.5l0.1-0.2
		c0.5,0.3,1,0.5,1.5,0.7l-0.3,0.8c-0.1,0.3,0,0.6,0.3,0.7l1.4,0.6l0.3,0.1c0.2,0.1,0.5,0,0.7-0.2c0,0,0,0,0,0l0.3-0.7
		c0.5,0.2,0.9,0.4,1.4,0.5L139,305c-0.1,0.3,0,0.6,0.3,0.7l1.8,0.6c0.3,0.1,0.6-0.1,0.6-0.3l0.3-0.8c0.5,0.2,1,0.3,1.5,0.4l-0.1,0.5
		l-0.1,0.3c-0.1,0.3,0.1,0.6,0.4,0.6l0.5,0.1l1.4,0.3c0.3,0.1,0.6-0.1,0.6-0.4l0.2-0.8c0.4,0.1,0.9,0.2,1.3,0.3l-0.1,0.8
		c0,0.1,0,0.1,0,0.1c0,0.2,0.2,0.4,0.4,0.5l1.3,0.2l0.5,0.1c0.3,0.1,0.5-0.2,0.6-0.4l0.1-0.8c0.5,0.1,0.9,0.1,1.4,0.2l-0.1,0.8
		c0,0.3,0.2,0.5,0.5,0.6l0.3,0l1.5,0.1c0.3,0,0.5-0.2,0.6-0.5l0-0.2l0.1-0.7c0.4,0,0.9,0,1.3,0.1v0.8c0,0.3,0.2,0.5,0.5,0.5h1.9
		c0.3,0,0.5-0.2,0.5-0.5v-0.8c0.6,0,1.1,0,1.7-0.1l0.1,0.8c0,0.3,0.3,0.5,0.6,0.5l1.9-0.2c0.2,0,0.3-0.1,0.4-0.2
		c0.1-0.1,0.1-0.2,0.1-0.4v-0.1l-0.1-0.8c0.5-0.1,1.1-0.1,1.6-0.2l0.2,0.8c0,0.1,0,0.1,0.1,0.2c0.1,0.1,0.2,0.2,0.3,0.2
		c0.1,0,0.1,0,0.2,0l1.9-0.3c0.3,0,0.5-0.3,0.4-0.6l-0.2-0.8c0.4-0.1,0.9-0.2,1.3-0.3l0.2,0.7l0,0.1c0.1,0.3,0.4,0.4,0.6,0.4
		l0.9-0.2l0.9-0.2c0.3-0.1,0.4-0.4,0.4-0.6l-0.2-0.8c0.4-0.1,0.9-0.2,1.3-0.4l0.3,0.8c0.1,0.3,0.4,0.4,0.7,0.3l0.2-0.1l1.6-0.6
		c0.2-0.1,0.3-0.3,0.3-0.5c0-0.1,0-0.1,0-0.2l-0.3-0.8c0.5-0.2,1-0.4,1.4-0.6l0.3,0.7c0.1,0.3,0.4,0.4,0.7,0.3l0.7-0.3l1-0.5
		c0.3-0.1,0.4-0.4,0.3-0.7l-0.1-0.3l12.7,18.6c1.3-0.5,2.8-0.7,4.4-0.7c2.1,0,3.9,0.4,5.5,1.3c1,0.5,1.8,1.3,2.6,2.1
		c0.5,0.6,0.9,1.2,1.3,1.8c0.8,1.5,1.2,3.1,1.2,4.9c0,2.7-0.8,4.9-2.4,6.8c-1.3,1.5-3,2.5-5,3.1c-2.1,1.2-5,2.3-9.1,2.6
		c-3.8,0.3-8.5-0.1-14.3-2c-0.2-0.1-0.5-0.2-0.7-0.2c-1.9-0.6-3.7-1.1-5.4-1.6v0.9h-6.4v-2.6c-2-0.5-3.9-1-5.7-1.4v4h-6.4V335
		c-5-1-8.7-1.5-10.7-1.6c-0.5,0-1-0.1-1.3-0.1c-1,0-1.4,0.2-1.5,0.5c0,0,0,0,0,0.1c0,0,0,0.1,0,0.1c0,0.1,0,0.1,0,0.2
		c0.1,0.5,0.6,1.1,0.6,1.1c11.2,8.2,22.8,12.9,33.2,15.5c5.3,1.3,10.3,2.1,14.7,2.6c12,1.2,20.2-0.1,20.2-0.1
		c5.3,3.1,19.1,34.4,22.2,41.4c0,0,0,0,0,0.1c0.2,0.4,0.4,0.8,0.6,1.3c1.6,3.9,2.7,10.2,2.5,20.5c0,0,0,0,0,0
		c0.1,0.3,4.1,6.7,6.7-1.7c0.5-1.6,0.7-3.3,0.6-4.9c0-1.1-0.2-2.2-0.5-3.3c-0.1-0.5-0.3-1-0.5-1.5c-0.9-2.3-1.9-5.7-2-9.5
		c0-2,0.2-4.2,0.8-6.3c0,0,6.3-6.9,10.5,0.3c0.1,0.1,0.1,0.2,0.2,0.3c4.1,7.5,20.7-0.5,19.9-6.5c0-0.1,0-0.2,0-0.3
		c-0.5-2.5-1.3-4.4-2.5-5.1c-0.5,0-0.8-0.2-1.3-0.3c-1.4,0.1-3.1,1.2-5.6,3.7l0,0c-1.2,1.3-3.1,1.7-4.7,1.1c-1-0.3-2.1-0.8-3.3-1.4
		c-4.6-2.3-10.2-6.6-11.5-14.9c0,0,5.5-0.6,13.8-2.5c12-2.8,30-8.5,46.1-19.5c2.7,0.3,5.4,1.8,8,2.4c0.7,0.2,1,0.3,1.6,0.5
		c2.1,0.6,4.3,0.9,6.6,1.5c2.3,0.5,4.4,0.7,6.8,1.1c4.4,0.7,14.1,2.1,14.3,2.7c0.1,0,0.1,0.2,0.1,0.4c0.2,0.6,0.8,2.1,1.8,4
		c0.5,0.9,1.1,2,1.8,3.2c0,0,0,0,0,0c0,0,0,0.1,0.1,0.1c0,0,0,0.1,0.1,0.1c0.5,0.9,1.2,1.8,1.8,2.8c0.6,0.9,1.3,1.8,2,2.8
		c2.9,3.7,6.7,8,11.9,12.5c1.8,1.5,3.7,3.1,5.8,4.7c0.1,0,0.2,0.1,0.3,0.2c6.2,4.7,11,9.3,14.4,13.7c2.3,2.9,3.9,5.7,5,8.4
		c1.4,3.2,1.9,6.3,1.6,9c-0.3,3-1.4,5.7-3.4,7.9l0,0c0,0-0.1,0.1-0.1,0.1c0,0.1-0.1,0.2-0.2,0.2c-0.1,0-0.1,0.1-0.2,0.1
		s-0.2,0-0.2,0l-0.1-0.2l-2.3-1.4v0l-1-0.6l-12.8-7.9v0l0,0c-2.2,0.3-4,0.9-5.4,1.6c-3.3,1.8-4.4,4.6-4.4,7.5c0,1.1,0.2,2.3,0.4,3.4
		c0,0,0,0,0,0c0.2,0.7,0.4,1.4,0.6,2.1c0.4,1.1,0.8,2.1,1.2,2.9c0,0,0,0,0,0c0.7,1.4,1.3,2.3,1.3,2.3c0.6-0.3,1.2-0.6,1.7-0.8h0
		c1.5-0.5,2.7-0.7,3.8-0.5c6.8,1.1,5.7,14.6,0.6,13.8c-2.9-0.4-4.8,0.4-6,1.3c-1.1,0.8-1.6,1.9-1.8,2.3c-0.1,0.1-0.1,0.2-0.1,0.2
		c0,0,0,0,0,0c-0.2-0.1-0.4-0.3-0.6-0.4c0,0-0.1-0.1-0.1-0.1c0,0,0,0,0,0c-0.4-0.2-12.8-6.7-15.6,1.7l0,0l22.9,16.6l1.9,1.4
		c1.4,1.2,3,2.2,4.7,3h0c3.4,1.7,7.3,2.7,11.4,2.7c4.1,0,7.9-0.9,11.4-2.6c4.2-2.1,7.7-5.2,10.1-9.1c2.4-3.7,3.7-8.2,3.7-12.9
		c0-1.7-0.2-3.3-0.5-4.9c-0.2-1.5-0.5-2.9-0.9-4c-0.4-1.4-0.9-2.4-1.3-3c-0.2-0.4-0.3-0.6-0.4-0.8c-0.1,0-0.1-0.1-0.1-0.2
		c0,0,0,0,0,0c-0.3-0.9-0.3-1.6,0.1-2.1c0.3-0.5,0.8-0.8,1.5-1.1c1.8-0.6,4.6-0.7,8.1-0.4c0,0,0.1,0,0.1,0c2.4,0.2,5,0.5,7.7,0.8
		c0.1,0,0.1,0,0.2,0h0c0.2,0,0.4,0.1,0.6,0.1c4.5,0.6,9.1,1.2,12.8,1.4c0,0,0,0,0,0c0.3,0,0.6,0,0.9,0c2.2,0.1,4,0.3,5.4,0.7
		c0,0,0,0,0.1,0c3.3,0.8,4.9,2.2,5.7,3.3c0.3,0.4,0.5,0.8,0.6,1.2c0,0,0,0,0,0c0.1,0.4,0.1,0.7,0.1,0.7s4.4,18.2,8.6,21c0,0,0,0,0,0
		c0,0,0,0,0,0c1.7,1.1,3.8,2.9,5.7,4.7c0,0,0.1,0.1,0.1,0.1c1.7,1.6,3.3,3.1,4.2,4.1c0,0,0.1,0.1,0.1,0.1c0.5,0.5,0.8,0.8,0.8,0.8
		c0.1,0.1,0.2,0.3,0.3,0.4c1.2,1.8,2.3,3.7,3.4,5.6c2.7,5,4.8,10,6.1,13.7c0,0,0,0,0,0.1c0.4,1,0.7,1.9,1,2.8
		c0.1,0.1,0.1,0.3,0.1,0.4c0,0.1,0,0.1,0.1,0.2c0.5,1.6,0.7,2.5,0.7,2.5c1.8,26.7-0.5,41.2-3.1,48.9c-0.9,2.8-1.8,4.7-2.6,6
		c0,0,0,0,0,0c-0.5,0.7-0.9,1.2-1.2,1.6c0,0,0,0,0,0c-0.5,0.5-0.8,0.7-0.8,0.7c-2.1,2.4-3.2,4.6-3.7,6.6c-1,3.9,0.3,6.9,1.1,8.5
		c0.4,0.7,0.7,1.1,0.7,1.1c2.1,2.1,5.3,4.2,9,6.2c9.6,5.2,21.8,9.7,22.4,9.9c0,0,0,0,0,0c4.2-0.9,3.9-4.5,1.5-8.6c0,0,0,0,0,0
		c-1.2-2.1-3-4.3-5.1-6.3c-0.3-0.3-0.6-0.5-0.8-0.8c-6.6-6-5.3-15.1-5.3-15.1c2-7.3,8.8-17.9,13.6-24.7c2.8-4,4.8-6.7,4.8-6.7
		c0.5-0.8,1-1.6,1.5-2.4c0,0,0,0,0,0c0.7-1.2,1.3-2.4,1.8-3.6C517,506.3,513.8,495.6,512.4,492.2z M174.6,241.9
		c-4-5.5-10.5-9-17.8-9c-12.2,0-22.1,9.9-22.1,22.1c0,12.2,9.9,22.1,22.1,22.1c2,0,3.9-0.2,5.7-0.7l1.9,2.7l0.1,0.1l5.5,8.1
		c-3.8,1.4-7.9,2.2-12.2,2.2c-19.1,0-34.5-15.4-34.5-34.5c0-19.1,15.5-34.5,34.5-34.5c12.5,0,23.4,6.6,29.5,16.5L174.6,241.9z
		 M183.6,277.7l-6.2-8.2c0,0,0,0,0,0l-2.1-2.8c1.9-3,3.1-6.5,3.4-10.3l3.3-1.1v0c3.3-1,6.6-2.1,9.9-3.1l0.1,0
		c0.1,0.9,0.1,1.8,0.1,2.8C192.2,263.7,189,271.7,183.6,277.7z M385.7,271.9c12.2,0,22.1-9.9,22.1-22.1c0-12.2-9.9-22.1-22.1-22.1
		c-2.2,0-4.4,0.3-6.4,0.9l-0.6-1l-1.2-1.8c0,0-0.1,0-0.1,0l-6-9.1c4.3-1.9,9.1-3,14.1-3c19.1,0,34.5,15.4,34.5,34.5
		c0,19.1-15.5,34.5-34.5,34.5c-12.9,0-24.1-7-30-17.5l8.2-3.3c0,0,0,0,0,0l3-1.2C370.4,267.5,377.6,271.9,385.7,271.9z M361.7,223.4
		l5.5,9.2l1.7,2.9v0c-1,1.1-1.8,2.3-2.5,3.6c-0.1,0.1-0.2,0.3-0.2,0.4c-0.1,0.2-0.2,0.3-0.2,0.5c-0.3,0.6-0.6,1.3-0.9,2
		c0,0.1-0.1,0.2-0.1,0.3c0,0.1-0.1,0.2-0.1,0.4c0,0.1-0.1,0.2-0.1,0.3c0,0.2-0.1,0.3-0.1,0.5c0,0.1-0.1,0.2-0.1,0.4
		c0,0.1-0.1,0.2-0.1,0.4c0,0.1,0,0.2-0.1,0.2c-0.1,0.5-0.2,0.9-0.3,1.4c-0.1,0.3-0.1,0.7-0.2,1c0,0.1,0,0.1,0,0.2l-3.3-0.2l-9.5-0.5
		C351.5,237.3,355.6,229.2,361.7,223.4z M239.5,134.4c0-0.2,0-0.5,0.1-0.7c0.1-1,0.2-2,0.2-3.1c0.7-8.9,1.8-19.4,4.7-24.4
		c0,0,0-0.1,0.1-0.1c0-0.1,0.1-0.1,0.1-0.2c1.2-2,2-2.7,2.6-2.7c0.5,1.4,1.9,2.8,3.8,4.1c4.8,3.5,12.6,6.7,17,8.3
		c0.2,0.1,0.5,0.2,0.7,0.3c0.2,0.1,0.4,0.2,0.6,0.2c0.1,0,0.2,0.1,0.3,0.1c0,0,0.1,0,0.1,0.1c0.1,0,0.2,0.1,0.3,0.1
		c0.1,0,0.2,0.1,0.3,0.1c0.2,0,0.3,0.1,0.4,0.1c0.1,0,0.2,0.1,0.3,0.1c0.1,0,0.1,0,0.2,0.1c0.1,0,0.2,0.1,0.2,0.1s2.8,1.4,5.9,1.2
		c3.1-0.1,19.8-3.4,19.8-3.4s0,0,0,0c0,0,0.6,0.4,1.5,1.4c1.8,1.9,4.8,6.1,8.2,14.1c0.7,1.7,1.5,3.6,2.2,5.7
		c0.1,0.4,0.1,0.8-0.1,1.2c-0.2,0.4-0.6,0.9-1.1,1.4c0,0,0,0,0,0c-3.8,3.9-15.5,11-28,24.2c-0.4,0.5-0.8,0.9-1.3,1.4
		c-0.3,0.3-0.6,0.7-0.9,1c-0.1,0.1-0.2,0.3-0.4,0.4c0,0,0.1-0.9-0.2-2.3c-0.6-3.2-3.1-9.1-12.7-12.7c-1.2-0.5-2.6-0.9-4-1.2
		c-2-0.5-4.2-0.9-6.7-1.2C253.7,148.2,238.6,146.5,239.5,134.4z M243.2,337.7c-2,2.3-4.8,3.4-8.3,3.4c-3.6,0-6.4-1.1-8.3-3.4
		c-1.6-1.9-2.4-4.2-2.4-7c0-2.5,0.8-4.7,2.5-6.6c2-2.3,4.8-3.5,8.5-3.5c3.4,0,6.1,1.2,8.1,3.5c1.7,1.9,2.5,4.1,2.5,6.7
		C245.7,333.5,244.8,335.8,243.2,337.7z M275.2,339c-1.6,0.6-3.3,0.8-5.1,0.8c-3.9,0-7.4-1.2-10.7-3.5l3.4-6.5
		c2.4,2.2,4.8,3.3,7.1,3.3c1,0,1.9-0.2,2.6-0.7c0.8-0.5,1.3-1.3,1.3-2.3c0-0.9-0.5-1.7-1.4-2.3c-0.7-0.5-1.9-0.9-3.5-1.4
		c-2-0.6-3.2-1-3.7-1.2c-0.8-0.3-1.5-0.8-2.1-1.2c-1.6-1.4-2.5-3.4-2.5-6.2c0-2.9,0.8-5.2,2.5-7.1c2-2.2,4.6-3.3,7.9-3.3
		c3.3,0,6.6,0.8,9.8,2.5l-3.2,6.3c-1.8-1.4-3.5-2.1-5.3-2.1c-0.9,0-1.6,0.2-2.3,0.7c-0.8,0.5-1.1,1.2-1.1,2c0,0.8,0.5,1.5,1.5,2.1
		c0.5,0.3,1.8,0.7,4.1,1.4c2.8,0.8,4.8,2,6,3.5c1,1.3,1.6,3,1.6,5C282,334,279.7,337.4,275.2,339z M305.4,314.8h-6.7V339h-8v-24.3
		h-6.5v-6.7h21.2V314.8z M303.3,254.2C303.3,254.2,303.2,254.2,303.3,254.2C303.2,254.2,303.2,254.2,303.3,254.2
		c-0.1,0-0.1-0.1-0.1-0.1c-34.8-4-46-0.4-49.3,1.4c0,0,0,0-0.1,0c-0.2,0.1-0.3,0.4-0.4,0.7c-0.3,1.1-0.6,2.7-1.5,3.5l0,0
		c-0.8,0.8-1.7,1.4-2.7,1.8c-2.2,0.9-4.1,0.6-5.8-0.2c-1-0.5-3.4-1.5-4.3-1.9c-0.2-0.1-0.5-0.1-0.7-0.1c-2,0.5-3.9,1.7-4.6,3.1
		c-3.8,7.7-2.1,20.4-1.8,22.4c0,0.2,0,0.4,0,0.6c-0.1,0.7-0.4,2.3-0.5,2.6c-1.1,6.5-2.8,11-5,16.4c-2.9,7.1-6,12.8-7.8,15.8v1h3.6
		v5.5h-3.6v13.5h-6.4v-13.5h-2.1v-4.8c0.2-0.2,0.4-0.5,0.5-0.7h1.6v-5.7h0.1c-0.1-0.2-0.2-0.4-0.4-0.5c-0.3-0.5-0.6-1-0.9-1.5
		l-1.6-2.4l0,0L204,303l0,0l-5.4-7.9l-1.9-2.7c0.1-0.2,0.1-0.3,0.1-0.4l0.8-0.8c0.2-0.2,0.2-0.5,0-0.7l-0.6-0.5l-0.1-0.1
		c0.4-0.4,0.8-0.9,1.2-1.4l0.7,0.5c0.2,0.2,0.5,0.1,0.7-0.1l1-1.2l0.2-0.2c0.2-0.2,0.1-0.6-0.1-0.7l-0.5-0.4l-0.2-0.2
		c0,0,0-0.1,0.1-0.1c0.2-0.3,0.5-0.6,0.7-0.9l0.7,0.5c0.2,0.2,0.6,0.1,0.7-0.2l1-1.6c0.1-0.1,0.1-0.2,0.1-0.3c0-0.2-0.1-0.4-0.2-0.5
		l-0.7-0.5c0.3-0.4,0.5-0.9,0.8-1.3h0l0.7,0.4c0.2,0.1,0.6,0,0.7-0.2l0.9-1.7c0.1-0.2,0.1-0.4,0-0.6c0-0.1-0.1-0.1-0.2-0.1l-0.7-0.4
		c0.2-0.5,0.5-1,0.7-1.5l0.8,0.3c0.1,0.1,0.3,0.1,0.4,0c0.1-0.1,0.2-0.2,0.3-0.3l0.8-1.7c0.1-0.3,0-0.6-0.3-0.7l-0.7-0.3
		c0.2-0.4,0.4-0.9,0.5-1.4l0.8,0.2c0,0,0,0,0,0c0.3,0.1,0.5-0.1,0.6-0.3l0.6-1.8c0.1-0.3-0.1-0.6-0.3-0.7l-0.8-0.3
		c0.1-0.5,0.3-0.9,0.4-1.4l0.1-0.1l0.7,0.2c0.3,0.1,0.6-0.1,0.6-0.4l0.5-1.8c0.1-0.3-0.1-0.6-0.4-0.6l-0.2-0.1l-0.6-0.2
		c0-0.2,0.1-0.3,0.1-0.5c0.1-0.3,0.1-0.6,0.2-0.8l0.8,0.1c0.3,0,0.5-0.2,0.6-0.4l0.3-1.9c0-0.3-0.1-0.5-0.4-0.6l-0.1,0l-0.8-0.1
		c0.1-0.5,0.1-0.9,0.2-1.4l0.6,0l0.2,0c0.3,0,0.5-0.2,0.6-0.5l0.2-1.9c0-0.3-0.2-0.5-0.5-0.6l-0.8-0.1v0c0-0.4,0-0.9,0.1-1.3h0.8
		c0.3,0,0.5-0.2,0.5-0.5V254c0-0.3-0.2-0.5-0.5-0.5h-0.8v0c0-0.5,0-1.1-0.1-1.7l0.4,0l0.5,0c0.3,0,0.5-0.3,0.5-0.6l-0.2-1.9
		c0-0.3-0.3-0.5-0.6-0.5l-0.8,0.1c0,0,0,0,0,0c0-0.4-0.1-0.7-0.1-1.1l0-0.1c0-0.1,0-0.3-0.1-0.4l0.4-0.1l0.4-0.1
		c0.3,0,0.5-0.3,0.4-0.6l-0.1-0.5c1.6-0.6,2.7-1,3.1-1.2c0,0,0,0,0,0c1.6-0.9,3.1-0.8,4.2-0.5c0.9,0.2,1.4,0.6,1.5,0.6c0,0,0,0,0,0
		s7.1,6.3,17,10.8c6,2.7,9.8,2.4,11.8,1.8c1.1-0.3,2-1.1,2.6-2l33.5-49.7c1.3-1.9,2.4-3.9,3.4-6c0.9-2.1,1.7-4.3,2.3-6.5l3.2-14.6
		c15.8-6.9,29-17.9,29-17.9c0.1,0.1,0.2,0.2,0.3,0.4l29,47c-0.1,0.1-0.2,0.1-0.2,0.2l-0.6-0.6c-0.2-0.2-0.5-0.2-0.7,0l-1.4,1.3
		c-0.2,0.2-0.2,0.5,0,0.7l0.6,0.6c-0.2,0.2-0.5,0.5-0.7,0.7c-0.1,0.1-0.2,0.2-0.2,0.2l-0.6-0.6c-0.2-0.2-0.5-0.2-0.7,0l-1.3,1.4
		c-0.2,0.2-0.2,0.5,0,0.7l0.6,0.6c-0.4,0.5-0.8,0.9-1.2,1.4l-0.7-0.5c-0.2-0.2-0.5-0.1-0.7,0.1l-1.2,1.5c-0.2,0.2-0.1,0.5,0.1,0.7
		l0.7,0.5c-0.3,0.3-0.5,0.7-0.8,1l-0.7-0.5c-0.1-0.1-0.2-0.1-0.3-0.1c-0.2,0-0.3,0.1-0.4,0.2l-0.1,0.2l-0.9,1.4
		c-0.2,0.2-0.1,0.6,0.1,0.7l0.7,0.5c-0.3,0.4-0.5,0.9-0.8,1.3l-0.7-0.4c-0.1,0-0.2-0.1-0.2-0.1c0,0-0.1,0-0.1,0c0,0-0.2,0.1-0.2,0.1
		c-0.1,0-0.1,0.1-0.1,0.2l-0.9,1.7c0,0.1-0.1,0.1-0.1,0.2c0,0.2,0,0.3,0.2,0.4c0,0,0.1,0.1,0.1,0.1l0.7,0.4c-0.3,0.5-0.5,1-0.7,1.5
		l-0.7-0.3c-0.3-0.1-0.6,0-0.7,0.3l-0.4,0.9l-0.4,0.8c0,0.1-0.1,0.2,0,0.3c0,0,0,0,0,0c0,0,0,0.1,0,0.1c0,0,0,0,0,0c0,0,0,0,0,0
		l0.1,0.1c0,0,0.1,0,0.1,0.1l0.8,0.3c-0.2,0.5-0.4,0.9-0.5,1.4l-0.8-0.3c-0.3-0.1-0.6,0.1-0.6,0.3l-0.6,1.8c0,0,0,0.1,0,0.1
		c0,0.1,0,0.2,0,0.3h0c0,0,0,0.1,0,0.1c0,0,0,0.1,0.1,0.1c0.1,0.1,0.1,0.1,0.2,0.1l0.8,0.3c-0.2,0.5-0.3,1-0.4,1.5l-0.8-0.2
		c-0.3-0.1-0.6,0.1-0.6,0.4l-0.5,1.8c-0.1,0.3,0.1,0.6,0.4,0.6l0.8,0.2c-0.1,0.4-0.2,0.9-0.3,1.3l-0.8-0.1l0,0
		c-0.3,0-0.5,0.2-0.6,0.4l-0.1,0.8l-0.2,1.1c0,0.3,0.1,0.5,0.4,0.6l0.8,0.1c-0.1,0.5-0.1,0.9-0.2,1.4l-0.8-0.1h0c0,0-0.1,0-0.1,0
		c0,0-0.1,0-0.1,0c0,0,0,0,0,0c0,0-0.1,0-0.1,0.1c-0.1,0-0.1,0.1-0.1,0.2c0,0,0,0.1-0.1,0.2l-0.2,1.9c0,0,0,0.1,0,0.1
		c0,0.2,0.2,0.4,0.5,0.5l0.8,0.1c0,0.1,0,0.2,0,0.3c-0.3,0.3-0.6,0.7-1,1c-0.1,0.1-0.3,0.3-0.4,0.4c-0.5,0.5-1,0.9-1.5,1.3
		c-0.4,0.3-0.8,0.6-1.2,0.9c-0.1,0.1-0.3,0.2-0.4,0.3c0,0,0,0,0,0c-1.6-1.1-2.7-1.4-2.7-1.4c-2.2-0.8-3.7,0.4-4.4,1.1
		c-0.6,0.7-1.5,1.1-2.4,1.2c0,0-0.1,0-0.1,0c-0.4,0-0.8-0.1-1.1-0.2c-1.6-0.6-2.9-0.5-4-0.3c-1.3,0.3-2.2,1.3-2.5,2.6c0,0,0,0,0,0v0
		C309.8,257.5,304.1,254.6,303.3,254.2z M332,318.4l-7.7,10.8v9.8h-8v-9.8l-7.9-10.3l0-10.8l6.6-0.1l0.1,8.7l5.4,6.6l4.8-6.8l0-8.5
		l6.8,0L332,318.4z M352.9,338.7c-0.3,0.1-0.5,0.2-0.8,0.3h-16.9v-30.9h8v24.3h9.6V338.7z M234.9,326.4c-1.3,0-2.4,0.5-3.2,1.6
		c-0.7,0.8-1,1.8-1,2.8c0,1.1,0.3,2.1,1,2.9c0.8,1.1,1.9,1.6,3.2,1.6c1.2,0,2.1-0.4,3-1.3c0.8-0.8,1.2-1.9,1.2-3.2
		c0-1.2-0.4-2.3-1.2-3.1C237,326.9,236.1,326.4,234.9,326.4z M201.6,330.9c0-1.2-0.4-2.3-1.2-3.1c-0.8-0.9-1.8-1.3-2.9-1.3
		c-0.2,0-0.5,0-0.7,0.1l4.4,6.4C201.4,332.3,201.6,331.6,201.6,330.9z M237.8,327.7c-0.8-0.9-1.8-1.3-2.9-1.3
		c-1.3,0-2.4,0.5-3.2,1.6c-0.7,0.8-1,1.8-1,2.8c0,1.1,0.3,2.1,1,2.9c0.8,1.1,1.9,1.6,3.2,1.6c1.2,0,2.1-0.4,3-1.3
		c0.8-0.8,1.2-1.9,1.2-3.2C239.1,329.6,238.7,328.6,237.8,327.7z M237.8,327.7c-0.8-0.9-1.8-1.3-2.9-1.3c-1.3,0-2.4,0.5-3.2,1.6
		c-0.7,0.8-1,1.8-1,2.8c0,1.1,0.3,2.1,1,2.9c0.8,1.1,1.9,1.6,3.2,1.6c1.2,0,2.1-0.4,3-1.3c0.8-0.8,1.2-1.9,1.2-3.2
		C239.1,329.6,238.7,328.6,237.8,327.7z M200.4,327.7c-0.8-0.9-1.8-1.3-2.9-1.3c-0.2,0-0.5,0-0.7,0.1l4.4,6.4c0.3-0.6,0.4-1.3,0.4-2
		C201.6,329.6,201.2,328.6,200.4,327.7z M237.8,327.7c-0.8-0.9-1.8-1.3-2.9-1.3c-1.3,0-2.4,0.5-3.2,1.6c-0.7,0.8-1,1.8-1,2.8
		c0,1.1,0.3,2.1,1,2.9c0.8,1.1,1.9,1.6,3.2,1.6c1.2,0,2.1-0.4,3-1.3c0.8-0.8,1.2-1.9,1.2-3.2C239.1,329.6,238.7,328.6,237.8,327.7z
		 M237.8,327.7c-0.8-0.9-1.8-1.3-2.9-1.3c-1.3,0-2.4,0.5-3.2,1.6c-0.7,0.8-1,1.8-1,2.8c0,1.1,0.3,2.1,1,2.9c0.8,1.1,1.9,1.6,3.2,1.6
		c1.2,0,2.1-0.4,3-1.3c0.8-0.8,1.2-1.9,1.2-3.2C239.1,329.6,238.7,328.6,237.8,327.7z M200.4,327.7c-0.8-0.9-1.8-1.3-2.9-1.3
		c-0.2,0-0.5,0-0.7,0.1l4.4,6.4c0.3-0.6,0.4-1.3,0.4-2C201.6,329.6,201.2,328.6,200.4,327.7z M237.8,327.7c-0.8-0.9-1.8-1.3-2.9-1.3
		c-1.3,0-2.4,0.5-3.2,1.6c-0.7,0.8-1,1.8-1,2.8c0,1.1,0.3,2.1,1,2.9c0.8,1.1,1.9,1.6,3.2,1.6c1.2,0,2.1-0.4,3-1.3
		c0.8-0.8,1.2-1.9,1.2-3.2C239.1,329.6,238.7,328.6,237.8,327.7z M237.8,327.7c-0.8-0.9-1.8-1.3-2.9-1.3c-1.3,0-2.4,0.5-3.2,1.6
		c-0.7,0.8-1,1.8-1,2.8c0,1.1,0.3,2.1,1,2.9c0.8,1.1,1.9,1.6,3.2,1.6c1.2,0,2.1-0.4,3-1.3c0.8-0.8,1.2-1.9,1.2-3.2
		C239.1,329.6,238.7,328.6,237.8,327.7z M200.4,327.7c-0.8-0.9-1.8-1.3-2.9-1.3c-0.2,0-0.5,0-0.7,0.1l4.4,6.4c0.3-0.6,0.4-1.3,0.4-2
		C201.6,329.6,201.2,328.6,200.4,327.7z M237.8,327.7c-0.8-0.9-1.8-1.3-2.9-1.3c-1.3,0-2.4,0.5-3.2,1.6c-0.7,0.8-1,1.8-1,2.8
		c0,1.1,0.3,2.1,1,2.9c0.8,1.1,1.9,1.6,3.2,1.6c1.2,0,2.1-0.4,3-1.3c0.8-0.8,1.2-1.9,1.2-3.2C239.1,329.6,238.7,328.6,237.8,327.7z
		 M237.8,327.7c-0.8-0.9-1.8-1.3-2.9-1.3c-1.3,0-2.4,0.5-3.2,1.6c-0.7,0.8-1,1.8-1,2.8c0,1.1,0.3,2.1,1,2.9c0.8,1.1,1.9,1.6,3.2,1.6
		c1.2,0,2.1-0.4,3-1.3c0.8-0.8,1.2-1.9,1.2-3.2C239.1,329.6,238.7,328.6,237.8,327.7z M200.4,327.7c-0.8-0.9-1.8-1.3-2.9-1.3
		c-0.2,0-0.5,0-0.7,0.1l4.4,6.4c0.3-0.6,0.4-1.3,0.4-2C201.6,329.6,201.2,328.6,200.4,327.7z M237.8,327.7c-0.8-0.9-1.8-1.3-2.9-1.3
		c-1.3,0-2.4,0.5-3.2,1.6c-0.7,0.8-1,1.8-1,2.8c0,1.1,0.3,2.1,1,2.9c0.8,1.1,1.9,1.6,3.2,1.6c1.2,0,2.1-0.4,3-1.3
		c0.8-0.8,1.2-1.9,1.2-3.2C239.1,329.6,238.7,328.6,237.8,327.7z M237.8,327.7c-0.8-0.9-1.8-1.3-2.9-1.3c-1.3,0-2.4,0.5-3.2,1.6
		c-0.7,0.8-1,1.8-1,2.8c0,1.1,0.3,2.1,1,2.9c0.8,1.1,1.9,1.6,3.2,1.6c1.2,0,2.1-0.4,3-1.3c0.8-0.8,1.2-1.9,1.2-3.2
		C239.1,329.6,238.7,328.6,237.8,327.7z M200.4,327.7c-0.8-0.9-1.8-1.3-2.9-1.3c-0.2,0-0.5,0-0.7,0.1l4.4,6.4c0.3-0.6,0.4-1.3,0.4-2
		C201.6,329.6,201.2,328.6,200.4,327.7z M237.8,327.7c-0.8-0.9-1.8-1.3-2.9-1.3c-1.3,0-2.4,0.5-3.2,1.6c-0.7,0.8-1,1.8-1,2.8
		c0,1.1,0.3,2.1,1,2.9c0.8,1.1,1.9,1.6,3.2,1.6c1.2,0,2.1-0.4,3-1.3c0.8-0.8,1.2-1.9,1.2-3.2C239.1,329.6,238.7,328.6,237.8,327.7z
		 M237.8,327.7c-0.8-0.9-1.8-1.3-2.9-1.3c-1.3,0-2.4,0.5-3.2,1.6c-0.7,0.8-1,1.8-1,2.8c0,1.1,0.3,2.1,1,2.9c0.8,1.1,1.9,1.6,3.2,1.6
		c1.2,0,2.1-0.4,3-1.3c0.8-0.8,1.2-1.9,1.2-3.2C239.1,329.6,238.7,328.6,237.8,327.7z M200.4,327.7c-0.8-0.9-1.8-1.3-2.9-1.3
		c-0.2,0-0.5,0-0.7,0.1l4.4,6.4c0.3-0.6,0.4-1.3,0.4-2C201.6,329.6,201.2,328.6,200.4,327.7z M237.8,327.7c-0.8-0.9-1.8-1.3-2.9-1.3
		c-1.3,0-2.4,0.5-3.2,1.6c-0.7,0.8-1,1.8-1,2.8c0,1.1,0.3,2.1,1,2.9c0.8,1.1,1.9,1.6,3.2,1.6c1.2,0,2.1-0.4,3-1.3
		c0.8-0.8,1.2-1.9,1.2-3.2C239.1,329.6,238.7,328.6,237.8,327.7z M237.8,327.7c-0.8-0.9-1.8-1.3-2.9-1.3c-1.3,0-2.4,0.5-3.2,1.6
		c-0.7,0.8-1,1.8-1,2.8c0,1.1,0.3,2.1,1,2.9c0.8,1.1,1.9,1.6,3.2,1.6c1.2,0,2.1-0.4,3-1.3c0.8-0.8,1.2-1.9,1.2-3.2
		C239.1,329.6,238.7,328.6,237.8,327.7z M200.4,327.7c-0.8-0.9-1.8-1.3-2.9-1.3c-0.2,0-0.5,0-0.7,0.1l4.4,6.4c0.3-0.6,0.4-1.3,0.4-2
		C201.6,329.6,201.2,328.6,200.4,327.7z M237.8,327.7c-0.8-0.9-1.8-1.3-2.9-1.3c-1.3,0-2.4,0.5-3.2,1.6c-0.7,0.8-1,1.8-1,2.8
		c0,1.1,0.3,2.1,1,2.9c0.8,1.1,1.9,1.6,3.2,1.6c1.2,0,2.1-0.4,3-1.3c0.8-0.8,1.2-1.9,1.2-3.2C239.1,329.6,238.7,328.6,237.8,327.7z
		 M237.8,327.7c-0.8-0.9-1.8-1.3-2.9-1.3c-1.3,0-2.4,0.5-3.2,1.6c-0.7,0.8-1,1.8-1,2.8c0,1.1,0.3,2.1,1,2.9c0.8,1.1,1.9,1.6,3.2,1.6
		c1.2,0,2.1-0.4,3-1.3c0.8-0.8,1.2-1.9,1.2-3.2C239.1,329.6,238.7,328.6,237.8,327.7z M200.4,327.7c-0.8-0.9-1.8-1.3-2.9-1.3
		c-0.2,0-0.5,0-0.7,0.1l4.4,6.4c0.3-0.6,0.4-1.3,0.4-2C201.6,329.6,201.2,328.6,200.4,327.7z M237.8,327.7c-0.8-0.9-1.8-1.3-2.9-1.3
		c-1.3,0-2.4,0.5-3.2,1.6c-0.7,0.8-1,1.8-1,2.8c0,1.1,0.3,2.1,1,2.9c0.8,1.1,1.9,1.6,3.2,1.6c1.2,0,2.1-0.4,3-1.3
		c0.8-0.8,1.2-1.9,1.2-3.2C239.1,329.6,238.7,328.6,237.8,327.7z M237.8,327.7c-0.8-0.9-1.8-1.3-2.9-1.3c-1.3,0-2.4,0.5-3.2,1.6
		c-0.7,0.8-1,1.8-1,2.8c0,1.1,0.3,2.1,1,2.9c0.8,1.1,1.9,1.6,3.2,1.6c1.2,0,2.1-0.4,3-1.3c0.8-0.8,1.2-1.9,1.2-3.2
		C239.1,329.6,238.7,328.6,237.8,327.7z M200.4,327.7c-0.8-0.9-1.8-1.3-2.9-1.3c-0.2,0-0.5,0-0.7,0.1l4.4,6.4c0.3-0.6,0.4-1.3,0.4-2
		C201.6,329.6,201.2,328.6,200.4,327.7z M237.8,327.7c-0.8-0.9-1.8-1.3-2.9-1.3c-1.3,0-2.4,0.5-3.2,1.6c-0.7,0.8-1,1.8-1,2.8
		c0,1.1,0.3,2.1,1,2.9c0.8,1.1,1.9,1.6,3.2,1.6c1.2,0,2.1-0.4,3-1.3c0.8-0.8,1.2-1.9,1.2-3.2C239.1,329.6,238.7,328.6,237.8,327.7z
		 M237.8,327.7c-0.8-0.9-1.8-1.3-2.9-1.3c-1.3,0-2.4,0.5-3.2,1.6c-0.7,0.8-1,1.8-1,2.8c0,1.1,0.3,2.1,1,2.9c0.8,1.1,1.9,1.6,3.2,1.6
		c1.2,0,2.1-0.4,3-1.3c0.8-0.8,1.2-1.9,1.2-3.2C239.1,329.6,238.7,328.6,237.8,327.7z M200.4,327.7c-0.8-0.9-1.8-1.3-2.9-1.3
		c-0.2,0-0.5,0-0.7,0.1l4.4,6.4c0.3-0.6,0.4-1.3,0.4-2C201.6,329.6,201.2,328.6,200.4,327.7z M237.8,327.7c-0.8-0.9-1.8-1.3-2.9-1.3
		c-1.3,0-2.4,0.5-3.2,1.6c-0.7,0.8-1,1.8-1,2.8c0,1.1,0.3,2.1,1,2.9c0.8,1.1,1.9,1.6,3.2,1.6c1.2,0,2.1-0.4,3-1.3
		c0.8-0.8,1.2-1.9,1.2-3.2C239.1,329.6,238.7,328.6,237.8,327.7z M237.8,327.7c-0.8-0.9-1.8-1.3-2.9-1.3c-1.3,0-2.4,0.5-3.2,1.6
		c-0.7,0.8-1,1.8-1,2.8c0,1.1,0.3,2.1,1,2.9c0.8,1.1,1.9,1.6,3.2,1.6c1.2,0,2.1-0.4,3-1.3c0.8-0.8,1.2-1.9,1.2-3.2
		C239.1,329.6,238.7,328.6,237.8,327.7z M200.4,327.7c-0.8-0.9-1.8-1.3-2.9-1.3c-0.2,0-0.5,0-0.7,0.1l4.4,6.4c0.3-0.6,0.4-1.3,0.4-2
		C201.6,329.6,201.2,328.6,200.4,327.7z M237.8,327.7c-0.8-0.9-1.8-1.3-2.9-1.3c-1.3,0-2.4,0.5-3.2,1.6c-0.7,0.8-1,1.8-1,2.8
		c0,1.1,0.3,2.1,1,2.9c0.8,1.1,1.9,1.6,3.2,1.6c1.2,0,2.1-0.4,3-1.3c0.8-0.8,1.2-1.9,1.2-3.2C239.1,329.6,238.7,328.6,237.8,327.7z
		 M237.8,327.7c-0.8-0.9-1.8-1.3-2.9-1.3c-1.3,0-2.4,0.5-3.2,1.6c-0.7,0.8-1,1.8-1,2.8c0,1.1,0.3,2.1,1,2.9c0.8,1.1,1.9,1.6,3.2,1.6
		c1.2,0,2.1-0.4,3-1.3c0.8-0.8,1.2-1.9,1.2-3.2C239.1,329.6,238.7,328.6,237.8,327.7z M200.4,327.7c-0.8-0.9-1.8-1.3-2.9-1.3
		c-0.2,0-0.5,0-0.7,0.1l4.4,6.4c0.3-0.6,0.4-1.3,0.4-2C201.6,329.6,201.2,328.6,200.4,327.7z M200.4,327.7c-0.8-0.9-1.8-1.3-2.9-1.3
		c-0.2,0-0.5,0-0.7,0.1l4.4,6.4c0.3-0.6,0.4-1.3,0.4-2C201.6,329.6,201.2,328.6,200.4,327.7z"/>
	<g>
		<g>
			<path class="st0" d="M352.9,338.7v0.3h-0.8C352.4,338.9,352.6,338.8,352.9,338.7z"/>
			<path class="st0" d="M352.1,339h0.8v-0.3C352.6,338.8,352.4,338.9,352.1,339z"/>
			<path class="st0" d="M374.5,308.1v5.7c-1.8-1.9-3.9-3.9-6.4-5.7H374.5z"/>
		</g>
		<g>
			<path class="st0" d="M402.5,320.3v1.9c-0.7-0.8-1.3-1.3-2-1.6c-1.1-0.6-2.3-0.8-3.6-0.8c-2.2,0-4.1,0.8-5.8,2.3
				c-2.1,1.9-3.2,4.5-3.2,7.8c0,3.2,1,5.7,3.1,7.7c1.7,1.6,3.7,2.4,5.9,2.4c1.4,0,2.6-0.3,3.7-1c0.6-0.4,1.2-0.9,1.8-1.8v2.1h6.3
				v-19H402.5z M401.6,332.8c-0.8,0.8-1.7,1.2-2.9,1.2c-1.3,0-2.3-0.5-3.1-1.5c-0.7-0.8-1-1.7-1-2.8c0-1,0.3-2,1-2.8
				c0.8-1,1.8-1.5,3.1-1.5c1.1,0,2.1,0.4,2.9,1.2c0.8,0.8,1.2,1.8,1.2,3C402.7,331,402.4,332,401.6,332.8z"/>
			<polygon class="st0" points="555.2,320.2 555,329.8 541.7,347.5 534.9,347.4 542.3,337.3 535.8,329.8 535.7,320.2 541.9,320.2 
				541.9,328.2 545.9,332.8 549.2,328 549.2,320.2 			"/>
			<path class="st0" d="M532.1,326.9v12.3h-6.3v-9.4c0-1.6-0.2-2.7-0.5-3.3c-0.5-0.9-1.2-1.3-2.1-1.3c-1,0-1.9,0.5-2.4,1.4
				c-0.4,0.7-0.6,1.8-0.6,3.2v9.4h-6.3v-9.3c0-1.6-0.1-2.7-0.4-3.2c-0.5-1-1.3-1.5-2.4-1.5c-1,0-1.8,0.4-2.3,1.3
				c-0.2,0.3-0.4,0.7-0.4,1.2c-0.1,0.5-0.1,1.2-0.1,2.1v9.3h-6.3v-19h6.3v2.3c0.7-0.8,1.4-1.3,2.1-1.7c1.1-0.6,2.4-1,3.7-1
				c1.8,0,3.2,0.5,4.4,1.4c0.6,0.5,1.2,1.2,1.7,2.1c0.5-0.8,1-1.5,1.6-2c1.3-1,2.7-1.5,4.4-1.5c1.3,0,2.5,0.3,3.6,1
				c1.1,0.7,1.8,1.8,2.2,3C532,324.8,532.1,325.8,532.1,326.9z"/>
			<path class="st0" d="M498.1,330.2c0-2.2-0.5-4.2-1.4-5.9c-1.7-3-4.4-4.5-8.3-4.5c-3.1,0-5.6,0.9-7.3,2.8
				c-1.7,1.9-2.6,4.4-2.6,7.4c0,2.6,0.7,4.7,2.1,6.5c1.8,2.4,4.6,3.6,8.3,3.6c2.9,0,5.2-0.8,6.9-2.5c1-0.9,1.7-2.2,2.2-4h-6.1
				c-0.7,1.2-1.7,1.8-3,1.8c-2.6,0-3.8-1.4-3.8-4.2h13.2V330.2z M485.1,327.3c0.1-0.9,0.5-1.7,1-2.2c0.7-0.7,1.5-1,2.6-1
				c1.9,0,3.1,1.1,3.6,3.3H485.1z"/>
			<path class="st0" d="M468.5,308.6v13.6c-0.7-0.7-1.3-1.3-2-1.6c-1.1-0.6-2.3-0.9-3.6-0.9c-2.2,0-4.1,0.8-5.8,2.3
				c-2.1,1.9-3.2,4.5-3.2,7.8c0,3.2,1,5.7,3.1,7.7c1.7,1.6,3.7,2.4,5.9,2.4c1.4,0,2.6-0.3,3.7-1c0.6-0.4,1.2-0.9,1.8-1.8v2.1h6.3
				v-30.7H468.5z M467.5,332.9c-0.8,0.8-1.7,1.3-2.9,1.3c-1.2,0-2.3-0.5-3.1-1.5c-0.6-0.8-1-1.8-1-2.8c0-1.1,0.3-2,1-2.8
				c0.8-1,1.8-1.5,3.1-1.5c1.1,0,2.1,0.4,2.9,1.3c0.8,0.8,1.2,1.8,1.2,3.1C468.7,331,468.3,332,467.5,332.9z"/>
			<path class="st0" d="M444.1,320.3v1.9c-0.7-0.8-1.3-1.3-2-1.6c-1.1-0.6-2.3-0.8-3.6-0.8c-2.2,0-4.1,0.8-5.8,2.3
				c-1.1,1-1.9,2.2-2.4,3.6c-0.5,1.2-0.7,2.6-0.7,4.2c0,3.2,1,5.7,3.1,7.7c1.7,1.6,3.7,2.4,5.9,2.4c1.4,0,2.6-0.3,3.7-1
				c0.6-0.4,1.2-0.9,1.8-1.8v2.1h6.3v-19H444.1z M443.1,332.8c-0.6,0.6-1.2,1-2,1.1c-0.3,0.1-0.6,0.1-0.9,0.1
				c-1.3,0-2.3-0.5-3.1-1.5c-0.6-0.7-0.9-1.5-1-2.4c0-0.1,0-0.3,0-0.4c0-1,0.3-2,1-2.8c0.8-1,1.8-1.5,3.1-1.5c1.1,0,2.1,0.4,2.9,1.2
				c0.8,0.8,1.2,1.8,1.2,3C444.3,331,443.9,332,443.1,332.8z"/>
			<path class="st1" d="M426.7,320.8v5.7c-0.3-0.3-0.7-0.5-1-0.7c-0.1,0-0.1-0.1-0.2-0.1c-0.2-0.1-0.3-0.2-0.5-0.2
				c-0.1,0-0.2-0.1-0.4-0.1c0,0,0,0,0,0c-0.4-0.1-0.8-0.2-1.2-0.2c-1.3,0-2.3,0.4-3.1,1.3c-0.8,0.9-1.2,1.9-1.2,3.3
				c0,1.3,0.4,2.4,1.2,3.3c0.8,0.9,1.9,1.3,3.1,1.3c1,0,2.1-0.4,3.3-1.2v5.7c-1.3,0.7-2.7,1-4.1,1c-3.3,0-5.8-1.2-7.8-3.5
				c-1.5-1.9-2.3-4.1-2.3-6.6c0-2.5,0.8-4.7,2.3-6.6c1.7-2.1,3.9-3.2,6.7-3.5c0.4,0,0.7,0,1.1,0h0.1c0,0,0,0,0,0
				c0.3,0,0.6,0,0.9,0.1c0.1,0,0.3,0,0.4,0.1c0.2,0,0.5,0.1,0.7,0.1c0,0,0.1,0,0.1,0C425.5,320.2,426.1,320.5,426.7,320.8z"/>
		</g>
		<g>
			<path class="st0" d="M84.4,327.2c1.9-0.4,3.4-1.1,4.4-2.2c1.7-1.6,2.5-3.8,2.5-6.6c0-2.4-0.7-4.5-2.2-6.3
				c-1.8-2.2-4.6-3.3-8.3-3.3H68v31h8.2V328l7.9,11.8h10.3L84.4,327.2z M81.5,321.7c-0.8,0.7-2,1.1-3.8,1.1h-1.5V315h1.5
				c1.7,0,3,0.4,3.8,1.1c0.8,0.8,1.2,1.7,1.2,2.8C82.8,320,82.4,320.9,81.5,321.7z"/>
			<polygon class="st0" points="129.5,315.6 129.5,320.9 138.8,320.9 138.8,327.6 129.5,327.6 129.5,333.2 139.4,333.2 139.4,339.9 
				121.3,339.9 121.3,308.9 139.4,308.9 139.4,315.6 			"/>
			<polygon class="st0" points="63.1,315.6 53.1,315.6 53.1,320.9 62.1,320.9 62.1,327.6 53.1,327.6 53.1,339.9 44.8,339.9 
				44.8,308.9 63.1,308.9 			"/>
			<path class="st0" d="M104.8,339.9L104.8,339.9z"/>
			<polygon class="st0" points="106.2,315.6 106.2,320.9 115.5,320.9 115.5,327.6 106.2,327.6 106.2,333.2 116,333.2 116,339.9 
				97.9,339.9 97.9,308.9 116,308.9 116,315.6 			"/>
			<path class="st0" d="M121.5,339.9L121.5,339.9z"/>
		</g>
		<g>
			<path class="st0" d="M210.9,321.4c-0.2,0.2-0.3,0.5-0.5,0.7v-0.7H210.9z"/>
			<path class="st0" d="M210.4,321.4v0.7c0.2-0.2,0.4-0.5,0.5-0.7H210.4z"/>
			<path class="st0" d="M218.9,315.7v4.7c-0.8,1.4-1.4,2.2-1.4,2.3c0,0,0,0,0,0c-0.6-0.8-1.2-1.6-1.8-2.5c-1.1-1.5-2.1-3.1-3-4.6
				H218.9z"/>
			<path class="st1" d="M204.4,337.7c0,0,0-0.1-0.1-0.1l-3.2-4.7c-0.2,0.4-0.4,0.8-0.8,1.1c-0.8,0.9-1.8,1.3-3,1.3
				c-1.3,0-2.4-0.5-3.2-1.6c-0.7-0.8-1-1.8-1-2.9c0-1.1,0.3-2,1-2.8c0.7-0.9,1.5-1.4,2.5-1.5l-3.5-5.2c-1.6,0.6-3,1.5-4.1,2.8
				c-0.9,1-1.5,2.1-1.9,3.3c-0.1,0.3-0.2,0.5-0.2,0.8c0,0.1-0.1,0.3-0.1,0.4c-0.1,0.2-0.1,0.5-0.1,0.7c0,0.1,0,0.3,0,0.4
				c0,0,0,0,0,0.1c0,0.3,0,0.6,0,0.8c0,2.7,0.8,5.1,2.4,7c0.5,0.6,1.1,1.1,1.8,1.6c0.1,0.1,0.3,0.2,0.4,0.3c0.5,0.3,1,0.6,1.5,0.8
				c0.1,0,0.1,0.1,0.2,0.1c0.1,0,0.2,0.1,0.4,0.1c0.2,0.1,0.5,0.1,0.7,0.2c0,0,0,0,0.1,0c0.2,0.1,0.5,0.1,0.7,0.2
				c0.3,0.1,0.7,0.1,1,0.1h0c0.5,0.1,1,0.1,1.5,0.1c1.2,0,2.3-0.1,3.3-0.4C203.3,339.3,204.4,337.8,204.4,337.7
				C204.4,337.8,204.4,337.8,204.4,337.7z"/>
			<path class="st0" d="M183.3,328v12.4h-6.4V331c0-1.6-0.2-2.7-0.5-3.4c-0.2-0.4-0.5-0.7-0.8-0.9c-0.4-0.3-0.8-0.4-1.3-0.4
				c-1.1,0-1.9,0.5-2.4,1.4c-0.4,0.7-0.6,1.8-0.6,3.2v8.5c-2.2-0.6-4.3-1.2-6.4-1.7V331c0-1.6-0.1-2.7-0.4-3.2
				c-0.5-1-1.3-1.5-2.4-1.5c-1,0-1.8,0.4-2.3,1.3c-0.2,0.3-0.4,0.7-0.4,1.2c-0.1,0.5-0.1,1.2-0.1,2.2v5.4c-2.3-0.5-4.4-1-6.4-1.4
				v-13.7h6.4v2.4c0.8-0.8,1.4-1.3,2.1-1.7c1.1-0.6,2.4-1,3.8-1c1.8,0,3.2,0.5,4.4,1.4c0.6,0.5,1.2,1.2,1.7,2.1c0.5-0.8,1-1.5,1.6-2
				c0.8-0.6,1.6-1,2.4-1.3c0,0,0.4-0.1,1-0.2c0.4-0.1,1-0.1,1.5-0.1c1.1,0.1,2.1,0.4,3.1,1c1.1,0.8,1.8,1.8,2.2,3.1
				C183.2,325.9,183.3,326.9,183.3,328z"/>
		</g>
	</g>
</g>
</svg>
