<svg id="Vrstva_1" data-name="Vrstva 1" xmlns="http://www.w3.org/2000/svg" viewBox="0 0 1470.64 554.55"><defs><style>.cls-1,.cls-2{fill:#fff;}.cls-2{fill-rule:evenodd;}.cls-3{fill:none;}</style></defs><path class="cls-1" d="M389.7,443s0,0,0-.06c-.15-.39-.27-.66-.35-.82a.08.08,0,0,0,0,0s0,0,0,0l0-.07c-8.76-25.86-14.11-38.45-17.1-44.51-.63-1.28-1.15-2.26-1.58-3v0A11.21,11.21,0,0,0,369,392l-1.4-1.57c-.33-.37-.67-.74-1-1.1-2-2.21-3.65-4-5.09-5.53l-.59-.63a64.55,64.55,0,0,0-9.3-8.29l0,0c-3-2.19-6.74-4.75-12.92-9.25a.1.1,0,0,1-.05,0c-15.66-11.39-25-9.89-26.64-9.5l-.26.06c-9.39.19-13.7-.26-17.39-3h0A14.76,14.76,0,0,1,293,352h0a32.91,32.91,0,0,1-3.31-3.73l-.05-.06c-.8-1-1.64-2.08-2.51-3.33l0-.06c-.11-.14-.21-.28-.31-.43l-.13-.17c-.33-.44-.66-.89-1-1.34l0-.05a45.79,45.79,0,0,0-6.12-6.8h0a51,51,0,0,0-15.32-9.72c1.27.2,58.35,8.72,59.12,1.6a1.74,1.74,0,0,0-.2-1s-1.33-1-8.15-3.18c-.47-.06-.94-.12-1.43-.22l.05-.18-.28-.05v-.07c-6.21-1.93-16.26-4.65-32.34-8.29h0v0a5.18,5.18,0,0,1,.06-.93,27.75,27.75,0,0,0-.24-3.77c-.81-6.73-4.3-19.23-18.47-28,0,0-16.38-7.77-34.54-8.48,0,0-10.59-2.41-10.26-6.57a21,21,0,0,1,15.77-12.53h0A26,26,0,0,1,238,254c.67,0,1.06,0,1.06,0l.77,1.42a.43.43,0,0,0,.6.17l.62-.33c.19.32.38.64.58,1l-.6.39a.44.44,0,0,0-.13.61l.07.1h0l.81,1.26a.46.46,0,0,0,.62.13l.29-.2.31-.2q.32.47.66.93l-.31.23-.26.21a.44.44,0,0,0-.08.62l1,1.28a.23.23,0,0,0,.11.09.44.44,0,0,0,.52,0l.57-.44c.22.28.46.56.7.83l-.54.48a.45.45,0,0,0,0,.63l.46.5.63.7a.49.49,0,0,0,.23.13.42.42,0,0,0,.4-.1l.54-.5c.19.21.39.41.6.62a1.84,1.84,0,0,1,.19.2l-.49.52a.44.44,0,0,0,0,.63l1.19,1.11a.43.43,0,0,0,.62,0l.5-.53c.38.33.77.67,1.16,1l-.44.58a.43.43,0,0,0,.07.62l1.28,1a.45.45,0,0,0,.63-.07l.44-.57c.29.22.59.43.89.64l-.4.6a.45.45,0,0,0,.13.61l1.36.9a.43.43,0,0,0,.61-.13l.39-.59,1.12.68-.34.62a.45.45,0,0,0,.19.6l1.42.77a.44.44,0,0,0,.6-.17l.34-.62c.42.21.85.43,1.28.63l-.28.64a.44.44,0,0,0,.23.58l1.49.66a.45.45,0,0,0,.58-.23l.28-.65,1.18.46-.22.66a.45.45,0,0,0,.27.57l.18.06.95.32.41.14a.43.43,0,0,0,.56-.27l.23-.67c.42.13.84.25,1.27.36l-.17.69a.44.44,0,0,0,.32.54l.64.16.93.23a.44.44,0,0,0,.46-.15h0a.38.38,0,0,0,.08-.17l.17-.7c.38.09.75.16,1.12.23l-.11.71a.43.43,0,0,0,.36.51l1.41.23.19,0a.44.44,0,0,0,.47-.24.42.42,0,0,0,0-.12l.12-.72,1.2.15-.05.72a.44.44,0,0,0,.4.48l1.61.13a.46.46,0,0,0,.49-.41l.05-.73c.39,0,.76,0,1.14.05v.73a.45.45,0,0,0,.45.44h1.62a.44.44,0,0,0,.44-.44v-.73c.49,0,1,0,1.45-.06l0,.3,0,.42a.44.44,0,0,0,.49.4l1.38-.12.23,0a.42.42,0,0,0,.4-.47l-.05-.73,1.39-.17.13.7a.61.61,0,0,0,.09.2.44.44,0,0,0,.42.16l1.6-.28a.44.44,0,0,0,.36-.51l0-.13-.1-.57,1.11-.25.18.69a.45.45,0,0,0,.55.32l.36-.09,1.2-.32a.45.45,0,0,0,.32-.54l-.18-.68.87-.26.24-.08.2.58h0l0,.08a.45.45,0,0,0,.37.29h0a.47.47,0,0,0,.2,0l1.54-.54a.44.44,0,0,0,.26-.56l-.23-.66,1.23-.49,0,.08.25.56a.45.45,0,0,0,.59.23l1.14-.52.34-.15a.44.44,0,0,0,.23-.58l-.3-.65.95-.47.34.62.1.12a.45.45,0,0,0,.51.06l1.42-.78a.43.43,0,0,0,.17-.6l-.33-.62,1-.58.38.6a.45.45,0,0,0,.62.12l.52-.34.84-.55a.45.45,0,0,0,.13-.61l-.39-.6c.31-.21.61-.44.91-.66h0l.44.56a.44.44,0,0,0,.62.08l1.28-1a.43.43,0,0,0,.08-.62l-.45-.57c.28-.23.56-.46.83-.7l.5.54a.44.44,0,0,0,.62,0l1.2-1.09a.44.44,0,0,0,0-.63l-.17-.2-.31-.34.6-.59,0,0,.18-.19.53.5a.44.44,0,0,0,.63,0l1.11-1.19a.44.44,0,0,0,0-.63l-.44-.41-.09-.08c.35-.38.68-.77,1-1.16l.06,0,.51.4a.44.44,0,0,0,.62-.07l1-1.29a.45.45,0,0,0-.08-.62l-.57-.44c.22-.29.43-.59.64-.89l.61.39a.44.44,0,0,0,.61-.12l.89-1.36a.44.44,0,0,0-.13-.62l-.59-.39c.23-.37.46-.74.67-1.12l.63.34a.44.44,0,0,0,.6-.18l.77-1.42a.44.44,0,0,0-.17-.6l-.62-.34c.21-.43.43-.85.63-1.28l.64.28a.45.45,0,0,0,.59-.23l.64-1.49a.44.44,0,0,0-.23-.58l-.64-.28c.16-.39.31-.79.46-1.19l.66.23a.45.45,0,0,0,.57-.28l.52-1.54a.44.44,0,0,0-.28-.56l-.67-.22c.14-.42.26-.85.38-1.27l.68.17a.45.45,0,0,0,.54-.33l.39-1.57a.44.44,0,0,0-.32-.54l-.7-.17c.09-.37.17-.74.23-1.12l.71.12a.45.45,0,0,0,.51-.37l.26-1.59a.45.45,0,0,0-.37-.52l-.71-.11c.06-.41.11-.8.15-1.21l.72.06a.43.43,0,0,0,.47-.4l.14-1.62a.45.45,0,0,0-.41-.48l-.72-.06c0-.38,0-.76,0-1.14h.73a.44.44,0,0,0,.44-.44v-1.62a.44.44,0,0,0-.44-.44h-.73c0-.49,0-1-.06-1.45l.73-.07a.43.43,0,0,0,.39-.48l-.14-1.62a.43.43,0,0,0-.48-.4l-.71.07c-.06-.48-.12-.94-.19-1.41l.71-.12a.45.45,0,0,0,.36-.52l-.28-1.6a.45.45,0,0,0-.52-.36l-.7.13c-.07-.38-.15-.75-.24-1.12l.7-.18a.44.44,0,0,0,.31-.53l-.41-1.58a.45.45,0,0,0-.54-.32l-.69.18-.33-1.1.66-.23a.45.45,0,0,0,.28-.57l-.53-1.53a.45.45,0,0,0-.57-.28l-.67.24-.48-1.24.63-.29a.44.44,0,0,0,.23-.58l-.66-1.48a.44.44,0,0,0-.59-.23l-.64.29c-.15-.32-.31-.63-.47-.95l.62-.34a.44.44,0,0,0,.18-.6l-.78-1.42a.46.46,0,0,0-.61-.18l-.61.34-.58-1,.59-.39a.44.44,0,0,0,.13-.62l-.88-1.35a.45.45,0,0,0-.62-.13l-.6.39c-.22-.31-.43-.61-.66-.92l.57-.44a.45.45,0,0,0,.08-.62l-1-1.29a.44.44,0,0,0-.62-.07l-.57.44-.7-.83.53-.48a.44.44,0,0,0,0-.63l-1.09-1.2a.44.44,0,0,0-.63,0l-.53.49-.6-.61-.2-.19.5-.54a.44.44,0,0,0,0-.63L311.36,198a.44.44,0,0,0-.62,0l-.14.15-.36.38c-.39-.34-.77-.67-1.17-1l.24-.3.21-.27a.45.45,0,0,0-.08-.63l-1.28-1a.45.45,0,0,0-.62.08l-.44.56L307,196l-.74-.54.39-.59h0a.45.45,0,0,0-.12-.62l-1.36-.89a.43.43,0,0,0-.61.12l-.4.59-1-.62-.07-.05.07-.14.26-.48a.44.44,0,0,0-.18-.6l-1.18-.65,0,0-.2-.11h0a.45.45,0,0,0-.59.19l-.24.44-.09.18-.09,0-.53-.27h0l-.65-.31.12-.27.16-.37a.46.46,0,0,0-.24-.59l-1.35-.59h0l-.13-.06a.45.45,0,0,0-.59.23l-.27.65-1.19-.46.11-.32.12-.35a.44.44,0,0,0-.28-.56l-1.08-.37-.45-.16a.45.45,0,0,0-.57.28l-.22.67-1.27-.36.17-.7a.46.46,0,0,0-.13-.43.63.63,0,0,0-.2-.1l-1.57-.39a.29.29,0,0,0-.16,0,.45.45,0,0,0-.38.33l-.17.69-1.12-.22.12-.71a.44.44,0,0,0-.37-.51l-.88-.14-.72-.12a.44.44,0,0,0-.51.36v.1l-.11.61-1.19-.14.05-.72a.44.44,0,0,0-.4-.48l-1.62-.13a.42.42,0,0,0-.25.06l-.1.07h0a.49.49,0,0,0-.13.27l-.06.73-1.14,0v-.73a.44.44,0,0,0-.44-.45h-1.62a.45.45,0,0,0-.45.45v.73l-1.45.06-.06-.72a.44.44,0,0,0-.48-.41l-1.61.14a.45.45,0,0,0-.41.48l.06.72-1.4.19-.12-.72a.45.45,0,0,0-.52-.35l-1.6.28a.45.45,0,0,0-.36.51l.13.7-1.11.24-.19-.68a.44.44,0,0,0-.54-.32l-1.57.41a.45.45,0,0,0-.32.54l.18.68-1.1.34-.24-.67a.43.43,0,0,0-.56-.27l-1.53.53a.45.45,0,0,0-.27.57l.23.66-1.24.49-.28-.64a.45.45,0,0,0-.59-.22l-1.48.65a.45.45,0,0,0-.23.59l.29.65-.95.47-.33-.62a.45.45,0,0,0-.61-.18l-.1.06L242.44,167l-.14-.2-.15-.24-.07-.1-.13-.18-.29-.45c-.13-.18-.26-.38-.41-.61l-.6-.91-.4-.61-.21-.33-1.81-2.72,0,0C230.67,148.7,216,124,223.55,121.57l0,0h0l.94.51a.89.89,0,0,0,.68-.18l.06-.05a2.59,2.59,0,0,0,0-4.14s-6.74-3.56-8.69-5a17.7,17.7,0,0,1-5.28-5.86,1.92,1.92,0,0,0-.16-.21c-.74-1-2.42-.43-3.51.07-.18.08-.35.16-.54.23-.39.15-.8.28-1.21.4a5.91,5.91,0,0,0-2.82,2.26,1.63,1.63,0,0,1-.76.59,1.36,1.36,0,0,1-.44.11,83.68,83.68,0,0,1-11.66-.35h-.14c-1.47-.11-2.72-.22-3.53-.3a2.33,2.33,0,0,1-.69-.17,13.45,13.45,0,0,0-1.49-1.34c-4.5-3.73-17-12.86-17.92-13.55l-.06,0-.11-.08a.32.32,0,0,1-.13-.22.59.59,0,0,1,0-.28l-.69-6.65a2,2,0,0,0-.3-.87l-.1-.15a2.39,2.39,0,0,1-.13-.21,1.82,1.82,0,0,1,0-1.74.2.2,0,0,1,.05-.09,3,3,0,0,1,1-1l.17-.11a7.81,7.81,0,0,1,1-.18c6.92-.75,16.78,7.28,18.29,8.54a.36.36,0,0,0,.42,0,10.57,10.57,0,0,0,5.57-8.11,1.49,1.49,0,0,1,0-.21,15.47,15.47,0,0,0,0-4.3,25.29,25.29,0,0,0-2.36-7.48c-.07-.17-.14-.3-.19-.4s-.12-.23-.12-.23a.36.36,0,0,0-.5-.14,14.33,14.33,0,0,1-1.77.87c-3,1.15-4.87.29-6-1.44l0-.06a1.38,1.38,0,0,1-.14-.24s0,0,0,0a7.64,7.64,0,0,1-.7-1.73c-1-3.52-.35-8.28.79-9.51,3.44,0,5.55-1,6.82-2.13h0A5.81,5.81,0,0,0,189,53.77a19.69,19.69,0,0,0,4.22,1.46l.21,0a13.79,13.79,0,0,0,7-.62,22.4,22.4,0,0,0,5-2.7c1.26-.71,0-1.42,0-1.42l-33.6-17.82a24,24,0,0,0-12.88-3.09,24.25,24.25,0,0,0-21.32,33.64v0a24.35,24.35,0,0,0,5.59,8.08h0l1.86,1.6.34.26,0,0a13.78,13.78,0,0,0,1.75,1,.55.55,0,0,1,.12.26c0,.32-.3.53-.4.87v0l-.09,0c-3.32-.43-5.89,1.49-7.83,4.24a22,22,0,0,0-1.86,3.17,42.45,42.45,0,0,0-2.74,7.79c-.48,1.89-.7,3.18-.7,3.18h0c-.11.35-2,6.36-4.62,13.85-.94,2.69-2,5.56-3.09,8.43a.14.14,0,0,1,0,.06c0,.06,0,.12-.07.19l-.59,1.53h0c-1.59,4.08-3.27,8.09-4.9,11.44a28.81,28.81,0,0,0-1.14,2.69,25.82,25.82,0,0,0,.09,18.05c.2.54.4,1,.58,1.4h0c.13.29.25.53.36.74h0c.16.32.3.54.36.66-4.36-.6-27.61-3.77-38-3.95L81,149,79.3,149h-.12a1.78,1.78,0,0,0-.75.19,1.1,1.1,0,0,0-.3.19.61.61,0,0,0-.13.16.9.9,0,0,0-.12.24v0a1.37,1.37,0,0,0,0,.36v.08a2.44,2.44,0,0,0,1,1.67h0c.74.61,8.35,3.34,17.25,6.39,11.43,3.94,25,8.41,28.74,9.65l1,.33h0l.59.65.08.08a59.4,59.4,0,0,0,5.38,4.94c.31.27.62.52.93.77,3.34,2.69,6.79,5.1,9.09,6.65l.1.07.63.41c.77.51,1.67,1,2,1.3l0,0a.81.81,0,0,1,0,.16l-1.44,1.81L137.75,192c-1.42,1.63-2.86,3.28-4.24,4.91h0a115.82,115.82,0,0,0-8.62,11,4.25,4.25,0,0,0-.85,2,17,17,0,0,0,2.75,6l.14.19-.36.13-1.68.65v0l-.78-1.42a.45.45,0,0,0-.61-.18l-.61.34-.58-1,.59-.39a.43.43,0,0,0,.13-.61l-.88-1.36a.43.43,0,0,0-.14-.13.44.44,0,0,0-.48,0l-.6.38c-.22-.31-.43-.62-.66-.92l.57-.44a.44.44,0,0,0,.08-.62l-.28-.36-.73-.93a.42.42,0,0,0-.61-.08l-.33.26-.24.19-.7-.83.53-.48a.44.44,0,0,0,0-.63l-1.06-1.17,0,0a.44.44,0,0,0-.63,0l-.32.29-.21.2-.6-.6-.2-.2.23-.25.27-.29a.44.44,0,0,0,0-.63l-.2-.18-1-.92a.43.43,0,0,0-.62,0l-.5.53c-.39-.34-.77-.67-1.17-1l.45-.57,0-.06a.45.45,0,0,0-.12-.56l-.78-.6-.5-.4a.46.46,0,0,0-.63.08l-.43.57-.89-.65.39-.6a.45.45,0,0,0,0-.45.38.38,0,0,0-.15-.16l-1.35-.89,0,0a.44.44,0,0,0-.59.15l-.39.59-1.11-.68.33-.62a.45.45,0,0,0-.18-.61l-.74-.4-.68-.37-.09,0a.44.44,0,0,0-.52.21l-.34.62c-.42-.22-.84-.43-1.27-.63l.28-.65a.45.45,0,0,0-.24-.58l-1.48-.65a.46.46,0,0,0-.59.23l-.27.65c-.4-.16-.79-.32-1.19-.46l.23-.67a.44.44,0,0,0-.28-.56l-1.54-.52a.44.44,0,0,0-.56.28l-.22.67c-.43-.14-.85-.26-1.27-.38l.17-.68a.45.45,0,0,0-.33-.54l-1.57-.39a.44.44,0,0,0-.54.32l-.18.69c-.36-.08-.73-.16-1.11-.22l.12-.71a.45.45,0,0,0-.37-.51l-1.6-.27a.46.46,0,0,0-.51.38l-.12.71-1.19-.15,0-.72a.45.45,0,0,0-.41-.48l-1.61-.13a.44.44,0,0,0-.48.41l-.06.72-1.14,0v-.73a.44.44,0,0,0-.45-.45H82.89a.45.45,0,0,0-.44.45v.73l-1.45.06-.06-.73a.45.45,0,0,0-.48-.4l-1.62.14a.45.45,0,0,0-.4.48l.06.72-1.4.19-.13-.71a.43.43,0,0,0-.51-.36l-1.6.27a.46.46,0,0,0-.36.52l.13.71c-.37.07-.75.15-1.11.24l-.19-.69a.44.44,0,0,0-.54-.32l-1.57.41a.44.44,0,0,0-.32.54l.18.69-1.11.33-.23-.67a.43.43,0,0,0-.56-.27l-1.53.53a.45.45,0,0,0-.27.57l.23.66-1.24.49-.28-.64a.45.45,0,0,0-.59-.22l-.74.33-.74.33a.42.42,0,0,0-.27.4.41.41,0,0,0,0,.19l.29.64-.95.47-.33-.62a.45.45,0,0,0-.61-.18l-.75.41-.67.37a.44.44,0,0,0-.22.51.36.36,0,0,0,0,.09l.34.62-1,.58-.39-.6a.44.44,0,0,0-.61-.12L57.6,200a.46.46,0,0,0-.19.44.36.36,0,0,0,0,.1.56.56,0,0,1,0,.08l.39.59c-.31.22-.62.44-.92.67l-.44-.57a.44.44,0,0,0-.62-.08l-.19.15-1.1.85a.44.44,0,0,0-.08.62l.45.57c-.28.23-.56.46-.83.7l-.37-.4-.12-.14a.44.44,0,0,0-.62,0l-1.15,1-.05,0a.44.44,0,0,0,0,.63l.49.54-.61.6-.19.2-.54-.5a.43.43,0,0,0-.62,0l-.09.09-1,1.09a.44.44,0,0,0,0,.63l.36.34.17.16c-.34.38-.67.77-1,1.16l-.57-.44a.43.43,0,0,0-.62.07L47,210l-.43.55a.45.45,0,0,0,.07.63l.57.44c-.18.25-.37.5-.54.75l-.1.14-.18-.12-.42-.28a.44.44,0,0,0-.61.14l-.28.4h0l-.61.94a.44.44,0,0,0,.12.61l.6.39-.23.37c-.15.25-.31.5-.45.75l-.62-.34a.46.46,0,0,0-.61.19L42.52,217a.44.44,0,0,0,.11.55.18.18,0,0,0,.07.05l.62.34c-.2.39-.4.78-.58,1.17a.54.54,0,0,0-.05.11l-.65-.28a.44.44,0,0,0-.58.24l-.65,1.48a.46.46,0,0,0,.23.59l.32.13.33.14c-.16.39-.32.79-.46,1.18l-.67-.22-.05,0a.45.45,0,0,0-.51.29l-.52,1.54a.42.42,0,0,0,.27.56l.68.23c-.06.18-.11.36-.16.54s-.15.48-.22.73l-.57-.14-.11,0a.44.44,0,0,0-.54.32l-.4,1.58a.44.44,0,0,0,.32.53l.71.18c-.09.37-.16.74-.23,1.12l-.71-.12a.44.44,0,0,0-.51.37l-.27,1.6a.46.46,0,0,0,.37.51l.31.05.41.06c0,.27-.08.53-.11.8s0,.27,0,.4l-.72-.05a.43.43,0,0,0-.48.4l-.14,1.62a.45.45,0,0,0,.41.48h.16l.57,0c0,.39,0,.76,0,1.14h-.73a.45.45,0,0,0-.44.45v1.62a.44.44,0,0,0,.44.44h.73c0,.29,0,.59,0,.88l0,.58-.33,0-.4,0a.45.45,0,0,0-.4.49l.14,1.61a.45.45,0,0,0,.48.41l.72-.06c0,.46.12.93.19,1.39l-.72.13a.44.44,0,0,0-.36.51l.28,1.61a.45.45,0,0,0,.52.35l.57-.1.13,0c0,.11,0,.22.07.33.06.27.11.53.18.78l-.7.18a.45.45,0,0,0-.31.55l.4,1.57a.44.44,0,0,0,.54.31l.38-.09.31-.09c.11.38.22.74.33,1.11l-.13.05-.53.18a.43.43,0,0,0-.27.57l.53,1.53a.45.45,0,0,0,.57.27l.66-.23c.08.2.15.4.23.59s.17.43.26.65l-.37.16-.27.12a.44.44,0,0,0-.22.59l.66,1.48a.44.44,0,0,0,.58.23l.64-.29.47.94-.62.34a.46.46,0,0,0-.17.61l.78,1.42a.43.43,0,0,0,.59.18l.12-.06.51-.28.24.42.34.54-.6.38a.45.45,0,0,0-.13.62l.89,1.36a.45.45,0,0,0,.61.13l.1-.07.51-.33c.21.32.43.62.66.93l-.54.41,0,0a.44.44,0,0,0-.08.62l1,1.28a.46.46,0,0,0,.63.09l.57-.46a1.81,1.81,0,0,0,.18.21c.16.21.34.42.51.62l-.53.5-.06.05a.47.47,0,0,0,0,.57l1.09,1.2a.44.44,0,0,0,.63,0l.54-.49.59.6.2.2-.49.53a.44.44,0,0,0,0,.63l1.19,1.11a.25.25,0,0,0,.12.08.45.45,0,0,0,.5-.1l.5-.53.64.56.52.43-.45.57a.46.46,0,0,0,.08.63l1.28,1,0,0a.45.45,0,0,0,.59-.1l.44-.57c.29.22.59.43.89.64l-.4.6s0,0,0,0a.45.45,0,0,0,.14.59l1.35.89a.47.47,0,0,0,.5,0,.3.3,0,0,0,.12-.13l.39-.59c.37.23.75.46,1.12.67l-.34.63a.45.45,0,0,0,.19.6l.42.23,1,.55a.44.44,0,0,0,.6-.18l.22-.41.12-.21c.42.22.85.42,1.28.63l-.28.65a.44.44,0,0,0,.23.58l1.24.54.25.1a.43.43,0,0,0,.57-.2v0l.28-.65,1.18.46-.22.67a.42.42,0,0,0,.27.55l1.54.53a.43.43,0,0,0,.56-.27l.23-.68c.42.14.84.26,1.27.38l-.1.38-.07.3a.44.44,0,0,0,.32.54l.39.1,1.18.29a.44.44,0,0,0,.54-.32l.17-.7c.38.09.75.16,1.12.23l-.12.71v.12a.45.45,0,0,0,.37.39l1.15.19.45.07a.43.43,0,0,0,.51-.37l.12-.71q.6.09,1.2.15l0,.72a.44.44,0,0,0,.4.48l.27,0,1.34.11a.44.44,0,0,0,.48-.41l0-.16,0-.56,1.14,0v.73a.44.44,0,0,0,.44.44h1.62a.44.44,0,0,0,.45-.44v-.73c.49,0,1,0,1.45-.06l.06.73a.44.44,0,0,0,.49.39l1.61-.13a.46.46,0,0,0,.32-.19.44.44,0,0,0,.08-.3v0l-.06-.67c.47-.05.94-.12,1.4-.19l.13.71a.35.35,0,0,0,.06.14h0a.37.37,0,0,0,.27.2.36.36,0,0,0,.18,0l1.61-.28a.44.44,0,0,0,.35-.51l-.12-.71q.55-.1,1.11-.24l.17.65v0a.45.45,0,0,0,.55.31l.79-.2.77-.21a.44.44,0,0,0,.32-.54l-.18-.69c.38-.1.74-.21,1.11-.33l.23.67a.45.45,0,0,0,.57.27l.14-.05,1.39-.48h0a.45.45,0,0,0,.27-.57l-.23-.66,1.23-.49.29.64a.45.45,0,0,0,.59.22l.61-.27.87-.39a.45.45,0,0,0,.22-.59l-.1-.23,20.51,30,0,.11,0,.06s-3.22,4.19-11,4.8A32.32,32.32,0,0,1,100.79,313l-.61-.2c-14.77-4.64-25.8-6.36-29.74-6.67-.48,0-.84-.05-1.1-.05-.86,0-1.23.2-1.33.46a.42.42,0,0,0,0,.15c0,.5.58,1.12.58,1.12a81.18,81.18,0,0,0,28.66,13.41,90,90,0,0,0,12.69,2.21,74.63,74.63,0,0,0,17.39-.06c4.56,2.71,16.49,29.71,19.11,35.74l0,.06a11.54,11.54,0,0,1,.49,1.11c1.35,3.36,2.32,8.83,2.2,17.69h0c.13.22,3.52,5.8,5.77-1.43a12.41,12.41,0,0,0,.55-4.23,11.77,11.77,0,0,0-.45-2.82,9.93,9.93,0,0,0-.42-1.27,24.36,24.36,0,0,1-1.74-8.18,18,18,0,0,1,.69-5.45s5.48-6,9.09.24l.15.24c3.56,6.51,17.81-.41,17.18-5.58a1,1,0,0,0,0-.24c-.46-2.17-1.09-3.8-2.15-4.41a3.68,3.68,0,0,1-1.11-.26c-1.17.07-2.71,1-4.79,3.21v0a3.93,3.93,0,0,1-4.07,1,23.08,23.08,0,0,1-2.83-1.18c-3.95-1.94-8.78-5.73-9.87-12.81A107.4,107.4,0,0,0,167,332.56c10.39-2.43,25.91-7.33,39.73-16.8,2.37.23,4.64,1.56,6.94,2.11.57.13.85.29,1.38.45,1.82.54,3.68.81,5.67,1.25s3.79.6,5.83.93c3.78.61,12.19,1.84,12.3,2.33,0,0,.07.13.11.33h0a26.37,26.37,0,0,0,1.53,3.48c.41.81.92,1.73,1.53,2.74l0,0,0,.08a.35.35,0,0,1,0,.08c.47.76,1,1.57,1.6,2.44s1.1,1.56,1.74,2.39a74.54,74.54,0,0,0,10.27,10.77c1.53,1.33,3.19,2.69,5,4.05a.94.94,0,0,1,.24.18,66.92,66.92,0,0,1,12.41,11.84,32.26,32.26,0,0,1,4.35,7.22,16.47,16.47,0,0,1,1.41,7.76,11.59,11.59,0,0,1-2.95,6.82h0l-.11.12a.4.4,0,0,1-.16.18.35.35,0,0,1-.17.06.5.5,0,0,1-.21,0l-.05-.14-2-1.23h0l-.85-.52-11.09-6.81,0,.05,0-.05a13.85,13.85,0,0,0-4.63,1.41h0c-4,2.15-4.21,6-3.41,9.37h0c.15.62.34,1.22.53,1.79a22.32,22.32,0,0,0,1.05,2.48v0a21.83,21.83,0,0,0,1.1,2,12.93,12.93,0,0,1,1.51-.68h0a6.4,6.4,0,0,1,3.3-.41c5.85,1,4.91,12.57.48,11.93a6.51,6.51,0,0,0-5.14,1.13,5.61,5.61,0,0,0-1.56,2,1.87,1.87,0,0,0-.07.18h0c-.18-.12-.36-.22-.53-.32l-.11-.08h0c-.37-.19-11.08-5.74-13.42,1.43h0l19.72,14.33,1.64,1.19a22.16,22.16,0,0,0,4,2.59h0a22.11,22.11,0,0,0,19.66,0,21.53,21.53,0,0,0,8.71-7.85,20.78,20.78,0,0,0,3.2-11.1,21.22,21.22,0,0,0-.43-4.23,19.1,19.1,0,0,0-.78-3.4,16,16,0,0,0-1.11-2.62c-.17-.3-.31-.51-.39-.64h0a.39.39,0,0,1-.1-.14h0a2.06,2.06,0,0,1,.06-1.85,2.44,2.44,0,0,1,1.3-.94c1.52-.55,4-.58,6.95-.36h.07c2.05.16,4.31.43,6.63.73l.13,0h0l.53.07c3.87.51,7.81,1.06,11,1.22h0l.81,0a23.52,23.52,0,0,1,4.69.57H327c2.87.7,4.24,1.89,4.89,2.87a3.55,3.55,0,0,1,.48,1h0a2.11,2.11,0,0,1,.11.57s3.78,15.73,7.44,18.11l0,0,0,0a43.53,43.53,0,0,1,4.95,4l.09.09c1.49,1.36,2.83,2.68,3.64,3.5l.08.08.71.73c.08.12.17.23.24.35,1.05,1.57,2,3.19,2.9,4.79a88.75,88.75,0,0,1,5.27,11.79.43.43,0,0,1,0,0c.33.85.62,1.66.85,2.41a2.07,2.07,0,0,1,.1.33,1.42,1.42,0,0,1,.05.16c.44,1.35.65,2.14.65,2.14,1.51,23-.46,35.52-2.63,42.19a23.52,23.52,0,0,1-2.28,5.15s0,0,0,0a9.67,9.67,0,0,1-1,1.39v0a3.65,3.65,0,0,1-.65.61,13.81,13.81,0,0,0-3.17,5.72,10,10,0,0,0,1,7.33,7,7,0,0,0,.62.95,36.12,36.12,0,0,0,7.8,5.36A161.53,161.53,0,0,0,378.43,525h0c3.6-.77,3.39-3.92,1.3-7.44v0a26.89,26.89,0,0,0-4.38-5.41c-.24-.23-.48-.46-.73-.68-5.66-5.19-4.56-13.06-4.56-13.06,1.69-6.26,7.59-15.41,11.7-21.3,2.4-3.43,4.18-5.75,4.18-5.75.46-.69.87-1.37,1.26-2,0,0,0,0,0,0a32.41,32.41,0,0,0,1.57-3.11A30.44,30.44,0,0,0,389.7,443ZM280.32,212.29a21.7,21.7,0,0,0-7.06,1.18L265,201c.7-.33,1.4-.65,2.12-.94l.43-.17c.77-.31,1.56-.58,2.37-.83l.31-.1c.8-.24,1.61-.44,2.43-.63l.3-.06c.82-.17,1.64-.32,2.48-.44l.52-.06c.82-.11,1.66-.18,2.49-.22l.56,0,1.26,0,1.25,0,.32,0c.57,0,1.12.06,1.68.12h0c.27,0,.54,0,.81.08l.37,0c.83.11,1.65.24,2.47.41l.31.06c.82.17,1.64.37,2.43.6l.44.14c.81.24,1.6.51,2.37.8.13.06.26.1.39.15.78.31,1.54.65,2.3,1l.48.23c.75.38,1.48.78,2.2,1.21l.38.23c.72.44,1.41.9,2.09,1.38l.24.16c.67.49,1.33,1,2,1.55l.47.4c.64.55,1.25,1.12,1.84,1.71l.21.22c.59.6,1.15,1.22,1.69,1.86.06.07.12.13.17.2.54.64,1.05,1.3,1.54,2a2,2,0,0,1,.18.26q.74,1,1.38,2.1a2.07,2.07,0,0,1,.15.25c.43.72.83,1.45,1.21,2.2a2.26,2.26,0,0,1,.11.22c.37.75.71,1.52,1,2.29.05.14.11.28.17.43.3.78.58,1.57.83,2.37q0,.17.09.3c.24.81.45,1.61.64,2.44l.06.31c.17.81.32,1.63.43,2.47,0,.17.05.34.07.52.11.82.17,1.66.22,2.5l0,.56c0,.41,0,.83,0,1.25s0,.84,0,1.25c0,.11,0,.21,0,.32,0,.84-.1,1.68-.2,2.5,0,.12,0,.24,0,.36-.11.84-.25,1.67-.41,2.48l-.06.31c-.17.83-.37,1.63-.6,2.43-.05.15-.09.29-.13.44-.25.81-.52,1.6-.81,2.38-.05.12-.11.25-.16.38-.3.78-.64,1.55-1,2.3l-.24.48c-.37.75-.78,1.49-1.2,2.21l-.23.38c-.44.71-.9,1.41-1.38,2.09-.06.07-.11.15-.17.23-.49.67-1,1.33-1.54,2-.14.16-.27.32-.41.47-.55.64-1.11,1.24-1.71,1.84l-.21.21c-.61.59-1.22,1.15-1.86,1.69l-.21.17c-.63.54-1.3,1.05-2,1.55l-.25.18c-.68.48-1.38.94-2.1,1.37l-.25.16c-.72.42-1.45.83-2.2,1.2l-.23.11c-.74.37-1.51.71-2.29,1l-.42.17c-.78.3-1.57.58-2.37.82l-.31.1c-.8.24-1.61.45-2.43.64l-.31.06c-.81.18-1.64.32-2.47.43l-.52.07c-.83.11-1.66.17-2.5.22l-.56,0c-.41,0-.83,0-1.25,0s-.84,0-1.26,0h-.31c-.84,0-1.68-.1-2.5-.2l-.36,0c-.84-.11-1.67-.24-2.48-.41l-.31-.06c-.82-.18-1.64-.38-2.44-.61l-.43-.13c-.8-.23-1.6-.51-2.38-.81l-.38-.14-.11,0-.47-.19a33.14,33.14,0,0,1-12.88-9.25c-.15-.15-.28-.31-.42-.47a1.63,1.63,0,0,0-.17-.2l-.06-.07c-.51-.63-1-1.27-1.48-1.92l-.17-.24c-.49-.69-.95-1.39-1.38-2.11a1.65,1.65,0,0,1-.15-.25c-.2-.34-.4-.67-.58-1l11.82-4.77a21.73,21.73,0,1,0,19-32.34ZM251.87,212a24.93,24.93,0,0,1,1.54-2c.13-.17.26-.32.4-.48l.38-.42c.43-.48.88-.95,1.33-1.41l.22-.21c.38-.38.77-.74,1.17-1.09l7.57,12.73a21.67,21.67,0,0,0-5.74,12.3l-13.49-.74c0-.75.1-1.5.19-2.24,0-.12,0-.24,0-.37.1-.83.24-1.66.41-2.48,0-.1,0-.2.06-.3.09-.43.18-.86.29-1.28l.15-.55c.05-.21.11-.41.16-.61s.09-.29.13-.43c.25-.81.51-1.6.81-2.38l.15-.38c.31-.78.64-1.55,1-2.3.07-.16.16-.32.24-.49.37-.74.77-1.48,1.19-2.2.08-.12.16-.25.23-.38.44-.71.9-1.41,1.39-2.09Zm-97.49-77.53.05-.58c.07-.86.14-1.75.21-2.66.63-7.71,1.54-16.74,4.08-21.07l.05-.08.09-.16c1-1.71,1.69-2.34,2.24-2.35a9.16,9.16,0,0,0,3.28,3.54c4.11,3,10.86,5.74,14.66,7.17l.58.22.52.18a1.17,1.17,0,0,0,.24.09l.12,0,.25.09.26.08.33.12.26.09.15.06.13,0a11.68,11.68,0,0,0,5.09,1.06c2.7-.12,17.05-2.9,17.05-2.9h0a8.83,8.83,0,0,1,1.33,1.24c1.52,1.66,4.17,5.22,7,12.2.62,1.48,1.25,3.11,1.88,4.92a1.34,1.34,0,0,1-.06,1,5.6,5.6,0,0,1-.95,1.23,0,0,0,0,0,0,0c-3.29,3.38-13.35,9.47-24.1,20.86-.37.39-.73.77-1.09,1.17l-.81.89-.32.35a7.9,7.9,0,0,0-.14-2c-.52-2.79-2.64-7.85-10.94-10.93a31.61,31.61,0,0,0-3.46-1.06,45.41,45.41,0,0,0-5.79-1S153.55,144.93,154.38,134.48ZM96.85,270.92l-.42.17c-.78.3-1.57.58-2.37.83l-.31.09c-.8.24-1.61.45-2.43.64l-.31.06c-.82.18-1.64.32-2.47.43l-.52.08c-.83.1-1.66.16-2.51.21l-.55,0c-.41,0-.83,0-1.25,0s-.84,0-1.26,0h-.32c-.83,0-1.67-.1-2.49-.2l-.37,0c-.83-.1-1.66-.25-2.47-.41l-.31-.06c-.83-.18-1.64-.37-2.44-.61l-.43-.12c-.81-.25-1.6-.52-2.38-.82-.13,0-.26-.1-.38-.15-.78-.3-1.56-.64-2.31-1l-.47-.23c-.76-.38-1.49-.78-2.21-1.21l-.38-.23q-1.06-.66-2.1-1.38l-.22-.17c-.68-.49-1.34-1-2-1.54-.15-.14-.31-.26-.47-.41-.63-.54-1.23-1.11-1.83-1.71l-.22-.22c-.58-.59-1.14-1.21-1.69-1.85a1.63,1.63,0,0,0-.17-.2c-.54-.65-1.05-1.31-1.54-2l-.18-.25c-.48-.68-.94-1.38-1.37-2.1a1.65,1.65,0,0,1-.15-.25c-.43-.72-.84-1.45-1.21-2.2a2.53,2.53,0,0,0-.12-.23c-.36-.75-.7-1.51-1-2.29l-.17-.42c-.3-.78-.58-1.57-.83-2.37,0-.1-.07-.21-.09-.31-.24-.8-.46-1.61-.64-2.44q0-.14-.06-.3c-.18-.81-.32-1.64-.43-2.47,0-.17-.06-.35-.08-.52-.1-.83-.17-1.66-.22-2.5,0-.19,0-.37,0-.56,0-.41,0-.83,0-1.25s0-.85,0-1.26v-.31c0-.84.11-1.68.21-2.5,0-.12,0-.24,0-.37.1-.83.24-1.66.41-2.47a2.84,2.84,0,0,1,.06-.31c.17-.82.37-1.64.6-2.44l.13-.43c.25-.8.51-1.6.81-2.38l.15-.38c.31-.79.64-1.55,1-2.3.07-.16.16-.32.23-.48.38-.75.78-1.48,1.2-2.21l.23-.37c.44-.72.9-1.42,1.39-2.1l.17-.23c.48-.68,1-1.34,1.54-2l.4-.47c.55-.64,1.12-1.25,1.71-1.84l.22-.21c.59-.59,1.22-1.15,1.86-1.69l.2-.18c.64-.54,1.3-1.05,2-1.54l.25-.17c.68-.49,1.39-.95,2.1-1.38a2.2,2.2,0,0,1,.26-.15c.71-.43,1.45-.83,2.2-1.21l.22-.11c.75-.37,1.51-.71,2.29-1l.43-.17c.78-.3,1.56-.58,2.37-.83l.31-.09c.79-.24,1.61-.45,2.43-.63l.3-.07c.82-.18,1.64-.32,2.48-.43l.51-.08c.83-.1,1.67-.17,2.5-.21l.56,0,1.26,0,1.25,0,.32,0c.84,0,1.67.1,2.5.2a2.23,2.23,0,0,1,.36,0c.84.09,1.66.24,2.48.4l.31.06c.82.17,1.64.37,2.43.6l.44.13c.8.25,1.6.52,2.37.81l.39.15c.78.31,1.54.64,2.3,1l.48.24c.74.37,1.48.77,2.2,1.2l.38.23c.72.44,1.41.89,2.09,1.38l.23.17c.68.48,1.34,1,2,1.54l.47.4c.63.55,1.25,1.12,1.84,1.71.07.08.14.14.2.22.6.6,1.16,1.22,1.7,1.86a1.62,1.62,0,0,0,.18.2c.53.64,1,1.31,1.53,2,.07.09.12.17.18.26.49.68,1,1.37,1.38,2.1a2.07,2.07,0,0,1,.15.25l.27.45L101,226a21.72,21.72,0,1,0-11.46,33.19l7.86,11.49Zm20.42-22.4c-.24.81-.51,1.6-.8,2.38,0,.13-.11.25-.15.38-.32.78-.65,1.55-1,2.3-.07.16-.15.32-.23.48-.37.75-.78,1.48-1.2,2.21l-.23.37q-.66,1.08-1.38,2.1c-.06.07-.11.15-.17.23-.49.68-1,1.34-1.54,2-.14.16-.27.32-.41.47s-.5.58-.77.86l0,0L100.84,251a21.59,21.59,0,0,0,4-12.25c4.6-1.46,9.39-3,13.65-4.36.09.73.15,1.46.19,2.2l0,.55c0,.41,0,.84,0,1.26s0,.84,0,1.25l0,.32c0,.84-.1,1.68-.2,2.5,0,.12,0,.24,0,.37-.1.83-.24,1.66-.4,2.47l-.06.31c-.17.82-.37,1.64-.6,2.43C117.36,248.23,117.32,248.38,117.27,248.52Zm99-12.17h0s0,0,0,0c-1.26,4.23-6.2,1.79-6.89,1.42l-.06,0h0c-30-3.41-39.69-.36-42.55,1.24l0,0a1.1,1.1,0,0,0-.31.58,7.55,7.55,0,0,1-1.26,3l0,0a6.68,6.68,0,0,1-2.33,1.56,5.67,5.67,0,0,1-5-.22c-.89-.45-2.92-1.32-3.67-1.64a1,1,0,0,0-.59-.06,6,6,0,0,0-4,2.68c-3.26,6.61-1.78,17.6-1.52,19.32a1.68,1.68,0,0,1,0,.5c-.09.62-.34,2-.41,2.26a62.18,62.18,0,0,1-4.33,14.18,99.92,99.92,0,0,1-8,15.6h0c-.52-.65-1-1.36-1.59-2.12-1-1.43-2-3-2.9-4.4-.27-.43-.54-.85-.82-1.26l-1.4-2.06,0,0-4.84-7.1,0,0L119,273l-1.6-2.35a1.08,1.08,0,0,0,.09-.37l.67-.72a.45.45,0,0,0,0-.62l-.49-.46,0,0c.35-.38.68-.77,1-1.17l.57.45a.46.46,0,0,0,.63-.07l.84-1.08.16-.21a.44.44,0,0,0-.08-.62l-.41-.32-.16-.12.06-.08.58-.81.6.39a.45.45,0,0,0,.62-.12l.89-1.36a.31.31,0,0,0,.07-.21.42.42,0,0,0-.2-.4l-.59-.39c.23-.38.46-.75.67-1.13h0l.62.34a.45.45,0,0,0,.61-.18l.77-1.42a.42.42,0,0,0,0-.48.37.37,0,0,0-.13-.12l-.62-.34c.21-.42.43-.85.63-1.28l.64.27a.43.43,0,0,0,.35,0,.51.51,0,0,0,.24-.24l.64-1.48a.45.45,0,0,0-.23-.59l-.64-.28.46-1.17.66.22h0a.44.44,0,0,0,.55-.28l.52-1.53a.45.45,0,0,0-.28-.57l-.67-.23c.12-.39.24-.79.35-1.18l.11-.06.6.15a.45.45,0,0,0,.54-.33l.39-1.57a.44.44,0,0,0-.33-.54l-.19,0-.5-.13.09-.39c0-.24.1-.48.14-.73l.71.12a.45.45,0,0,0,.51-.37l.26-1.6a.44.44,0,0,0-.37-.51h-.05l-.65-.1c.05-.41.1-.8.14-1.2l.52,0h.2a.43.43,0,0,0,.47-.4l.14-1.62a.46.46,0,0,0-.41-.48l-.72-.06v0c0-.37,0-.74,0-1.11h.73a.44.44,0,0,0,.44-.44v-1.62a.45.45,0,0,0-.45-.45H129v0c0-.47,0-1-.06-1.43l.31,0,.41,0a.43.43,0,0,0,.4-.48l-.14-1.62a.43.43,0,0,0-.48-.4l-.72.06h0c0-.33-.08-.64-.11-.95l0-.1c0-.12,0-.23,0-.35l.34-.06.37-.06a.46.46,0,0,0,.36-.52l-.08-.44a27.57,27.57,0,0,0,2.64-1s0,0,0,0a4.61,4.61,0,0,1,3.59-.46,4.91,4.91,0,0,1,1.3.55h0a65.81,65.81,0,0,0,14.64,9.3c5.17,2.36,8.43,2.1,10.19,1.53a4.3,4.3,0,0,0,2.24-1.72L193,196.06a34.59,34.59,0,0,0,4.85-10.8l2.74-12.63a117.32,117.32,0,0,0,25-15.46l.28.37,25,40.51-.21.18-.48-.54a.45.45,0,0,0-.63,0l-1.2,1.09a.44.44,0,0,0,0,.63l.49.54c-.2.2-.41.39-.6.59l-.2.21-.54-.5a.44.44,0,0,0-.62,0l-1.11,1.2a.43.43,0,0,0,0,.62l.53.49-1,1.17-.57-.44a.43.43,0,0,0-.62.08l-1,1.27a.43.43,0,0,0,.08.62l.57.45c-.22.3-.44.59-.65.89l-.6-.4a.43.43,0,0,0-.25-.07.49.49,0,0,0-.36.2l-.1.15-.79,1.21a.44.44,0,0,0,.12.61l.6.39-.68,1.12-.62-.33a.43.43,0,0,0-.22-.06h-.09a.75.75,0,0,0-.18.09l-.12.13-.77,1.43a.48.48,0,0,0-.05.17.44.44,0,0,0,.13.36l.1.07.62.34c-.22.43-.43.85-.63,1.28l-.65-.28a.44.44,0,0,0-.58.23l-.33.76-.32.72a.42.42,0,0,0,0,.29s0,0,0,0l0,.08s0,0,0,0,0,0,0,0l.05.06.09.05.65.28c-.16.39-.32.79-.46,1.18l-.67-.22a.44.44,0,0,0-.56.27l-.52,1.54a.25.25,0,0,0,0,.07,1.64,1.64,0,0,1,0,.23h0a.2.2,0,0,0,0,.08l.06.08a.61.61,0,0,0,.18.11l.67.22c-.14.42-.26.85-.38,1.27l-.68-.17a.44.44,0,0,0-.54.32l-.4,1.58a.46.46,0,0,0,.33.54l.7.17c-.09.37-.16.74-.24,1.12l-.67-.11h0a.44.44,0,0,0-.51.36l-.11.67-.16.93a.45.45,0,0,0,.37.51l.72.12c-.06.4-.11.8-.15,1.21l-.72-.07h-.12l-.08,0h0l-.11.07a.36.36,0,0,0-.11.16.33.33,0,0,0,0,.15l-.13,1.61v.09a.46.46,0,0,0,.4.39l.73.06a2.53,2.53,0,0,1,0,.27c-.25.27-.53.57-.85.87-.11.12-.22.23-.34.34-.41.38-.85.77-1.32,1.13a11,11,0,0,1-1,.75c-.12.07-.24.14-.35.22h0a8.33,8.33,0,0,0-2.33-1.18,3.29,3.29,0,0,0-3.76,1,3.08,3.08,0,0,1-2.07,1h-.09a2.25,2.25,0,0,1-.95-.17,5.63,5.63,0,0,0-3.45-.24A3.1,3.1,0,0,0,216.26,236.35Z"/><path class="cls-1" d="M1011.82,265.75c.51-.2,1-.4,1.59-.6v.6Z"/><path class="cls-1" d="M993.43,251.88V201.54H976.81v64.21h36.6V251.88Zm-37.51-50.51,0,17.74-9.93,14-11.23-13.71-.12-18-13.63.11-.05,22.52,16.43,21.32v20.37H954V245.38l16-22.48.11-21.47Zm-85.15.17V215.4h13.55v50.35h16.62V215.4h13.83V201.54ZM863,234.1c-2.5-3.18-6.69-5.61-12.56-7.34a55.4,55.4,0,0,1-8.45-2.94c-2.08-1.24-3.14-2.71-3.14-4.42a4.77,4.77,0,0,1,2.4-4.16,8.63,8.63,0,0,1,4.78-1.38c3.69,0,7.34,1.45,11,4.33l6.63-13a43.24,43.24,0,0,0-20.28-5.2c-6.87,0-12.37,2.28-16.5,6.89a21.37,21.37,0,0,0-5.29,14.81c0,5.7,1.7,10,5.12,12.78A16.86,16.86,0,0,0,831,237c1,.47,3.64,1.31,7.79,2.54a29.2,29.2,0,0,1,7.25,2.9,5.57,5.57,0,0,1,2.91,4.76,5.49,5.49,0,0,1-2.63,4.87,9.57,9.57,0,0,1-5.47,1.53q-7.19,0-14.67-6.84l-7.11,13.43a37.65,37.65,0,0,0,22.25,7.27A31.9,31.9,0,0,0,852,265.73q14.22-4.92,14.24-21.24A16.11,16.11,0,0,0,863,234.1Z"/><polygon class="cls-1" points="1038.58 215.4 1038.58 226.47 1057.32 226.47 1057.32 240.33 1038.58 240.33 1038.58 251.88 1058.38 251.88 1058.38 265.75 1021.98 265.75 1021.98 201.53 1058.38 201.53 1058.38 215.4 1038.58 215.4"/><path class="cls-1" d="M1116.48,226.9v3.86a14.87,14.87,0,0,0-4.07-3.34,16.38,16.38,0,0,0-7.42-1.73,17.15,17.15,0,0,0-12,4.79c-4.39,4-6.57,9.39-6.57,16.1s2.14,11.94,6.41,15.94a17.39,17.39,0,0,0,12.25,5.05,14.41,14.41,0,0,0,7.6-2,13.44,13.44,0,0,0,3.77-3.64v4.35h13.18V226.9Zm-2,26a7.88,7.88,0,0,1-6,2.58,7.75,7.75,0,0,1-6.38-3.14,9.27,9.27,0,0,1,0-11.55,7.81,7.81,0,0,1,6.38-3.14,7.93,7.93,0,0,1,5.94,2.6,9.43,9.43,0,0,1,0,12.65Z"/><polygon class="cls-1" points="1433.37 226.62 1433.03 246.65 1405.43 283.26 1391.17 283.22 1406.64 262.14 1393.12 246.59 1392.88 226.6 1405.8 226.62 1405.76 243.17 1414.06 252.84 1420.87 242.87 1420.92 226.69 1433.37 226.62"/><path class="cls-1" d="M1385.41,240.67v25.6h-13.17V246.84c0-3.38-.33-5.69-1-6.94a4.76,4.76,0,0,0-4.43-2.74,5.55,5.55,0,0,0-5,3q-1.24,2.13-1.24,6.69v19.43h-13.17v-19.4c0-3.37-.28-5.58-.81-6.58a5.2,5.2,0,0,0-4.91-3,5.44,5.44,0,0,0-4.79,2.62,6.42,6.42,0,0,0-.92,2.56,28.37,28.37,0,0,0-.28,4.45v19.4h-13.17V226.91h13.17v4.86a21,21,0,0,1,4.26-3.48,15.36,15.36,0,0,1,7.78-2,14.15,14.15,0,0,1,9.15,3,17.39,17.39,0,0,1,3.53,4.34,14.59,14.59,0,0,1,3.39-4.16,14,14,0,0,1,9-3.21,13.23,13.23,0,0,1,7.41,2.13,10.78,10.78,0,0,1,4.56,6.31A24.27,24.27,0,0,1,1385.41,240.67Z"/><path class="cls-1" d="M1314.92,247.44a25.05,25.05,0,0,0-2.91-12.28q-5.21-9.39-17.28-9.39c-6.54,0-11.59,2-15.18,5.89s-5.39,9.05-5.39,15.33a21.14,21.14,0,0,0,4.31,13.45q5.74,7.41,17.16,7.39,9,0,14.32-5.26a18.2,18.2,0,0,0,4.47-8.22h-12.68a6.84,6.84,0,0,1-6.25,3.66q-8,0-8-8.78h27.42Zm-27.09-6.11a8.38,8.38,0,0,1,2.06-4.63,7.1,7.1,0,0,1,5.36-2.15q6,0,7.39,6.78Z"/><path class="cls-1" d="M1253.44,202.57v28.28a14.77,14.77,0,0,0-4.09-3.34,15.59,15.59,0,0,0-7.4-1.82,17.15,17.15,0,0,0-12,4.79c-4.39,4-6.57,9.39-6.57,16.1s2.15,11.94,6.42,15.94a17.34,17.34,0,0,0,12.23,5.05,14.41,14.41,0,0,0,7.6-2,13.6,13.6,0,0,0,3.78-3.64v4.35h13.17v-63.7Zm-2,50.42a7.87,7.87,0,0,1-6,2.59,7.68,7.68,0,0,1-6.36-3.15,9.34,9.34,0,0,1,0-11.6,7.76,7.76,0,0,1,6.36-3.16,7.9,7.9,0,0,1,5.94,2.61,9,9,0,0,1,2.45,6.36A8.87,8.87,0,0,1,1251.42,253Z"/><path class="cls-1" d="M1202.69,226.9v3.86a14.92,14.92,0,0,0-4.09-3.34,16.28,16.28,0,0,0-7.41-1.73,17.19,17.19,0,0,0-12,4.79,19.28,19.28,0,0,0-5.08,7.47,24,24,0,0,0-1.47,8.63q0,9.93,6.4,15.94a17.39,17.39,0,0,0,12.26,5.05,14.46,14.46,0,0,0,7.6-2,13.71,13.71,0,0,0,3.77-3.64v4.35h13.18V226.9Zm-2,26a8.21,8.21,0,0,1-6,2.58,7.76,7.76,0,0,1-6.38-3.14,9,9,0,0,1-2-4.94c0-.28,0-.55,0-.84a9,9,0,0,1,2-5.77,8.07,8.07,0,0,1,12.32-.54,9.42,9.42,0,0,1,0,12.65Z"/><path class="cls-2" d="M1166.67,227.9v11.87a13.77,13.77,0,0,0-2.13-1.36,2.42,2.42,0,0,0-.36-.18,9.43,9.43,0,0,0-1-.46c-.25-.09-.5-.18-.74-.24,0,0,0,0-.06,0a8.28,8.28,0,0,0-2.44-.35,8.52,8.52,0,0,0-6.47,2.66,10.34,10.34,0,0,0,0,13.62,8.56,8.56,0,0,0,6.47,2.66,11.67,11.67,0,0,0,6.77-2.53v11.84a18.13,18.13,0,0,1-8.56,2.16q-10.14,0-16.1-7.28a21.82,21.82,0,0,1,0-27.33,19.28,19.28,0,0,1,13.83-7.18c.75-.07,1.5-.1,2.27-.1h.18a16.83,16.83,0,0,1,1.9.13c.28,0,.56.07.85.12a13.56,13.56,0,0,1,1.41.29l.25.07A17.15,17.15,0,0,1,1166.67,227.9Z"/><path class="cls-1" d="M456.06,241.17a18.57,18.57,0,0,0,9.19-4.53c3.5-3.38,5.23-7.93,5.23-13.63a19.82,19.82,0,0,0-4.54-13q-5.61-6.84-17.32-6.85H421.93v64.29h17.13V242.9l16.35,24.58h21.3Zm-6-11.37c-1.58,1.48-4.18,2.21-7.8,2.21h-3.21V215.92h3.21c3.59,0,6.2.73,7.8,2.21a7.58,7.58,0,0,1,2.57,5.8A7.79,7.79,0,0,1,450.07,229.8Z"/><polygon class="cls-1" points="549.68 217.08 549.68 228.16 569 228.16 569 242.04 549.68 242.04 549.68 253.6 570.1 253.6 570.1 267.48 532.54 267.48 532.54 203.2 570.1 203.2 570.1 217.08 549.68 217.08"/><polygon class="cls-1" points="411.69 217.08 390.98 217.08 390.98 228.16 409.81 228.16 409.81 242.04 390.98 242.04 390.98 267.48 373.84 267.48 373.84 203.2 411.69 203.2 411.69 217.08"/><path class="cls-1" d="M498.41,267.48Z"/><polygon class="cls-1" points="501.2 217.08 501.2 228.16 520.52 228.16 520.52 242.04 501.2 242.04 501.2 253.6 521.6 253.6 521.6 267.48 484.06 267.48 484.06 203.2 521.6 203.2 521.6 217.08 501.2 217.08"/><path class="cls-1" d="M533,267.48Z"/><path class="cls-1" d="M718.69,229.11c-.34.51-.7,1-1.07,1.53v-1.53Z"/><path class="cls-1" d="M717.61,229.11v1.53c.38-.52.74-1,1.08-1.53Zm68,5.71q-6.28-7.19-16.81-7.19-11.45,0-17.66,7.19a20.33,20.33,0,0,0-5.12,13.66,21.31,21.31,0,0,0,5.08,14.44q6.15,7.15,17.3,7.15t17.26-7.15a20.88,20.88,0,0,0,5.09-14.11A20.58,20.58,0,0,0,785.66,234.82Zm-11.07,20.55a8.12,8.12,0,0,1-6.14,2.68,8,8,0,0,1-6.61-3.26,9.62,9.62,0,0,1,0-11.9,8.35,8.35,0,0,1,12.72-.57,9.69,9.69,0,0,1,0,13.05Z"/><path class="cls-1" d="M742.65,229.11v11.41h-7.47v28.07H722V240.52h-4.35v-9.88c.37-.51.73-1,1.07-1.53H722V217.25h13.21v11.86Z"/><path class="cls-2" d="M710.45,238.57a21.19,21.19,0,0,0-8.07-8.21h0A22.73,22.73,0,0,0,691,227.63q-11.43,0-17.66,7.19a21.29,21.29,0,0,0-4,6.86c-.19.53-.35,1.07-.49,1.62a7.52,7.52,0,0,0-.19.85c-.11.49-.19,1-.27,1.51,0,.3-.06.6-.09.92,0,0,0,.09,0,.13,0,.58-.07,1.17-.07,1.77a21.36,21.36,0,0,0,5.08,14.44,18.86,18.86,0,0,0,3.64,3.29,8.47,8.47,0,0,0,.89.58,18.66,18.66,0,0,0,3.22,1.62c.13,0,.26.11.4.15s.5.19.76.27c.48.16.95.29,1.44.42l.11,0c.48.12,1,.24,1.49.34.69.11,1.41.21,2.14.3h0a30.07,30.07,0,0,0,3.2.16q11.07,0,17.25-7.15a22.14,22.14,0,0,0,2.57-24.35Zm-13.69,16.8a8.13,8.13,0,0,1-6.13,2.68,8,8,0,0,1-6.61-3.26,9.59,9.59,0,0,1,0-11.9,8.33,8.33,0,0,1,12.71-.57,9.72,9.72,0,0,1,0,13.05Z"/><path class="cls-1" d="M661.28,242.92v25.67H648.07V249.1c0-3.38-.33-5.7-1-6.95a5.34,5.34,0,0,0-1.68-2,4.67,4.67,0,0,0-2.75-.8,5.61,5.61,0,0,0-5.06,3c-.83,1.42-1.24,3.67-1.24,6.71v19.49H623.12V249.13c0-3.37-.28-5.59-.81-6.6a5.21,5.21,0,0,0-4.92-3.06,5.48,5.48,0,0,0-4.81,2.64,6.42,6.42,0,0,0-.92,2.56,28.51,28.51,0,0,0-.28,4.46v19.46H598.17V229.11h13.21V234a20.93,20.93,0,0,1,4.27-3.48,15.37,15.37,0,0,1,7.8-2,14.15,14.15,0,0,1,9.18,3,17.26,17.26,0,0,1,3.54,4.35,14.72,14.72,0,0,1,3.4-4.18,14.27,14.27,0,0,1,5-2.65,13.83,13.83,0,0,1,2-.39,16.16,16.16,0,0,1,3.12-.14,13,13,0,0,1,6.32,2.1,10.77,10.77,0,0,1,4.57,6.33A23.92,23.92,0,0,1,661.28,242.92Z"/><rect class="cls-3" width="1470.64" height="554.55"/></svg>