<?xml version="1.0" encoding="utf-8"?>
<!-- Generator: Adobe Illustrator 25.2.3, SVG Export Plug-In . SVG Version: 6.00 Build 0)  -->
<svg version="1.1" id="Vrstva_1" xmlns="http://www.w3.org/2000/svg" xmlns:xlink="http://www.w3.org/1999/xlink" x="0px" y="0px"
	 viewBox="0 0 1470.6 554.5" style="enable-background:new 0 0 1470.6 554.5;" xml:space="preserve">
<style type="text/css">
	.st0{fill:none;}
	.st1{fill:#FFFFFF;}
	.st2{fill-rule:evenodd;clip-rule:evenodd;fill:#FFFFFF;}
</style>
<rect class="st0" width="1470.6" height="554.5"/>
<g>
	<path class="st1" d="M394.8,453.8C394.8,453.7,394.8,453.7,394.8,453.8c-0.2-0.5-0.3-0.7-0.4-0.9c0,0,0,0,0,0c0,0,0,0,0,0
		c0,0,0-0.1,0-0.1c-9-26.6-14.5-39.6-17.6-45.8c-0.6-1.3-1.2-2.3-1.6-3.1c0,0,0,0,0,0c-1.1-2-1.6-2.5-1.6-2.5
		c-0.5-0.6-1-1.1-1.4-1.6c-0.3-0.4-0.7-0.8-1-1.1c-2-2.3-3.7-4.1-5.2-5.7c-0.2-0.2-0.4-0.4-0.6-0.6c-3.7-3.9-6.1-6-9.6-8.5
		c0,0,0,0,0,0c-3.1-2.3-6.9-4.9-13.3-9.5c0,0,0,0,0,0c-16.1-11.7-25.7-10.2-27.4-9.8c-0.2,0-0.3,0.1-0.3,0.1
		c-9.7,0.2-14.1-0.3-17.9-3.1v0c-0.5-0.4-0.9-0.8-1.4-1.2c0,0,0,0,0,0c-1.1-1-2.2-2.3-3.4-3.8c0,0,0,0,0-0.1c-0.8-1-1.7-2.1-2.6-3.4
		c0,0,0,0,0-0.1c-0.1-0.1-0.2-0.3-0.3-0.4c0-0.1-0.1-0.1-0.1-0.2c-0.3-0.4-0.7-0.9-1-1.4c0,0,0,0,0-0.1c-2-2.7-4.1-5-6.3-7
		c0,0,0,0,0,0c-7.5-6.9-15.2-9.8-15.8-10c1.3,0.2,60,9,60.8,1.6c0-0.3,0-0.6-0.2-1c0,0-1.4-1-8.4-3.3c-0.5-0.1-1-0.1-1.5-0.2l0-0.2
		c-0.1,0-0.2,0-0.3-0.1l0-0.1c-6.4-2-16.7-4.8-33.3-8.5c0,0,0,0,0,0v0c0-0.4,0-0.7,0.1-1c0-0.8,0-2.2-0.2-3.9
		c-0.8-6.9-4.4-19.8-19-28.8c0,0-16.9-8-35.5-8.7c0,0-10.9-2.5-10.6-6.8c3.8-8.8,11-11.8,16.2-12.9c0,0,0,0,0,0
		c2.1-0.4,3.9-0.5,4.9-0.5c0.7,0,1.1,0,1.1,0l0.8,1.5c0.1,0.2,0.4,0.3,0.6,0.2l0.6-0.4c0.2,0.3,0.4,0.7,0.6,1l-0.6,0.4
		c-0.2,0.1-0.3,0.4-0.1,0.6l0.1,0.1h0l0.8,1.3c0.1,0.2,0.4,0.3,0.6,0.1l0.3-0.2l0.3-0.2c0.2,0.3,0.4,0.6,0.7,1l-0.3,0.2l-0.3,0.2
		c-0.2,0.2-0.2,0.4-0.1,0.6l1,1.3c0,0,0.1,0.1,0.1,0.1c0.2,0.1,0.4,0.1,0.5,0l0.6-0.5c0.2,0.3,0.5,0.6,0.7,0.9l-0.6,0.5
		c-0.2,0.2-0.2,0.5,0,0.6l0.5,0.5l0.7,0.7c0.1,0.1,0.1,0.1,0.2,0.1c0.1,0,0.3,0,0.4-0.1l0.6-0.5c0.2,0.2,0.4,0.4,0.6,0.6
		c0.1,0.1,0.1,0.1,0.2,0.2l-0.5,0.6c-0.2,0.2-0.2,0.5,0,0.6l1.2,1.1c0.2,0.2,0.5,0.2,0.6,0l0.5-0.6c0.4,0.4,0.8,0.7,1.2,1l-0.5,0.6
		c-0.2,0.2-0.1,0.5,0.1,0.6l1.3,1c0.2,0.2,0.5,0.1,0.6-0.1l0.5-0.6c0.3,0.2,0.6,0.4,0.9,0.7l-0.4,0.6c-0.1,0.2-0.1,0.5,0.1,0.6
		l1.4,0.9c0.2,0.1,0.5,0.1,0.6-0.1l0.4-0.6c0.4,0.2,0.8,0.5,1.2,0.7l-0.4,0.6c-0.1,0.2,0,0.5,0.2,0.6l1.5,0.8c0.2,0.1,0.5,0,0.6-0.2
		l0.3-0.6c0.4,0.2,0.9,0.4,1.3,0.6l-0.3,0.7c-0.1,0.2,0,0.5,0.2,0.6l1.5,0.7c0.2,0.1,0.5,0,0.6-0.2l0.3-0.7c0.4,0.2,0.8,0.3,1.2,0.5
		l-0.2,0.7c-0.1,0.2,0,0.5,0.3,0.6l0.2,0.1l1,0.3l0.4,0.2c0.2,0.1,0.5,0,0.6-0.3l0.2-0.7c0.4,0.1,0.9,0.3,1.3,0.4l-0.2,0.7
		c-0.1,0.2,0.1,0.5,0.3,0.5l0.7,0.2l1,0.2c0.2,0,0.4,0,0.5-0.2v0c0,0,0.1-0.1,0.1-0.2l0.2-0.7c0.4,0.1,0.8,0.2,1.1,0.2l-0.1,0.7
		c0,0.2,0.1,0.5,0.4,0.5l1.5,0.2l0.2,0c0.2,0,0.4-0.1,0.5-0.2c0,0,0-0.1,0-0.1l0.1-0.7c0.4,0.1,0.8,0.1,1.2,0.2l0,0.7
		c0,0.3,0.2,0.5,0.4,0.5l1.7,0.1c0.3,0,0.5-0.2,0.5-0.4l0.1-0.7c0.4,0,0.8,0,1.2,0v0.7c0,0.2,0.2,0.5,0.5,0.5h1.7
		c0.3,0,0.5-0.2,0.5-0.5v-0.7c0.5,0,1,0,1.5-0.1l0,0.3l0,0.4c0,0.2,0.2,0.4,0.5,0.4l1.4-0.1l0.2,0c0.3,0,0.4-0.2,0.4-0.5l-0.1-0.7
		c0.5-0.1,1-0.1,1.4-0.2l0.1,0.7c0,0.1,0,0.1,0.1,0.2c0.1,0.1,0.3,0.2,0.4,0.2l1.6-0.3c0.2,0,0.4-0.3,0.4-0.5l0-0.1l-0.1-0.6
		c0.4-0.1,0.8-0.2,1.2-0.2l0.2,0.7c0.1,0.2,0.3,0.4,0.6,0.3l0.4-0.1l1.2-0.3c0.2-0.1,0.4-0.3,0.3-0.6l-0.2-0.7
		c0.3-0.1,0.6-0.2,0.9-0.3c0.1,0,0.2-0.1,0.2-0.1l0.2,0.6h0l0,0.1c0.1,0.2,0.2,0.3,0.4,0.3h0c0.1,0,0.1,0,0.2,0l1.6-0.5
		c0.2-0.1,0.4-0.3,0.3-0.6l-0.2-0.7c0.4-0.2,0.8-0.3,1.3-0.5l0,0.1l0.3,0.6c0.1,0.2,0.4,0.3,0.6,0.2l1.2-0.5l0.4-0.2
		c0.2-0.1,0.3-0.4,0.2-0.6l-0.3-0.7c0.3-0.2,0.6-0.3,1-0.5l0.4,0.6c0,0,0.1,0.1,0.1,0.1c0.1,0.1,0.3,0.2,0.5,0.1l1.5-0.8
		c0.2-0.1,0.3-0.4,0.2-0.6l-0.4-0.6c0.3-0.2,0.7-0.4,1-0.6l0.4,0.6c0.1,0.2,0.4,0.3,0.6,0.1l0.5-0.4l0.9-0.6
		c0.2-0.1,0.3-0.4,0.1-0.6l-0.4-0.6c0.3-0.2,0.6-0.4,0.9-0.7h0v0h0l0.4,0.6c0.2,0.2,0.4,0.2,0.6,0.1l1.3-1c0.2-0.2,0.2-0.4,0.1-0.6
		l-0.4-0.6c0.3-0.2,0.6-0.5,0.8-0.7l0.5,0.6c0.2,0.2,0.4,0.2,0.6,0l1.2-1.1c0.2-0.2,0.2-0.5,0-0.6l-0.2-0.2l-0.3-0.4
		c0.2-0.2,0.4-0.4,0.6-0.6l0,0c0.1-0.1,0.1-0.1,0.2-0.2l0.5,0.5c0.2,0.2,0.5,0.2,0.6,0l1.1-1.2c0.2-0.2,0.2-0.5,0-0.7l-0.5-0.4
		l-0.1-0.1c0.4-0.4,0.7-0.8,1-1.2l0.1,0l0.5,0.4c0.2,0.2,0.5,0.1,0.6-0.1l1-1.3c0.2-0.2,0.1-0.5-0.1-0.6l-0.6-0.4
		c0.2-0.3,0.4-0.6,0.7-0.9l0.6,0.4c0.2,0.1,0.5,0.1,0.6-0.1l0.9-1.4c0.1-0.2,0.1-0.5-0.1-0.6l-0.6-0.4c0.2-0.4,0.5-0.8,0.7-1.2
		l0.6,0.4c0.2,0.1,0.5,0,0.6-0.2l0.8-1.5c0.1-0.2,0-0.5-0.2-0.6l-0.6-0.3c0.2-0.4,0.4-0.9,0.6-1.3l0.7,0.3c0.2,0.1,0.5,0,0.6-0.2
		l0.7-1.5c0.1-0.2,0-0.5-0.2-0.6l-0.7-0.3c0.2-0.4,0.3-0.8,0.5-1.2l0.7,0.2c0.2,0.1,0.5,0,0.6-0.3l0.5-1.6c0.1-0.2,0-0.5-0.3-0.6
		l-0.7-0.2c0.1-0.4,0.3-0.9,0.4-1.3l0.7,0.2c0.2,0.1,0.5-0.1,0.6-0.3l0.4-1.6c0.1-0.2-0.1-0.5-0.3-0.6l-0.7-0.2
		c0.1-0.4,0.2-0.8,0.2-1.2l0.7,0.1c0.2,0,0.5-0.1,0.5-0.4l0.3-1.6c0-0.3-0.1-0.5-0.4-0.5l-0.7-0.1c0.1-0.4,0.1-0.8,0.2-1.2l0.7,0.1
		c0.3,0,0.5-0.2,0.5-0.4l0.1-1.7c0-0.3-0.2-0.5-0.4-0.5l-0.7-0.1c0-0.4,0-0.8,0-1.2h0.7c0.3,0,0.5-0.2,0.5-0.4v-1.7
		c0-0.2-0.2-0.5-0.5-0.5h-0.7c0-0.5,0-1-0.1-1.5l0.7-0.1c0.2,0,0.4-0.2,0.4-0.5l-0.1-1.7c0-0.2-0.2-0.4-0.5-0.4l-0.7,0.1
		c-0.1-0.5-0.1-1-0.2-1.4l0.7-0.1c0.3,0,0.4-0.3,0.4-0.5l-0.3-1.6c0-0.2-0.3-0.4-0.5-0.4l-0.7,0.1c-0.1-0.4-0.2-0.8-0.2-1.1l0.7-0.2
		c0.2-0.1,0.4-0.3,0.3-0.6l-0.4-1.6c-0.1-0.2-0.3-0.4-0.6-0.3l-0.7,0.2c-0.1-0.4-0.2-0.8-0.3-1.1l0.7-0.2c0.2-0.1,0.4-0.3,0.3-0.6
		l-0.5-1.6c-0.1-0.2-0.4-0.4-0.6-0.3l-0.7,0.2c-0.2-0.4-0.3-0.8-0.5-1.3l0.6-0.3c0.2-0.1,0.3-0.4,0.2-0.6l-0.7-1.5
		c-0.1-0.2-0.4-0.3-0.6-0.2l-0.7,0.3c-0.2-0.3-0.3-0.6-0.5-1l0.6-0.4c0.2-0.1,0.3-0.4,0.2-0.6l-0.8-1.5c-0.1-0.2-0.4-0.3-0.6-0.2
		l-0.6,0.3c-0.2-0.3-0.4-0.7-0.6-1l0.6-0.4c0.2-0.1,0.3-0.4,0.1-0.6l-0.9-1.4c-0.1-0.2-0.4-0.3-0.6-0.1l-0.6,0.4
		c-0.2-0.3-0.4-0.6-0.7-0.9l0.6-0.5c0.2-0.2,0.2-0.4,0.1-0.6l-1-1.3c-0.2-0.2-0.4-0.2-0.6-0.1l-0.6,0.4c-0.2-0.3-0.5-0.6-0.7-0.8
		l0.6-0.5c0.2-0.2,0.2-0.5,0-0.6l-1.1-1.2c-0.2-0.2-0.5-0.2-0.6,0l-0.5,0.5c-0.2-0.2-0.4-0.4-0.6-0.6c-0.1-0.1-0.1-0.1-0.2-0.2
		l0.5-0.6c0.2-0.2,0.2-0.5,0-0.6l-1.2-1.1c-0.2-0.2-0.5-0.2-0.6,0l-0.1,0.2l-0.4,0.4c-0.4-0.3-0.8-0.7-1.2-1l0.2-0.3l0.2-0.3
		c0.2-0.2,0.1-0.5-0.1-0.6l-1.3-1c-0.2-0.1-0.5-0.1-0.6,0.1l-0.4,0.6c0,0-0.1-0.1-0.2-0.1c-0.3-0.2-0.5-0.4-0.8-0.6l0.4-0.6
		c0.1-0.1,0.1-0.2,0.1-0.3c0-0.2-0.1-0.3-0.2-0.4l-1.4-0.9c-0.2-0.1-0.5-0.1-0.6,0.1l-0.4,0.6c-0.4-0.2-0.7-0.4-1.1-0.6
		c0,0-0.1,0-0.1-0.1l0.1-0.1l0.3-0.5c0.1-0.2,0-0.5-0.2-0.6l-1.2-0.7l-0.2-0.1c0,0,0,0,0,0c-0.2-0.1-0.5,0-0.6,0.2l-0.2,0.4
		l-0.1,0.2c0,0-0.1,0-0.1,0c-0.2-0.1-0.4-0.2-0.6-0.3c0,0,0,0,0,0c-0.2-0.1-0.4-0.2-0.7-0.3l0.1-0.3l0.2-0.4c0.1-0.2,0-0.5-0.2-0.6
		l-1.4-0.6l0,0l-0.1-0.1c-0.2-0.1-0.5,0-0.6,0.2l-0.3,0.7c-0.4-0.2-0.8-0.3-1.2-0.5l0.1-0.3l0.1-0.4c0.1-0.2-0.1-0.5-0.3-0.6
		l-1.1-0.4l-0.5-0.2c-0.2-0.1-0.5,0-0.6,0.3l-0.2,0.7c-0.4-0.1-0.9-0.3-1.3-0.4l0.2-0.7c0-0.2,0-0.3-0.1-0.4c-0.1,0-0.1-0.1-0.2-0.1
		l-1.6-0.4c-0.1,0-0.1,0-0.2,0c-0.2,0-0.3,0.2-0.4,0.3l-0.2,0.7c-0.4-0.1-0.8-0.2-1.2-0.2l0.1-0.7c0-0.3-0.1-0.5-0.4-0.5l-0.9-0.1
		l-0.7-0.1c-0.2,0-0.5,0.1-0.5,0.4l0,0.1l-0.1,0.6c-0.4-0.1-0.8-0.1-1.2-0.2l0.1-0.7c0-0.2-0.2-0.5-0.4-0.5l-1.7-0.1
		c-0.1,0-0.2,0-0.2,0.1c0,0-0.1,0-0.1,0.1c-0.1,0.1-0.1,0.2-0.1,0.3l-0.1,0.8c-0.4,0-0.8,0-1.2,0v-0.7c0-0.3-0.2-0.5-0.5-0.5h-1.7
		c-0.3,0-0.5,0.2-0.5,0.5v0.7c-0.5,0-1,0-1.5,0.1l-0.1-0.8c0-0.2-0.2-0.4-0.5-0.4l-1.7,0.1c-0.2,0-0.4,0.2-0.4,0.5l0.1,0.7
		c-0.5,0.1-1,0.1-1.4,0.2l-0.1-0.7c0-0.2-0.3-0.4-0.5-0.4l-1.6,0.3c-0.2,0-0.4,0.3-0.4,0.5l0.1,0.7c-0.4,0.1-0.8,0.2-1.1,0.2
		l-0.2-0.7c-0.1-0.2-0.3-0.4-0.6-0.3l-1.6,0.4c-0.2,0.1-0.4,0.3-0.3,0.6l0.2,0.7c-0.4,0.1-0.8,0.2-1.1,0.4l-0.2-0.7
		c-0.1-0.2-0.3-0.4-0.6-0.3l-1.6,0.6c-0.2,0.1-0.4,0.3-0.3,0.6l0.2,0.7c-0.4,0.2-0.8,0.3-1.3,0.5l-0.3-0.7c-0.1-0.2-0.4-0.3-0.6-0.2
		l-1.5,0.7c-0.2,0.1-0.3,0.4-0.2,0.6l0.3,0.7c-0.3,0.2-0.6,0.3-1,0.5l-0.3-0.6c-0.1-0.2-0.4-0.3-0.6-0.2l-0.1,0.1l-16.6-25.1
		c0,0-0.1-0.1-0.1-0.2l-0.2-0.2c0,0,0-0.1-0.1-0.1l-0.1-0.2c-0.1-0.1-0.2-0.3-0.3-0.5c-0.1-0.2-0.3-0.4-0.4-0.6l-0.6-0.9l-0.4-0.6
		c-0.1-0.1-0.1-0.2-0.2-0.3l-1.9-2.8l0,0c-7.8-12.3-22.9-37.7-15.1-40.2c0,0,0,0,0,0c0,0,0,0,0,0l1,0.5c0.2,0,0.5,0,0.7-0.2
		c0,0,0,0,0.1-0.1c2.2-1.9,0.5-3.9,0-4.3c0,0-6.9-3.7-8.9-5.2c-3.8-2.8-4.7-4.9-5.4-6c-0.1-0.1-0.1-0.2-0.2-0.2
		c-0.8-1-2.5-0.4-3.6,0.1c-0.2,0.1-0.4,0.2-0.6,0.2c-0.4,0.2-0.8,0.3-1.2,0.4c-1.3,0.4-2.4,1.6-2.9,2.3c-0.2,0.3-0.5,0.5-0.8,0.6
		c-0.1,0.1-0.3,0.1-0.4,0.1c-2.6,0.3-8,0-12-0.4c0,0-0.1,0-0.1,0c-1.5-0.1-2.8-0.2-3.6-0.3c-0.2,0-0.5-0.1-0.7-0.2
		c-0.2-0.3-0.8-0.8-1.5-1.4c-4.6-3.8-17.5-13.2-18.4-13.9c0,0-0.1,0-0.1,0c0,0-0.1-0.1-0.1-0.1c-0.1,0-0.1-0.1-0.1-0.2
		c-0.1-0.2,0-0.3,0-0.3l-0.7-6.8c0-0.3-0.1-0.6-0.3-0.9c0-0.1-0.1-0.1-0.1-0.2c-0.1-0.1-0.1-0.1-0.1-0.2c-0.4-0.7-0.3-1.3,0-1.8
		c0,0,0-0.1,0-0.1c0.3-0.5,0.8-0.9,1.1-1.1c0,0,0.2-0.1,0.2-0.1c0.4-0.1,0.7-0.2,1.1-0.2c7.1-0.8,17.3,7.5,18.8,8.8
		c0.1,0.1,0.3,0.1,0.4,0c3.7-2.1,5.3-5.2,5.7-8.3c0-0.1,0-0.1,0-0.2c0.2-1.5,0.2-3,0-4.4c-0.5-3.3-1.7-6.3-2.4-7.7
		c-0.1-0.2-0.1-0.3-0.2-0.4c-0.1-0.2-0.1-0.2-0.1-0.2c-0.1-0.2-0.3-0.2-0.5-0.1c-0.6,0.4-1.3,0.7-1.8,0.9c-3,1.2-5,0.3-6.2-1.5
		c0,0,0,0,0-0.1c-0.1-0.1-0.1-0.2-0.2-0.2c0,0,0,0,0,0c-0.3-0.5-0.6-1.1-0.7-1.8c-1.1-3.6-0.4-8.5,0.8-9.8c3.5,0,5.7-1.1,7-2.2
		c0,0,0,0,0,0c1.5-1.3,1.8-2.6,1.8-2.6c1.6,0.7,3,1.2,4.3,1.5c0.1,0,0.1,0,0.2,0c2.8,0.5,5.2,0,7.2-0.6c2.7-1,4.5-2.4,5.1-2.8
		c1.3-0.7,0-1.4,0-1.4l-34.6-18.3c-3.9-2.2-8.4-3.4-13.3-3.2c-12.5,0.5-22.8,10.4-23.8,22.9c-0.3,4.2,0.4,8.2,1.9,11.7v0
		c1.3,3.2,3.3,6,5.8,8.3c0,0,0,0,0,0l1.9,1.6c0.1,0.1,0.2,0.2,0.3,0.3c0,0,0,0,0,0c1.1,0.7,1.8,1,1.8,1c0.1,0.1,0.1,0.2,0.1,0.3
		c0,0.3-0.3,0.5-0.4,0.9c0,0,0,0,0,0c0,0-0.1,0-0.1,0c-3.4-0.4-6.1,1.5-8.1,4.4c-0.7,1-1.3,2.1-1.9,3.3c-1.3,2.8-2.3,5.8-2.8,8
		c-0.5,1.9-0.7,3.3-0.7,3.3s0,0,0,0c-0.1,0.4-2,6.5-4.7,14.2c-1,2.8-2,5.7-3.2,8.7c0,0,0,0,0,0.1c0,0.1,0,0.1-0.1,0.2
		c-0.2,0.5-0.4,1.1-0.6,1.6v0c-1.6,4.2-3.4,8.3-5,11.8c-0.4,0.9-0.8,1.9-1.2,2.8c-2.9,8-1.3,14.8,0.1,18.6c0.2,0.6,0.4,1,0.6,1.4
		c0.1,0.3,0.3,0.5,0.4,0.8c0,0,0,0,0,0c0.2,0.3,0.3,0.6,0.4,0.7c-4.5-0.6-28.4-3.9-39.2-4.1l-1.7,0c0,0,0,0-1.7,0c0,0-0.1,0-0.1,0
		c-0.3,0-0.6,0.1-0.8,0.2c-0.1,0.1-0.2,0.1-0.3,0.2c-0.1,0.1-0.1,0.1-0.1,0.2c-0.1,0.1-0.1,0.2-0.1,0.2c0,0,0,0,0,0
		c0,0.1,0,0.2,0,0.4c0,0.1,0,0.1,0,0.1c0,0.5,0.3,1.1,1,1.7c0,0,0,0,0,0c0.8,0.6,8.6,3.4,17.7,6.6c11.8,4.1,25.7,8.7,29.6,9.9
		c0.6,0.2,1,0.3,1,0.3c0,0,0,0,0,0c0.2,0.2,0.4,0.4,0.6,0.7l0.1,0.1c1.6,1.7,3.5,3.4,5.5,5.1c0.3,0.3,0.6,0.5,1,0.8
		c3.4,2.8,7,5.3,9.3,6.9c0,0,0.1,0,0.1,0.1c0.2,0.2,0.4,0.3,0.6,0.4c0.8,0.5,1.7,1.1,2,1.3c0,0,0,0,0,0c0,0.1,0,0.1,0,0.2l-1.5,1.9
		l-5.6,7.1c-1.5,1.7-2.9,3.4-4.4,5.1l0,0c-3.9,4.5-7.3,8.8-8.9,11.3c-0.6,1-0.9,1.7-0.9,2.1c0.4,2.6,2.3,5.4,2.8,6.2
		c0.1,0.1,0.1,0.2,0.1,0.2l-0.4,0.1l-1.7,0.7v0l-0.8-1.5c-0.1-0.2-0.4-0.3-0.6-0.2l-0.6,0.3c-0.2-0.3-0.4-0.7-0.6-1l0.6-0.4
		c0.2-0.1,0.3-0.4,0.1-0.6l-0.9-1.4c0-0.1-0.1-0.1-0.1-0.1c-0.1-0.1-0.3-0.1-0.5,0l-0.6,0.4c-0.2-0.3-0.4-0.6-0.7-1l0.6-0.4
		c0.2-0.2,0.2-0.4,0.1-0.6l-0.3-0.4l-0.8-1c-0.2-0.2-0.4-0.2-0.6-0.1l-0.3,0.3l-0.2,0.2c-0.2-0.3-0.5-0.6-0.7-0.8l0.5-0.5
		c0.2-0.2,0.2-0.5,0-0.6l-1.1-1.2l0,0c-0.2-0.2-0.5-0.2-0.6,0l-0.3,0.3l-0.2,0.2c-0.2-0.2-0.4-0.4-0.6-0.6c-0.1-0.1-0.1-0.1-0.2-0.2
		l0.2-0.3l0.3-0.3c0.2-0.2,0.2-0.5,0-0.6l-0.2-0.2l-1-1c-0.2-0.2-0.5-0.2-0.6,0l-0.5,0.6c-0.4-0.4-0.8-0.7-1.2-1l0.5-0.6
		c0,0,0,0,0-0.1c0.1-0.2,0.1-0.4-0.1-0.6l-0.8-0.6l-0.5-0.4c-0.2-0.2-0.5-0.1-0.6,0.1l-0.4,0.6c-0.3-0.2-0.6-0.4-0.9-0.7l0.4-0.6
		c0.1-0.1,0.1-0.3,0-0.5c0-0.1-0.1-0.1-0.1-0.2l-1.4-0.9c0,0,0,0,0,0c-0.2-0.1-0.5-0.1-0.6,0.2l-0.4,0.6c-0.4-0.2-0.8-0.5-1.2-0.7
		l0.3-0.6c0.1-0.2,0-0.5-0.2-0.6l-0.8-0.4l-0.7-0.4c0,0-0.1,0-0.1,0c-0.2-0.1-0.4,0-0.5,0.2l-0.4,0.6c-0.4-0.2-0.9-0.4-1.3-0.6
		l0.3-0.7c0.1-0.2,0-0.5-0.2-0.6l-1.5-0.7c-0.2-0.1-0.5,0-0.6,0.2l-0.3,0.7c-0.4-0.2-0.8-0.3-1.2-0.5l0.2-0.7c0.1-0.2,0-0.5-0.3-0.6
		l-1.6-0.5c-0.2-0.1-0.5,0-0.6,0.3l-0.2,0.7c-0.4-0.1-0.9-0.3-1.3-0.4l0.2-0.7c0.1-0.2-0.1-0.5-0.3-0.6l-1.6-0.4
		c-0.2-0.1-0.5,0.1-0.6,0.3l-0.2,0.7c-0.4-0.1-0.8-0.2-1.1-0.2l0.1-0.7c0-0.3-0.1-0.5-0.4-0.5l-1.6-0.3c-0.2,0-0.5,0.1-0.5,0.4
		l-0.1,0.7c-0.4-0.1-0.8-0.1-1.2-0.2l0.1-0.7c0-0.3-0.2-0.5-0.4-0.5l-1.7-0.1c-0.2,0-0.5,0.2-0.5,0.4l-0.1,0.7c-0.4,0-0.8,0-1.2-0.1
		V196c0-0.3-0.2-0.5-0.5-0.5h-1.7c-0.3,0-0.5,0.2-0.5,0.5v0.7c-0.5,0-1,0-1.5,0.1l-0.1-0.8c0-0.2-0.2-0.4-0.5-0.4l-1.7,0.1
		c-0.2,0-0.4,0.2-0.4,0.5l0.1,0.7c-0.5,0-1,0.1-1.4,0.2l-0.1-0.7c0-0.3-0.3-0.4-0.5-0.4l-1.6,0.3c-0.2,0-0.4,0.3-0.4,0.5l0.1,0.7
		c-0.4,0.1-0.8,0.2-1.1,0.2l-0.2-0.7c-0.1-0.2-0.3-0.4-0.6-0.3l-1.6,0.4c-0.2,0.1-0.4,0.3-0.3,0.6l0.2,0.7c-0.4,0.1-0.8,0.2-1.1,0.3
		l-0.2-0.7c-0.1-0.2-0.3-0.4-0.6-0.3l-1.6,0.6c-0.2,0.1-0.4,0.3-0.3,0.6l0.2,0.7c-0.4,0.2-0.8,0.3-1.3,0.5l-0.3-0.7
		c-0.1-0.2-0.4-0.3-0.6-0.2l-0.8,0.3l-0.8,0.3c-0.2,0.1-0.3,0.2-0.3,0.4c0,0.1,0,0.1,0,0.2l0.3,0.7c-0.3,0.2-0.6,0.3-1,0.5l-0.3-0.6
		c-0.1-0.2-0.4-0.3-0.6-0.2l-0.8,0.4l-0.7,0.4c-0.2,0.1-0.3,0.3-0.2,0.5c0,0,0,0.1,0,0.1l0.4,0.6c-0.6,0.4-0.3,0.2-1,0.6l-0.4-0.6
		c-0.1-0.2-0.4-0.3-0.6-0.1l-1.4,0.9c-0.1,0.1-0.2,0.3-0.2,0.4c0,0,0,0.1,0,0.1c0,0,0,0.1,0,0.1l0.4,0.6c-0.3,0.2-0.6,0.4-0.9,0.7
		l-0.5-0.6c-0.2-0.2-0.4-0.2-0.6-0.1l-0.2,0.1L50,206c-0.2,0.2-0.2,0.4-0.1,0.6l0.5,0.6c-0.3,0.2-0.6,0.5-0.8,0.7l-0.4-0.4l-0.1-0.1
		c-0.2-0.2-0.5-0.2-0.6,0l-1.2,1.1l-0.1,0c-0.2,0.2-0.2,0.5,0,0.6l0.5,0.6c-0.2,0.2-0.4,0.4-0.6,0.6c-0.1,0.1-0.1,0.1-0.2,0.2
		l-0.6-0.5c-0.2-0.2-0.5-0.2-0.6,0l-0.1,0.1l-1,1.1c-0.2,0.2-0.2,0.5,0,0.6l0.4,0.3l0.2,0.2c-0.4,0.4-0.7,0.8-1,1.2l-0.6-0.5
		c-0.2-0.2-0.5-0.1-0.6,0.1l-0.6,0.7l-0.4,0.6c-0.2,0.2-0.1,0.5,0.1,0.6l0.6,0.4c-0.2,0.3-0.4,0.5-0.6,0.8c0,0-0.1,0.1-0.1,0.1
		l-0.2-0.1l-0.4-0.3c-0.2-0.1-0.5-0.1-0.6,0.1l-0.3,0.4l0,0l-0.6,1c-0.1,0.2-0.1,0.5,0.1,0.6l0.6,0.4c-0.1,0.1-0.2,0.2-0.2,0.4
		c-0.2,0.3-0.3,0.5-0.5,0.8l-0.6-0.3c-0.2-0.1-0.5,0-0.6,0.2l-0.8,1.5c-0.1,0.2,0,0.4,0.1,0.6c0,0,0,0,0.1,0.1l0.6,0.3
		c-0.2,0.4-0.4,0.8-0.6,1.2c0,0,0,0.1-0.1,0.1l-0.7-0.3c-0.2-0.1-0.5,0-0.6,0.2l-0.7,1.5c-0.1,0.2,0,0.5,0.2,0.6l0.3,0.1l0.3,0.2
		c-0.2,0.4-0.3,0.8-0.5,1.2l-0.7-0.2c0,0,0,0-0.1,0c-0.2,0-0.4,0.1-0.5,0.3l-0.5,1.6c-0.1,0.2,0,0.5,0.3,0.6l0.7,0.2
		c-0.1,0.2-0.1,0.4-0.2,0.6c-0.1,0.2-0.2,0.5-0.2,0.7l-0.6-0.1l-0.1,0c-0.2-0.1-0.5,0.1-0.6,0.3l-0.4,1.6c-0.1,0.2,0.1,0.5,0.3,0.6
		l0.7,0.2c-0.1,0.4-0.2,0.8-0.2,1.2l-0.7-0.1c-0.2,0-0.5,0.1-0.5,0.4l-0.3,1.6c0,0.2,0.1,0.5,0.4,0.5l0.3,0l0.4,0.1
		c0,0.3-0.1,0.5-0.1,0.8c0,0.1,0,0.3,0,0.4l-0.7-0.1c-0.2,0-0.5,0.2-0.5,0.4l-0.1,1.7c0,0.2,0.2,0.5,0.4,0.5l0.2,0l0.6,0
		c0,0.4,0,0.8,0,1.2h-0.8c-0.2,0-0.4,0.2-0.4,0.5v1.7c0,0.2,0.2,0.5,0.4,0.5h0.8c0,0.3,0,0.6,0,0.9c0,0.2,0,0.4,0,0.6l-0.3,0l-0.4,0
		c-0.2,0-0.4,0.2-0.4,0.5l0.1,1.7c0,0.2,0.2,0.4,0.5,0.4l0.7-0.1c0,0.5,0.1,1,0.2,1.4l-0.7,0.1c-0.2,0-0.4,0.3-0.4,0.5l0.3,1.6
		c0,0.2,0.3,0.4,0.5,0.4l0.6-0.1l0.1,0c0,0.1,0,0.2,0.1,0.3c0.1,0.3,0.1,0.5,0.2,0.8l-0.7,0.2c-0.2,0.1-0.4,0.3-0.3,0.6l0.4,1.6
		c0.1,0.2,0.3,0.4,0.6,0.3l0.4-0.1l0.3-0.1c0.1,0.4,0.2,0.8,0.3,1.1l-0.1,0l-0.6,0.2c-0.2,0.1-0.4,0.4-0.3,0.6l0.6,1.6
		c0.1,0.2,0.3,0.4,0.6,0.3l0.7-0.2c0.1,0.2,0.2,0.4,0.2,0.6c0.1,0.2,0.2,0.4,0.3,0.7l-0.4,0.2l-0.3,0.1c-0.2,0.1-0.3,0.4-0.2,0.6
		l0.7,1.5c0.1,0.2,0.4,0.3,0.6,0.2l0.7-0.3c0.2,0.3,0.3,0.7,0.5,1l-0.6,0.4c-0.2,0.1-0.3,0.4-0.2,0.6l0.8,1.5
		c0.1,0.2,0.4,0.3,0.6,0.2l0.1-0.1l0.5-0.3c0.1,0.1,0.2,0.3,0.2,0.4l0.4,0.6l-0.6,0.4c-0.2,0.1-0.3,0.4-0.1,0.6l0.9,1.4
		c0.1,0.2,0.4,0.3,0.6,0.1l0.1-0.1l0.5-0.3c0.2,0.3,0.4,0.6,0.7,1l-0.5,0.4l0,0c-0.2,0.2-0.2,0.4-0.1,0.6l1,1.3
		c0.2,0.2,0.4,0.2,0.6,0.1l0.6-0.5c0.1,0.1,0.1,0.2,0.2,0.2c0.2,0.2,0.4,0.4,0.5,0.6l-0.6,0.5c0,0,0,0-0.1,0.1
		c-0.1,0.2-0.1,0.4,0,0.6l1.1,1.2c0.2,0.2,0.5,0.2,0.6,0l0.6-0.5c0.2,0.2,0.4,0.4,0.6,0.6c0.1,0.1,0.1,0.1,0.2,0.2l-0.5,0.6
		c-0.2,0.2-0.2,0.5,0,0.6l1.2,1.1c0,0,0.1,0.1,0.1,0.1c0.2,0.1,0.4,0,0.5-0.1l0.5-0.5c0.2,0.2,0.4,0.4,0.7,0.6
		c0.2,0.2,0.4,0.3,0.5,0.4l-0.5,0.6c-0.2,0.2-0.1,0.5,0.1,0.6l1.3,1c0,0,0,0,0,0c0.2,0.1,0.5,0.1,0.6-0.1l0.5-0.6
		c0.3,0.2,0.6,0.4,0.9,0.7l-0.4,0.6c0,0,0,0,0,0c-0.1,0.2-0.1,0.5,0.1,0.6l1.4,0.9c0.2,0.1,0.4,0.1,0.5,0c0,0,0.1-0.1,0.1-0.1
		l0.4-0.6c0.4,0.2,0.8,0.5,1.2,0.7l-0.4,0.6c-0.1,0.2,0,0.5,0.2,0.6l0.4,0.2l1,0.6c0.2,0.1,0.5,0,0.6-0.2l0.2-0.4l0.1-0.2
		c0.4,0.2,0.9,0.4,1.3,0.6l-0.3,0.7c-0.1,0.2,0,0.5,0.2,0.6l1.3,0.6l0.3,0.1c0.2,0.1,0.5,0,0.6-0.2c0,0,0,0,0,0l0.3-0.7
		c0.4,0.2,0.8,0.3,1.2,0.5l-0.2,0.7c-0.1,0.2,0,0.5,0.3,0.6l1.6,0.5c0.2,0.1,0.5,0,0.6-0.3l0.2-0.7c0.4,0.1,0.9,0.3,1.3,0.4
		l-0.1,0.4l-0.1,0.3c-0.1,0.2,0.1,0.5,0.3,0.6l0.4,0.1l1.2,0.3c0.2,0.1,0.5-0.1,0.6-0.3l0.2-0.7c0.4,0.1,0.8,0.2,1.1,0.2l-0.1,0.7
		c0,0,0,0.1,0,0.1c0,0.2,0.2,0.4,0.4,0.4l1.2,0.2l0.5,0.1c0.3,0,0.5-0.1,0.5-0.4l0.1-0.7c0.4,0.1,0.8,0.1,1.2,0.2l0,0.7
		c0,0.2,0.2,0.5,0.4,0.5l0.3,0L77,291c0.3,0,0.5-0.2,0.5-0.4l0-0.2l0-0.6c0.4,0,0.8,0,1.2,0v0.7c0,0.3,0.2,0.5,0.5,0.5h1.7
		c0.3,0,0.5-0.2,0.5-0.5v-0.7c0.5,0,1,0,1.5-0.1l0.1,0.7c0,0.2,0.2,0.4,0.5,0.4l1.7-0.1c0.1,0,0.2-0.1,0.3-0.2
		c0.1-0.1,0.1-0.2,0.1-0.3v0l-0.1-0.7c0.5-0.1,1-0.1,1.4-0.2l0.1,0.7c0,0,0,0.1,0.1,0.1c0.1,0.1,0.2,0.2,0.3,0.2c0,0,0.1,0,0.2,0
		l1.6-0.3c0.2,0,0.4-0.3,0.4-0.5l-0.1-0.7c0.4-0.1,0.8-0.2,1.2-0.2l0.2,0.7l0,0.1c0.1,0.2,0.3,0.4,0.6,0.3l0.8-0.2l0.8-0.2
		c0.2-0.1,0.4-0.3,0.3-0.6l-0.2-0.7c0.4-0.1,0.8-0.2,1.1-0.3l0.2,0.7c0.1,0.2,0.4,0.4,0.6,0.3l0.1-0.1l1.4-0.5
		c0.2-0.1,0.3-0.2,0.3-0.4c0-0.1,0-0.1,0-0.2l-0.2-0.7c0.4-0.2,0.8-0.3,1.3-0.5l0.3,0.7c0.1,0.2,0.4,0.3,0.6,0.2l0.6-0.3l0.9-0.4
		c0.2-0.1,0.3-0.4,0.2-0.6l-0.1-0.2l21.1,30.9c0,0,0,0.1,0,0.1c0,0,0,0.1,0,0.1s-3.3,4.3-11.3,4.9c-3.4,0.3-7.6-0.1-12.7-1.7
		c-0.2-0.1-0.4-0.1-0.6-0.2c-15.2-4.8-26.6-6.5-30.6-6.9c-0.5,0-0.8-0.1-1.1-0.1c-0.9,0-1.3,0.2-1.4,0.5c0,0,0,0.1,0,0.2
		c0,0.5,0.6,1.2,0.6,1.2c9.9,7.3,20.2,11.5,29.5,13.8c4.7,1.2,9.1,1.9,13.1,2.3c10.7,1.1,17.9-0.1,17.9-0.1
		c4.7,2.8,17,30.6,19.7,36.8c0,0,0,0,0,0.1c0.2,0.4,0.3,0.7,0.5,1.1c1.4,3.5,2.4,9.1,2.3,18.2c0,0,0,0,0,0c0.1,0.2,3.6,6,5.9-1.5
		c0.4-1.4,0.6-2.9,0.6-4.4c0-1-0.2-2-0.5-2.9c-0.1-0.4-0.3-0.9-0.4-1.3c-0.8-2.1-1.7-5.1-1.8-8.4c0-1.8,0.1-3.7,0.7-5.6
		c0,0,5.6-6.1,9.4,0.2c0,0.1,0.1,0.2,0.1,0.3c3.7,6.7,18.3-0.4,17.7-5.7c0-0.1,0-0.2,0-0.2c-0.5-2.2-1.1-3.9-2.2-4.5
		c-0.4,0-0.8-0.1-1.1-0.3c-1.2,0.1-2.8,1-4.9,3.3l0,0c-1.1,1.1-2.7,1.5-4.2,1c-0.9-0.3-1.9-0.7-2.9-1.2c-4.1-2-9-5.9-10.2-13.2
		c0,0,4.9-0.5,12.2-2.2c10.7-2.5,26.7-7.5,40.9-17.3c2.4,0.2,4.8,1.6,7.1,2.2c0.6,0.1,0.9,0.3,1.4,0.5c1.9,0.6,3.8,0.8,5.8,1.3
		c2,0.4,3.9,0.6,6,1c3.9,0.6,12.5,1.9,12.6,2.4c0,0,0.1,0.1,0.1,0.3c0.2,0.6,0.7,1.8,1.6,3.6c0.4,0.8,1,1.8,1.6,2.8c0,0,0,0,0,0
		c0,0,0,0,0,0.1c0,0,0,0,0,0.1c0.5,0.8,1,1.6,1.6,2.5c0.5,0.8,1.1,1.6,1.8,2.4c2.5,3.3,6,7.1,10.6,11.1c1.6,1.4,3.3,2.8,5.1,4.2
		c0.1,0,0.2,0.1,0.2,0.2c5.5,4.2,9.7,8.3,12.8,12.2c2,2.6,3.5,5.1,4.5,7.4c1.2,2.9,1.7,5.5,1.4,8c-0.2,2.7-1.3,5-3,7l0,0
		c0,0-0.1,0.1-0.1,0.1c0,0.1-0.1,0.1-0.2,0.2c-0.1,0-0.1,0.1-0.2,0.1s-0.1,0-0.2,0l0-0.2l-2.1-1.3v0l-0.9-0.5l-11.4-7v0l0,0
		c-2,0.3-3.5,0.8-4.8,1.4c-2.9,1.6-3.9,4.1-3.9,6.6c0,1,0.2,2,0.4,3c0,0,0,0,0,0c0.2,0.6,0.4,1.2,0.6,1.8c0.3,1,0.7,1.8,1.1,2.6
		c0,0,0,0,0,0c0.6,1.3,1.1,2.1,1.1,2.1c0.5-0.3,1.1-0.5,1.5-0.7h0c1.3-0.5,2.4-0.6,3.4-0.4c6,1,5.1,12.9,0.5,12.3
		c-2.5-0.4-4.2,0.3-5.3,1.2c-1,0.8-1.4,1.6-1.6,2c0,0.1-0.1,0.2-0.1,0.2c0,0,0,0,0,0c-0.2-0.1-0.4-0.2-0.5-0.3c0,0-0.1,0-0.1-0.1
		c0,0,0,0,0,0c-0.4-0.2-11.4-5.9-13.8,1.5l0,0l20.3,14.7l1.7,1.2c1.3,1,2.6,1.9,4.1,2.7h0c3,1.5,6.5,2.4,10.1,2.4
		c3.6,0,7.1-0.8,10.1-2.3c3.7-1.8,6.8-4.6,9-8.1c2.1-3.3,3.3-7.2,3.3-11.4c0-1.5-0.2-2.9-0.4-4.3c-0.2-1.4-0.5-2.5-0.8-3.5
		c-0.4-1.2-0.8-2.1-1.1-2.7c-0.2-0.3-0.3-0.5-0.4-0.7c0,0-0.1-0.1-0.1-0.1c0,0,0,0,0,0c-0.3-0.8-0.2-1.4,0.1-1.9
		c0.3-0.4,0.7-0.7,1.3-1c1.6-0.6,4.1-0.6,7.1-0.4c0,0,0,0,0.1,0c2.1,0.2,4.4,0.4,6.8,0.7c0,0,0.1,0,0.1,0h0c0.2,0,0.4,0,0.5,0.1
		c4,0.5,8,1.1,11.3,1.3c0,0,0,0,0,0c0.3,0,0.6,0,0.8,0c2,0.1,3.5,0.3,4.8,0.6c0,0,0,0,0,0c3,0.7,4.4,2,5,3c0.3,0.4,0.4,0.8,0.5,1
		c0,0,0,0,0,0c0.1,0.4,0.1,0.6,0.1,0.6s3.9,16.2,7.7,18.6c0,0,0,0,0,0c0,0,0,0,0,0c1.5,1,3.4,2.6,5.1,4.1c0,0,0.1,0.1,0.1,0.1
		c1.5,1.4,2.9,2.8,3.7,3.6c0,0,0.1,0.1,0.1,0.1c0.5,0.5,0.7,0.8,0.7,0.8c0.1,0.1,0.2,0.2,0.2,0.4c1.1,1.6,2.1,3.3,3,4.9
		c2.4,4.5,4.2,8.9,5.4,12.1c0,0,0,0,0,0.1c0.3,0.9,0.6,1.7,0.9,2.5c0,0.1,0.1,0.2,0.1,0.3c0,0.1,0,0.1,0.1,0.2
		c0.4,1.4,0.7,2.2,0.7,2.2c1.6,23.7-0.5,36.5-2.7,43.4c-0.8,2.5-1.6,4.2-2.3,5.3c0,0,0,0,0,0c-0.4,0.6-0.8,1.1-1,1.4c0,0,0,0,0,0
		c-0.4,0.5-0.7,0.6-0.7,0.6c-1.8,2.1-2.8,4.1-3.3,5.9c-0.8,3.4,0.2,6.2,1,7.5c0.4,0.6,0.6,1,0.6,1c1.8,1.8,4.7,3.7,8,5.5
		c8.5,4.7,19.4,8.6,19.8,8.8c0,0,0,0,0,0c3.7-0.8,3.5-4,1.3-7.7c0,0,0,0,0,0c-1.1-1.8-2.7-3.8-4.5-5.6c-0.2-0.2-0.5-0.5-0.7-0.7
		c-5.8-5.3-4.7-13.4-4.7-13.4c1.7-6.4,7.8-15.9,12-21.9c2.5-3.5,4.3-5.9,4.3-5.9c0.5-0.7,0.9-1.4,1.3-2.1c0,0,0,0,0,0
		c0.6-1.1,1.1-2.1,1.6-3.2C398.9,466.3,396,456.8,394.8,453.8z M95.1,231.7c-3.6-4.9-9.3-8-15.8-8c-10.8,0-19.6,8.8-19.6,19.6
		c0,10.8,8.8,19.6,19.6,19.6c1.7,0,3.4-0.2,5-0.6l1.7,2.4l0,0.1l4.9,7.2c-3.4,1.3-7,2-10.8,2c-16.9,0-30.6-13.7-30.6-30.6
		c0-16.9,13.7-30.6,30.6-30.6c11.1,0,20.8,5.9,26.1,14.7L95.1,231.7z M103.1,263.5l-5.5-7.3c0,0,0,0,0,0l-1.8-2.4
		c1.7-2.7,2.8-5.8,3-9.1l3-1v0c2.9-0.9,5.9-1.9,8.8-2.8l0.1,0c0.1,0.8,0.1,1.6,0.1,2.4C110.7,251,107.8,258.1,103.1,263.5z
		 M282.4,258.3c10.8,0,19.6-8.8,19.6-19.6c0-10.8-8.8-19.6-19.6-19.6c-2,0-3.9,0.3-5.7,0.8l-0.6-0.8l-1-1.6c0,0-0.1,0-0.1,0
		l-5.4-8.1c3.8-1.7,8.1-2.7,12.5-2.7c16.9,0,30.6,13.7,30.6,30.6c0,16.9-13.7,30.6-30.6,30.6c-11.4,0-21.4-6.3-26.7-15.5l7.2-2.9
		c0,0,0,0,0,0l2.7-1.1C268.9,254.4,275.2,258.3,282.4,258.3z M261.1,215.3l4.9,8.2l1.5,2.6v0c-0.8,1-1.6,2.1-2.2,3.2
		c-0.1,0.1-0.1,0.2-0.2,0.4c-0.1,0.1-0.1,0.3-0.2,0.4c-0.3,0.6-0.5,1.1-0.8,1.7c0,0.1-0.1,0.2-0.1,0.3c0,0.1-0.1,0.2-0.1,0.3
		c0,0.1-0.1,0.2-0.1,0.3c0,0.1-0.1,0.3-0.1,0.4c0,0.1-0.1,0.2-0.1,0.3c0,0.1-0.1,0.2-0.1,0.3c0,0.1,0,0.2,0,0.2
		c-0.1,0.4-0.2,0.8-0.3,1.3c-0.1,0.3-0.1,0.6-0.1,0.9c0,0.1,0,0.1,0,0.2l-2.9-0.2l-8.5-0.5C252.1,227.6,255.6,220.5,261.1,215.3z
		 M152.7,136.3c0-0.2,0-0.4,0-0.6c0.1-0.9,0.1-1.8,0.2-2.7c0.6-7.9,1.6-17.2,4.2-21.7c0,0,0-0.1,0-0.1c0,0,0.1-0.1,0.1-0.2
		c1-1.8,1.7-2.4,2.3-2.4c0.5,1.2,1.7,2.4,3.4,3.6c4.2,3.1,11.2,5.9,15.1,7.4c0.2,0.1,0.4,0.2,0.6,0.2c0.2,0.1,0.4,0.1,0.5,0.2
		c0.1,0,0.2,0.1,0.2,0.1c0,0,0.1,0,0.1,0c0.1,0,0.2,0.1,0.3,0.1c0.1,0,0.2,0.1,0.3,0.1c0.1,0,0.2,0.1,0.3,0.1c0.1,0,0.2,0.1,0.3,0.1
		c0.1,0,0.1,0,0.2,0.1c0.1,0,0.1,0,0.1,0s2.4,1.2,5.2,1.1c2.8-0.1,17.5-3,17.5-3s0,0,0,0c0,0,0.5,0.3,1.4,1.3
		c1.6,1.7,4.3,5.4,7.3,12.5c0.6,1.5,1.3,3.2,1.9,5.1c0.1,0.3,0.1,0.7-0.1,1.1c-0.2,0.4-0.5,0.8-1,1.2c0,0,0,0,0,0
		c-3.4,3.5-13.7,9.7-24.8,21.5c-0.4,0.4-0.7,0.8-1.1,1.2c-0.3,0.3-0.6,0.6-0.8,0.9c-0.1,0.1-0.2,0.2-0.3,0.4c0,0,0.1-0.8-0.1-2.1
		c-0.5-2.9-2.7-8.1-11.3-11.2c-1.1-0.4-2.3-0.8-3.6-1.1c-1.8-0.4-3.7-0.8-6-1.1C165.3,148.5,151.8,147.1,152.7,136.3z M216.4,241.2
		C216.4,241.2,216.4,241.2,216.4,241.2L216.4,241.2c-1.3,4.4-6.4,1.9-7.1,1.5c0,0,0,0-0.1,0c0,0,0,0,0,0c0,0,0,0,0,0
		c-30.9-3.5-40.8-0.4-43.8,1.3c0,0,0,0,0,0c-0.1,0.1-0.2,0.3-0.3,0.6c-0.3,1-0.6,2.4-1.3,3.1l0,0c-0.7,0.7-1.5,1.2-2.4,1.6
		c-2,0.8-3.6,0.5-5.1-0.2c-0.9-0.5-3-1.4-3.8-1.7c-0.2-0.1-0.4-0.1-0.6-0.1c-1.7,0.4-3.4,1.5-4.1,2.8c-3.3,6.8-1.8,18.1-1.6,19.9
		c0,0.2,0,0.3,0,0.5c-0.1,0.7-0.3,2-0.4,2.3c-1,5.7-2.5,9.7-4.5,14.6c-3.7,9.2-8,15.7-8.2,16.1c0,0,0,0,0,0
		c-0.5-0.7-1.1-1.4-1.6-2.2c-1-1.5-2.1-3.1-3-4.5c-0.3-0.4-0.6-0.9-0.8-1.3l-1.4-2.1l0,0l-5-7.3l0,0l-4.8-7l-1.6-2.4
		c0.1-0.2,0.1-0.3,0.1-0.4l0.7-0.7c0.2-0.2,0.2-0.5,0-0.6l-0.5-0.5l0,0c0.4-0.4,0.7-0.8,1-1.2l0.6,0.5c0.2,0.1,0.5,0.1,0.6-0.1
		l0.9-1.1l0.2-0.2c0.2-0.2,0.1-0.5-0.1-0.6l-0.4-0.3l-0.2-0.1c0,0,0-0.1,0.1-0.1c0.2-0.3,0.4-0.6,0.6-0.8l0.6,0.4
		c0.2,0.1,0.5,0.1,0.6-0.1l0.9-1.4c0-0.1,0.1-0.1,0.1-0.2c0-0.2-0.1-0.3-0.2-0.4l-0.6-0.4c0.2-0.4,0.5-0.8,0.7-1.2h0l0.6,0.4
		c0.2,0.1,0.5,0,0.6-0.2l0.8-1.5c0.1-0.2,0.1-0.4,0-0.5c0,0-0.1-0.1-0.1-0.1l-0.6-0.4c0.2-0.4,0.4-0.9,0.6-1.3l0.7,0.3
		c0.1,0.1,0.2,0,0.4,0c0.1,0,0.2-0.1,0.2-0.2l0.7-1.5c0.1-0.2,0-0.5-0.2-0.6l-0.7-0.3c0.2-0.4,0.3-0.8,0.5-1.2l0.7,0.2c0,0,0,0,0,0
		c0.2,0.1,0.5-0.1,0.6-0.3l0.5-1.6c0.1-0.2,0-0.5-0.3-0.6l-0.7-0.2c0.1-0.4,0.2-0.8,0.4-1.2l0.1-0.1l0.6,0.2
		c0.2,0.1,0.5-0.1,0.6-0.3l0.4-1.6c0.1-0.2-0.1-0.5-0.3-0.6l-0.2,0l-0.5-0.1c0-0.1,0-0.3,0.1-0.4c0.1-0.2,0.1-0.5,0.2-0.7l0.7,0.1
		c0.2,0,0.5-0.1,0.5-0.4l0.3-1.6c0-0.2-0.1-0.5-0.4-0.5l0,0l-0.7-0.1c0.1-0.4,0.1-0.8,0.2-1.2l0.5,0l0.2,0c0.3,0,0.5-0.2,0.5-0.4
		l0.1-1.7c0-0.3-0.2-0.5-0.4-0.5l-0.7-0.1v0c0-0.4,0-0.8,0-1.1h0.7c0.3,0,0.5-0.2,0.5-0.5v-1.7c0-0.3-0.2-0.5-0.5-0.5h-0.7v0
		c0-0.5,0-1-0.1-1.5l0.3,0l0.4,0c0.3,0,0.4-0.2,0.4-0.5l-0.2-1.7c0-0.2-0.2-0.4-0.5-0.4l-0.7,0.1c0,0,0,0,0,0c0-0.3-0.1-0.7-0.1-1
		l0-0.1c0-0.1,0-0.2-0.1-0.4l0.4-0.1l0.4-0.1c0.2,0,0.4-0.3,0.4-0.5l-0.1-0.5c1.4-0.5,2.4-0.9,2.7-1.1c0,0,0,0,0,0
		c1.4-0.8,2.8-0.7,3.7-0.5c0.8,0.2,1.3,0.5,1.3,0.6c0,0,0,0,0,0s6.3,5.6,15.1,9.6c5.3,2.4,8.7,2.2,10.5,1.6c0.9-0.3,1.7-1,2.3-1.8
		l29.7-44.1c1.1-1.7,2.1-3.5,3-5.3c0.8-1.9,1.5-3.8,2-5.8l2.8-13c14-6.1,25.7-15.9,25.7-15.9c0.1,0.1,0.2,0.2,0.3,0.4l25.7,41.7
		c-0.1,0.1-0.1,0.1-0.2,0.2l-0.5-0.6c-0.2-0.2-0.5-0.2-0.6,0l-1.2,1.1c-0.2,0.2-0.2,0.5,0,0.6l0.5,0.6c-0.2,0.2-0.4,0.4-0.6,0.6
		c-0.1,0.1-0.1,0.1-0.2,0.2l-0.6-0.5c-0.2-0.2-0.5-0.2-0.6,0l-1.1,1.2c-0.2,0.2-0.2,0.5,0,0.6l0.6,0.5c-0.4,0.4-0.7,0.8-1,1.2
		l-0.6-0.5c-0.2-0.2-0.5-0.1-0.6,0.1l-1,1.3c-0.2,0.2-0.1,0.5,0.1,0.6l0.6,0.5c-0.2,0.3-0.4,0.6-0.7,0.9l-0.6-0.4
		c-0.1,0-0.2-0.1-0.3-0.1c-0.1,0-0.3,0.1-0.4,0.2l-0.1,0.1l-0.8,1.2c-0.1,0.2-0.1,0.5,0.1,0.6l0.6,0.4c-0.2,0.4-0.5,0.8-0.7,1.2
		l-0.6-0.3c-0.1,0-0.2-0.1-0.2-0.1c0,0-0.1,0-0.1,0c0,0-0.1,0-0.2,0.1c0,0-0.1,0.1-0.1,0.1l-0.8,1.5c0,0,0,0.1-0.1,0.2
		c0,0.1,0,0.3,0.1,0.4c0,0,0.1,0.1,0.1,0.1l0.6,0.4c-0.2,0.4-0.4,0.9-0.6,1.3l-0.7-0.3c-0.2-0.1-0.5,0-0.6,0.2l-0.3,0.8l-0.3,0.7
		c0,0.1,0,0.2,0,0.3c0,0,0,0,0,0c0,0,0,0.1,0,0.1c0,0,0,0,0,0c0,0,0,0,0,0c0,0,0,0,0.1,0.1c0,0,0.1,0,0.1,0l0.7,0.3
		c-0.2,0.4-0.3,0.8-0.5,1.2l-0.7-0.2c-0.2-0.1-0.5,0-0.6,0.3l-0.5,1.6c0,0,0,0,0,0.1c0,0.1,0,0.2,0,0.2h0c0,0,0,0.1,0,0.1
		c0,0,0,0,0.1,0.1c0,0,0.1,0.1,0.2,0.1l0.7,0.2c-0.1,0.4-0.3,0.9-0.4,1.3l-0.7-0.2c-0.2-0.1-0.5,0.1-0.6,0.3l-0.4,1.6
		c-0.1,0.2,0.1,0.5,0.3,0.6l0.7,0.2c-0.1,0.4-0.2,0.8-0.2,1.2l-0.7-0.1l0,0c-0.2,0-0.5,0.1-0.5,0.4l-0.1,0.7l-0.2,1
		c0,0.3,0.1,0.5,0.4,0.5l0.7,0.1c-0.1,0.4-0.1,0.8-0.2,1.2l-0.7-0.1h0c0,0-0.1,0-0.1,0c0,0-0.1,0-0.1,0c0,0,0,0,0,0
		c0,0-0.1,0-0.1,0.1c0,0-0.1,0.1-0.1,0.2c0,0,0,0.1,0,0.2l-0.1,1.7c0,0,0,0.1,0,0.1c0,0.2,0.2,0.4,0.4,0.4l0.8,0.1
		c0,0.1,0,0.2,0,0.3c-0.3,0.3-0.6,0.6-0.9,0.9c-0.1,0.1-0.2,0.2-0.4,0.3c-0.4,0.4-0.9,0.8-1.4,1.2c-0.3,0.3-0.7,0.5-1.1,0.8
		c-0.1,0.1-0.2,0.2-0.4,0.2c0,0,0,0,0,0c-1.4-1-2.4-1.2-2.4-1.2c-2-0.7-3.3,0.3-3.9,1c-0.6,0.6-1.3,1-2.1,1.1c0,0-0.1,0-0.1,0
		c-0.3,0-0.7,0-1-0.2c-1.4-0.5-2.6-0.5-3.5-0.2C217.5,239.2,216.7,240.1,216.4,241.2z"/>
	<g>
		<g>
			<path class="st1" d="M1005.8,264.7c0.5-0.2,1-0.4,1.6-0.6v0.6H1005.8z"/>
			<path class="st1" d="M987.6,250.9v-49.9h-16.5v63.6h36.3v-13.7H987.6z M950.4,200.9l0,17.6l-9.8,13.9l-11.1-13.6l-0.1-17.8
				l-13.5,0.1l0,22.3l16.3,21.1v20.2h16.5v-20.2l15.9-22.3l0.1-21.3L950.4,200.9z M866.1,201.1v13.7h13.4v49.9H896v-49.9h13.7v-13.7
				H866.1z M858.4,233.3c-2.5-3.2-6.6-5.6-12.4-7.3c-4.7-1.4-7.4-2.4-8.4-2.9c-2.1-1.2-3.1-2.7-3.1-4.4c0-1.7,0.8-3.1,2.4-4.1
				c1.4-0.9,3-1.4,4.7-1.4c3.7,0,7.3,1.4,10.9,4.3l6.6-12.9c-6.6-3.4-13.2-5.2-20.1-5.2c-6.8,0-12.2,2.3-16.3,6.8
				c-3.5,3.9-5.2,8.8-5.2,14.7c0,5.6,1.7,9.9,5.1,12.7c1.2,1,2.6,1.8,4.3,2.5c1,0.5,3.6,1.3,7.7,2.5c3.4,1,5.8,1.9,7.2,2.9
				c1.9,1.3,2.9,2.8,2.9,4.7c0,2.1-0.9,3.7-2.6,4.8c-1.5,1-3.3,1.5-5.4,1.5c-4.7,0-9.6-2.3-14.5-6.8l-7,13.3
				c6.8,4.8,14.1,7.2,22,7.2c3.8,0,7.3-0.6,10.6-1.7c9.4-3.2,14.1-10.3,14.1-21C861.6,239.4,860.5,236,858.4,233.3z"/>
			<polygon class="st1" points="1032.3,214.8 1032.3,225.8 1050.9,225.8 1050.9,239.5 1032.3,239.5 1032.3,250.9 1051.9,250.9 
				1051.9,264.7 1015.8,264.7 1015.8,201.1 1051.9,201.1 1051.9,214.8 			"/>
		</g>
		<g>
			<path class="st1" d="M1109.5,226.2v3.8c-1.4-1.5-2.7-2.6-4-3.3c-2.3-1.1-4.7-1.7-7.3-1.7c-4.5,0-8.4,1.6-11.9,4.8
				c-4.3,4-6.5,9.3-6.5,15.9c0,6.6,2.1,11.8,6.4,15.8c3.5,3.3,7.6,5,12.1,5c2.8,0,5.3-0.7,7.5-2c1.3-0.8,2.5-2,3.7-3.6v4.3h13.1v-39
				H1109.5z M1107.5,251.9c-1.6,1.7-3.6,2.6-5.9,2.6c-2.6,0-4.7-1-6.3-3.1c-1.3-1.7-2-3.6-2-5.7c0-2.1,0.7-4,2-5.7
				c1.6-2.1,3.8-3.1,6.3-3.1c2.3,0,4.3,0.9,5.9,2.6c1.6,1.7,2.4,3.8,2.4,6.2C1109.9,248.2,1109.1,250.3,1107.5,251.9z"/>
			<polygon class="st1" points="1423.4,225.9 1423,245.7 1395.7,282 1381.5,282 1396.9,261.1 1383.5,245.7 1383.3,225.9 1396,225.9 
				1396,242.3 1404.2,251.9 1411,242 1411,226 			"/>
			<path class="st1" d="M1375.8,239.8v25.4h-13.1v-19.2c0-3.3-0.3-5.6-1-6.9c-1-1.8-2.4-2.7-4.4-2.7c-2.2,0-3.8,1-5,3
				c-0.8,1.4-1.2,3.6-1.2,6.6v19.2h-13.1V246c0-3.3-0.3-5.5-0.8-6.5c-1-2-2.7-3-4.9-3c-2,0-3.6,0.9-4.7,2.6
				c-0.4,0.6-0.7,1.5-0.9,2.5c-0.2,1.1-0.3,2.5-0.3,4.4v19.2h-13.1v-39h13.1v4.8c1.5-1.6,2.9-2.7,4.2-3.4c2.3-1.3,4.9-2,7.7-2
				c3.6,0,6.7,1,9.1,2.9c1.2,1,2.4,2.4,3.5,4.3c1-1.7,2.1-3.1,3.4-4.1c2.6-2.1,5.6-3.2,9-3.2c2.7,0,5.2,0.7,7.3,2.1
				c2.3,1.5,3.8,3.6,4.5,6.3C1375.6,235.5,1375.8,237.4,1375.8,239.8z"/>
			<path class="st1" d="M1306,246.5c0-4.6-1-8.7-2.9-12.2c-3.4-6.2-9.1-9.3-17.1-9.3c-6.5,0-11.5,2-15,5.8c-3.6,3.9-5.3,9-5.3,15.2
				c0,5.3,1.4,9.7,4.3,13.3c3.8,4.9,9.5,7.3,17,7.3c5.9,0,10.7-1.7,14.2-5.2c2-1.9,3.4-4.6,4.4-8.1H1293c-1.4,2.4-3.5,3.6-6.2,3.6
				c-5.3,0-7.9-2.9-7.9-8.7h27.2V246.5z M1279.2,240.5c0.3-1.9,1-3.4,2.1-4.6c1.3-1.4,3.1-2.1,5.3-2.1c4,0,6.4,2.2,7.3,6.7H1279.2z"
				/>
			<path class="st1" d="M1245.1,202.1v28c-1.4-1.5-2.7-2.6-4.1-3.3c-2.3-1.2-4.7-1.8-7.3-1.8c-4.5,0-8.4,1.6-11.8,4.8
				c-4.3,4-6.5,9.3-6.5,15.9c0,6.6,2.1,11.8,6.4,15.8c3.5,3.3,7.6,5,12.1,5c2.8,0,5.3-0.7,7.5-2c1.3-0.8,2.5-2,3.8-3.6v4.3h13v-63.1
				H1245.1z M1243.1,252c-1.6,1.7-3.6,2.6-5.9,2.6c-2.6,0-4.7-1-6.3-3.1c-1.3-1.7-2-3.6-2-5.7c0-2.2,0.7-4.1,2-5.8
				c1.6-2.1,3.8-3.1,6.3-3.1c2.3,0,4.3,0.9,5.9,2.6c1.6,1.7,2.4,3.8,2.4,6.3C1245.5,248.2,1244.7,250.3,1243.1,252z"/>
			<path class="st1" d="M1194.9,226.2v3.8c-1.4-1.5-2.7-2.6-4.1-3.3c-2.3-1.1-4.7-1.7-7.3-1.7c-4.5,0-8.4,1.6-11.9,4.8
				c-2.3,2.1-4,4.6-5,7.4c-1,2.5-1.5,5.4-1.5,8.5c0,6.6,2.1,11.8,6.4,15.8c3.5,3.3,7.6,5,12.1,5c2.8,0,5.3-0.7,7.5-2
				c1.3-0.8,2.5-2,3.7-3.6v4.3h13.1v-39H1194.9z M1192.9,251.9c-1.2,1.2-2.5,2-4.1,2.4c-0.6,0.1-1.2,0.2-1.8,0.2
				c-2.6,0-4.7-1-6.3-3.1c-1.2-1.4-1.8-3.1-2-4.9c0-0.3,0-0.5,0-0.8c0-2.1,0.7-4,2-5.7c1.7-2.1,3.8-3.1,6.3-3.1
				c2.3,0,4.3,0.9,5.9,2.6c1.6,1.7,2.4,3.8,2.4,6.2C1195.3,248.2,1194.5,250.3,1192.9,251.9z"/>
			<path class="st2" d="M1159.2,227.2v11.8c-0.7-0.5-1.4-1-2.1-1.3c-0.1-0.1-0.2-0.1-0.4-0.2c-0.3-0.2-0.7-0.3-1-0.4
				c-0.2-0.1-0.5-0.2-0.7-0.2c0,0,0,0-0.1,0c-0.8-0.2-1.6-0.4-2.4-0.4c-2.6,0-4.7,0.9-6.4,2.6c-1.7,1.8-2.5,4-2.5,6.7
				c0,2.7,0.8,5,2.5,6.7c1.7,1.8,3.8,2.6,6.4,2.6c2.2,0,4.4-0.8,6.7-2.5v11.7c-2.7,1.4-5.5,2.1-8.5,2.1c-6.7,0-12-2.4-15.9-7.2
				c-3.2-3.9-4.8-8.4-4.8-13.5c0-5.2,1.6-9.7,4.8-13.5c3.5-4.3,8.1-6.6,13.7-7.1c0.7-0.1,1.5-0.1,2.2-0.1h0.1c0,0,0,0,0,0
				c0.6,0,1.3,0,1.9,0.1c0.3,0,0.6,0.1,0.8,0.1c0.5,0.1,0.9,0.2,1.4,0.3c0.1,0,0.2,0,0.2,0.1
				C1156.6,225.9,1157.9,226.5,1159.2,227.2z"/>
		</g>
		<g>
			<path class="st1" d="M455.3,240.3c3.9-0.8,6.9-2.3,9.1-4.5c3.5-3.4,5.2-7.9,5.2-13.5c0-4.9-1.5-9.2-4.5-12.9
				c-3.7-4.5-9.4-6.8-17.1-6.8h-26.4v63.7h17V242l16.2,24.4h21.1L455.3,240.3z M449.3,229.1c-1.5,1.5-4.1,2.2-7.7,2.2h-3.2v-15.9
				h3.2c3.5,0,6.1,0.7,7.7,2.2c1.7,1.6,2.6,3.5,2.6,5.8C451.9,225.5,451.1,227.5,449.3,229.1z"/>
			<polygon class="st1" points="548,216.5 548,227.4 567.2,227.4 567.2,241.2 548,241.2 548,252.6 568.2,252.6 568.2,266.4 
				531,266.4 531,202.7 568.2,202.7 568.2,216.5 			"/>
			<polygon class="st1" points="411.3,216.5 390.8,216.5 390.8,227.4 409.5,227.4 409.5,241.2 390.8,241.2 390.8,266.4 373.8,266.4 
				373.8,202.7 411.3,202.7 			"/>
			<path class="st1" d="M497.2,266.4L497.2,266.4z"/>
			<polygon class="st1" points="500,216.5 500,227.4 519.1,227.4 519.1,241.2 500,241.2 500,252.6 520.2,252.6 520.2,266.4 
				483,266.4 483,202.7 520.2,202.7 520.2,216.5 			"/>
			<path class="st1" d="M531.5,266.4L531.5,266.4z"/>
		</g>
		<g>
			<path class="st1" d="M715.4,228.4c-0.3,0.5-0.7,1-1.1,1.5v-1.5H715.4z"/>
			<path class="st1" d="M714.4,228.4v1.5c0.4-0.5,0.7-1,1.1-1.5H714.4z M781.8,234c-4.1-4.8-9.7-7.1-16.7-7.1
				c-7.6,0-13.4,2.4-17.5,7.1c-3.4,3.9-5.1,8.4-5.1,13.5c0,5.6,1.7,10.4,5,14.3c4.1,4.7,9.8,7.1,17.1,7.1c7.3,0,13-2.4,17.1-7.1
				c3.4-3.9,5-8.5,5-14C786.9,242.5,785.2,237.9,781.8,234z M770.8,254.4c-1.7,1.8-3.7,2.6-6.1,2.6c-2.7,0-4.9-1.1-6.6-3.2
				c-1.4-1.7-2.1-3.7-2.1-5.9c0-2.2,0.7-4.1,2.1-5.9c1.7-2.1,3.9-3.2,6.6-3.2c2.4,0,4.4,0.9,6,2.6c1.7,1.8,2.5,3.9,2.5,6.4
				C773.3,250.5,772.5,252.6,770.8,254.4z"/>
			<path class="st1" d="M739.2,228.4v11.3h-7.4v27.8h-13.1v-27.8h-4.3v-9.8c0.4-0.5,0.7-1,1.1-1.5h3.2v-11.7h13.1v11.7H739.2z"/>
			<path class="st2" d="M707.3,237.7c-0.7-1.3-1.6-2.5-2.6-3.7c-1.6-1.8-3.4-3.3-5.4-4.4h0c-3.2-1.8-7-2.7-11.2-2.7
				c-7.6,0-13.4,2.4-17.5,7.1c-1.8,2.1-3.1,4.4-4,6.8c-0.2,0.5-0.3,1.1-0.5,1.6c-0.1,0.3-0.1,0.5-0.2,0.8c-0.1,0.5-0.2,1-0.3,1.5
				c0,0.3-0.1,0.6-0.1,0.9c0,0,0,0.1,0,0.1c0,0.6-0.1,1.2-0.1,1.8c0,5.6,1.7,10.4,5,14.3c1.1,1.3,2.3,2.3,3.6,3.3
				c0.3,0.2,0.6,0.4,0.9,0.6c1,0.6,2.1,1.2,3.2,1.6c0.1,0.1,0.3,0.1,0.4,0.2c0.3,0.1,0.5,0.2,0.8,0.3c0.5,0.2,0.9,0.3,1.4,0.4
				c0,0,0.1,0,0.1,0c0.5,0.1,1,0.2,1.5,0.3c0.7,0.1,1.4,0.2,2.1,0.3h0c1,0.1,2.1,0.2,3.2,0.2c7.3,0,13-2.4,17.1-7.1
				c3.4-3.9,5-8.5,5-14C709.8,244.1,708.9,240.8,707.3,237.7z M693.7,254.4c-1.7,1.8-3.7,2.6-6.1,2.6c-2.7,0-4.9-1.1-6.6-3.2
				c-1.4-1.7-2-3.7-2-5.9c0-2.2,0.7-4.1,2-5.9c1.7-2.1,3.9-3.2,6.6-3.2c2.4,0,4.4,0.9,6,2.6c1.7,1.8,2.5,3.9,2.5,6.4
				C696.2,250.5,695.4,252.6,693.7,254.4z"/>
			<path class="st1" d="M658.6,242v25.4h-13.1v-19.3c0-3.4-0.3-5.6-1-6.9c-0.5-0.8-1-1.5-1.7-1.9c-0.8-0.5-1.7-0.8-2.7-0.8
				c-2.2,0-3.8,1-5,3c-0.8,1.4-1.2,3.6-1.2,6.6v19.3h-13.1v-19.3c0-3.3-0.3-5.5-0.8-6.5c-1.1-2-2.7-3-4.9-3c-2,0-3.6,0.9-4.8,2.6
				c-0.4,0.6-0.7,1.5-0.9,2.5c-0.2,1.1-0.3,2.6-0.3,4.4v19.3h-13.1v-39.1h13.1v4.8c1.5-1.6,2.9-2.7,4.2-3.5c2.3-1.3,4.9-2,7.7-2
				c3.6,0,6.7,1,9.1,2.9c1.2,1,2.4,2.5,3.5,4.3c1-1.7,2.1-3.1,3.4-4.1c1.5-1.2,3.2-2.1,5-2.6c0,0,0.8-0.2,2-0.4
				c0.9-0.1,2-0.2,3.1-0.1c2.3,0.2,4.4,0.8,6.3,2.1c2.3,1.5,3.8,3.6,4.5,6.3C658.3,237.7,658.6,239.7,658.6,242z"/>
		</g>
	</g>
</g>
</svg>
