<?xml version="1.0" encoding="utf-8"?>
<!-- Generator: Adobe Illustrator 25.2.3, SVG Export Plug-In . SVG Version: 6.00 Build 0)  -->
<svg version="1.1" id="Vrstva_1" xmlns="http://www.w3.org/2000/svg" xmlns:xlink="http://www.w3.org/1999/xlink" x="0px" y="0px"
	 viewBox="0 0 170.2 223.5" style="enable-background:new 0 0 170.2 223.5;" xml:space="preserve">
<style type="text/css">
	.st0{fill:#FFFFFF;}
</style>
<path class="st0" d="M160.8,185.3C160.8,185.3,160.8,185.3,160.8,185.3c-0.1-0.2-0.1-0.3-0.2-0.4c0,0,0,0,0,0c0,0,0,0,0,0
	c0,0,0,0,0,0c-3.8-11.3-6.2-16.9-7.5-19.5c-0.3-0.6-0.5-1-0.7-1.3c0,0,0,0,0,0c-0.5-0.9-0.7-1-0.7-1c-0.2-0.2-0.4-0.5-0.6-0.7
	c-0.1-0.2-0.3-0.3-0.4-0.5c-0.9-1-1.6-1.8-2.2-2.4c-0.1-0.1-0.2-0.2-0.3-0.3c-1.6-1.7-2.6-2.5-4.1-3.6c0,0,0,0,0,0
	c-1.3-1-3-2.1-5.7-4.1c0,0,0,0,0,0c-6.9-5-11-4.3-11.7-4.2c-0.1,0-0.1,0-0.1,0c-4.1,0.1-6-0.1-7.6-1.3v0c-0.2-0.2-0.4-0.3-0.6-0.5
	c0,0,0,0,0,0c-0.5-0.4-0.9-1-1.5-1.6c0,0,0,0,0,0c-0.4-0.4-0.7-0.9-1.1-1.5c0,0,0,0,0,0c0-0.1-0.1-0.1-0.1-0.2c0,0,0-0.1-0.1-0.1
	c-0.1-0.2-0.3-0.4-0.4-0.6c0,0,0,0,0,0c-0.8-1.1-1.8-2.1-2.7-3c0,0,0,0,0,0c-3.2-2.9-6.5-4.2-6.7-4.3c0.6,0.1,25.6,3.8,25.9,0.7
	c0-0.1,0-0.3-0.1-0.4c0,0-0.6-0.4-3.6-1.4c-0.2,0-0.4-0.1-0.6-0.1l0-0.1c0,0-0.1,0-0.1,0l0,0c-2.7-0.8-7.1-2-14.2-3.6c0,0,0,0,0,0v0
	c0-0.2,0-0.3,0-0.4c0-0.4,0-0.9-0.1-1.7c-0.4-2.9-1.9-8.4-8.1-12.3c0,0-7.2-3.4-15.2-3.7c0,0-4.6-1.1-4.5-2.9c1.6-3.7,4.7-5,6.9-5.5
	c0,0,0,0,0,0c0.9-0.2,1.7-0.2,2.1-0.2c0.3,0,0.5,0,0.5,0L95,103c0,0.1,0.2,0.1,0.3,0.1l0.3-0.2c0.1,0.1,0.2,0.3,0.3,0.4l-0.3,0.2
	c-0.1,0.1-0.1,0.2-0.1,0.3l0,0h0l0.4,0.6c0.1,0.1,0.2,0.1,0.3,0.1l0.1-0.1l0.1-0.1c0.1,0.1,0.2,0.3,0.3,0.4l-0.1,0.1l-0.1,0.1
	c-0.1,0.1-0.1,0.2,0,0.3l0.4,0.6c0,0,0,0,0,0c0.1,0,0.2,0,0.2,0l0.3-0.2c0.1,0.1,0.2,0.2,0.3,0.4l-0.2,0.2c-0.1,0.1-0.1,0.2,0,0.3
	l0.2,0.2l0.3,0.3c0,0,0.1,0,0.1,0.1c0.1,0,0.1,0,0.2,0l0.2-0.2c0.1,0.1,0.2,0.2,0.3,0.3c0,0,0.1,0.1,0.1,0.1l-0.2,0.2
	c-0.1,0.1-0.1,0.2,0,0.3l0.5,0.5c0.1,0.1,0.2,0.1,0.3,0l0.2-0.2c0.2,0.2,0.3,0.3,0.5,0.4l-0.2,0.2c-0.1,0.1,0,0.2,0,0.3l0.6,0.4
	c0.1,0.1,0.2,0.1,0.3,0l0.2-0.2c0.1,0.1,0.3,0.2,0.4,0.3l-0.2,0.3c-0.1,0.1,0,0.2,0.1,0.3l0.6,0.4c0.1,0.1,0.2,0,0.3-0.1l0.2-0.3
	c0.2,0.1,0.3,0.2,0.5,0.3l-0.2,0.3c0,0.1,0,0.2,0.1,0.3l0.6,0.3c0.1,0.1,0.2,0,0.3-0.1l0.1-0.3c0.2,0.1,0.4,0.2,0.6,0.3l-0.1,0.3
	c0,0.1,0,0.2,0.1,0.3l0.7,0.3c0.1,0,0.2,0,0.3-0.1l0.1-0.3c0.2,0.1,0.3,0.1,0.5,0.2l-0.1,0.3c0,0.1,0,0.2,0.1,0.2l0.1,0l0.4,0.1
	l0.2,0.1c0.1,0,0.2,0,0.2-0.1l0.1-0.3c0.2,0.1,0.4,0.1,0.6,0.2l-0.1,0.3c0,0.1,0,0.2,0.1,0.2l0.3,0.1l0.4,0.1c0.1,0,0.2,0,0.2-0.1v0
	c0,0,0,0,0-0.1l0.1-0.3c0.2,0,0.3,0.1,0.5,0.1l0,0.3c0,0.1,0.1,0.2,0.2,0.2l0.6,0.1l0.1,0c0.1,0,0.2,0,0.2-0.1c0,0,0,0,0-0.1
	l0.1-0.3c0.2,0,0.3,0,0.5,0.1l0,0.3c0,0.1,0.1,0.2,0.2,0.2l0.7,0.1c0.1,0,0.2-0.1,0.2-0.2l0-0.3c0.2,0,0.3,0,0.5,0v0.3
	c0,0.1,0.1,0.2,0.2,0.2h0.7c0.1,0,0.2-0.1,0.2-0.2v-0.3c0.2,0,0.4,0,0.6,0l0,0.1l0,0.2c0,0.1,0.1,0.2,0.2,0.2l0.6-0.1l0.1,0
	c0.1,0,0.2-0.1,0.2-0.2l0-0.3c0.2,0,0.4,0,0.6-0.1l0.1,0.3c0,0,0,0.1,0,0.1c0,0.1,0.1,0.1,0.2,0.1l0.7-0.1c0.1,0,0.2-0.1,0.2-0.2
	l0-0.1l0-0.3c0.2,0,0.3-0.1,0.5-0.1l0.1,0.3c0,0.1,0.1,0.2,0.2,0.1l0.2,0l0.5-0.1c0.1,0,0.2-0.1,0.1-0.2l-0.1-0.3
	c0.1,0,0.3-0.1,0.4-0.1c0,0,0.1,0,0.1,0l0.1,0.3h0l0,0c0,0.1,0.1,0.1,0.2,0.1h0c0,0,0.1,0,0.1,0l0.7-0.2c0.1,0,0.2-0.1,0.1-0.2
	l-0.1-0.3c0.2-0.1,0.4-0.1,0.5-0.2l0,0l0.1,0.2c0,0.1,0.2,0.1,0.3,0.1l0.5-0.2l0.2-0.1c0.1,0,0.1-0.2,0.1-0.3l-0.1-0.3
	c0.1-0.1,0.3-0.1,0.4-0.2l0.2,0.3c0,0,0,0,0,0.1c0.1,0.1,0.1,0.1,0.2,0l0.6-0.3c0.1-0.1,0.1-0.2,0.1-0.3l-0.2-0.3
	c0.1-0.1,0.3-0.2,0.4-0.3l0.2,0.3c0.1,0.1,0.2,0.1,0.3,0.1l0.2-0.2l0.4-0.2c0.1-0.1,0.1-0.2,0.1-0.3l-0.2-0.3
	c0.1-0.1,0.3-0.2,0.4-0.3h0v0h0l0.2,0.2c0.1,0.1,0.2,0.1,0.3,0l0.6-0.4c0.1-0.1,0.1-0.2,0-0.3l-0.2-0.2c0.1-0.1,0.2-0.2,0.4-0.3
	l0.2,0.2c0.1,0.1,0.2,0.1,0.3,0l0.5-0.5c0.1-0.1,0.1-0.2,0-0.3l-0.1-0.1l-0.1-0.2c0.1-0.1,0.2-0.2,0.3-0.3l0,0c0,0,0.1-0.1,0.1-0.1
	l0.2,0.2c0.1,0.1,0.2,0.1,0.3,0l0.5-0.5c0.1-0.1,0.1-0.2,0-0.3l-0.2-0.2l0,0c0.2-0.2,0.3-0.3,0.4-0.5l0,0l0.2,0.2
	c0.1,0.1,0.2,0.1,0.3,0l0.4-0.6c0.1-0.1,0-0.2,0-0.3l-0.3-0.2c0.1-0.1,0.2-0.3,0.3-0.4l0.3,0.2c0.1,0.1,0.2,0,0.3-0.1l0.4-0.6
	c0.1-0.1,0-0.2-0.1-0.3l-0.3-0.2c0.1-0.2,0.2-0.3,0.3-0.5l0.3,0.2c0.1,0.1,0.2,0,0.3-0.1l0.3-0.6c0.1-0.1,0-0.2-0.1-0.3l-0.3-0.1
	c0.1-0.2,0.2-0.4,0.3-0.6l0.3,0.1c0.1,0,0.2,0,0.3-0.1l0.3-0.7c0-0.1,0-0.2-0.1-0.3l-0.3-0.1c0.1-0.2,0.1-0.3,0.2-0.5l0.3,0.1
	c0.1,0,0.2,0,0.2-0.1l0.2-0.7c0-0.1,0-0.2-0.1-0.2l-0.3-0.1c0.1-0.2,0.1-0.4,0.2-0.6l0.3,0.1c0.1,0,0.2,0,0.2-0.1l0.2-0.7
	c0-0.1,0-0.2-0.1-0.2l-0.3-0.1c0-0.2,0.1-0.3,0.1-0.5l0.3,0.1c0.1,0,0.2-0.1,0.2-0.2l0.1-0.7c0-0.1-0.1-0.2-0.2-0.2l-0.3-0.1
	c0-0.2,0-0.3,0.1-0.5l0.3,0c0.1,0,0.2-0.1,0.2-0.2l0.1-0.7c0-0.1-0.1-0.2-0.2-0.2l-0.3,0c0-0.2,0-0.3,0-0.5h0.3
	c0.1,0,0.2-0.1,0.2-0.2v-0.7c0-0.1-0.1-0.2-0.2-0.2h-0.3c0-0.2,0-0.4,0-0.6l0.3,0c0.1,0,0.2-0.1,0.2-0.2l-0.1-0.7
	c0-0.1-0.1-0.2-0.2-0.2l-0.3,0c0-0.2,0-0.4-0.1-0.6l0.3-0.1c0.1,0,0.2-0.1,0.2-0.2l-0.1-0.7c0-0.1-0.1-0.2-0.2-0.2l-0.3,0.1
	c0-0.2-0.1-0.3-0.1-0.5l0.3-0.1c0.1,0,0.2-0.1,0.1-0.2l-0.2-0.7c0-0.1-0.1-0.2-0.2-0.1l-0.3,0.1c0-0.2-0.1-0.3-0.1-0.5l0.3-0.1
	c0.1,0,0.2-0.1,0.1-0.2l-0.2-0.7c0-0.1-0.2-0.2-0.3-0.1l-0.3,0.1c-0.1-0.2-0.1-0.4-0.2-0.5l0.3-0.1c0.1,0,0.1-0.2,0.1-0.3l-0.3-0.6
	c0-0.1-0.2-0.1-0.3-0.1l-0.3,0.1c-0.1-0.1-0.1-0.3-0.2-0.4l0.3-0.2c0.1,0,0.1-0.2,0.1-0.3l-0.3-0.6c-0.1-0.1-0.2-0.1-0.3-0.1
	l-0.3,0.1c-0.1-0.1-0.2-0.3-0.3-0.4l0.3-0.2c0.1-0.1,0.1-0.2,0.1-0.3l-0.4-0.6c-0.1-0.1-0.2-0.1-0.3-0.1l-0.3,0.2
	c-0.1-0.1-0.2-0.3-0.3-0.4L129,81c0.1-0.1,0.1-0.2,0-0.3l-0.4-0.6c-0.1-0.1-0.2-0.1-0.3,0l-0.3,0.2c-0.1-0.1-0.2-0.2-0.3-0.4
	l0.2-0.2c0.1-0.1,0.1-0.2,0-0.3l-0.5-0.5c-0.1-0.1-0.2-0.1-0.3,0l-0.2,0.2c-0.1-0.1-0.2-0.2-0.3-0.3c0,0-0.1-0.1-0.1-0.1l0.2-0.2
	c0.1-0.1,0.1-0.2,0-0.3l-0.5-0.5c-0.1-0.1-0.2-0.1-0.3,0l-0.1,0.1l-0.2,0.2c-0.2-0.1-0.3-0.3-0.5-0.4l0.1-0.1l0.1-0.1
	c0.1-0.1,0.1-0.2,0-0.3l-0.6-0.4c-0.1-0.1-0.2,0-0.3,0l-0.2,0.2c0,0,0,0-0.1,0c-0.1-0.1-0.2-0.2-0.3-0.2l0.2-0.3c0,0,0-0.1,0-0.1
	c0-0.1,0-0.1-0.1-0.2l-0.6-0.4c-0.1-0.1-0.2,0-0.3,0.1l-0.2,0.3c-0.2-0.1-0.3-0.2-0.5-0.3c0,0,0,0,0,0l0-0.1l0.1-0.2
	c0.1-0.1,0-0.2-0.1-0.3l-0.5-0.3l-0.1-0.1c0,0,0,0,0,0c-0.1,0-0.2,0-0.3,0.1l-0.1,0.2l0,0.1c0,0,0,0,0,0c-0.1,0-0.2-0.1-0.2-0.1
	c0,0,0,0,0,0c-0.1,0-0.2-0.1-0.3-0.1l0.1-0.1l0.1-0.2c0-0.1,0-0.2-0.1-0.3l-0.6-0.3l0,0l-0.1,0c-0.1,0-0.2,0-0.3,0.1l-0.1,0.3
	c-0.2-0.1-0.3-0.1-0.5-0.2l0-0.1l0.1-0.2c0-0.1,0-0.2-0.1-0.2l-0.5-0.2l-0.2-0.1c-0.1,0-0.2,0-0.2,0.1l-0.1,0.3
	c-0.2-0.1-0.4-0.1-0.6-0.2l0.1-0.3c0-0.1,0-0.1-0.1-0.2c0,0-0.1,0-0.1,0l-0.7-0.2c0,0,0,0-0.1,0c-0.1,0-0.1,0.1-0.2,0.1l-0.1,0.3
	c-0.2,0-0.3-0.1-0.5-0.1l0.1-0.3c0-0.1-0.1-0.2-0.2-0.2l-0.4-0.1l-0.3,0c-0.1,0-0.2,0.1-0.2,0.2l0,0l0,0.3c-0.2,0-0.3,0-0.5-0.1
	l0-0.3c0-0.1-0.1-0.2-0.2-0.2l-0.7-0.1c0,0-0.1,0-0.1,0c0,0,0,0,0,0c0,0-0.1,0.1-0.1,0.1l0,0.3c-0.2,0-0.3,0-0.5,0v-0.3
	c0-0.1-0.1-0.2-0.2-0.2h-0.7c-0.1,0-0.2,0.1-0.2,0.2v0.3c-0.2,0-0.4,0-0.6,0l0-0.3c0-0.1-0.1-0.2-0.2-0.2l-0.7,0.1
	c-0.1,0-0.2,0.1-0.2,0.2l0,0.3c-0.2,0-0.4,0-0.6,0.1l-0.1-0.3c0-0.1-0.1-0.2-0.2-0.2l-0.7,0.1c-0.1,0-0.2,0.1-0.2,0.2l0.1,0.3
	c-0.2,0-0.3,0.1-0.5,0.1l-0.1-0.3c0-0.1-0.1-0.2-0.2-0.1l-0.7,0.2c-0.1,0-0.2,0.1-0.1,0.2l0.1,0.3c-0.2,0-0.3,0.1-0.5,0.2l-0.1-0.3
	c0-0.1-0.1-0.2-0.2-0.1l-0.7,0.2c-0.1,0-0.2,0.1-0.1,0.2l0.1,0.3c-0.2,0.1-0.4,0.1-0.5,0.2l-0.1-0.3c0-0.1-0.2-0.1-0.3-0.1l-0.7,0.3
	c-0.1,0-0.1,0.2-0.1,0.3l0.1,0.3c-0.1,0.1-0.3,0.1-0.4,0.2l-0.1-0.3c-0.1-0.1-0.2-0.1-0.3-0.1l0,0l-7.1-10.7c0,0,0,0-0.1-0.1L96,64
	c0,0,0,0,0,0L96,63.9c0-0.1-0.1-0.1-0.1-0.2c-0.1-0.1-0.1-0.2-0.2-0.3l-0.3-0.4l-0.2-0.3c0,0-0.1-0.1-0.1-0.1l-0.8-1.2l0,0
	c-3.3-5.2-9.8-16.1-6.5-17.1c0,0,0,0,0,0c0,0,0,0,0,0l0.4,0.2c0.1,0,0.2,0,0.3-0.1c0,0,0,0,0,0c0.9-0.8,0.2-1.7,0-1.8
	c0,0-3-1.6-3.8-2.2c-1.6-1.2-2-2.1-2.3-2.6c0,0,0-0.1-0.1-0.1c-0.3-0.4-1.1-0.2-1.5,0c-0.1,0-0.2,0.1-0.2,0.1
	c-0.2,0.1-0.4,0.1-0.5,0.2c-0.6,0.2-1,0.7-1.2,1c-0.1,0.1-0.2,0.2-0.3,0.3c-0.1,0-0.1,0-0.2,0c-1.1,0.1-3.4,0-5.1-0.2c0,0,0,0-0.1,0
	c-0.6-0.1-1.2-0.1-1.5-0.1c-0.1,0-0.2,0-0.3-0.1c-0.1-0.1-0.3-0.3-0.7-0.6c-2-1.6-7.5-5.6-7.9-5.9c0,0,0,0,0,0c0,0,0,0,0,0
	c0,0,0-0.1-0.1-0.1c0-0.1,0-0.1,0-0.1l-0.3-2.9c0-0.1-0.1-0.3-0.1-0.4c0,0,0,0,0-0.1c0,0,0-0.1-0.1-0.1c-0.2-0.3-0.1-0.6,0-0.8
	c0,0,0,0,0,0c0.1-0.2,0.3-0.4,0.5-0.5c0,0,0.1,0,0.1,0c0.2,0,0.3-0.1,0.5-0.1c3-0.3,7.4,3.2,8,3.7c0.1,0,0.1,0,0.2,0
	c1.6-0.9,2.3-2.2,2.4-3.6c0,0,0-0.1,0-0.1c0.1-0.6,0.1-1.3,0-1.9c-0.2-1.4-0.7-2.7-1-3.3c0-0.1-0.1-0.1-0.1-0.2
	c0-0.1-0.1-0.1-0.1-0.1c0-0.1-0.1-0.1-0.2-0.1c-0.3,0.2-0.5,0.3-0.8,0.4c-1.3,0.5-2.1,0.1-2.6-0.6c0,0,0,0,0,0c0,0,0-0.1-0.1-0.1
	c0,0,0,0,0,0c-0.1-0.2-0.2-0.5-0.3-0.8c-0.5-1.5-0.2-3.6,0.3-4.2c1.5,0,2.4-0.5,3-0.9c0,0,0,0,0,0c0.6-0.5,0.8-1.1,0.8-1.1
	c0.7,0.3,1.3,0.5,1.9,0.6c0,0,0.1,0,0.1,0c1.2,0.2,2.2,0,3.1-0.3c1.1-0.4,1.9-1,2.2-1.2c0.6-0.3,0-0.6,0-0.6L65.2,5.3
	c-1.7-0.9-3.6-1.4-5.7-1.4c-5.3,0.2-9.7,4.4-10.1,9.8c-0.1,1.8,0.2,3.5,0.8,5v0c0.6,1.3,1.4,2.6,2.5,3.5c0,0,0,0,0,0l0.8,0.7
	c0.1,0,0.1,0.1,0.1,0.1c0,0,0,0,0,0c0.5,0.3,0.8,0.4,0.8,0.4c0,0,0.1,0.1,0.1,0.1c0,0.1-0.1,0.2-0.2,0.4c0,0,0,0,0,0c0,0,0,0,0,0
	c-1.5-0.2-2.6,0.7-3.4,1.9c-0.3,0.4-0.6,0.9-0.8,1.4c-0.6,1.2-1,2.5-1.2,3.4c-0.2,0.8-0.3,1.4-0.3,1.4s0,0,0,0c0,0.2-0.9,2.8-2,6.1
	c-0.4,1.2-0.9,2.4-1.4,3.7c0,0,0,0,0,0c0,0,0,0.1,0,0.1c-0.1,0.2-0.2,0.5-0.3,0.7v0c-0.7,1.8-1.4,3.5-2.1,5
	c-0.2,0.4-0.4,0.8-0.5,1.2c-1.2,3.4-0.6,6.3,0,7.9c0.1,0.2,0.2,0.4,0.3,0.6c0.1,0.1,0.1,0.2,0.2,0.3c0,0,0,0,0,0
	c0.1,0.1,0.1,0.2,0.2,0.3c-1.9-0.3-12.1-1.6-16.7-1.7l-0.7,0c0,0,0,0-0.7,0c0,0,0,0-0.1,0c-0.1,0-0.2,0-0.3,0.1
	c-0.1,0-0.1,0.1-0.1,0.1c0,0,0,0-0.1,0.1c0,0,0,0.1-0.1,0.1c0,0,0,0,0,0c0,0,0,0.1,0,0.2c0,0,0,0,0,0c0,0.2,0.1,0.5,0.4,0.7
	c0,0,0,0,0,0c0.3,0.3,3.7,1.5,7.6,2.8c5,1.7,11,3.7,12.6,4.2c0.3,0.1,0.4,0.1,0.4,0.1c0,0,0,0,0,0c0.1,0.1,0.2,0.2,0.3,0.3l0,0
	c0.7,0.7,1.5,1.5,2.4,2.2c0.1,0.1,0.3,0.2,0.4,0.3c1.5,1.2,3,2.2,4,2.9c0,0,0,0,0,0c0.1,0.1,0.2,0.1,0.3,0.2
	c0.3,0.2,0.7,0.5,0.9,0.6c0,0,0,0,0,0c0,0,0,0,0,0.1l-0.6,0.8l-2.4,3c-0.6,0.7-1.3,1.4-1.9,2.2l0,0c-1.6,1.9-3.1,3.8-3.8,4.8
	c-0.3,0.4-0.4,0.7-0.4,0.9c0.2,1.1,1,2.3,1.2,2.6c0,0.1,0.1,0.1,0.1,0.1l-0.2,0.1l-0.7,0.3v0l-0.3-0.6c-0.1-0.1-0.2-0.1-0.3-0.1
	l-0.3,0.1c-0.1-0.1-0.2-0.3-0.3-0.4l0.3-0.2c0.1-0.1,0.1-0.2,0.1-0.3l-0.4-0.6c0,0,0,0-0.1-0.1c-0.1,0-0.1,0-0.2,0l-0.3,0.2
	c-0.1-0.1-0.2-0.3-0.3-0.4l0.3-0.2c0.1-0.1,0.1-0.2,0-0.3l-0.1-0.2l-0.3-0.4c-0.1-0.1-0.2-0.1-0.3,0L42,82.9l-0.1,0.1
	c-0.1-0.1-0.2-0.2-0.3-0.4l0.2-0.2c0.1-0.1,0.1-0.2,0-0.3l-0.5-0.5l0,0c-0.1-0.1-0.2-0.1-0.3,0L41,81.7l-0.1,0.1
	c-0.1-0.1-0.2-0.2-0.3-0.3c0,0-0.1-0.1-0.1-0.1l0.1-0.1l0.1-0.1c0.1-0.1,0.1-0.2,0-0.3l-0.1-0.1l-0.4-0.4c-0.1-0.1-0.2-0.1-0.3,0
	l-0.2,0.2c-0.2-0.2-0.3-0.3-0.5-0.4l0.2-0.2c0,0,0,0,0,0c0-0.1,0-0.2,0-0.3L39,79.4l-0.2-0.2c-0.1-0.1-0.2,0-0.3,0l-0.2,0.2
	c-0.1-0.1-0.3-0.2-0.4-0.3l0.2-0.3c0-0.1,0-0.1,0-0.2c0,0,0-0.1-0.1-0.1l-0.6-0.4c0,0,0,0,0,0c-0.1-0.1-0.2,0-0.3,0.1L37,78.7
	c-0.2-0.1-0.3-0.2-0.5-0.3l0.1-0.3c0.1-0.1,0-0.2-0.1-0.3l-0.3-0.2L36,77.5c0,0,0,0,0,0c-0.1,0-0.2,0-0.2,0.1l-0.2,0.3
	c-0.2-0.1-0.4-0.2-0.6-0.3l0.1-0.3c0-0.1,0-0.2-0.1-0.3l-0.7-0.3c-0.1,0-0.2,0-0.3,0.1L34,77.1c-0.2-0.1-0.3-0.1-0.5-0.2l0.1-0.3
	c0-0.1,0-0.2-0.1-0.2l-0.7-0.2c-0.1,0-0.2,0-0.2,0.1l-0.1,0.3c-0.2-0.1-0.4-0.1-0.6-0.2l0.1-0.3c0-0.1,0-0.2-0.1-0.2l-0.7-0.2
	c-0.1,0-0.2,0-0.2,0.1l-0.1,0.3c-0.2,0-0.3-0.1-0.5-0.1l0.1-0.3c0-0.1-0.1-0.2-0.2-0.2l-0.7-0.1c-0.1,0-0.2,0.1-0.2,0.2l-0.1,0.3
	c-0.2,0-0.3,0-0.5-0.1l0-0.3c0-0.1-0.1-0.2-0.2-0.2l-0.7-0.1c-0.1,0-0.2,0.1-0.2,0.2l0,0.3c-0.2,0-0.3,0-0.5,0v-0.3
	c0-0.1-0.1-0.2-0.2-0.2h-0.7c-0.1,0-0.2,0.1-0.2,0.2v0.3c-0.2,0-0.4,0-0.6,0l0-0.3c0-0.1-0.1-0.2-0.2-0.2l-0.7,0.1
	c-0.1,0-0.2,0.1-0.2,0.2l0,0.3c-0.2,0-0.4,0-0.6,0.1l-0.1-0.3c0-0.1-0.1-0.2-0.2-0.2l-0.7,0.1c-0.1,0-0.2,0.1-0.2,0.2l0.1,0.3
	c-0.2,0-0.3,0.1-0.5,0.1L22,75.9c0-0.1-0.1-0.2-0.2-0.1l-0.7,0.2c-0.1,0-0.2,0.1-0.1,0.2l0.1,0.3c-0.2,0-0.3,0.1-0.5,0.1l-0.1-0.3
	c0-0.1-0.1-0.2-0.2-0.1l-0.7,0.2c-0.1,0-0.2,0.1-0.1,0.2l0.1,0.3c-0.2,0.1-0.4,0.1-0.5,0.2l-0.1-0.3c0-0.1-0.2-0.1-0.3-0.1L18.2,77
	l-0.3,0.1c-0.1,0-0.1,0.1-0.1,0.2c0,0,0,0.1,0,0.1l0.1,0.3c-0.1,0.1-0.3,0.1-0.4,0.2l-0.1-0.3c-0.1-0.1-0.2-0.1-0.3-0.1l-0.3,0.2
	l-0.3,0.2c-0.1,0-0.1,0.1-0.1,0.2c0,0,0,0,0,0l0.2,0.3c-0.3,0.2-0.1,0.1-0.4,0.3L16,78.4c-0.1-0.1-0.2-0.1-0.3-0.1l-0.6,0.4
	c-0.1,0-0.1,0.1-0.1,0.2c0,0,0,0,0,0c0,0,0,0,0,0l0.2,0.3c-0.1,0.1-0.3,0.2-0.4,0.3l-0.2-0.2c-0.1-0.1-0.2-0.1-0.3,0l-0.1,0.1
	l-0.5,0.4c-0.1,0.1-0.1,0.2,0,0.3l0.2,0.2c-0.1,0.1-0.2,0.2-0.4,0.3l-0.2-0.2l-0.1-0.1c-0.1-0.1-0.2-0.1-0.3,0l-0.5,0.5l0,0
	c-0.1,0.1-0.1,0.2,0,0.3l0.2,0.2c-0.1,0.1-0.2,0.2-0.3,0.3c0,0-0.1,0.1-0.1,0.1l-0.2-0.2c-0.1-0.1-0.2-0.1-0.3,0l0,0l-0.4,0.5
	c-0.1,0.1-0.1,0.2,0,0.3l0.2,0.1l0.1,0.1c-0.2,0.2-0.3,0.3-0.4,0.5L11,82.7c-0.1-0.1-0.2,0-0.3,0l-0.2,0.3l-0.2,0.2
	c-0.1,0.1-0.1,0.2,0,0.3l0.2,0.2c-0.1,0.1-0.2,0.2-0.2,0.3c0,0,0,0,0,0.1l-0.1,0L10,84c-0.1-0.1-0.2,0-0.3,0.1l-0.1,0.2l0,0
	l-0.3,0.4c-0.1,0.1,0,0.2,0.1,0.3l0.3,0.2c0,0.1-0.1,0.1-0.1,0.2c-0.1,0.1-0.1,0.2-0.2,0.3l-0.3-0.1c-0.1,0-0.2,0-0.3,0.1l-0.3,0.6
	c0,0.1,0,0.2,0.1,0.2c0,0,0,0,0,0l0.3,0.1c-0.1,0.2-0.2,0.3-0.3,0.5c0,0,0,0,0,0L8.3,87c-0.1,0-0.2,0-0.3,0.1l-0.3,0.7
	c0,0.1,0,0.2,0.1,0.3L8,88.1l0.1,0.1C8,88.3,8,88.5,7.9,88.6l-0.3-0.1c0,0,0,0,0,0c-0.1,0-0.2,0-0.2,0.1l-0.2,0.7
	c0,0.1,0,0.2,0.1,0.2l0.3,0.1c0,0.1,0,0.2-0.1,0.2c0,0.1-0.1,0.2-0.1,0.3l-0.2-0.1l-0.1,0c-0.1,0-0.2,0-0.2,0.1L6.7,91
	c0,0.1,0,0.2,0.1,0.2l0.3,0.1c0,0.2-0.1,0.3-0.1,0.5l-0.3-0.1c-0.1,0-0.2,0.1-0.2,0.2l-0.1,0.7c0,0.1,0.1,0.2,0.2,0.2l0.1,0l0.2,0
	c0,0.1,0,0.2,0,0.3c0,0.1,0,0.1,0,0.2l-0.3,0c-0.1,0-0.2,0.1-0.2,0.2l-0.1,0.7c0,0.1,0.1,0.2,0.2,0.2l0.1,0l0.3,0c0,0.2,0,0.3,0,0.5
	H6.4c-0.1,0-0.2,0.1-0.2,0.2v0.7c0,0.1,0.1,0.2,0.2,0.2h0.3c0,0.1,0,0.3,0,0.4c0,0.1,0,0.2,0,0.3l-0.1,0l-0.2,0
	c-0.1,0-0.2,0.1-0.2,0.2l0.1,0.7c0,0.1,0.1,0.2,0.2,0.2l0.3,0c0,0.2,0,0.4,0.1,0.6l-0.3,0.1c-0.1,0-0.2,0.1-0.2,0.2l0.1,0.7
	c0,0.1,0.1,0.2,0.2,0.2l0.3,0l0.1,0c0,0,0,0.1,0,0.1c0,0.1,0,0.2,0.1,0.3l-0.3,0.1c-0.1,0-0.2,0.1-0.1,0.2l0.2,0.7
	c0,0.1,0.1,0.2,0.2,0.1l0.2,0l0.1,0c0,0.2,0.1,0.3,0.1,0.5l-0.1,0l-0.2,0.1c-0.1,0-0.2,0.2-0.1,0.3l0.2,0.7c0,0.1,0.1,0.2,0.2,0.1
	l0.3-0.1c0,0.1,0.1,0.2,0.1,0.3c0,0.1,0.1,0.2,0.1,0.3L8,103.2l-0.1,0.1c-0.1,0-0.1,0.2-0.1,0.3l0.3,0.7c0,0.1,0.2,0.1,0.3,0.1
	l0.3-0.1c0.1,0.1,0.1,0.3,0.2,0.4l-0.3,0.2c-0.1,0-0.1,0.2-0.1,0.3l0.3,0.6c0,0.1,0.2,0.1,0.3,0.1l0.1,0l0.2-0.1
	c0,0.1,0.1,0.1,0.1,0.2l0.2,0.2l-0.3,0.2c-0.1,0.1-0.1,0.2-0.1,0.3l0.4,0.6c0.1,0.1,0.2,0.1,0.3,0.1l0,0l0.2-0.1
	c0.1,0.1,0.2,0.3,0.3,0.4l-0.2,0.2l0,0c-0.1,0.1-0.1,0.2,0,0.3l0.4,0.6c0.1,0.1,0.2,0.1,0.3,0l0.3-0.2c0,0,0,0.1,0.1,0.1
	c0.1,0.1,0.2,0.2,0.2,0.3l-0.2,0.2c0,0,0,0,0,0c-0.1,0.1-0.1,0.2,0,0.2l0.5,0.5c0.1,0.1,0.2,0.1,0.3,0l0.2-0.2
	c0.1,0.1,0.2,0.2,0.3,0.3c0,0,0.1,0.1,0.1,0.1l-0.2,0.2c-0.1,0.1-0.1,0.2,0,0.3l0.5,0.5c0,0,0,0,0.1,0c0.1,0,0.2,0,0.2,0l0.2-0.2
	c0.1,0.1,0.2,0.2,0.3,0.2c0.1,0.1,0.2,0.1,0.2,0.2l-0.2,0.3c-0.1,0.1,0,0.2,0,0.3l0.6,0.4c0,0,0,0,0,0c0.1,0.1,0.2,0,0.3,0l0.2-0.2
	c0.1,0.1,0.3,0.2,0.4,0.3l-0.2,0.3c0,0,0,0,0,0c-0.1,0.1,0,0.2,0.1,0.3l0.6,0.4c0.1,0,0.2,0,0.2,0c0,0,0,0,0.1-0.1l0.2-0.3
	c0.2,0.1,0.3,0.2,0.5,0.3l-0.2,0.3c0,0.1,0,0.2,0.1,0.3l0.2,0.1l0.4,0.2c0.1,0,0.2,0,0.3-0.1l0.1-0.2l0-0.1c0.2,0.1,0.4,0.2,0.6,0.3
	l-0.1,0.3c0,0.1,0,0.2,0.1,0.3l0.5,0.2l0.1,0c0.1,0,0.2,0,0.2-0.1c0,0,0,0,0,0l0.1-0.3c0.2,0.1,0.3,0.1,0.5,0.2l-0.1,0.3
	c0,0.1,0,0.2,0.1,0.2l0.7,0.2c0.1,0,0.2,0,0.2-0.1l0.1-0.3c0.2,0.1,0.4,0.1,0.6,0.2l0,0.2l0,0.1c0,0.1,0,0.2,0.1,0.2l0.2,0l0.5,0.1
	c0.1,0,0.2,0,0.2-0.1l0.1-0.3c0.2,0,0.3,0.1,0.5,0.1l0,0.3c0,0,0,0,0,0.1c0,0.1,0.1,0.2,0.2,0.2l0.5,0.1l0.2,0
	c0.1,0,0.2-0.1,0.2-0.2l0.1-0.3c0.2,0,0.3,0,0.5,0.1l0,0.3c0,0.1,0.1,0.2,0.2,0.2l0.1,0l0.6,0c0.1,0,0.2-0.1,0.2-0.2l0-0.1l0-0.2
	c0.2,0,0.3,0,0.5,0v0.3c0,0.1,0.1,0.2,0.2,0.2h0.7c0.1,0,0.2-0.1,0.2-0.2v-0.3c0.2,0,0.4,0,0.6,0l0,0.3c0,0.1,0.1,0.2,0.2,0.2
	l0.7-0.1c0.1,0,0.1,0,0.1-0.1c0,0,0-0.1,0-0.1v0l0-0.3c0.2,0,0.4-0.1,0.6-0.1l0.1,0.3c0,0,0,0,0,0.1c0,0,0.1,0.1,0.1,0.1
	c0,0,0.1,0,0.1,0l0.7-0.1c0.1,0,0.2-0.1,0.2-0.2l-0.1-0.3c0.2,0,0.3-0.1,0.5-0.1l0.1,0.3l0,0c0,0.1,0.1,0.2,0.2,0.1l0.3-0.1l0.3-0.1
	c0.1,0,0.2-0.1,0.1-0.2l-0.1-0.3c0.2,0,0.3-0.1,0.5-0.1l0.1,0.3c0,0.1,0.2,0.2,0.3,0.1l0.1,0l0.6-0.2c0.1,0,0.1-0.1,0.1-0.2
	c0,0,0,0,0-0.1l-0.1-0.3c0.2-0.1,0.4-0.1,0.5-0.2l0.1,0.3c0,0.1,0.2,0.1,0.3,0.1l0.3-0.1l0.4-0.2c0.1,0,0.1-0.2,0.1-0.3l0-0.1
	l9,13.2c0,0,0,0,0,0c0,0,0,0,0,0s-1.4,1.8-4.8,2.1c-1.4,0.1-3.2,0-5.4-0.7c-0.1,0-0.2-0.1-0.3-0.1c-6.5-2-11.3-2.8-13.1-2.9
	c-0.2,0-0.4,0-0.5,0c-0.4,0-0.5,0.1-0.6,0.2c0,0,0,0,0,0.1c0,0.2,0.3,0.5,0.3,0.5c4.2,3.1,8.6,4.9,12.6,5.9c2,0.5,3.9,0.8,5.6,1
	c4.5,0.5,7.6,0,7.6,0c2,1.2,7.2,13,8.4,15.7c0,0,0,0,0,0c0.1,0.2,0.1,0.3,0.2,0.5c0.6,1.5,1,3.9,1,7.8c0,0,0,0,0,0
	c0.1,0.1,1.5,2.5,2.5-0.6c0.2-0.6,0.3-1.2,0.2-1.9c0-0.4-0.1-0.8-0.2-1.2c0-0.2-0.1-0.4-0.2-0.6c-0.4-0.9-0.7-2.2-0.8-3.6
	c0-0.8,0.1-1.6,0.3-2.4c0,0,2.4-2.6,4,0.1c0,0,0,0.1,0.1,0.1c1.6,2.9,7.8-0.2,7.5-2.5c0,0,0-0.1,0-0.1c-0.2-1-0.5-1.7-0.9-1.9
	c-0.2,0-0.3-0.1-0.5-0.1c-0.5,0-1.2,0.4-2.1,1.4l0,0c-0.5,0.5-1.2,0.6-1.8,0.4c-0.4-0.1-0.8-0.3-1.2-0.5c-1.7-0.9-3.9-2.5-4.3-5.6
	c0,0,2.1-0.2,5.2-1c4.6-1.1,11.4-3.2,17.4-7.4c1,0.1,2,0.7,3,0.9c0.3,0.1,0.4,0.1,0.6,0.2c0.8,0.2,1.6,0.4,2.5,0.5
	c0.9,0.2,1.7,0.3,2.6,0.4c1.7,0.3,5.3,0.8,5.4,1c0,0,0,0.1,0,0.1c0.1,0.2,0.3,0.8,0.7,1.5c0.2,0.4,0.4,0.8,0.7,1.2c0,0,0,0,0,0
	c0,0,0,0,0,0c0,0,0,0,0,0c0.2,0.3,0.4,0.7,0.7,1.1c0.2,0.3,0.5,0.7,0.8,1c1.1,1.4,2.5,3,4.5,4.7c0.7,0.6,1.4,1.2,2.2,1.8
	c0,0,0.1,0,0.1,0.1c2.4,1.8,4.2,3.5,5.4,5.2c0.9,1.1,1.5,2.2,1.9,3.2c0.5,1.2,0.7,2.4,0.6,3.4c-0.1,1.1-0.5,2.1-1.3,3l0,0
	c0,0,0,0,0,0.1c0,0,0,0.1-0.1,0.1c0,0,0,0-0.1,0c0,0-0.1,0-0.1,0l0-0.1l-0.9-0.5v0l-0.4-0.2l-4.9-3v0l0,0c-0.8,0.1-1.5,0.3-2,0.6
	c-1.3,0.7-1.7,1.7-1.7,2.8c0,0.4,0.1,0.9,0.2,1.3c0,0,0,0,0,0c0.1,0.3,0.2,0.5,0.2,0.8c0.1,0.4,0.3,0.8,0.5,1.1c0,0,0,0,0,0
	c0.3,0.5,0.5,0.9,0.5,0.9c0.2-0.1,0.5-0.2,0.7-0.3h0c0.6-0.2,1-0.2,1.4-0.2c2.6,0.4,2.2,5.5,0.2,5.2c-1.1-0.2-1.8,0.1-2.3,0.5
	c-0.4,0.3-0.6,0.7-0.7,0.9c0,0,0,0.1,0,0.1c0,0,0,0,0,0c-0.1-0.1-0.2-0.1-0.2-0.1c0,0,0,0,0,0c0,0,0,0,0,0c-0.2-0.1-4.9-2.5-5.9,0.6
	l0,0l8.7,6.3l0.7,0.5c0.5,0.4,1.1,0.8,1.8,1.1h0c1.3,0.7,2.8,1,4.3,1c1.5,0,3-0.4,4.3-1c1.6-0.8,2.9-2,3.8-3.4
	c0.9-1.4,1.4-3.1,1.4-4.9c0-0.6-0.1-1.3-0.2-1.9c-0.1-0.6-0.2-1.1-0.3-1.5c-0.2-0.5-0.3-0.9-0.5-1.1c-0.1-0.1-0.1-0.2-0.2-0.3
	c0,0,0,0,0-0.1c0,0,0,0,0,0c-0.1-0.3-0.1-0.6,0-0.8c0.1-0.2,0.3-0.3,0.6-0.4c0.7-0.2,1.8-0.3,3-0.2c0,0,0,0,0,0
	c0.9,0.1,1.9,0.2,2.9,0.3c0,0,0,0,0.1,0h0c0.1,0,0.2,0,0.2,0c1.7,0.2,3.4,0.5,4.8,0.5c0,0,0,0,0,0c0.1,0,0.2,0,0.4,0
	c0.8,0,1.5,0.1,2.1,0.3c0,0,0,0,0,0c1.3,0.3,1.9,0.8,2.1,1.3c0.1,0.2,0.2,0.3,0.2,0.4c0,0,0,0,0,0c0,0.2,0,0.3,0,0.3
	s1.7,6.9,3.3,7.9c0,0,0,0,0,0c0,0,0,0,0,0c0.6,0.4,1.4,1.1,2.2,1.8c0,0,0,0,0,0c0.7,0.6,1.2,1.2,1.6,1.5c0,0,0,0,0,0
	c0.2,0.2,0.3,0.3,0.3,0.3c0,0.1,0.1,0.1,0.1,0.2c0.5,0.7,0.9,1.4,1.3,2.1c1,1.9,1.8,3.8,2.3,5.2c0,0,0,0,0,0
	c0.1,0.4,0.3,0.7,0.4,1.1c0,0,0,0.1,0,0.1c0,0,0,0,0,0.1c0.2,0.6,0.3,0.9,0.3,0.9c0.7,10.1-0.2,15.6-1.2,18.5
	c-0.3,1.1-0.7,1.8-1,2.3c0,0,0,0,0,0c-0.2,0.3-0.3,0.5-0.4,0.6c0,0,0,0,0,0c-0.2,0.2-0.3,0.3-0.3,0.3c-0.8,0.9-1.2,1.7-1.4,2.5
	c-0.4,1.5,0.1,2.6,0.4,3.2c0.2,0.3,0.3,0.4,0.3,0.4c0.8,0.8,2,1.6,3.4,2.3c3.6,2,8.3,3.7,8.5,3.7c0,0,0,0,0,0
	c1.6-0.3,1.5-1.7,0.6-3.3c0,0,0,0,0,0c-0.5-0.8-1.1-1.6-1.9-2.4c-0.1-0.1-0.2-0.2-0.3-0.3c-2.5-2.3-2-5.7-2-5.7
	c0.7-2.7,3.3-6.8,5.1-9.3c1-1.5,1.8-2.5,1.8-2.5c0.2-0.3,0.4-0.6,0.5-0.9c0,0,0,0,0,0c0.3-0.5,0.5-0.9,0.7-1.4
	C162.5,190.6,161.3,186.6,160.8,185.3z M33,90.6c-1.5-2.1-4-3.4-6.7-3.4c-4.6,0-8.4,3.7-8.4,8.3c0,4.6,3.7,8.4,8.4,8.4
	c0.7,0,1.5-0.1,2.1-0.3l0.7,1l0,0l2.1,3.1c-1.4,0.5-3,0.8-4.6,0.8c-7.2,0-13.1-5.8-13.1-13.1c0-7.2,5.8-13.1,13.1-13.1
	c4.7,0,8.9,2.5,11.1,6.3L33,90.6z M36.4,104.2l-2.3-3.1c0,0,0,0,0,0l-0.8-1c0.7-1.1,1.2-2.5,1.3-3.9l1.3-0.4v0
	c1.2-0.4,2.5-0.8,3.7-1.2l0,0c0,0.3,0,0.7,0,1C39.6,98.9,38.4,101.9,36.4,104.2z M112.8,102c4.6,0,8.4-3.7,8.4-8.4
	c0-4.6-3.7-8.4-8.4-8.4c-0.8,0-1.7,0.1-2.4,0.4l-0.2-0.4l-0.4-0.7c0,0,0,0,0,0l-2.3-3.4c1.6-0.7,3.4-1.1,5.3-1.1
	c7.2,0,13.1,5.8,13.1,13.1c0,7.2-5.8,13.1-13.1,13.1c-4.9,0-9.1-2.7-11.4-6.6l3.1-1.2c0,0,0,0,0,0l1.1-0.5
	C107.1,100.3,109.8,102,112.8,102z M103.8,83.6l2.1,3.5l0.7,1.1v0c-0.4,0.4-0.7,0.9-1,1.4c0,0.1-0.1,0.1-0.1,0.2
	c0,0.1-0.1,0.1-0.1,0.2c-0.1,0.2-0.2,0.5-0.3,0.7c0,0,0,0.1,0,0.1c0,0,0,0.1,0,0.1c0,0,0,0.1,0,0.1c0,0.1,0,0.1-0.1,0.2
	c0,0,0,0.1,0,0.1c0,0,0,0.1,0,0.1c0,0,0,0.1,0,0.1c0,0.2-0.1,0.4-0.1,0.5c0,0.1,0,0.2-0.1,0.4c0,0,0,0.1,0,0.1l-1.2-0.1l-3.6-0.2
	C99.9,88.9,101.4,85.8,103.8,83.6z M57.5,50c0-0.1,0-0.2,0-0.3c0-0.4,0.1-0.8,0.1-1.2c0.3-3.4,0.7-7.3,1.8-9.2c0,0,0,0,0,0
	c0,0,0,0,0-0.1c0.4-0.8,0.7-1,1-1c0.2,0.5,0.7,1,1.4,1.6c1.8,1.3,4.8,2.5,6.4,3.1c0.1,0,0.2,0.1,0.3,0.1c0.1,0,0.2,0.1,0.2,0.1
	c0,0,0.1,0,0.1,0c0,0,0,0,0.1,0c0,0,0.1,0,0.1,0c0,0,0.1,0,0.1,0c0.1,0,0.1,0,0.1,0c0,0,0.1,0,0.1,0c0,0,0,0,0.1,0c0,0,0.1,0,0.1,0
	s1,0.5,2.2,0.5c1.2-0.1,7.5-1.3,7.5-1.3s0,0,0,0c0,0,0.2,0.1,0.6,0.5c0.7,0.7,1.8,2.3,3.1,5.3c0.3,0.7,0.5,1.4,0.8,2.2
	c0.1,0.1,0,0.3,0,0.5c-0.1,0.2-0.2,0.3-0.4,0.5c0,0,0,0,0,0c-1.4,1.5-5.9,4.2-10.6,9.2c-0.2,0.2-0.3,0.3-0.5,0.5
	c-0.1,0.1-0.2,0.3-0.4,0.4c0,0-0.1,0.1-0.1,0.2c0,0,0-0.3-0.1-0.9c-0.2-1.2-1.2-3.4-4.8-4.8c-0.5-0.2-1-0.3-1.5-0.5
	c-0.8-0.2-1.6-0.3-2.5-0.5C62.9,55.2,57.2,54.5,57.5,50z M84.7,94.6C84.7,94.6,84.7,94.6,84.7,94.6L84.7,94.6
	c-0.6,1.9-2.7,0.8-3,0.6c0,0,0,0,0,0c0,0,0,0,0,0c0,0,0,0,0,0c-13.2-1.5-17.4-0.2-18.7,0.5c0,0,0,0,0,0c-0.1,0-0.1,0.1-0.1,0.3
	c-0.1,0.4-0.2,1-0.6,1.3l0,0c-0.3,0.3-0.6,0.5-1,0.7c-0.8,0.3-1.5,0.2-2.2-0.1c-0.4-0.2-1.3-0.6-1.6-0.7c-0.1,0-0.2,0-0.3,0
	c-0.7,0.2-1.5,0.6-1.7,1.2c-1.4,2.9-0.8,7.7-0.7,8.5c0,0.1,0,0.1,0,0.2c0,0.3-0.1,0.9-0.2,1c-0.4,2.4-1.1,4.2-1.9,6.2
	c-1.6,3.9-3.4,6.7-3.5,6.8c0,0,0,0,0,0c-0.2-0.3-0.5-0.6-0.7-0.9c-0.4-0.6-0.9-1.3-1.3-1.9c-0.1-0.2-0.2-0.4-0.4-0.6l-0.6-0.9l0,0
	l-2.1-3.1l0,0l-2.1-3l-0.7-1c0-0.1,0-0.1,0-0.2l0.3-0.3c0.1-0.1,0.1-0.2,0-0.3l-0.2-0.2l0,0c0.2-0.2,0.3-0.3,0.4-0.5l0.2,0.2
	c0.1,0.1,0.2,0,0.3,0l0.4-0.5l0.1-0.1c0.1-0.1,0-0.2,0-0.3l-0.2-0.1l-0.1-0.1c0,0,0,0,0,0c0.1-0.1,0.2-0.2,0.3-0.4l0.3,0.2
	c0.1,0.1,0.2,0,0.3-0.1l0.4-0.6c0,0,0-0.1,0-0.1c0-0.1,0-0.1-0.1-0.2l-0.3-0.2c0.1-0.2,0.2-0.3,0.3-0.5h0l0.3,0.2
	c0.1,0,0.2,0,0.3-0.1l0.3-0.6c0-0.1,0-0.2,0-0.2c0,0,0,0-0.1-0.1l-0.3-0.2c0.1-0.2,0.2-0.4,0.3-0.6l0.3,0.1c0,0,0.1,0,0.2,0
	c0,0,0.1-0.1,0.1-0.1l0.3-0.7c0-0.1,0-0.2-0.1-0.3L45,103c0.1-0.2,0.1-0.3,0.2-0.5l0.3,0.1c0,0,0,0,0,0c0.1,0,0.2,0,0.2-0.1l0.2-0.7
	c0-0.1,0-0.2-0.1-0.2l-0.3-0.1c0.1-0.2,0.1-0.3,0.2-0.5l0,0l0.3,0.1c0.1,0,0.2,0,0.2-0.1l0.2-0.7c0-0.1,0-0.2-0.1-0.2l-0.1,0
	L46,99.8c0-0.1,0-0.1,0-0.2c0-0.1,0-0.2,0.1-0.3l0.3,0.1c0.1,0,0.2-0.1,0.2-0.2l0.1-0.7c0-0.1-0.1-0.2-0.2-0.2l0,0l-0.3,0
	c0-0.2,0-0.3,0.1-0.5l0.2,0l0.1,0c0.1,0,0.2-0.1,0.2-0.2l0.1-0.7c0-0.1-0.1-0.2-0.2-0.2l-0.3,0v0c0-0.2,0-0.3,0-0.5h0.3
	c0.1,0,0.2-0.1,0.2-0.2v-0.7c0-0.1-0.1-0.2-0.2-0.2h-0.3v0c0-0.2,0-0.4,0-0.6l0.1,0l0.2,0c0.1,0,0.2-0.1,0.2-0.2l-0.1-0.7
	c0-0.1-0.1-0.2-0.2-0.2l-0.3,0c0,0,0,0,0,0c0-0.1,0-0.3,0-0.4l0,0c0,0,0-0.1,0-0.2l0.2,0l0.2,0c0.1,0,0.2-0.1,0.2-0.2l0-0.2
	c0.6-0.2,1-0.4,1.2-0.5c0,0,0,0,0,0c0.6-0.3,1.2-0.3,1.6-0.2c0.3,0.1,0.5,0.2,0.6,0.2c0,0,0,0,0,0s2.7,2.4,6.4,4.1
	c2.3,1,3.7,0.9,4.5,0.7c0.4-0.1,0.7-0.4,1-0.8L74.5,77c0.5-0.7,0.9-1.5,1.3-2.3c0.4-0.8,0.6-1.6,0.9-2.5l1.2-5.5
	c6-2.6,11-6.8,11-6.8c0,0,0.1,0.1,0.1,0.2l11,17.8c0,0-0.1,0-0.1,0.1l-0.2-0.2c-0.1-0.1-0.2-0.1-0.3,0l-0.5,0.5
	c-0.1,0.1-0.1,0.2,0,0.3l0.2,0.2c-0.1,0.1-0.2,0.2-0.3,0.3c0,0-0.1,0.1-0.1,0.1l-0.2-0.2c-0.1-0.1-0.2-0.1-0.3,0l-0.5,0.5
	c-0.1,0.1-0.1,0.2,0,0.3l0.2,0.2c-0.2,0.2-0.3,0.3-0.4,0.5l-0.2-0.2c-0.1-0.1-0.2,0-0.3,0l-0.4,0.6c-0.1,0.1-0.1,0.2,0,0.3l0.3,0.2
	c-0.1,0.1-0.2,0.3-0.3,0.4l-0.3-0.2c0,0-0.1,0-0.1,0c-0.1,0-0.1,0-0.2,0.1l0,0.1l-0.3,0.5c-0.1,0.1,0,0.2,0.1,0.3l0.3,0.2
	c-0.1,0.2-0.2,0.3-0.3,0.5l-0.3-0.1c0,0-0.1,0-0.1,0c0,0,0,0,0,0c0,0-0.1,0-0.1,0c0,0,0,0-0.1,0.1l-0.3,0.6c0,0,0,0,0,0.1
	c0,0.1,0,0.1,0.1,0.2c0,0,0,0,0,0L95,84c-0.1,0.2-0.2,0.4-0.3,0.6l-0.3-0.1c-0.1,0-0.2,0-0.3,0.1l-0.1,0.3l-0.1,0.3c0,0,0,0.1,0,0.1
	c0,0,0,0,0,0c0,0,0,0,0,0c0,0,0,0,0,0c0,0,0,0,0,0c0,0,0,0,0,0c0,0,0,0,0,0l0.3,0.1c-0.1,0.2-0.1,0.3-0.2,0.5L93.8,86
	c-0.1,0-0.2,0-0.2,0.1l-0.2,0.7c0,0,0,0,0,0c0,0,0,0.1,0,0.1h0c0,0,0,0,0,0c0,0,0,0,0,0c0,0,0,0,0.1,0l0.3,0.1
	c-0.1,0.2-0.1,0.4-0.2,0.6l-0.3-0.1c-0.1,0-0.2,0-0.2,0.1l-0.2,0.7c0,0.1,0,0.2,0.1,0.2l0.3,0.1c0,0.2-0.1,0.3-0.1,0.5l-0.3,0l0,0
	c-0.1,0-0.2,0.1-0.2,0.2l-0.1,0.3L92.6,90c0,0.1,0.1,0.2,0.2,0.2l0.3,0.1c0,0.2,0,0.4-0.1,0.5l-0.3,0h0c0,0,0,0,0,0c0,0,0,0,0,0
	c0,0,0,0,0,0c0,0,0,0,0,0c0,0,0,0,0,0.1c0,0,0,0,0,0.1l-0.1,0.7c0,0,0,0,0,0c0,0.1,0.1,0.2,0.2,0.2l0.3,0c0,0,0,0.1,0,0.1
	c-0.1,0.1-0.2,0.3-0.4,0.4c0,0-0.1,0.1-0.2,0.1c-0.2,0.2-0.4,0.3-0.6,0.5c-0.1,0.1-0.3,0.2-0.5,0.3c0,0-0.1,0.1-0.2,0.1c0,0,0,0,0,0
	c-0.6-0.4-1-0.5-1-0.5c-0.8-0.3-1.4,0.1-1.6,0.4c-0.2,0.3-0.6,0.4-0.9,0.5c0,0,0,0,0,0c-0.1,0-0.3,0-0.4-0.1
	c-0.6-0.2-1.1-0.2-1.5-0.1C85.2,93.8,84.8,94.2,84.7,94.6z"/>
</svg>
