<?xml version="1.0" encoding="utf-8"?>
<!-- Generator: Adobe Illustrator 25.2.1, SVG Export Plug-In . SVG Version: 6.00 Build 0)  -->
<svg version="1.1" id="Vrstva_1" xmlns="http://www.w3.org/2000/svg" xmlns:xlink="http://www.w3.org/1999/xlink" x="0px" y="0px"
	 viewBox="0 0 170.2 223.5" style="enable-background:new 0 0 170.2 223.5;" xml:space="preserve">
<style type="text/css">
	.st0{fill:#FFFFFF;}
</style>
<path class="st0" d="M166.6,210.8L166.6,210.8c0-0.1,0-0.1,0-0.1c0,0,0-0.1,0-0.1s0,0,0-0.1c0,0,0,0,0,0c-0.3-0.5-0.9-1.6-2.5-1.4h0
	c-0.5,0.1-1.1,0.4-1.6,0.5c0,0,0,0,0,0h0c0,0,0,0,0,0c0,0,0,0,0,0c0,0,0,0,0,0c-0.4,0.2-0.9,0.3-1.3,0.3c-0.4,0-0.8-0.1-1.1-0.2
	c0,0,0,0,0,0h0c-0.3-0.1-0.6-0.2-0.9-0.3c0,0,0,0,0,0c-0.3-0.1-0.6-0.2-0.7-0.3c-0.3-0.2-0.5-0.5-0.6-0.9v0c0-0.1,0-0.2-0.1-0.3
	c-0.1-0.6-0.1-1.3,0-1.8c0-0.2,0-0.4,0-0.5c0-0.1,0-0.2,0-0.3c0-0.7,0.2-0.7,0.4-1v0c0,0,0,0,0,0c0.1-0.2,0.1-0.3,0.2-0.4h0
	c0,0,0,0,0,0c0-0.2,0-0.2,0.2-0.4c0-0.1,0.1-0.2,0.1-0.3c0.7-1.5,1.4-2.8,1.6-3.1c0,0,0,0,0,0c0,0,0,0,0,0c0,0,0,0,0,0s0,0,0,0
	c0,0,0,0,0,0c0,0,0,0,0,0l0.8-1.2c0,0,0,0,0,0c0,0,0,0,0,0l0.4-0.6c0.4-0.7,0.5-1.1,0.7-1.6c0,0,0,0,0,0c0.1-0.4,0.2-0.7,0.3-1.2
	c0.1-0.3,0.1-0.3,0.1-0.7c-0.1-0.4-0.1-0.4,0-0.8c0.3-1.3,0-1.1,0.4-2.2c0.1-0.3,0.1-0.4,0.2-0.7c0.1-0.3-0.2-1.1-0.2-1.6
	c0-0.3-0.1-0.8-0.2-1.4c0,0,0,0,0,0s0,0,0,0c-0.1-0.7-0.3-1.4-0.5-1.8h0c0,0,0,0,0,0c0,0,0,0,0-0.1c-0.7-1.2-0.5-1.3-0.8-1.8
	c-0.6-0.9-0.2-0.9-0.6-1.7c0,0,0,0,0,0c0,0,0-0.1-0.1-0.1c-1.1-2.4-1.9-4.4-2.7-6.8c-0.2-0.7-0.5-1.4-0.7-2.1v0l-3.2-8.3
	c0,0,0,0,0,0c0,0,0,0,0,0c-0.2-0.3-0.8-1.4-2.2-2.9c0,0,0,0,0,0l-0.1,0.1c-0.8-0.9-1.5-1.7-2.3-2.5l0.1-0.1c0,0-0.1-0.1-0.1-0.1
	c-2.9-2.9-5.7-5.1-9.4-7.5c-0.8-0.6-1.7-1.2-2.5-1.6c-0.9-0.5-1.7-1-2.5-1.5c-0.5-0.3-1.2-0.6-1.8-0.8l-2-0.6c0,0,0,0,0,0
	c-0.4-0.1-1-0.2-1.6-0.3h0l-6.6-0.4h0l-0.6,0c-0.1,0-0.2,0-0.2,0h0c0,0,0,0-0.1,0c-0.1,0-0.1,0-0.1,0c-0.2,0-0.3-0.1-0.6-0.2
	c-0.6-0.1-0.4-0.1-1-0.4c-0.3-0.1-0.2,0-0.7-0.3c0,0-0.1,0-0.1-0.1c0,0,0,0,0,0c-0.3-0.2-0.8-0.3-1.1-0.9c0,0,0,0,0-0.1
	c-0.1-0.1-0.2-0.1-0.2-0.2c-0.7-0.7-1.5-1.6-2.3-2.8c0,0,0,0,0,0l0,0c-0.2-0.3-0.4-0.5-0.6-0.8l0,0c-0.5-0.7-1-1.4-1.3-1.9
	c-0.4-0.1-0.8-0.8-1.2-1c-0.2-0.1-0.5-0.4-0.8-0.5l0,0l-0.2-0.2c-0.2-0.2-0.5-0.4-0.7-0.6l-0.4-0.3h0l-0.1,0c0,0,0,0-0.1,0l0,0
	l-0.1-0.1l0,0l-0.5-0.3c-0.6-0.4-1.1-0.8-1.7-1.1l-0.2-0.1c-0.2-0.3-1.1-0.6-1.8-0.9l-0.6-0.4c2.9,0.3,14.6,1.6,21.6,1.6
	c1.2,0,2.3,0,3.2-0.1l0-0.1c0,0,0,0,0.1,0c0.6-0.1,1.1-0.2,1.4-0.3c0,0,0,0,0,0c0.3-0.1,0.5-0.3,0.6-0.7c0,0,0,0,0,0c0,0,0,0-0.1,0
	l0-0.1c-0.5-0.8-1.6-0.9-2.1-1.1c-0.8-0.2-1.6-0.2-2.4-0.4l0-0.1c-4.7-1.6-11-3.5-14.6-3.8c0,0-0.1,0-0.1,0l0,0v0c0-0.2,0-0.3,0-0.4
	c0-0.4,0-1-0.1-1.7c-0.4-3-1.9-8.7-8.3-12.7c0,0-7.4-3.5-15.6-3.8c0,0-5-1.1-4.6-3.1c0.4-2,1.7-4.8,8.3-5.8c0,0,2.1,1.4,3.2,2.2
	c0,0.1,0.1,0.2,0.1,0.3c0.3,0.6,0.5,1.3,0.5,2c0,0,0,0,0,0c0,0,0,0,0,0c0,0,0,0,0,0c0,0,0,0,0,0c0,0,0.1,0,0.1,0c0,0,0,0,0.1,0
	c0.1,0,0.1,0,0.2,0c0,0,0,0,0.1,0v0c0.1,0,0.1,0,0.2-0.1l0.4,0.7l-0.2,0.6c0.3,0.4,0.4,0.7,0.9,0.5c0.2-0.1,0.2-0.1,0.4-0.1l0.4,0.4
	c-0.1,1,0.1,1.3,1.2,0.7l0.6,0.7l-0.3,0.4c0.2,0.2,0.6,0.5,0.9,0.5l0.5-0.3l0.7,0.3c0,0.1-0.1,0.4-0.1,0.5c0.1,0.3,0.4,0.4,0.6,0.4
	c0.1,0,0.4-0.3,0.5-0.4c0.2,0.1,0.3,0.1,0.5,0.3c0.1,0.7,0.4,0.7,0.8,0.9c0.6-0.4,0.6-0.7,1.2-0.3l0.1,0.7l0.9,0.2
	c0.6-0.7,0.3-0.5,1-0.5l0.2,0.7c0.2,0.1,0.7,0.1,1,0.1l0.3-0.5c0.3,0,0.5,0.1,0.8,0.1l0.3,0.7c1-0.3,0.5-0.1,1-0.8l0.8,0l0.3,0.6
	l0.9-0.2l0-0.5l0.8-0.1l0.3,0.6c1.2-0.1,0.8-1,1.6-0.9c0.1,0,0.1,0,0.2,0.1c0.6,0.4,0.3,0.4,1.1,0.2c0-0.3-0.1-0.5,0.3-0.8h0
	c0.2,0,0.4-0.1,0.6-0.1c0.1,0,0.4,0.5,0.6,0.5c0.4-0.1,0.7-0.1,0.9-0.3c0.1-0.1,0-0.3,0-0.5c0-0.1,0.2-0.1,0.2-0.1l0.7-0.3l0.6,0.4
	l0.6-0.4c0-0.5,0.1-0.7,0.6-1c0.2,0.2,0.3,0.2,0.6,0.3l0.7-0.4c0-0.8-0.3-0.6,0.5-1.2c0.2,0.1,0.3,0.1,0.5,0.3
	c0.1-0.1,0.3-0.2,0.4-0.4c0.5-0.5-0.4-0.6,0.7-1.4l0.4,0.3c0.2-0.2,0.4-0.3,0.6-0.5c0.2-0.4-0.3-1,0.3-1.3c0.3-0.1,0.4,0,0.6,0.2
	l0.7-0.9l-0.4-0.5l0.5-0.8l0.6,0.1l0.5-0.5c-0.3-0.7-0.5-0.6-0.1-1.3c1.1-0.5,0.6-0.5,1.2-1.2c-1.1-1.2,0.4-0.7,0.8-2.1
	c-0.3-0.4-0.4-0.4-0.6-0.9c0.5-0.1,0.9,0,0.8-1.2c-0.7-0.5-0.4-0.2-0.5-1l0.7-0.2c0-0.4,0.1-0.6,0.1-0.9c-0.4-0.4-0.5-0.4-0.6-1
	l0.7-0.4c0-1.3-0.5-0.7-0.7-1.8c1-0.9,0.7-0.8-0.2-2.3l0.6-0.4l-0.2-0.9c-0.2-0.1-0.4-0.1-0.6-0.1l-0.2-0.8c0.6-0.4,0.7-0.4,0.3-1.1
	c-0.2-0.2-0.3-0.2-0.5-0.2l-0.3-0.7c0,0,0.1-0.1,0-0.1l0.4-0.4l-0.3-0.8c-0.7,0-0.7,0-1-0.6l0.4-0.6l-0.5-0.9l-0.6,0.1
	c-0.6-1.1,0.2-0.8-0.4-1.9l-0.7,0.1l-0.5-0.6l0.4-0.6c-1.1-1.2-1.1,0.1-1.7-1l0.3-0.5c-0.7-0.8-0.5-0.8-1.4-0.5l-0.6-0.6
	c0.1-0.3,0.1-0.3,0.1-0.5c-0.7-0.9-0.6-0.4-1.2-0.2c-0.2,0-0.4-0.3-0.5-0.4c-0.2-0.2-0.1-0.4,0-0.7c-0.2-0.3-0.4-0.3-0.7-0.5
	l-0.5,0.4l-1.4-1.5l-0.5,0.4c-0.2-0.2-0.3-0.2-0.6-0.3c-0.1-0.7-0.4-0.7-0.8-0.9c-0.6,0.4-0.6,0.7-1.2,0.3l-0.1-0.7l-0.9-0.2
	c-0.6,0.7-0.3,0.5-1,0.5l-0.2-0.7c-0.2-0.1-0.7-0.1-1-0.1l-0.3,0.5c-0.3,0-0.5-0.1-0.8-0.1l-0.3-0.7c-1,0.3-0.5,0.1-1,0.8l-0.8,0
	l-0.3-0.6l-0.9,0.2l0,0.5l-0.8,0.1L109,70c-1.2,0.1-0.7,1-1.6,0.9c-0.1,0-0.1,0-0.2-0.1c-0.6-0.4-0.3-0.4-1.1-0.2
	c0,0.4,0.1,0.5-0.3,0.8l-0.8-0.4c0,0,0,0,0,0c0,0,0.1,0.1-0.2,0.2c-0.4,0.2-0.6,0.3-0.6,0.3c0,0,0.1,0.1,0.1,0.1
	c0.2,0.1,0.2,0.3,0.2,0.4v0c0,0.1-0.2,0.2-0.5,0l-0.2-0.2c-0.3,0.3-0.5,0.2-0.8,0.4l0,0.8l-0.9-0.2c-0.1-0.3-0.3-0.8-0.5-1.2
	l-0.3-0.5c-0.2-0.4-0.4-0.7-0.5-0.8c-0.2-0.2-1.2-2.1-1.4-2.3c-0.2-0.2-0.5-0.9-0.6-1.1c-0.6-0.9-0.8-1.9-1.6-2.6
	c0-0.1-0.8-1.2-0.8-1.4c-0.1-0.4-1.4-2.6-1.4-2.7c-0.1-0.4-1-1.4-0.7-1.5c0.6-0.3-1.1-1.9-1-2.6c0,0,0.1,0.1,0.1,0.1
	c0.5,0,0.4-0.7,0.3-0.8c-0.2,0-0.3,0-0.3,0c0,0,0-0.1-0.1-0.2c-0.1-0.2-0.3-1.7-0.7-2.4c-0.1-0.2-0.4-1.5-0.4-1.5
	c0-0.1-0.8-2.6-1-2.9c-0.4-1-0.8-2.9-1.2-3.6c-0.3-0.4-0.2-0.8-0.3-0.8c0-0.2-0.5-1.4-0.6-1.5c-0.2-0.9-1.1-1.4-0.6-2.5
	c-0.1-0.2-0.7-1-0.8-1c-0.6,0-0.7-0.3-1-0.4c-1.8-0.6,0.1-0.7-0.9-1.2c-1.3-0.6-0.7,0.2-1.5-0.3c0,0-0.1,0-0.1-0.1
	c-0.1-0.4-0.7-0.8-1-1c-0.5-0.4-1.2-1.2-1.5-1.7c-0.5-0.7-2,0.2-2,0.3c-0.2,0.3-0.9,0.4-1.1,0.5c0,0-0.1,0.1-0.1,0.1
	c-0.1,0.2-0.3,0.5-0.5,0.7c0,0-0.1,0-0.1,0c-2.2,0.2-6.5-0.1-7.7-0.3c0,0-2.2-1.7-2.8-2.1c-0.2-0.3-0.8-0.5-1-0.7
	c-0.3-0.3-1.6-0.6-1.9-0.9c-1.1-1.2-2.2-2.5-3.1-3.2c-0.1-1.4-0.2-3.3-0.4-3.4c-0.9-1,0.2-1.4,0.3-1.6c0.2,0,0.4-0.1,0.5-0.1
	c3.4-0.4,8.3,3.9,8.3,3.9c0.8-0.5,1.4-1,1.8-1.6c0-0.2,0.1-0.3,0.2-0.3c0.3-0.6,0.5-1.2,0.6-1.8v0c0.1-0.7,0.1-1.4,0-2
	c-0.3-2.1-1.3-3.8-1.3-3.8c-0.3,0.2-0.7,0.4-0.9,0.5c-1.3,0.5-2.2,0.1-2.7-0.7c0,0,0,0,0,0c0,0,0-0.1-0.1-0.1c0,0,0,0,0,0
	c-0.9-1.6-0.6-4.4,0-5.1c0.1-0.1,0.1-0.1,0.2-0.1c0,0,0.1,0,0.1,0c1.2,0.2,3.5-1.3,3.5-1.3l0-0.4v0l0-0.3c1.5,0.7,2.7,0.9,3.7,0.8
	c1.2-0.1,2.1-0.6,2.7-1.1c0.7-0.6,1-1.1,1-1.1c-5.3,0.6-12.3-8-18.4-9c0,0,0,0,0,0c-6-1-10,3.4-10.2,3.7c0,0,0,0,0,0
	c-0.1,0.2-0.2,0.4-0.3,0.6c-2.3,4.4-2.4,7.7-1.7,10.1c0.2,0.6,0.4,1.1,0.6,1.5c0.4,0.8,0.9,1.4,1.3,1.9l1.6,1.4
	c0.5,0.4,0.9,0.5,0.9,0.5c0.2,0.2-0.1,0.3-0.1,0.5c-0.1,0.3-1.2,0-1.3,0.5c-0.3,0.2-0.9,0.3-1.2,0.4c-0.7,1-0.9,0.7-1.6,1.9
	c-0.1,0.2-1,2.8-1,2.8c-0.2,1.1-0.7,1.5-0.7,2.7c-0.1,0.6-1.2,5.1-1.5,5.4c-0.8,0.8-1.4,3.4-2,4.3c-0.2,0.3-1,2.7-1.1,3
	c-0.1,0.9-1.5,2.8-1.4,3.5c-0.5,0.2-0.7,0.8-0.5,1.3c0.4,0.7-0.2,0.8-0.2,1c0,1.2,0.7,1.2,0.9,1.5c0.5,0.8-0.5,0.8-0.6,0.9
	c-0.2,0.4,0.7,0.8,0.5,1.3c-0.5,1.1-0.6,0.2-0.5,2c0,0.1,0,0.8,0,0.9c-0.2,0.7-0.3,1.3,0.1,1.6c0.1,0.1,0.2,0.2,0.4,0.3
	c-1.9-0.1-3.8-0.2-5.7-0.2c-0.4,0-0.7-0.1-1-0.2c-0.1,0-0.3-0.1-0.4-0.1c-0.4,0-0.7-0.2-1.1-0.3h0c-0.8-0.1-3.7-0.4-4.4-0.4
	c-0.7,0-1.5-0.2-1.8-0.2c-0.9,0.1-2.7-0.3-3.6-0.5c-1-0.3-1,0.5-1.8,0.1c-0.7-0.3-2.4-0.5-2.6-0.6c-1-0.6-1.7-0.4-2.3-0.6
	c-0.7-0.4-0.8-0.3-1.4-0.6c-0.1,0.3,1.8,1,1.9,1.1c0.1,0.1,1.9,0.7,2.3,1.1c0.1,0.1,4,1.5,4.1,1.5c0.7,0,1.8,0.8,2.1,0.8
	c0.8,0,2,0.9,2.9,0.9c0,0,0.7,0.4,0.7,0.4c0.3,0.1,3,1.8,3.4,2.1c0.4,0.4,1.2,0,1.5,0.3c0.3,0.2,1.6,0.6,1.6,0.6
	c0.5,0.4,3.8,1.1,4.3,1.6c0.7,0.7,3-0.1,3.4,0.4c0.5,0.7,1,0.9,1.5,1.3c0.5,0.3,0.9,0.8,1.3,1.3c0.1,0.1,2,1.4,2.4,1.6
	c0.7,0.6,1.4,0.8,1.9,1.4c0.2,0.2,1.2,0.8,1.5,1c0.3,0.2,0.2,0.3,0,0.5c-0.2,0.1-0.4,0.2-0.5,0.3c-0.1,0-0.4,0.3-0.4,0.4
	c-0.3,0.6-0.8-0.5-1.4,0c-1,0.9-1.1-0.3-1.5-0.2c-1.2,0.1,0.1-0.8-0.2-1.3c-0.3-0.7-0.7,1-0.7,1c0,0.9-0.3,0.3-0.5,0.7
	c-0.2,0.1-0.9,0.7-0.9,0.8c0.1,0.7-1.5,1.6-1.5,1.9c0,0.4-1.1,0-0.9,1.3c0,0,0.4,0.3,0.4,0.4c-0.1,1,0.7,0.5,0.8,0.7
	c0.4,0.7,1.1-0.3,1-0.3c0-0.3,1.5-1.9,1.7-1.8c0.2,0.2,0.6-0.3,0.7-0.5c0.2-0.6,0.7,0.2,0.9,0.4c0,0,0,0.1,0,0.1
	c-0.1,0.1-0.2,0.3-0.3,0.3c-1,1-2.1,2-3,3c0,0.1-0.1,0.2-0.2,0.2c-0.4,0.4-0.8,0.8-1.1,1.2c0,0.1,0,0.1-0.1,0.1
	c-0.2,0.3-0.4,0.6-0.6,0.9c0,0,0,0,0,0.1c-0.2,0.3-0.3,0.5-0.4,0.8c-0.2,0.6-0.3,1.1-0.3,1.6c0.1,1.3,0.9,2,0.9,2
	c0.6,0.4-0.3,1-0.9,1.3c0,0,0,0,0,0c0,0-0.1,0-0.1,0c0,0-0.1,0-0.1,0c0,0-0.1,0-0.1,0c0,0,0,0,0,0c0,0,0,0-0.1,0c0,0,0,0,0,0
	c0,0,0,0,0-0.1l0.2-0.6c-0.1-0.1-0.2-0.3-0.2-0.3c-0.2-0.2-0.4,0.2-0.5-0.1l-0.1-0.7v-0.8c0-0.1,0-0.2,0-0.3c0-0.1-0.1-0.2-0.1-0.4
	c-0.1-0.1-0.2-0.3-0.4-0.4l-0.5,0.2l-0.4-0.6l0.2-0.6l-0.6-0.7c-0.7,0.2-0.6,0.4-1.1-0.4c0.1-0.2,0.2-0.4,0.2-0.6
	c-0.7-0.4-1.3-0.4-1.8-1l0.2-0.5l-0.7-0.6l-0.5,0.4l-0.5-0.5c0.1-0.4,0.2-0.5-0.2-0.9c-0.4-0.3-0.5-0.2-1.1,0.1
	c-1-0.8,0.1-1-1.3-1.6l-0.6,0.4l-0.5-0.3c-0.3-1.4-0.8-0.6-2-0.5l-0.4-1l-0.6,0l-0.4,0.5l-0.8-0.1l-0.3-0.7l-0.6,0l-0.4,0.5
	l-0.7-0.1l-0.4-0.6c-0.8-0.1-0.7,0.4-1.3,0.7c-0.7-0.2-0.3-0.1-0.7-0.7l-0.9,0.1c-0.9,1.7-0.7-0.3-2.2,0.5L20,73.4
	c-0.3,0.1-0.6,0.1-0.8-0.1c-0.2-0.2-0.1-0.2-0.3-0.2c-0.8,0-1,2-1.8,0.7l-1,0.4l0,0.6L15.5,75c-0.3-0.1-0.6-0.4-0.9-0.3
	c-0.4,0.2-0.2,0.6-0.3,1l-0.6,0.4l-0.6-0.3l-0.8,0.5l0.2,0.6l-0.6,0.5l-0.6-0.2c-0.8,0.4-0.7,0.5-0.5,1.2l-0.6,0.5
	c-0.3-0.2-0.6-0.6-1,0.2c-0.2,0.5,0.2,0.6-0.3,1.2c-0.3,0-0.5,0-0.8,0l-0.5,0.8c0.4,0.6,0.5,0.5,0,1.1c-0.5,0.1-0.5-0.1-1.1,0.3
	c-0.2,0.6,0,0.5,0.3,1c-0.4,0.5-0.1,0.4-0.7,0.6c-0.3,0.1-0.5,0.5-0.6,0.8l0.4,0.6l-0.3,0.5c-0.7,0.2-0.9,0.3-1,0.9
	C5,87.4,5,87.2,5.3,87.5L5,88.2c-0.3,0-0.2,0-0.6,0.2c-0.1,0.3-0.2,0.7-0.1,1c0.2,0.2,0.2,0.2,0.4,0.3c0,0.3,0,0.4,0,0.7l-0.8,0.3
	l0,0.9c0.3,0.2,0.3,0.2,0.5,0.3l-0.1,0.6l-0.7,0.4l0.1,1L4.3,94l0.1,0.7l-0.6,0.4c0,0.3,0,0.6,0.2,1l0.5,0.1L4.6,97
	c-0.7,0.4-0.8,0.4-0.3,1.3l0.6,0.2C5,98.7,5,98.9,4.9,99.2c-0.6,0.4-0.5,0.5-0.1,1.2c0.4,0.1,0.6,0.2,0.7,0.7c0.1,0.6-0.8,0.2,0,1.5
	l0.6,0l0.3,0.6L6,103.7l0.4,0.8l0.6-0.1l0.4,0.6l-0.3,0.5l0.5,0.8c0.2,0,0.5-0.1,0.7-0.1c0.4,0.6,0.3,0.7,0.1,1.2
	c0.1,0.2,0.2,0.3,0.3,0.4c0.3,0.3,0.2,0.3,0.4,0.2c0.5-0.1,0.5-0.1,0.9,0.5l-0.4,0.5l0.7,0.8l0.6-0.3l0.5,0.4c0,1-0.3,0.3,0.5,1.3
	l0.6-0.4l0.7,0.6c-0.3,0.7-0.4,0.5,0.6,1.1l0.5-0.4l0.6,0.4l0,0.7c0.7,0.5,1.1,0.1,1.8,0.2l0.1,0.8l0.9,0.2c0.3-0.3,0.2-0.3,0.4-0.5
	c0.2,0.1,0.4,0.1,0.6,0.2l0.2,0.8c0.2,0,0.4,0.2,0.7,0.1c0.4-0.1,0.3-0.3,0.6-0.5l0.5,0l0.3,0.9c0.7,0,1,0.2,1.1-0.6
	c0.3-0.1,0.5,0,0.8,0c0,0.1,0.1,0.2,0.1,0.2c0,0.1,0,0.1,0.1,0.2c0,0,0,0,0,0.1c0,0.1,0.1,0.2,0.2,0.3c0.4,0,0.7,0,0.9-0.4
	c0.2-0.4,0.5-0.4,0.8-0.3c0.2,0.4,0.3,0.7,0.7,0.6c0.2,0,0.3-0.1,0.5-0.1l0.1-0.6h0c0.9-0.2,0.7,0.2,1.3,0.6
	c0.8-0.2,0.6-0.5,0.8-0.9c0.5,0,0.4-0.2,0.9,0.1c0.4,0.2,0.5,0.3,1.1,0c0-0.1,0-0.1,0-0.2c0,0,0-0.1,0-0.1c0.1-0.2,0.3-0.3,0.5-0.5
	c0.1,0.1,0.2,0.1,0.2,0.2c0,0,0.1,0,0.1,0.1c0,0,0.1,0,0.1,0.1c0,0,0,0,0,0c0.2,0.1,0.3,0.1,0.5,0c0.1,0,0.3-0.1,0.5-0.2l0-0.6
	l0-0.2c0.1,0,0.1,0,0.1-0.1l0.5-0.8c4.4,4.9,7.7,11.4,8.7,13.6c0,0,0,0,0,0c0.1,0.2,0.2,0.4,0.3,0.6c0,0,0,0,0,0.1c0,0,0,0,0,0
	c-0.4,0.4-3.2,1.7-3.7,1.9c-6.2,1.7-6.6-1.2-10.1-1.7c-2.7-0.4-2.8-0.7-5.3-1.4c-0.3-0.1-0.9-0.2-1.5-0.3h0.8
	c-0.3,0-0.6-0.1-0.9-0.1v0.1c-0.4-0.1-0.8-0.1-1.3-0.2c-0.1,0-0.2,0-0.2,0c-1.5-0.2-3.2,0.2-3.2,0.2c0.9,1.2,2.5,1.9,3.7,2.5
	c0.3,0.1,0.5,0.3,0.8,0.5l2.4,1.2c1.6,0.7,3.2,1.5,4.9,2c0.8,0.2,1.7,0.6,2.5,0.8c1.8,0.4,3.3,0.8,5.2,0.7c2.4-0.1,3.8,0.3,6.8,0
	c0.1,0,0.1,0,0.2,0l0.3,0c1.4,2,3.2,5.1,4.3,7.4c2.5,5.3,1.3,5.6,1.6,7c2.1-0.5,4.3-2.4,4.6,3.3c0.1,2.7-0.6,5.4-0.6,6.9
	c0.4,0.3,0.9,0.5,1.4,0.9c0.7-0.6,0.8-1.3,0.9-2c0.2-0.7,0.5-1.4,0.8-2c-1.3-2.3-1.2-1.2-1.4-4c-0.1-1.2,0.2-2.4,0.3-3.5
	c1.7-1.1,2.3-1.5,3.9,0c1.1,0.9,2.2,1.7,3.5,1.3c0.8-0.2,1.5-0.7,2.2-1.1c1-0.6,1.4-0.7,1.8-1.5c0.5-1,0-0.9,1.3-1.3
	c0.7-0.3,1.6-0.5,2.2-0.9l-0.2-1.6c-0.6-0.3-1-0.3-1.7-0.4c-0.6,0.4-0.8,0.8-1.6,1.1c-0.8,0.3-0.9,0-1.5,0c-1.2-0.1-1.5,1.6-2.4,2.3
	c-1,0-2.9-0.9-3.9-2c-0.8-0.9-2.7-3.5-3-4.7l0.3-0.2c1.9,0.8,1.5-1.4,2.8-1.2c0.6,0.1,2.2,0.9,2.8,1.5c0,0.6-0.4,0.7,0.2,1.5
	c0.6-0.2,1.5-1.7,2-2.3c0.7-0.8,1.1-1.9,1.6-2.5c1.6,0.8,3.8-0.5,5.8-1.6c0.9-0.5,7-3.9,7.8-3.9c1.1,0.1,2.1,0.7,3.1,0.9
	c0.3,0.1,0.4,0.1,0.6,0.2c0.8,0.2,1.7,0.4,2.6,0.6c0.9,0.2,1.7,0.3,2.6,0.4c1.7,0.3,5.5,0.8,5.6,1.1c0.1,0,0.1,0.3,0.1,0.6
	c0,0.3,0.5,1,0.6,1.1c0.6,0.4,0.3,0.6,0.8,1.3c0.2,0.1,0.3,0.1,0.4,0.1c-0.1,0-0.2,0.2,0.1,0.6c0.2,0.3,0.5,0.9,0.8,1.3
	c0.2,0.2,0.8,0.5,1,0.6c0.6,0.4,1.2,1.4,1.4,1.5c0.4,0.1,2.5,3.1,3,3.5c0.3,0.2,0.4,0.4,0.6,0.6c0.3,0.3,0.7,0.5,1.1,0.7
	c0.5,0.3,0.8,2,1.3,2.1c0.3,0.1,1.5,1.4,1.8,1.6c1.6,0.8,4.8,3.2,4.5,5.2c0,0.3,0.4,1.2,0.5,1.6c0,0.3,0.1,1,0.2,2
	c0,0.1,0,0.1,0,0.2c0,0,0,0,0,0c0.1,0.5,0,0.9-0.2,1.3c0,0.1-0.1,0.1-0.1,0.2c-0.3,0.5-0.7,0.8-0.7,0.9c0,0,0,0,0,0
	c-0.2,0.2-0.4,0.2-0.4,0.3c0,0.1-0.1,0.1-0.2,0.1c0,0-0.1,0-0.1,0l0-0.1l-0.9-0.6v0l-0.4-0.2h0l-5-3.1c0,0,0,0,0,0c0,0,0,0,0,0
	c-0.9,0.1-1.6,0.3-2.1,0.6v0c-1.8,1-1.9,2.7-1.5,4.2c0,0,0,0,0,0c0.1,0.3,0.2,0.5,0.2,0.8c0.1,0.4,0.3,0.8,0.5,1.1c0,0,0,0,0,0
	c0.3,0.6,0.5,0.9,0.5,0.9c0.2-0.1,0.5-0.2,0.7-0.3h0c4.2-1.5,4,5.5,1.7,5.2c-1.1-0.2-1.9,0.1-2.3,0.5c-0.5,0.4-0.7,0.9-0.7,1
	c0,0,0,0,0,0c-0.1-0.1-0.2-0.1-0.3-0.2c0,0,0,0,0,0c-0.7-0.2-2.2-0.9-3-1c0,0,0,0,0,0c-0.6,0-1.2,0.1-1.6,0.4
	c-0.8,0.4-1.1,1.1-1.4,1.2c0,0,0,0,0,0c3.3,1,7.7,5.3,9.3,6.9c1.5,1.5,4.6,2.1,5,2.2c0,0,0,0,0,0s7.2,0.9,9.9-4.3c0,0,0,0,0,0
	c0.1-0.2,0.2-0.4,0.3-0.7c0.5-1.3,0.8-2.5,1-3.5v0c0-0.3,0-0.8,0.1-1.2v0c0-1.3-0.2-2.4-0.4-3.1c-0.2-0.5-0.4-0.9-0.5-1.2v0
	c-0.1-0.1-0.1-0.2-0.2-0.3h0c0,0,0,0,0-0.1c0,0,0,0,0,0c-0.1-0.4-0.1-0.8,0.1-1c0,0,0-0.1,0.1-0.1c0,0,0,0,0,0c0,0,0,0,0,0
	c0.1-0.1,0.2-0.1,0.3-0.1c0,0,0,0,0,0c0.2-0.1,0.4-0.1,0.7-0.2c1-0.2,2.6-0.1,3.8,0c1.1,0.1,2,0.3,2,0.3c0,0,0,0,0,0
	c1,0.1,2.2,0.2,2.8,0.3l2,0.2c0.2,0,0.1,0,0.3,0.1c1.3,0.2,3.3,0.1,4.3,1.1c1.3,1.4,1.5,6.4,4,9.4c0,0,1.3,1,2.7,2.2
	c0.1,0.1,0.3,0.3,0.4,0.4c1,0.9,1.9,1.9,2.3,2.8c0.3,0.5,0.6,1.3,1,2.1c0.3,0.6,0.6,1.2,0.8,1.8c0.3,0.7,0.6,1.4,0.8,2
	c0.2,0.5,0.3,0.9,0.5,1.3c0.2,0.7,0.3,1.3,0.3,1.7c-0.2,1.2,0.2,10.6-0.7,16.5l0.1,0l-0.1,0l0.1,0c0,0,0,0.1,0,0.1
	c0,0.1,0,0.1,0,0.2l-0.1,0c-0.1,0.4-0.1,0.8-0.2,1.2c0,0,0,0,0,0c-0.3,1.2-0.6,2.1-1,2.7c-2.5,3.4-2.9,3.9-2.2,6.4
	c0.6,2.4,10.1,6.6,12.8,7.3c0,0,0,0,0.1,0l0,0l0.2,0.1l0,0c0,0,1-0.3,1.1-1.3l0-0.1l0,0l0,0l0-0.2l0-0.2c0,0,0,0,0,0
	c-0.2-0.8-0.7-1.7-1.7-2.8c0,0-0.1,0-0.1,0.1c0,0,0,0,0,0c0.3-0.3,2.4-2.9,4.7-3.1c0.1,0,0.2,0,0.3,0h0c0.4-0.2,0.3,0,0.8-0.3
	c0.5-0.3,0.9-0.6,1.4-0.9c0,0,0.1-0.1,0.1-0.1c0.3-0.2,0.4-0.3,0.5-0.5c0,0,0.1-0.1,0.1-0.1l0,0l0.2-0.2c0.2-0.2,0.3-0.4,0.5-0.7
	l0.5-0.8l-0.1,0.1C166.5,211.4,166.6,210.9,166.6,210.8L166.6,210.8z M30.9,106.7C30.9,106.8,30.9,106.8,30.9,106.7
	c-0.1,0-0.1,0.1-0.2,0.1c0,0,0,0-0.1,0c0,0-0.1,0-0.1,0.1c-0.3,0.1-0.6,0.2-0.8,0.2c-0.2-0.2-0.6-0.7-0.7-1c-0.6-1-0.3-2.2,0.1-3.2
	l2.4,3.4C31.2,106.5,31.1,106.6,30.9,106.7z M26.6,89C26.6,89,26.6,89,26.6,89c-0.1,0-0.1-0.1-0.2-0.1c0,0,0,0,0,0
	c-0.2-0.1-0.4-0.3-0.4-0.6c-0.2-0.8,0.2-1,0.2-1s0.5-0.5,1.3,0.1c0.2,0.1,0.4,0.2,0.6,0.3c0.5,0.1,1.2,0.4,1.2,1
	c0,0.6-0.9,0.7-1.4,0.7l0,0l0,0c-0.2,0-0.4,0-0.4,0S27,89.2,26.6,89z M26.8,100.5c-0.4,0.1-1.1-0.6-0.6-1.4
	C26.5,99.5,26.9,100.1,26.8,100.5z M32.6,88.9L32.6,88.9c-1.3-1.9-3.2-3.4-5.6-3.9c-0.3-0.1-0.6-0.1-0.9-0.1c-0.3,0-0.6-0.1-1-0.1
	c-4.8,0-8.7,3.9-8.7,8.7c0,2.7,1.2,5.2,3.2,6.8c0.3,0.3,0.6,0.5,1,0.7c0.3,0.2,0.6,0.4,1,0.5c0.8,0.3,1.6,0.6,2.4,0.7c0,0,0,0,0,0
	l0,0l0.2,0.1c0.3,0,0.6,0,0.9,0c0.5,0,1.1-0.1,1.6-0.1l0,0l0,0l1.6-0.1l0.4,0.5l0,0.1c0,0-1,2.3-0.5,3.9c0.1,0.2,0.2,0.3,0.2,0.5
	c0,0,0,0,0,0c0.1,0.2,0.3,0.4,0.5,0.5l0.2,0.1c0,0-0.1,0-0.1,0c-0.3,0.1-0.6,0.2-0.9,0.3c-0.1,0-0.2,0.1-0.4,0.1
	c-0.4,0.1-0.7,0.2-1.1,0.2l0,0l-0.2,0c-0.2,0-0.4,0.1-0.5,0.1c-0.2,0-0.4,0-0.6,0.1c-0.1,0-0.3,0-0.4,0c-0.1,0-0.2,0-0.3,0
	c-0.6,0-1.1,0-1.6-0.1c-0.1,0-0.2,0-0.2,0l-0.1,0l-0.2,0c-0.4-0.1-0.8-0.1-1.2-0.2c-0.3,0-0.5-0.1-0.8-0.2c-0.1,0-0.2-0.1-0.2-0.1
	l-0.2,0l-0.3-0.1c-0.6-0.2-1.1-0.5-1.7-0.7l-0.3-0.1l-0.2-0.1c0,0,0,0,0,0c-0.2-0.1-0.4-0.2-0.5-0.3c0,0,0,0,0,0
	c-1.3-0.8-2.4-1.9-3.4-3.1c0,0-0.1-0.1-0.1-0.1c-0.1-0.1-0.1-0.2-0.2-0.2c-0.4-0.4-0.6-0.8-0.7-1c-0.4-0.7-0.8-1.4-1.1-2.1
	c0,0,0,0,0,0c-0.1-0.1-0.1-0.3-0.2-0.4l0-0.1l-0.1-0.2l-0.3-0.8l0,0l0,0l0-0.1L11,97.8c0,0,0,0,0,0l-0.4-1.4L10.5,95
	c0-0.3,0-0.5,0-0.8c0,0,0,0,0-0.1c0,0,0,0,0-0.1c0-0.9,0-1.7,0.1-2.6c0,0,0,0,0,0l0-0.2l0-0.1c0.1-0.4,0.1-0.7,0.2-1.1
	c0-0.2,0.1-0.3,0.1-0.5c1.6-6,6.7-10.4,12.9-10.6c5.1-0.2,9.6,2.6,12.2,6.8l0.2,0.2l0,0.1l0,0.1l0.5,0.9
	C36.1,87.5,33.7,88.5,32.6,88.9z M20.3,91.9c0.6,2.8-1.6,2.8-1.6,2.8c0,0,0,0,0,0c0,0,0-0.1,0-0.2c-0.2-0.6-0.7-2.6,0.3-2.9
	C20,91.3,20.3,91.9,20.3,91.9z M20.4,89.2c0,0,0.1-0.2,0.3-0.4c0,0,0,0,0,0c0.6-0.6,1.7-1.8,2.9-1.7c0,0,0.8,0.8,0.4,1.6
	c-0.4,0.8-2.7,1.6-2.7,1.6c-0.3,0.2-0.2,0.2-0.5,0C20.3,90.1,20,89.7,20.4,89.2z M22.2,96.5c0.5-0.1,0.5,0.5,1.5,1.2
	c1,0.7,0.7,2.7,0.7,2.7c-0.9,1.1-1.6,0.1-2.7-0.5c-1.1-0.5-1.3-1.4-1.6-1.8C19.8,97.6,21.7,96.6,22.2,96.5z M33.8,92.8
	c0.2,0,0.3-0.1,0.5-0.1c0.1,0,0.1,0,0.1,0c0,0,0,0,0,0l-0.2,1.5c-0.1,0-0.3,0.1-0.4,0.1c0-0.3,0-0.5,0-0.8
	C33.9,93.3,33.9,93.1,33.8,92.8z M38.2,95.6c-0.2,2.5-1,4.4-1.7,5.6l0,0c0,0,0,0,0,0c-0.4,0.7-0.7,1.1-0.7,1.1s-1.3-1.1-1-1.7
	c-0.1-0.2-0.1-0.4-0.3-0.6c-0.2-0.2-0.3-0.3-0.5-0.6c0,0,0,0,0,0s0,0,0,0c0.1-0.1,2.4-2.2,2.1-2.7c-0.4-0.6,0-3.5,0.6-4.4
	c0.7-0.9,1.4-0.5,1.4-0.5s0.3-0.2,0.2,2.4v0C38.3,94.7,38.3,95.4,38.2,95.6z M104.6,95.9C104.7,95.9,104.7,95.9,104.6,95.9
	c0.3,0.4,0.6,0.8,0.9,1.1c0.2,0.2,0.3,0.4,0.5,0.5c0,0,0.1,0.1,0.1,0.1c0.1,0.1,0.3,0.2,0.4,0.4c0,0,0.1,0,0.1,0.1
	c0.3,0.2,0.6,0.4,0.8,0.6c0.1,0,0.2,0.1,0.2,0.1c0.2,0.1,0.4,0.2,0.6,0.3c0.7,0.3,1.5,0.6,2.3,0.7c0.4,0.1,0.8,0.1,1.2,0.1
	c0.1,0,0.2,0,0.3,0h0.1c1.3,0,2.5-0.3,3.6-0.8c0,0,0,0,0,0c0,0,0,0,0,0c2.7-1.2,4.6-3.6,5.2-6.4c0,0,0,0,0,0c0.1-0.5,0.1-1,0.1-1.5
	v-0.1c0,0,0-0.1,0-0.1c0-0.7-0.1-1.5-0.3-2.2c-0.1-0.4-0.3-0.9-0.5-1.3c-0.3-0.6-0.6-1.2-1-1.7c-0.1-0.1-0.1-0.2-0.2-0.2
	c-0.1-0.1-0.1-0.2-0.2-0.3c0,0,0,0,0,0l0,0c-0.5-0.5-1-1-1.6-1.4c-0.3-0.2-0.7-0.4-1.1-0.6c-0.4-0.2-0.9-0.4-1.4-0.6
	c-0.2-0.1-0.4-0.1-0.6-0.2c-0.1,0-0.2,0-0.2-0.1c-0.2,0-0.4-0.1-0.6-0.1c-0.2,0-0.4,0-0.6-0.1c-0.2,0-0.5,0-0.7,0
	c-0.1,0-0.2,0-0.4,0c-0.1,0-0.2,0-0.3,0c-0.5,0-1,0.1-1.4,0.2c-0.1,0-0.2,0-0.2,0.1c0,0,0,0,0,0c0,0,0,0,0,0
	c-0.1-0.1-0.2-0.2-0.3-0.3c0,0-0.1-0.1-0.1-0.1c-1-1.1-2.7-3.3-3.8-5.2c2-1,4.2-1.6,6.5-1.6c8,0,14.5,6.6,14.8,15c0,0,0,0,0,0
	c0,0,0,0.1,0,0.1c0,0,0,0,0,0c0,0.2,0,0.3,0,0.5c0,0.2,0,0.4,0,0.6c0,0.2,0,0.5,0,0.6c0,0.2,0,0.5-0.1,0.7c-0.2,1.6-0.6,3.2-1.2,4.6
	c-0.1,0.3-0.1,0.6-0.4,0.9c-0.1,0.1-0.1,0.2-0.2,0.4c0,0,0.1,0.1,0.1,0.1c-0.3,0.4-0.9,1.5-1.4,1.9c-0.1,0.1-0.2,0.3-0.3,0.4
	c0,0,0,0,0,0c-0.3,0.4-0.6,1-1.2,1.3c-0.1,0.1-0.2,0.2-0.3,0.2c0,0,0,0.1,0,0.1l-1.9,1.4c0,0,0,0,0,0c-0.5,0.3-1,0.6-1.5,0.9
	l-0.8,0.5c0,0,0,0-0.1-0.1c-0.1,0-0.2,0.1-0.3,0.1c0,0,0,0,0,0.1c-0.3,0.1-1.7,0.6-2.3,0.6c-0.3,0.1-0.6,0.1-0.9,0.2
	c-0.3,0.1-0.6,0.1-0.9,0.1c-0.3,0-0.7,0.1-1,0.1c0,0,0,0,0,0c-0.3,0.1-1,0-1.6,0c-1.4-0.1-2.8-0.5-4.1-1c-0.5-0.1-1.1-0.4-1.5-0.7
	c-0.2-0.1-0.3-0.2-0.5-0.3c0,0,0,0.1-0.1,0.1c-0.4-0.3-0.8-0.6-1.2-0.9c0,0,0,0,0,0c-0.4-0.3-0.7-0.5-1-0.8c-0.5-0.2-1-0.8-1.3-1.3
	c-0.4-0.5-0.8-1-1.2-1.5c-0.3-0.1-0.5-0.3-0.5-0.8c-0.1-0.1-0.1-0.2-0.2-0.4c-0.3-0.2-0.4-0.7-0.6-1.1c0-0.1-0.1-0.1-0.1-0.2
	c0,0,0,0,0,0c1-0.3,2.4-0.7,3.6-1.1c0.3-0.1,0.6-0.2,0.8-0.3C103.9,96.1,104.3,96,104.6,95.9z M111.3,96.2c0.2,0.1-0.2,1.3-0.5,1.5
	c-0.3,0.2-0.9-0.4-1.1-0.6c-0.2-0.2-0.3,0.1-0.7-0.2c-0.4-0.3-0.4-0.8-0.4-0.8s0.5-0.8,0.9-0.9c0.4,0,0.6,0.7,0.7,0.7
	C110.4,95.9,111.2,96.1,111.3,96.2z M111,84.9c0.4-0.3,0.7-0.1,0.9,0c0.1,0.4,0,0.4,0,0.7c-0.2,0.1-0.4,0.1-0.6,0.1
	C111.1,85.4,111,85.1,111,84.9z M119.9,91.9c0,0.2,0,0.4,0,0.6c0.1,1.3-1.5,1.6-1.7,1.4c-0.2-0.3-0.8-0.8-1.2-1
	c-0.4-0.2-0.4-0.7-0.2-0.9c0.2-0.2,0.3-0.5,0.1-1.2c-0.2-0.8,1-1.3,1-1.3c0.4-0.4,0.5-0.1,1-0.5c0.5-0.4,1.4,1.6,1.2,1.9
	c-0.1,0.3-0.2,0.3-0.2,0.8C119.9,91.7,119.9,91.8,119.9,91.9z M118.1,96.2c-0.1,0.3-0.7,0.2-0.8,0.5c0,0.3-2.3,1.6-2.8,1.4
	c-0.5-0.1-0.7-1.6-0.7-1.6c0.1-0.3,0.9-0.3,1.3-0.4c0.5-0.1,1-0.8,1.3-0.9c0.4-0.2,0.6,0.6,0.7,0.5
	C117.3,95.6,118.3,95.9,118.1,96.2z M117.1,87.9c-0.2,0.2-0.4,0-0.4,0s-1.3-1.3-1.5-1.4c-0.2-0.1-1.3-0.5-1.5-0.8
	c-0.3-0.3,0.8-1.3,0.8-1.3s0,0.1,0.1,0.1c0,0,0,0,0,0c0,0,0.1,0.1,0.1,0.1c0.2,0.1,0.4,0.3,0.7,0.2c0.5-0.2,2.1,1.3,2.3,1.5
	C117.8,86.5,117.3,87.7,117.1,87.9z M101.4,80.7c0,0.1,0,0.1,0,0.2c0,0,0,0,0,0c0.1,0.2,2.8,3.3,1.3,4.6c-0.1,0.1-0.2,0.2-0.3,0.3
	c-0.1,0.2-0.1,0.3,0,0.4c0.1,0.4,0.7,0.8,1.3,1c0.2,0.1,0.3,0.1,0.5,0.2c-0.2,0.3-0.3,0.7-0.4,1c0,0.1-0.1,0.2-0.1,0.3
	c-0.2,0.7-0.3,1.5-0.3,2.4c0,0.1,0,0.2,0,0.3c0,0-0.1,0-0.1,0.1c-0.8,0.3-1.8,0.5-2.8,0.6c-1.1,0.2-2.1,0.2-2.7,0.3c0,0-0.1,0-0.1,0
	c0-0.1,0-0.1,0-0.2c0-0.1-0.1-0.2-0.1-0.4c0,0,0-0.1,0.1-0.1c0-0.2,0-0.4,0-0.6c0-0.2,0-0.5,0-0.7c0-0.3,0-0.7,0.1-1c0,0,0,0,0,0
	c0.2-1.7,0.6-3.3,1.2-4.8C99.5,83.3,100.4,81.9,101.4,80.7z M87.2,41.7c0.2-1.1,0.5,0.1,0.7-0.1c0.5-0.4,0.2,0,0.4,0.2
	c0.2,0.2,0.5,1.1,0.5,1.2c0.1,0.1,0.5,1.2,0.5,1.2c0,0.3,0.4,1,0.4,1.1c0,0.3,0.4,1,0.4,1.1c0.2,0.7,0.2,0.6,0.5,1.3
	c0,0.4,0.6,1.3,0.6,1.8c0.1,0.9,0.7,1.9,0.7,2c0,0.4,0.3,1.1,0.3,1.2c0,0.9,0.4,1,0.4,1.2c0,1.3,0.1,0.1-0.5,0.1
	c-0.2,0-0.6-0.9-0.6-0.9c-0.1-0.4-0.9-1.9-1.2-2.3c-0.4-0.5-0.6-1.7-1-1.7c0-0.2-1.4-1.7-1.2-2.5c0.1-0.5-0.3-0.7-0.7-0.4
	c-0.3,0.2-0.3-0.2-0.4-0.4c-0.1-0.1-0.1-0.2-0.1-0.3C87.2,44.1,87,42.9,87.2,41.7z M56.5,45.4c0.1-0.1,0.1-1.4,0.3-2.2
	c0.1-0.3,0.3-2.2,0.5-3c0.1-0.4,0.1-1.7,0.1-2.2c0.3-0.2,0.5-1.5,0.7-1.9c1.5-2.7,1.4,0.1,2.9,0.7c0.6,0.2,0.6,0.7,1.9,0.9
	c1.6,0.3,5.2,2.3,6.1,2.4c1,0.1,2.4,0.4,4,0.1c0.3,0,4.8-0.8,5.5-0.8c0.3,0,0.3,0.4,0.8,0.4c0,0,0.1,0,0.1,0c0,0.3,0.1,0.5,0.1,0.7
	c0,0,0,0,0,0c0,0.1,0,0.1,0,0.2c0,0.1,0.1,1.3,0,1.4c-0.2,0.1-0.4,0.1-0.4,0.2c-0.1,1.1,0.6,0.2,0.1,1.1c-0.6,1.2-0.4,0.8-0.8,2.1
	c-0.2,0.6-0.5,2.2,0.5,2.2c0.6,0,0.5-0.5,0.7-0.9c0.3-0.4,0.4-2.6,0.7-2.7c0,0,0.8-0.1,0.8,0.1c0,1,0.8,1.4,0.9,2
	c0,0.1,0.1,0.1,0.1,0.1c0.1,0.5,1.3,2.1,0.8,2.3c-0.9,0.3-0.4,1.7,0.1,1.2c0.5-0.4,1.5,0.3,1.1,0.9c-0.4,0.5-1.3-0.6-1.9-0.2
	c-0.5,0.3-1.6,1-2.2,1.2c0,0-1.6,1-1.8,1.1c-0.4,0.2-0.6,0.4-1,0.5c-0.4,0.1-0.6,0.8-1,1c-0.3,0.1-1.4,1.3-1.7,1.6
	c-0.2,0.2-1,0.8-1.1,1.1c0,0.1-0.2,0.1-0.3,0.1c-0.2,0.5-1.9,1.4-1.9,1.6c0,0.6-0.4,0.9-0.4,0.3c0-0.2,0-0.3,0-0.4l0,0
	c0,0-1.4-2.5-1.3-2.5c0,0-0.1-0.1-0.1-0.1c-0.3-0.4-0.9-0.7-1.3-1.1c-0.1,0-1.6-0.4-1.6-0.5c-0.3-0.4-0.3-0.3-0.6-0.9
	c-0.1-0.3-1.1-0.6-1.4-0.6c-1,0-2,0-2.9-0.5c-0.2-0.1-0.7-0.2-1-0.4c-0.2-0.2-1.1-0.4-1.4-0.3c-0.5-0.3-0.8-0.8-1.2-1.3l0-0.1
	c-0.4-1.4-1.3-0.9-1.4-1.6c0-0.6-0.5,0-0.5-2C56.3,46.2,56.1,45.9,56.5,45.4z M84.4,91.9c-0.3,0.6-0.2,1.7-0.7,2.2
	c-0.6,0.5-1.8,0-2.2-0.2c-0.3-0.1-0.7-0.4-1-0.5c-0.4-0.1-0.7,0-1.2-0.1L73.6,93c-1.5-0.1-1.8-0.1-3.5-0.1c-2.1,0.1-5.2,0-7.2,0.8
	c-2.5,1-2.8,3.1-4.4,3c-1.4-0.1-1.4-1.5-2.3-1.4c-1.3,0.2-2.4,2-2.6,3.2c-0.1,0.7,0.2,0.9,0.3,1.6c0.3,2.4-1.5,3.1-0.2,6
	c-0.4,0.9-0.9,0.8-1.5,3.6l-0.7,2.8c-0.1,0.3-0.1,0.6-0.2,0.9l-1,2.7c-0.1,0.4-0.1,0.6-0.2,0.9c-0.3,0.9-1.3,2.5-2.3,3.3
	c-0.7-0.9-1.4-2-2-2.9c-0.7-1.1-1.3-2-2-2.9c-0.8-1.1-1.4-2.1-1.9-3.3c-1-2.3-0.8-1.1-1.6-1.7c-0.2-0.2-0.4-0.4-0.6-0.7
	c0.2-0.3,0.1-0.3,0.1-0.6c0-0.1,0-0.1,0-0.2c0-0.3,0.2-0.6,0.5-0.7c0.2,0.1,0.2,0.1,0.5,0.2c0.1-0.1,0.1-0.1,0.2-0.2
	c0,0,0.1-0.1,0.1-0.1c0.1-0.2,0.2-0.3,0.2-0.5c0,0,0,0,0-0.1c0,0,0-0.1,0-0.1c0,0,0-0.1,0-0.1c0,0,0,0,0,0c0-0.1-0.1-0.2-0.1-0.3
	l0.4-0.6l0.6,0l0.4-0.7l-0.4-0.5l0.4-0.7l0.7-0.1l0.4-0.6l-0.5-0.6c0.1-0.7,0.6-0.7,0.9-0.8l0.2-0.6c-0.4-1-0.5-1,0.4-1.5
	c0-0.3,0.1-0.5,0.2-0.8C44.4,98.2,44,98,44,97.6c0.3-0.3,0.5-0.2,0.9-0.4l0-0.9l-0.6-0.4l0-0.6L45,95l0-1l-0.6-0.4l0.5-0.3
	c-0.2-0.4-0.1-0.8-0.1-1.2c-0.2-0.4-0.5,0.3-0.5-0.3c0.6-0.7,2.2-2.7,3.3-2.1c0.8,0.4,1.1,0.3,1.8,1c1,0.5,1.6,1.3,2.6,1.8
	c1.3,0.5,1.5,0.6,2.8,1.3c0.3,0.2,3,0.5,3.3,0.4c0.5-0.3,2.2-0.2,2.5-0.8c0.5-1.1-0.1-1.5,0.6-2c0.1,0,0.3-0.4,0.4-0.5
	c0.7-1.1,1.3-2.1,2.2-3c0.9-1,1.8-2.6,2.7-3.8c0.5-0.7,1.1-1.7,1.5-2.3c0.1,0.2,0.6-0.6,0.6-0.6c0.1-0.6,1.6-1.8,1.7-2.3
	c0-0.1,0.6-0.9,0.7-1c0.3-0.3,0.8-1.2,0.9-1.3c0.5-0.4,1.3-2.2,1.7-2.6c0.4-0.4,0.7-1,1-1.3c0.6-0.7,0.7-1.6,0.9-1.8
	c0,0.3,0.4-2.3,0.6-2.6c0.5-0.8,0.4-1.8,0.6-2.2l0.4-1.7c0-0.1,0-0.1,0-0.2c0,0,0,0,0,0c0.1,0,0.2-0.1,0.2-0.1
	c0.9-0.3,1.8-1.3,2.1-1.4c0.7-0.3,4.9-2.6,5.3-3c0.7-0.7,2.1-1.2,2.8-1.9c1-1.1,1.1-0.2,0.8-0.1c-0.6,0.2,0.2,0.9,0.3,0.8
	c0.6,0,0.7,0.4,0.7,0.3c0,0.3,0.3,0.9,0.5,1.2c0.2,0.3,0.6,0.2,1,0.1c0.3,0,0.7,1.2,0.9,1.4c0.4,0.5,0.4,0.6,0.7,1
	c0.5,0.6,0.1,0.4,0.6,1.1c0.1,0.6,1.8,3.1,1.8,3.3c0.1,0.6,1.9,3.4,1.9,3.4c0,0.3,0.5,1.2,0.5,1.3c0.1,0,0.8,1.1,0.8,1.4
	c0.1,0,0.3,0.6,0.3,0.6c0.1,0.1,0.3,0.6,0.4,0.8c-0.1,0.3-0.3,0.4-0.4,0.8l0.3,0.4l-0.6,0.6l-0.5-0.3c-0.4,0.2-0.5,0.4-0.7,0.7
	l0.2,0.6c-0.1,0.2-0.3,0.4-0.5,0.6l-0.5-0.2c-0.5,0.5-0.4,1-0.3,1.7c-0.5,0.3-0.6,0.1-0.9,0.3c-0.2,0.1-0.4,0.4-0.5,0.6l0.4,0.7
	l-0.4,0.7c-0.2-0.1-0.4-0.1-0.6,0c-0.2,0.2-0.3,0.5-0.3,0.8c0.7,0.8,0.2,0.9-0.6,1.3l-0.1,0.3c-0.3,0.9,0.5,0.3,0.1,1.6
	c-0.3,0.1-0.4,0-0.7,0.3l-0.1,0.6c0.8,1.1,0.4,0.1,0.5,1.2c-0.1,0-0.1,0-0.2,0.1c0,0-0.1,0-0.1,0c0,0-0.1,0-0.1,0.1
	c-0.1,0-0.1,0.1-0.2,0.1c0,0,0,0,0,0c-0.1,0.1-0.1,0.1-0.1,0.2c0,0,0,0,0,0.1c0,0,0,0,0,0.1c0,0.1,0,0.1,0,0.2
	c0.1,0.4,0.4,0.4,0.6,0.6l0,0.6l-0.2,0.1l-0.5,0.2c0.3,0.9,0.1,1.1-0.7,1.6c-0.4-0.4-0.4-0.6-0.9-0.9c-0.3-0.1-0.8-0.5-1-0.5
	c-0.8-0.2-1,1.1-2.3,0.9C86,91.4,84.8,90.9,84.4,91.9z M165.8,212.5C165.8,212.5,165.8,212.5,165.8,212.5L165.8,212.5L165.8,212.5z"
	/>
</svg>
