<?xml version="1.0" encoding="utf-8"?>
<!-- Generator: Adobe Illustrator 25.2.1, SVG Export Plug-In . SVG Version: 6.00 Build 0)  -->
<svg version="1.1" id="Vrstva_1" xmlns="http://www.w3.org/2000/svg" xmlns:xlink="http://www.w3.org/1999/xlink" x="0px" y="0px"
	 viewBox="0 0 27.9 24.6" style="enable-background:new 0 0 27.9 24.6;" xml:space="preserve">
<style type="text/css">
	.st0{fill:#FFFFFF;}
</style>
<path class="st0" d="M25.3,5.2H2.6C1.2,5.2,0,4,0,2.6v0C0,1.2,1.2,0,2.6,0h22.7c1.4,0,2.6,1.2,2.6,2.6v0C27.9,4,26.8,5.2,25.3,5.2z"
	/>
<path class="st0" d="M25.3,14.9h-17c-1.4,0-2.6-1.2-2.6-2.6v0c0-1.4,1.2-2.6,2.6-2.6h17c1.4,0,2.6,1.2,2.6,2.6v0
	C27.9,13.7,26.8,14.9,25.3,14.9z"/>
<path class="st0" d="M25.3,24.6H2.6C1.2,24.6,0,23.4,0,22v0c0-1.4,1.2-2.6,2.6-2.6h22.7c1.4,0,2.6,1.2,2.6,2.6v0
	C27.9,23.4,26.8,24.6,25.3,24.6z"/>
</svg>
